# Blender v2.82 (sub 7) OBJ File: ''
# www.blender.org
mtllib fence2.mtl
o fence2
v -1.439530 0.556395 0.017992
v -1.871395 0.538404 0.017992
v -1.871395 0.682338 0.017992
v -1.528445 0.659495 0.017992
v -1.871395 0.682338 0.053976
v -1.871395 0.538404 0.053976
v -1.439530 0.556395 0.053976
v -1.528445 0.659495 0.053976
v -0.071967 0.682338 0.053976
v -0.071967 0.682338 0.017992
v -0.218849 0.671285 0.017992
v -0.218849 0.671285 0.053976
v -0.731033 0.538404 0.017992
v -0.698242 0.695663 0.017992
v -0.568062 0.682338 0.017992
v -0.563273 0.553755 0.017992
v -0.698242 0.695663 0.053976
v -0.731033 0.538404 0.053976
v -0.563273 0.553755 0.053976
v -0.568062 0.682338 0.053976
v -0.936618 0.682338 0.017992
v -0.936618 0.682338 0.053976
v -0.191954 0.551667 0.017992
v -0.191954 0.551667 0.053976
v -1.007665 0.574387 0.017992
v -1.007665 0.574387 0.053976
v -0.071967 0.538404 0.017992
v -0.071967 0.538404 0.053976
v -0.503832 0.125943 0.053975
v -0.071967 0.107951 0.053975
v -0.071967 0.251947 0.053975
v -0.414917 0.229104 0.053975
v -0.071967 0.251947 0.017992
v -0.071967 0.107951 0.017992
v -0.503832 0.125943 0.017992
v -0.414917 0.229104 0.017992
v -1.871395 0.251947 0.017992
v -1.871395 0.251947 0.053975
v -1.724513 0.240832 0.053975
v -1.724513 0.240832 0.017992
v -1.212329 0.107951 0.053975
v -1.245120 0.265272 0.053975
v -1.375300 0.251947 0.053975
v -1.380089 0.123302 0.053975
v -1.245120 0.265272 0.017992
v -1.212329 0.107951 0.017992
v -1.380089 0.123302 0.017992
v -1.375300 0.251947 0.017992
v -1.006744 0.251947 0.053975
v -1.006744 0.251947 0.017992
v -1.751408 0.121214 0.053975
v -1.751408 0.121215 0.017992
v -0.935697 0.143935 0.053975
v -0.935697 0.143935 0.017992
v -1.871395 0.107951 0.053975
v -1.871395 0.107951 0.017992
v -1.740110 0.041817 0.017992
v -1.560192 0.039484 0.017992
v -1.550674 0.759156 0.017992
v -1.730592 0.761551 0.017992
v -1.550674 0.759156 -0.017992
v -1.560192 0.039484 -0.017992
v -1.740110 0.041817 -0.017992
v -1.730592 0.761551 -0.017992
v -1.621229 0.868028 -0.017992
v -1.657212 0.868520 -0.017992
v -1.657212 0.868520 0.017992
v -1.621229 0.868028 0.017992
v -1.539314 0.039177 0.017992
v -1.359395 0.036782 0.017992
v -1.349877 0.756516 0.017992
v -1.529796 0.758849 0.017992
v -1.349877 0.756516 -0.017992
v -1.359395 0.036782 -0.017992
v -1.539314 0.039177 -0.017992
v -1.529796 0.758849 -0.017992
v -1.420433 0.865388 -0.017992
v -1.456416 0.865879 -0.017992
v -1.456416 0.865879 0.017992
v -1.420433 0.865388 0.017992
v -1.309780 0.012404 0.017992
v -1.129862 0.016027 0.017992
v -1.144230 0.735638 0.017992
v -1.324087 0.732015 0.017992
v -1.144230 0.735638 -0.017992
v -1.129862 0.016027 -0.017992
v -1.309780 0.012404 -0.017992
v -1.324087 0.732015 -0.017992
v -1.218347 0.842115 -0.017992
v -1.254331 0.841440 -0.017992
v -1.254331 0.841440 0.017992
v -1.218347 0.842115 0.017992
v -1.115124 0.034817 0.017992
v -0.935145 0.036045 0.017992
v -0.940057 0.755779 0.017992
v -1.120037 0.754551 0.017992
v -0.940057 0.755779 -0.017992
v -0.935145 0.036045 -0.017992
v -1.115124 0.034817 -0.017992
v -1.120037 0.754551 -0.017992
v -1.012761 0.863239 -0.017992
v -1.048745 0.862993 -0.017992
v -1.048745 0.862993 0.017992
v -1.012761 0.863239 0.017992
v -0.907389 0.026466 0.017992
v -0.727533 0.029659 0.017992
v -0.740121 0.749270 0.017992
v -0.920039 0.746139 0.017992
v -0.740121 0.749270 -0.017992
v -0.727533 0.029659 -0.017992
v -0.907389 0.026466 -0.017992
v -0.920039 0.746139 -0.017992
v -0.813992 0.855993 -0.017992
v -0.849975 0.855379 -0.017992
v -0.849975 0.855379 0.017992
v -0.813992 0.855993 0.017992
v -0.688724 0.032791 0.017992
v -0.508929 0.039422 0.017992
v -0.535579 0.758665 0.017992
v -0.715374 0.752033 0.017992
v -0.535579 0.758665 -0.017992
v -0.508929 0.039422 -0.017992
v -0.688724 0.032791 -0.017992
v -0.715374 0.752033 -0.017992
v -0.611476 0.863914 -0.017992
v -0.647460 0.862563 -0.017992
v -0.647460 0.862563 0.017992
v -0.611476 0.863914 0.017992
v -0.491428 0.035984 0.017992
v -0.311510 0.035984 0.017992
v -0.311510 0.755779 0.017992
v -0.491428 0.755779 0.017992
v -0.311510 0.755779 -0.017992
v -0.311510 0.035984 -0.017992
v -0.491428 0.035984 -0.017992
v -0.491428 0.755779 -0.017992
v -0.383477 0.863730 -0.017992
v -0.419461 0.863730 -0.017992
v -0.419461 0.863730 0.017992
v -0.383477 0.863730 0.017992
v -0.287930 0.035984 0.017992
v -0.107951 0.035984 0.017992
v -0.107951 0.755779 0.017992
v -0.287930 0.755779 0.017992
v -0.107951 0.755779 -0.017992
v -0.107951 0.035984 -0.017992
v -0.287930 0.035984 -0.017992
v -0.287930 0.755779 -0.017992
v -0.179918 0.863730 -0.017992
v -0.215902 0.863730 -0.017992
v -0.215902 0.863730 0.017992
v -0.179918 0.863730 0.017992
v 0.107951 0.000000 -0.061160
v 0.107951 -0.000000 0.061160
v 0.079152 -0.000000 0.089959
v -0.043168 -0.000000 0.089959
v -0.071967 -0.000000 0.061160
v -0.071967 0.000000 -0.061160
v -0.043168 0.000000 -0.089959
v 0.079152 0.000000 -0.089959
v -0.035984 0.935697 0.053976
v 0.071967 0.935697 0.053976
v 0.071967 0.935697 -0.053975
v -0.035984 0.935697 -0.053975
v -0.043168 0.899714 -0.089959
v 0.079152 0.899714 -0.089959
v -0.071967 0.899714 0.061160
v -0.071967 0.899714 -0.061160
v 0.079152 0.899714 0.089959
v -0.043168 0.899714 0.089959
v 0.107951 0.899714 -0.061160
v 0.107951 0.899714 0.061160
vt 0.511800 0.112700
vt 0.672800 0.106000
vt 0.672800 0.159700
vt 0.545000 0.151200
vt 0.002000 0.301300
vt 0.002000 0.247700
vt 0.163000 0.254400
vt 0.129800 0.292800
vt 0.994400 0.828500
vt 0.994400 0.841900
vt 0.833200 0.841900
vt 0.833200 0.828500
vt 0.322800 0.867500
vt 0.322800 0.854100
vt 0.377600 0.854100
vt 0.377600 0.867500
vt 0.247700 0.106000
vt 0.235500 0.164600
vt 0.186900 0.159700
vt 0.185200 0.111700
vt 0.439300 0.306300
vt 0.427100 0.247700
vt 0.489600 0.253400
vt 0.487900 0.301300
vt 0.568800 0.828500
vt 0.568800 0.841900
vt 0.506200 0.841900
vt 0.506200 0.828500
vt 0.556400 0.867500
vt 0.556400 0.854100
vt 0.645400 0.854100
vt 0.645400 0.867500
vt 0.507800 0.867500
vt 0.507800 0.854100
vt 0.056700 0.155500
vt 0.046700 0.110900
vt 0.618100 0.297200
vt 0.628100 0.252600
vt 0.367600 0.841900
vt 0.367600 0.828500
vt 0.350800 0.119400
vt 0.324300 0.159700
vt 0.350500 0.301300
vt 0.324000 0.261100
vt 0.672000 0.828500
vt 0.672000 0.841900
vt 0.866200 0.854100
vt 0.866200 0.867500
vt 0.994100 0.854100
vt 0.994100 0.867500
vt 0.002000 0.159700
vt 0.002000 0.106000
vt 0.672800 0.301300
vt 0.672800 0.247700
vt 0.322800 0.841900
vt 0.322800 0.828500
vt 0.511800 0.325200
vt 0.672800 0.318500
vt 0.672800 0.372200
vt 0.545000 0.363700
vt 0.002000 0.230500
vt 0.002000 0.176800
vt 0.163000 0.183500
vt 0.129800 0.222000
vt 0.322800 0.816300
vt 0.322800 0.802800
vt 0.484000 0.802800
vt 0.484000 0.816300
vt 0.994100 0.879700
vt 0.994100 0.893200
vt 0.939300 0.893200
vt 0.939300 0.879700
vt 0.247700 0.318500
vt 0.235500 0.377200
vt 0.186900 0.372200
vt 0.185200 0.324200
vt 0.439300 0.235500
vt 0.427100 0.176800
vt 0.489600 0.182600
vt 0.487900 0.230500
vt 0.748400 0.816300
vt 0.748400 0.802800
vt 0.811000 0.802800
vt 0.811000 0.816300
vt 0.760400 0.879700
vt 0.760400 0.893200
vt 0.671500 0.893200
vt 0.671500 0.879700
vt 0.809000 0.879700
vt 0.809000 0.893200
vt 0.056700 0.368100
vt 0.046700 0.323500
vt 0.618100 0.226400
vt 0.628100 0.181800
vt 0.949600 0.802800
vt 0.949600 0.816300
vt 0.350800 0.331900
vt 0.324300 0.372200
vt 0.350500 0.230500
vt 0.324000 0.190300
vt 0.645200 0.816300
vt 0.645200 0.802800
vt 0.450700 0.893200
vt 0.450700 0.879700
vt 0.322800 0.893200
vt 0.322800 0.879700
vt 0.002000 0.372200
vt 0.002000 0.318500
vt 0.672800 0.230500
vt 0.672800 0.176800
vt 0.994400 0.802800
vt 0.994400 0.816300
vt 0.953000 0.389400
vt 0.953900 0.456400
vt 0.685600 0.460000
vt 0.684700 0.392900
vt 0.364200 0.473300
vt 0.632500 0.476900
vt 0.631600 0.544000
vt 0.363300 0.540400
vt 0.959400 0.015400
vt 0.892300 0.015400
vt 0.892300 0.002000
vt 0.959400 0.002000
vt 0.956000 0.774500
vt 0.956000 0.788100
vt 0.684100 0.788100
vt 0.684100 0.774500
vt 0.979200 0.473300
vt 0.979200 0.486800
vt 0.965700 0.486800
vt 0.965700 0.473300
vt 0.643600 0.736500
vt 0.643600 0.723000
vt 0.684700 0.723000
vt 0.684700 0.736500
vt 0.645000 0.433700
vt 0.644800 0.420300
vt 0.323400 0.513100
vt 0.323600 0.499600
vt 0.643600 0.788100
vt 0.643600 0.774500
vt 0.956400 0.723000
vt 0.956400 0.736500
vt 0.310200 0.640100
vt 0.311100 0.707200
vt 0.042800 0.710800
vt 0.041900 0.643700
vt 0.042800 0.557300
vt 0.311100 0.560900
vt 0.310200 0.627900
vt 0.041900 0.624400
vt 0.714400 0.970400
vt 0.647300 0.970400
vt 0.647300 0.956900
vt 0.714400 0.956900
vt 0.635200 0.931100
vt 0.635200 0.944700
vt 0.363200 0.944700
vt 0.363200 0.931100
vt 0.978500 0.557300
vt 0.978500 0.570700
vt 0.965100 0.570700
vt 0.965100 0.557300
vt 0.685000 0.332100
vt 0.685000 0.318500
vt 0.726100 0.318500
vt 0.726100 0.332100
vt 0.002200 0.684500
vt 0.002000 0.671100
vt 0.002000 0.597000
vt 0.002200 0.583600
vt 0.322800 0.944700
vt 0.322800 0.931100
vt 0.997800 0.318500
vt 0.997800 0.332100
vt 0.631500 0.389400
vt 0.632600 0.456400
vt 0.364400 0.461100
vt 0.363200 0.394000
vt 0.761100 0.069100
vt 0.492800 0.073900
vt 0.491600 0.006900
vt 0.759800 0.002000
vt 0.794000 0.918800
vt 0.726900 0.918800
vt 0.726900 0.905400
vt 0.794000 0.905400
vt 0.997800 0.176800
vt 0.997800 0.190400
vt 0.726300 0.190400
vt 0.726300 0.176800
vt 0.981600 0.774500
vt 0.981600 0.788000
vt 0.968200 0.788000
vt 0.968200 0.774500
vt 0.322800 0.996300
vt 0.322800 0.982700
vt 0.363000 0.982700
vt 0.363000 0.996300
vt 0.323700 0.435000
vt 0.323400 0.421600
vt 0.800600 0.028100
vt 0.800800 0.041500
vt 0.685000 0.190400
vt 0.685000 0.176800
vt 0.635100 0.982700
vt 0.635100 0.996300
vt 0.953500 0.475200
vt 0.953100 0.542200
vt 0.684800 0.540400
vt 0.685200 0.473300
vt 0.363300 0.559100
vt 0.631700 0.557300
vt 0.632100 0.624400
vt 0.363800 0.626200
vt 0.714500 0.944600
vt 0.647400 0.944600
vt 0.647400 0.931100
vt 0.714500 0.931100
vt 0.635500 0.905400
vt 0.635500 0.918900
vt 0.363700 0.918900
vt 0.363700 0.905400
vt 0.981700 0.748700
vt 0.981700 0.762200
vt 0.968300 0.762200
vt 0.968300 0.748700
vt 0.643600 0.762300
vt 0.643600 0.748700
vt 0.684200 0.748700
vt 0.684200 0.762300
vt 0.644700 0.513300
vt 0.644800 0.499900
vt 0.323400 0.599700
vt 0.323300 0.586300
vt 0.322800 0.918900
vt 0.322800 0.905400
vt 0.956100 0.748700
vt 0.956100 0.762300
vt 0.311200 0.478000
vt 0.310100 0.545100
vt 0.041800 0.540400
vt 0.042900 0.473300
vt 0.041800 0.394100
vt 0.310100 0.389400
vt 0.311200 0.456400
vt 0.042900 0.461100
vt 0.069100 0.921100
vt 0.002000 0.921100
vt 0.002000 0.907700
vt 0.069100 0.907700
vt 0.997800 0.247700
vt 0.997800 0.261300
vt 0.726200 0.261300
vt 0.726200 0.247700
vt 0.979500 0.389400
vt 0.979500 0.402800
vt 0.966100 0.402800
vt 0.966100 0.389400
vt 0.322800 0.970500
vt 0.322800 0.956900
vt 0.363100 0.956900
vt 0.363100 0.970500
vt 0.002000 0.512900
vt 0.002200 0.499500
vt 0.002200 0.435000
vt 0.002000 0.421600
vt 0.685000 0.261300
vt 0.685000 0.247700
vt 0.635100 0.956900
vt 0.635100 0.970500
vt 0.631800 0.640100
vt 0.631900 0.707200
vt 0.363500 0.707300
vt 0.363500 0.640200
vt 0.270300 0.790600
vt 0.002000 0.790000
vt 0.002100 0.723000
vt 0.270500 0.723600
vt 0.793700 0.944600
vt 0.726700 0.944600
vt 0.726700 0.931100
vt 0.793700 0.931100
vt 0.998000 0.106000
vt 0.998000 0.119600
vt 0.726700 0.119600
vt 0.726700 0.106000
vt 0.984900 0.982700
vt 0.984900 0.996200
vt 0.971500 0.996200
vt 0.971500 0.982700
vt 0.647300 0.996400
vt 0.647300 0.982700
vt 0.687100 0.982700
vt 0.687100 0.996400
vt 0.323300 0.680500
vt 0.323300 0.667100
vt 0.310700 0.750500
vt 0.310600 0.763900
vt 0.685000 0.119600
vt 0.685000 0.106000
vt 0.959300 0.982700
vt 0.959300 0.996400
vt 0.952900 0.557300
vt 0.952900 0.624400
vt 0.684600 0.624400
vt 0.684600 0.557300
vt 0.684300 0.640100
vt 0.952600 0.640100
vt 0.952600 0.707200
vt 0.684300 0.707200
vt 0.714700 0.918800
vt 0.647700 0.918800
vt 0.647700 0.905400
vt 0.714700 0.905400
vt 0.997600 0.344300
vt 0.997600 0.357900
vt 0.725800 0.357900
vt 0.725800 0.344300
vt 0.964800 0.640100
vt 0.978200 0.640100
vt 0.978200 0.653600
vt 0.964800 0.653600
vt 0.685000 0.287100
vt 0.685000 0.273500
vt 0.725800 0.273500
vt 0.725800 0.287100
vt 0.644300 0.597600
vt 0.644300 0.584100
vt 0.644100 0.680400
vt 0.644100 0.667000
vt 0.685000 0.357900
vt 0.685000 0.344300
vt 0.997600 0.273500
vt 0.997600 0.287100
vt 0.310600 0.802800
vt 0.310600 0.869900
vt 0.042200 0.869900
vt 0.042200 0.802800
vt 0.363100 0.723000
vt 0.631400 0.723000
vt 0.631400 0.790000
vt 0.363100 0.790000
vt 0.069100 0.895500
vt 0.002000 0.895500
vt 0.002000 0.882100
vt 0.069100 0.882100
vt 0.997600 0.131800
vt 0.997600 0.145400
vt 0.725800 0.145400
vt 0.725800 0.131800
vt 0.968600 0.723000
vt 0.982000 0.723000
vt 0.982000 0.736400
vt 0.968600 0.736400
vt 0.685000 0.216200
vt 0.685000 0.202600
vt 0.725800 0.202600
vt 0.725800 0.216200
vt 0.002000 0.843100
vt 0.002000 0.829700
vt 0.322900 0.763200
vt 0.322900 0.749800
vt 0.685000 0.145400
vt 0.685000 0.131800
vt 0.997600 0.202600
vt 0.997600 0.216200
vt 0.823700 0.002000
vt 0.869400 0.002000
vt 0.880100 0.012700
vt 0.880100 0.058300
vt 0.869400 0.069100
vt 0.823700 0.069100
vt 0.813000 0.058300
vt 0.813000 0.012700
vt 0.002000 0.075400
vt 0.002000 0.075400
vt 0.002000 0.020400
vt 0.002000 0.020400
vt 0.020400 0.002000
vt 0.020400 0.002000
vt 0.479400 0.002000
vt 0.479400 0.002000
vt 0.020400 0.079100
vt 0.020400 0.016700
vt 0.479400 0.016700
vt 0.479400 0.079100
vt 0.020400 0.093800
vt 0.020400 0.093800
vt 0.479400 0.093800
vt 0.479400 0.093800
vt 0.020400 0.016700
vt 0.020400 0.079100
vt 0.479400 0.079100
vt 0.479400 0.016700
vn -0.0000 0.0000 -1.0000
vn 0.0000 -0.0000 1.0000
vn 0.0416 -0.9991 0.0000
vn -0.0750 0.9972 0.0000
vn -0.0217 0.9998 0.0000
vn -0.0190 -0.9998 0.0000
vn 0.0428 -0.9991 0.0000
vn 0.0231 0.9997 0.0000
vn -0.0472 0.9989 0.0000
vn 0.0668 0.9978 0.0000
vn -0.0578 -0.9983 0.0000
vn -0.0438 -0.9990 0.0000
vn 0.0140 0.9999 0.0000
vn 0.0665 0.9978 0.0000
vn -0.1099 -0.9939 0.0000
vn -0.0416 -0.9991 -0.0000
vn 0.0750 0.9972 0.0000
vn 0.0214 0.9998 -0.0000
vn 0.0190 -0.9998 -0.0000
vn -0.0428 -0.9991 -0.0000
vn -0.0231 0.9997 0.0000
vn 0.0472 0.9989 0.0000
vn -0.0669 0.9978 0.0000
vn 0.0578 -0.9983 -0.0000
vn 0.0438 -0.9990 -0.0000
vn -0.0140 0.9999 0.0000
vn -0.0665 0.9978 0.0000
vn 0.1099 -0.9939 -0.0000
vn -0.0130 -0.9999 -0.0000
vn -0.9999 0.0132 0.0000
vn -0.9532 0.3024 0.0000
vn 0.0132 0.9999 0.0000
vn 0.8394 0.5436 -0.0000
vn 0.9609 0.2769 -0.0000
vn -0.8246 0.5657 0.0000
vn 0.9999 -0.0132 -0.0000
vn -0.0133 -0.9999 -0.0000
vn -0.9532 0.3023 0.0000
vn 0.0133 0.9999 0.0000
vn 0.8394 0.5434 -0.0000
vn 0.9608 0.2772 0.0000
vn -0.8248 0.5655 0.0000
vn 0.0201 -0.9998 -0.0000
vn -0.9998 -0.0199 0.0000
vn -0.9627 0.2704 0.0000
vn -0.0198 0.9998 0.0000
vn 0.8207 0.5713 0.0000
vn 0.9511 0.3089 0.0000
vn -0.8429 0.5380 -0.0000
vn 0.9998 0.0200 0.0000
vn 0.0068 -1.0000 -0.0000
vn -1.0000 -0.0068 0.0000
vn -0.9590 0.2834 0.0000
vn -0.0068 1.0000 0.0000
vn 0.8282 0.5604 0.0000
vn 0.9551 0.2963 0.0000
vn -0.8358 0.5491 -0.0000
vn 1.0000 0.0068 0.0000
vn 0.0178 -0.9998 -0.0000
vn -0.9998 -0.0176 0.0000
vn -0.9621 0.2729 0.0000
vn -0.0175 0.9998 0.0000
vn 0.8222 0.5691 0.0000
vn 0.9519 0.3065 0.0000
vn -0.8417 0.5399 0.0000
vn 0.9998 0.0175 0.0000
vn 0.0369 -0.9993 -0.0000
vn -0.9993 -0.0370 0.0000
vn -0.9672 0.2541 0.0000
vn -0.0372 0.9993 0.0000
vn 0.8111 0.5849 0.0000
vn 0.9458 0.3249 0.0000
vn -0.8520 0.5235 0.0000
vn 0.9993 0.0370 0.0000
vn 0.0000 -1.0000 -0.0000
vn -1.0000 0.0000 0.0000
vn -0.9571 0.2898 0.0000
vn 0.0000 1.0000 0.0000
vn 0.8321 0.5547 0.0000
vn 0.9571 0.2898 0.0000
vn -0.8321 0.5547 0.0000
vn 1.0000 0.0000 0.0000
vn -0.9570 0.2900 0.0000
vn -0.8321 0.5546 -0.0000
vn -0.3244 0.8886 0.3244
vn 0.3244 0.8886 0.3244
vn 0.3244 0.8886 -0.3244
vn -0.3244 0.8886 -0.3244
vn -0.3490 0.3543 -0.8676
vn 0.3490 0.3543 -0.8676
vn 0.3827 0.0000 -0.9239
vn -0.3827 0.0000 -0.9239
vn -0.8676 0.3543 0.3490
vn -0.8676 0.3543 -0.3490
vn -0.9239 0.0000 -0.3827
vn -0.9239 -0.0000 0.3827
vn 0.3490 0.3543 0.8676
vn -0.3490 0.3543 0.8676
vn -0.3827 -0.0000 0.9239
vn 0.3827 -0.0000 0.9239
vn 0.8676 0.3543 -0.3490
vn 0.8676 0.3543 0.3490
vn 0.9239 -0.0000 0.3827
vn 0.9239 0.0000 -0.3827
usemtl mat_woodenfence
s 1
f 1/1/1 2/2/1 3/3/1 4/4/1
f 5/5/2 6/6/2 7/7/2 8/8/2
f 6/9/3 2/10/3 1/11/3 7/12/3
f 9/13/4 10/14/4 11/15/5 12/16/5
f 13/17/1 14/18/1 15/19/1 16/20/1
f 17/21/2 18/22/2 19/23/2 20/24/2
f 18/25/6 13/26/6 16/27/7 19/28/7
f 17/29/8 14/30/8 21/31/9 22/32/9
f 20/33/10 15/34/10 14/30/8 17/29/8
f 16/20/1 15/19/1 11/35/1 23/36/1
f 12/37/2 20/24/2 19/23/2 24/38/2
f 19/28/7 16/27/7 23/39/11 24/40/11
f 25/41/1 21/42/1 14/18/1 13/17/1
f 22/43/2 26/44/2 18/22/2 17/21/2
f 26/45/12 25/46/12 13/26/6 18/25/6
f 22/32/9 21/31/9 4/47/13 8/48/13
f 25/41/1 1/1/1 4/4/1 21/42/1
f 8/8/2 7/7/2 26/44/2 22/43/2
f 7/12/3 1/11/3 25/46/12 26/45/12
f 8/48/13 4/47/13 3/49/14 5/50/14
f 12/16/5 11/15/5 15/34/10 20/33/10
f 23/36/1 11/35/1 10/51/1 27/52/1
f 9/53/2 12/37/2 24/38/2 28/54/2
f 24/40/11 23/39/11 27/55/15 28/56/15
f 29/57/2 30/58/2 31/59/2 32/60/2
f 33/61/1 34/62/1 35/63/1 36/64/1
f 34/65/16 30/66/16 29/67/16 35/68/16
f 37/69/17 38/70/17 39/71/18 40/72/18
f 41/73/2 42/74/2 43/75/2 44/76/2
f 45/77/1 46/78/1 47/79/1 48/80/1
f 46/81/19 41/82/19 44/83/20 47/84/20
f 45/85/21 42/86/21 49/87/22 50/88/22
f 48/89/23 43/90/23 42/86/21 45/85/21
f 44/76/2 43/75/2 39/91/2 51/92/2
f 40/93/1 48/80/1 47/79/1 52/94/1
f 47/84/20 44/83/20 51/95/24 52/96/24
f 53/97/2 49/98/2 42/74/2 41/73/2
f 50/99/1 54/100/1 46/78/1 45/77/1
f 54/101/25 53/102/25 41/82/19 46/81/19
f 50/88/22 49/87/22 32/103/26 36/104/26
f 53/97/2 29/57/2 32/60/2 49/98/2
f 36/64/1 35/63/1 54/100/1 50/99/1
f 35/68/16 29/67/16 53/102/25 54/101/25
f 36/104/26 32/103/26 31/105/27 33/106/27
f 40/72/18 39/71/18 43/90/23 48/89/23
f 51/92/2 39/91/2 38/107/2 55/108/2
f 37/109/1 40/93/1 52/94/1 56/110/1
f 52/96/24 51/95/24 55/111/28 56/112/28
f 57/113/2 58/114/2 59/115/2 60/116/2
f 61/117/1 62/118/1 63/119/1 64/120/1
f 63/121/29 62/122/29 58/123/29 57/124/29
f 63/125/30 57/126/30 60/127/31 64/128/31
f 65/129/32 66/130/32 67/131/32 68/132/32
f 65/133/33 68/134/33 59/135/34 61/136/34
f 60/116/2 59/115/2 68/137/2 67/138/2
f 61/117/1 64/120/1 66/139/1 65/140/1
f 64/128/31 60/127/31 67/141/35 66/142/35
f 61/136/34 59/135/34 58/143/36 62/144/36
f 69/145/2 70/146/2 71/147/2 72/148/2
f 73/149/1 74/150/1 75/151/1 76/152/1
f 75/153/37 74/154/37 70/155/37 69/156/37
f 75/157/30 69/158/30 72/159/38 76/160/38
f 77/161/39 78/162/39 79/163/39 80/164/39
f 77/165/40 80/166/40 71/167/41 73/168/41
f 72/148/2 71/147/2 80/169/2 79/170/2
f 73/149/1 76/152/1 78/171/1 77/172/1
f 76/160/38 72/159/38 79/173/42 78/174/42
f 73/168/41 71/167/41 70/175/36 74/176/36
f 81/177/2 82/178/2 83/179/2 84/180/2
f 85/181/1 86/182/1 87/183/1 88/184/1
f 87/185/43 86/186/43 82/187/43 81/188/43
f 87/189/44 81/190/44 84/191/45 88/192/45
f 89/193/46 90/194/46 91/195/46 92/196/46
f 89/197/47 92/198/47 83/199/48 85/200/48
f 84/180/2 83/179/2 92/201/2 91/202/2
f 85/181/1 88/184/1 90/203/1 89/204/1
f 88/192/45 84/191/45 91/205/49 90/206/49
f 85/200/48 83/199/48 82/207/50 86/208/50
f 93/209/2 94/210/2 95/211/2 96/212/2
f 97/213/1 98/214/1 99/215/1 100/216/1
f 99/217/51 98/218/51 94/219/51 93/220/51
f 99/221/52 93/222/52 96/223/53 100/224/53
f 101/225/54 102/226/54 103/227/54 104/228/54
f 101/229/55 104/230/55 95/231/56 97/232/56
f 96/212/2 95/211/2 104/233/2 103/234/2
f 97/213/1 100/216/1 102/235/1 101/236/1
f 100/224/53 96/223/53 103/237/57 102/238/57
f 97/232/56 95/231/56 94/239/58 98/240/58
f 105/241/2 106/242/2 107/243/2 108/244/2
f 109/245/1 110/246/1 111/247/1 112/248/1
f 111/249/59 110/250/59 106/251/59 105/252/59
f 111/253/60 105/254/60 108/255/61 112/256/61
f 113/257/62 114/258/62 115/259/62 116/260/62
f 113/261/63 116/262/63 107/263/64 109/264/64
f 108/244/2 107/243/2 116/265/2 115/266/2
f 109/245/1 112/248/1 114/267/1 113/268/1
f 112/256/61 108/255/61 115/269/65 114/270/65
f 109/264/64 107/263/64 106/271/66 110/272/66
f 117/273/2 118/274/2 119/275/2 120/276/2
f 121/277/1 122/278/1 123/279/1 124/280/1
f 123/281/67 122/282/67 118/283/67 117/284/67
f 123/285/68 117/286/68 120/287/69 124/288/69
f 125/289/70 126/290/70 127/291/70 128/292/70
f 125/293/71 128/294/71 119/295/72 121/296/72
f 120/276/2 119/275/2 128/297/2 127/298/2
f 121/277/1 124/280/1 126/299/1 125/300/1
f 124/288/69 120/287/69 127/301/73 126/302/73
f 121/296/72 119/295/72 118/303/74 122/304/74
f 129/305/2 130/306/2 131/307/2 132/308/2
f 133/309/1 134/310/1 135/311/1 136/312/1
f 135/313/75 134/314/75 130/315/75 129/316/75
f 135/317/76 129/318/76 132/319/77 136/320/77
f 137/321/78 138/322/78 139/323/78 140/324/78
f 137/325/79 140/326/79 131/327/80 133/328/80
f 132/308/2 131/307/2 140/329/2 139/330/2
f 133/309/1 136/312/1 138/331/1 137/332/1
f 136/320/77 132/319/77 139/333/81 138/334/81
f 133/328/80 131/327/80 130/335/82 134/336/82
f 141/337/2 142/338/2 143/339/2 144/340/2
f 145/341/1 146/342/1 147/343/1 148/344/1
f 147/345/75 146/346/75 142/347/75 141/348/75
f 147/349/76 141/350/76 144/351/83 148/352/83
f 149/353/78 150/354/78 151/355/78 152/356/78
f 149/357/79 152/358/79 143/359/80 145/360/80
f 144/340/2 143/339/2 152/361/2 151/362/2
f 145/341/1 148/344/1 150/363/1 149/364/1
f 148/352/83 144/351/83 151/365/84 150/366/84
f 145/360/80 143/359/80 142/367/82 146/368/82
f 153/369/75 154/370/75 155/371/75 156/372/75 157/373/75 158/374/75 159/375/75 160/376/75
f 161/377/85 162/378/86 163/379/87 164/380/88
f 165/381/89 166/382/90 160/383/91 159/384/92
f 167/385/93 168/386/94 158/387/95 157/388/96
f 169/389/97 170/390/98 156/391/99 155/392/100
f 171/393/101 172/394/102 154/395/103 153/396/104
f 168/386/94 165/381/89 159/384/92 158/387/95
f 153/396/104 160/383/91 166/382/90 171/393/101
f 170/390/98 167/385/93 157/388/96 156/391/99
f 172/394/102 169/389/97 155/392/100 154/395/103
f 164/380/88 163/379/87 166/382/90 165/381/89
f 165/381/89 168/386/94 164/380/88
f 161/377/85 164/380/88 168/386/94 167/385/93
f 167/385/93 170/390/98 161/377/85
f 162/378/86 161/377/85 170/390/98 169/389/97
f 169/389/97 172/394/102 162/378/86
f 163/379/87 162/378/86 172/394/102 171/393/101
f 171/393/101 166/382/90 163/379/87
