# Blender v2.82 (sub 7) OBJ File: ''
# www.blender.org
mtllib 19.mtl
o Rock_Type5_02_mesh_Cube.017
v -0.986334 0.224188 0.453742
v -1.011438 -0.082643 0.709580
v -0.861938 0.224188 0.754810
v -0.704726 0.099186 0.653296
v -0.609250 -0.082643 0.477255
v -0.637392 0.229190 0.323900
v -0.609250 0.229190 0.477255
v -0.637392 -0.082643 0.323900
v -0.917699 0.224188 0.313745
v -0.986334 -0.082643 0.453742
v -0.704726 -0.082643 0.653296
v -0.917699 -0.082643 0.313745
v 0.050972 -0.065213 -1.112245
v 0.731888 -0.065213 -0.144603
v 0.321113 -0.065213 0.212211
v 0.731888 1.003323 -0.144603
v 0.050972 0.172995 -1.112245
v 0.321113 1.356537 0.212211
v 0.700738 0.172995 -0.991261
v 0.700738 -0.065213 -0.991261
v -0.372357 0.172995 -1.096671
v -0.102216 -0.065213 0.227786
v -0.102216 1.356537 0.227786
v -0.372357 -0.065213 -1.096671
v -1.317121 0.172995 -0.594793
v -1.461912 -0.065213 0.050086
v -1.461912 0.172995 0.050086
v -0.469889 -0.065213 -0.594793
v -1.317121 -0.065213 -0.594793
v -0.128419 0.782019 0.252438
v -0.128419 -0.065213 -0.171177
v -0.128419 0.782019 -0.171177
v -1.461912 0.172995 0.473702
v -0.128419 -0.065213 0.252438
v -0.469889 0.428804 -0.594793
v -1.461912 -0.065213 0.473702
v 0.684262 -0.065213 0.613627
v -0.358252 -0.065213 1.173220
v -0.663071 -0.065213 0.722511
v -0.358252 0.050518 1.173220
v 0.684262 0.172995 0.613627
v -0.663071 0.403732 0.722511
v 0.486007 -0.065213 1.244125
v 0.486007 0.172995 1.244125
v 0.719715 0.172995 0.191497
v -0.627618 -0.065213 0.300382
v -0.627618 0.403732 0.300382
v 0.719715 -0.065213 0.191497
v 0.764308 0.186063 -0.046922
v 0.648430 -0.049001 -0.206162
v 0.539817 0.186063 -0.155944
v 0.501500 0.090298 -0.017792
v 0.536466 -0.049001 0.131594
v 0.630651 0.189896 0.205059
v 0.536466 0.189896 0.131594
v 0.630651 -0.049001 0.205059
v 0.796290 0.186063 0.068165
v 0.764308 -0.049001 -0.046922
v 0.501500 -0.049001 -0.017792
v 0.796290 -0.049001 0.068165
v 0.127131 0.667462 0.139680
v -0.126996 0.151951 -0.209545
v -0.365190 0.667462 -0.099413
v -0.449222 0.457444 0.203563
v -0.372539 0.151951 0.531177
v -0.165985 0.675867 0.692290
v -0.372539 0.675867 0.531177
v -0.165985 0.151951 0.692290
v 0.197270 0.667462 0.392074
v 0.127131 0.151951 0.139680
v -0.449222 0.151951 0.203563
v 0.197270 0.151951 0.392074
v 0.048021 0.461298 0.217224
v 0.172629 0.138327 0.457413
v 0.330517 0.461298 0.411569
v 0.411028 0.329721 0.231793
v 0.394303 0.138327 0.021658
v 0.281493 0.466564 -0.097542
v 0.394303 0.466564 0.021658
v 0.281493 0.138327 -0.097542
v 0.028283 0.461298 0.054297
v 0.048021 0.138327 0.217224
v 0.411028 0.138327 0.231793
v 0.028283 0.138327 0.054297
vt 0.233700 0.272700
vt 0.203800 0.242900
vt 0.203800 0.272700
vt 0.233700 0.242900
vt 0.203800 0.272700
vt 0.233700 0.272700
vt 0.233700 0.242900
vt 0.203800 0.272700
vt 0.233700 0.272700
vt 0.233700 0.242900
vt 0.203800 0.272700
vt 0.233700 0.272700
vt 0.233700 0.272700
vt 0.203800 0.242900
vt 0.203800 0.272700
vt 0.233700 0.242900
vt 0.233700 0.242900
vt 0.203800 0.272700
vt 0.233700 0.272700
vt 0.203800 0.242900
vt 0.203800 0.272700
vt 0.233700 0.272700
vt 0.233700 0.242900
vt 0.203800 0.272700
vt 0.233700 0.272700
vt 0.339100 0.690700
vt 0.309300 0.660900
vt 0.339100 0.660900
vt 0.309300 0.690700
vt 0.339100 0.660900
vt 0.339100 0.690700
vt 0.339100 0.690700
vt 0.339100 0.660900
vt 0.339100 0.690700
vt 0.309300 0.660900
vt 0.339100 0.660900
vt 0.309300 0.690700
vt 0.339100 0.660900
vt 0.339100 0.690700
vt 0.309300 0.690700
vt 0.309300 0.660900
vt 0.339100 0.660900
vt 0.309300 0.690700
vt 0.339100 0.690700
vt 0.309300 0.690700
vt 0.339100 0.660900
vt 0.339100 0.690700
vt 0.309300 0.690700
vt 0.339100 0.660900
vt 0.339100 0.690700
vt 0.723400 0.272700
vt 0.753200 0.242900
vt 0.753200 0.272700
vt 0.753200 0.272700
vt 0.723400 0.242900
vt 0.753200 0.242900
vt 0.723400 0.272700
vt 0.753200 0.242900
vt 0.753200 0.272700
vt 0.723400 0.272700
vt 0.753200 0.242900
vt 0.753200 0.272700
vt 0.753200 0.272700
vt 0.723400 0.272700
vt 0.753200 0.242900
vt 0.723400 0.242900
vt 0.753200 0.242900
vt 0.723400 0.272700
vt 0.753200 0.272700
vt 0.753200 0.272700
vt 0.723400 0.242900
vt 0.753200 0.242900
vt 0.723400 0.272700
vt 0.753200 0.242900
vt 0.753200 0.272700
vt 0.339100 0.690700
vt 0.309300 0.660900
vt 0.339100 0.660900
vt 0.309300 0.690700
vt 0.339100 0.660900
vt 0.339100 0.690700
vt 0.339100 0.660900
vt 0.339100 0.690700
vt 0.339100 0.690700
vt 0.309300 0.660900
vt 0.339100 0.660900
vt 0.309300 0.690700
vt 0.339100 0.660900
vt 0.339100 0.690700
vt 0.309300 0.690700
vt 0.309300 0.660900
vt 0.339100 0.660900
vt 0.309300 0.690700
vt 0.339100 0.690700
vt 0.309300 0.690700
vt 0.339100 0.660900
vt 0.339100 0.690700
vt 0.309300 0.690700
vt 0.339100 0.660900
vt 0.339100 0.690700
vt 0.753200 0.272700
vt 0.723400 0.242900
vt 0.723400 0.272700
vt 0.753200 0.242900
vt 0.723400 0.272700
vt 0.753200 0.272700
vt 0.753200 0.242900
vt 0.723400 0.272700
vt 0.753200 0.272700
vt 0.753200 0.242900
vt 0.723400 0.272700
vt 0.753200 0.272700
vt 0.753200 0.272700
vt 0.723400 0.242900
vt 0.723400 0.272700
vt 0.753200 0.242900
vt 0.753200 0.242900
vt 0.723400 0.272700
vt 0.753200 0.272700
vt 0.723400 0.242900
vt 0.723400 0.272700
vt 0.753200 0.272700
vt 0.753200 0.242900
vt 0.723400 0.272700
vt 0.753200 0.272700
vt 0.233700 0.272700
vt 0.203800 0.242900
vt 0.203800 0.272700
vt 0.233700 0.242900
vt 0.203800 0.272700
vt 0.233700 0.272700
vt 0.233700 0.242900
vt 0.203800 0.272700
vt 0.233700 0.272700
vt 0.233700 0.242900
vt 0.203800 0.272700
vt 0.233700 0.272700
vt 0.233700 0.272700
vt 0.203800 0.242900
vt 0.203800 0.272700
vt 0.233700 0.242900
vt 0.233700 0.242900
vt 0.203800 0.272700
vt 0.233700 0.272700
vt 0.203800 0.242900
vt 0.203800 0.272700
vt 0.233700 0.272700
vt 0.233700 0.242900
vt 0.203800 0.272700
vt 0.233700 0.272700
vt 0.233700 0.272700
vt 0.203800 0.242900
vt 0.203800 0.272700
vt 0.233700 0.242900
vt 0.203800 0.272700
vt 0.233700 0.272700
vt 0.233700 0.242900
vt 0.203800 0.272700
vt 0.233700 0.272700
vt 0.233700 0.242900
vt 0.203800 0.272700
vt 0.233700 0.272700
vt 0.233700 0.272700
vt 0.203800 0.242900
vt 0.203800 0.272700
vt 0.233700 0.242900
vt 0.233700 0.242900
vt 0.203800 0.272700
vt 0.233700 0.272700
vt 0.203800 0.242900
vt 0.203800 0.272700
vt 0.233700 0.272700
vt 0.233700 0.242900
vt 0.203800 0.272700
vt 0.233700 0.272700
vt 0.233700 0.242900
vt 0.203800 0.242900
vt 0.203800 0.242900
vt 0.203800 0.242900
vt 0.203800 0.242900
vt 0.233700 0.242900
vt 0.203800 0.242900
vt 0.309300 0.690700
vt 0.309300 0.660900
vt 0.309300 0.690700
vt 0.309300 0.660900
vt 0.309300 0.660900
vt 0.309300 0.660900
vt 0.309300 0.660900
vt 0.723400 0.242900
vt 0.723400 0.242900
vt 0.723400 0.242900
vt 0.723400 0.272700
vt 0.723400 0.242900
vt 0.723400 0.272700
vt 0.723400 0.242900
vt 0.309300 0.690700
vt 0.309300 0.660900
vt 0.309300 0.690700
vt 0.309300 0.660900
vt 0.309300 0.660900
vt 0.309300 0.660900
vt 0.309300 0.660900
vt 0.753200 0.242900
vt 0.723400 0.242900
vt 0.723400 0.242900
vt 0.723400 0.242900
vt 0.723400 0.242900
vt 0.753200 0.242900
vt 0.723400 0.242900
vt 0.233700 0.242900
vt 0.203800 0.242900
vt 0.203800 0.242900
vt 0.203800 0.242900
vt 0.203800 0.242900
vt 0.233700 0.242900
vt 0.203800 0.242900
vt 0.233700 0.242900
vt 0.203800 0.242900
vt 0.203800 0.242900
vt 0.203800 0.242900
vt 0.203800 0.242900
vt 0.233700 0.242900
vt 0.203800 0.242900
vn -0.9593 0.2230 0.1734
vn -0.9712 0.1943 0.1377
vn -0.8599 0.3666 0.3553
vn 0.2725 -0.1663 0.9477
vn 0.2691 -0.1600 0.9497
vn 0.3399 -0.2971 0.8923
vn 0.9836 0.0000 -0.1805
vn 0.0362 0.0000 -0.9993
vn 0.0000 -1.0000 -0.0000
vn 0.2702 0.9402 0.2076
vn 0.2402 0.9383 0.2488
vn -0.0468 0.8155 0.5769
vn -0.0140 0.9999 -0.0041
vn -0.0163 0.9999 0.0002
vn -0.0180 0.9998 0.0033
vn 0.8790 0.0000 0.4767
vn -0.8979 -0.0000 -0.4402
vn 0.0674 0.7332 -0.6766
vn 0.1094 0.7150 -0.6905
vn 0.0525 0.7393 -0.6713
vn 0.9993 -0.0000 -0.0368
vn 0.6558 -0.0000 0.7550
vn -0.9798 -0.0000 0.1998
vn 0.0368 -0.0000 0.9993
vn -0.0244 0.7479 -0.6634
vn 0.1831 0.0000 -0.9831
vn -0.0368 0.0000 -0.9993
vn -0.9757 0.0000 -0.2191
vn 0.0000 0.0000 -1.0000
vn 1.0000 0.0000 0.0000
vn 0.1637 -0.0000 0.9865
vn -0.4052 0.8710 -0.2778
vn -0.3460 0.9234 -0.1660
vn -0.4368 0.8321 -0.3418
vn -0.4154 0.9096 0.0000
vn 0.7786 0.0000 -0.6276
vn -1.0000 -0.0000 0.0000
vn 0.1038 0.9136 0.3933
vn -0.0149 0.9822 0.1871
vn 0.1847 0.8303 0.5258
vn -0.0837 0.0000 0.9965
vn -0.8283 -0.0000 0.5602
vn -0.0806 0.0000 -0.9968
vn -0.9965 0.0000 -0.0837
vn 0.1699 0.9854 0.0143
vn 0.9540 0.0000 0.3000
vn 0.9965 -0.0000 0.0837
vn 0.6016 0.2230 -0.7670
vn 0.6342 0.1943 -0.7483
vn 0.4064 0.3666 -0.8369
vn -0.8334 -0.1663 -0.5271
vn -0.8322 -0.1600 -0.5308
vn -0.8469 -0.2971 -0.4409
vn -0.6150 -0.0000 0.7885
vn 0.6371 0.0000 0.7708
vn -0.3399 0.9402 0.0244
vn -0.3448 0.9383 -0.0262
vn -0.3484 0.8155 -0.4622
vn 0.0132 0.9999 -0.0062
vn 0.0121 0.9999 -0.0110
vn 0.0112 0.9998 -0.0144
vn -0.9737 -0.0000 0.2279
vn 0.9635 0.0000 -0.2677
vn -0.7098 0.2230 0.6682
vn -0.7392 0.1943 0.6448
vn -0.5273 0.3666 0.7665
vn 0.7449 -0.1663 0.6461
vn 0.7432 -0.1600 0.6496
vn 0.7713 -0.2971 0.5629
vn 0.7263 0.0000 -0.6874
vn -0.5143 0.0000 -0.8576
vn 0.3397 0.9402 0.0268
vn 0.3370 0.9383 0.0776
vn 0.2752 0.8155 0.5092
vn -0.0140 0.9999 0.0042
vn -0.0136 0.9999 0.0091
vn -0.0133 0.9998 0.0126
vn 0.9968 -0.0000 -0.0793
vn -0.9927 -0.0000 0.1203
vn -0.9952 0.0000 -0.0977
vn 0.1805 0.0000 0.9836
vn 0.5192 0.8273 -0.2145
vn -0.0129 0.9999 -0.0063
vn 0.1297 0.7055 -0.6967
vn -0.2884 0.9553 -0.0648
vn -0.1398 0.9892 -0.0440
vn 0.8086 -0.0000 -0.5884
vn -0.7885 0.0000 -0.6150
vn -0.2454 0.8273 0.5054
vn 0.0138 0.9999 -0.0038
vn -0.8877 -0.0000 0.4605
vn 0.6874 -0.0000 0.7263
vn 0.3184 0.8273 -0.4629
vn -0.0142 0.9999 0.0017
usemtl color3
s 1
f 1/1/1 2/2/2 3/3/3
f 2/4/4 4/5/5 3/6/6
f 5/7/7 6/8/7 7/9/7
f 8/10/8 9/11/8 6/12/8
f 10/13/9 11/14/9 2/15/9
f 1/16/10 4/5/11 7/9/12
f 9/17/13 7/18/14 6/12/15
f 12/19/9 5/20/9 10/21/9
f 4/22/16 5/20/16 7/18/16
f 12/23/17 1/24/17 9/25/17
f 13/26/9 14/27/9 15/28/9
f 16/29/18 17/30/19 18/31/20
f 19/32/21 14/27/21 20/33/21
f 16/34/22 15/35/22 14/36/22
f 21/37/23 22/38/23 23/39/23
f 23/40/24 15/28/24 18/31/24
f 23/39/25 17/41/25 21/42/25
f 13/43/9 22/38/9 24/44/9
f 19/45/26 13/46/26 17/47/26
f 17/48/27 24/49/27 21/50/27
f 25/51/28 26/52/28 27/53/28
f 25/54/29 28/55/29 29/56/29
f 30/57/30 31/58/30 32/59/30
f 33/60/31 34/61/31 30/62/31
f 26/63/9 28/55/9 31/58/9
f 35/64/32 27/65/33 32/59/34
f 30/62/35 27/66/35 33/67/35
f 26/68/9 34/61/9 36/69/9
f 35/70/36 31/71/36 28/72/36
f 27/73/37 36/74/37 33/75/37
f 37/76/9 38/77/9 39/78/9
f 40/79/38 41/80/39 42/81/40
f 40/79/41 43/82/41 44/83/41
f 40/84/42 39/85/42 38/86/42
f 45/87/43 46/88/43 47/89/43
f 47/90/44 39/78/44 42/81/44
f 47/89/45 41/91/45 45/92/45
f 37/93/9 46/88/9 48/94/9
f 44/95/46 37/96/46 41/97/46
f 41/98/47 48/99/47 45/100/47
f 49/101/48 50/102/49 51/103/50
f 50/104/51 52/105/52 51/106/53
f 53/107/54 54/108/54 55/109/54
f 56/110/55 57/111/55 54/112/55
f 58/113/9 59/114/9 50/115/9
f 49/116/56 52/105/57 55/109/58
f 57/117/59 55/118/60 54/112/61
f 60/119/9 53/120/9 58/121/9
f 52/122/62 53/120/62 55/118/62
f 60/123/63 49/124/63 57/125/63
f 61/126/48 62/127/49 63/128/50
f 62/129/51 64/130/52 63/131/53
f 65/132/54 66/133/54 67/134/54
f 68/135/55 69/136/55 66/137/55
f 70/138/9 71/139/9 62/140/9
f 61/141/56 64/130/57 67/134/58
f 69/142/59 67/143/60 66/137/61
f 72/144/9 65/145/9 70/146/9
f 64/147/62 65/145/62 67/143/62
f 72/148/63 61/149/63 69/150/63
f 73/151/64 74/152/65 75/153/66
f 74/154/67 76/155/68 75/156/69
f 77/157/70 78/158/70 79/159/70
f 80/160/71 81/161/71 78/162/71
f 82/163/9 83/164/9 74/165/9
f 73/166/72 76/155/73 79/159/74
f 81/167/75 79/168/76 78/162/77
f 84/169/9 77/170/9 82/171/9
f 76/172/78 77/170/78 79/168/78
f 84/173/79 73/174/79 81/175/79
f 1/1/1 10/176/80 2/2/2
f 2/4/4 11/14/81 4/5/5
f 5/7/7 8/177/7 6/8/7
f 8/10/8 12/178/8 9/11/8
f 10/13/9 5/7/9 11/14/9
f 1/16/10 3/179/82 4/5/11
f 9/17/13 1/180/83 7/18/14
f 12/19/9 8/10/9 5/20/9
f 4/22/16 11/181/16 5/20/16
f 12/23/17 10/182/17 1/24/17
f 13/26/9 20/183/9 14/27/9
f 16/29/18 19/184/84 17/30/19
f 19/32/21 16/29/21 14/27/21
f 16/34/22 18/185/22 15/35/22
f 21/37/23 24/186/23 22/38/23
f 23/40/24 22/187/24 15/28/24
f 23/39/25 18/185/25 17/41/25
f 13/43/9 15/35/9 22/38/9
f 19/45/26 20/188/26 13/46/26
f 17/48/27 13/189/27 24/49/27
f 25/51/28 29/190/28 26/52/28
f 25/54/29 35/64/29 28/55/29
f 30/57/30 34/191/30 31/58/30
f 33/60/31 36/192/31 34/61/31
f 26/63/9 29/193/9 28/55/9
f 35/64/32 25/194/85 27/65/33
f 30/62/35 32/195/35 27/66/35
f 26/68/9 31/71/9 34/61/9
f 35/70/36 32/195/36 31/71/36
f 27/73/37 26/196/37 36/74/37
f 37/76/9 43/197/9 38/77/9
f 40/79/38 44/198/86 41/80/39
f 40/79/41 38/77/41 43/82/41
f 40/84/42 42/199/42 39/85/42
f 45/87/43 48/200/43 46/88/43
f 47/90/44 46/201/44 39/78/44
f 47/89/45 42/199/45 41/91/45
f 37/93/9 39/85/9 46/88/9
f 44/95/46 43/202/46 37/96/46
f 41/98/47 37/203/47 48/99/47
f 49/101/48 58/204/87 50/102/49
f 50/104/51 59/114/88 52/105/52
f 53/107/54 56/205/54 54/108/54
f 56/110/55 60/206/55 57/111/55
f 58/113/9 53/107/9 59/114/9
f 49/116/56 51/207/89 52/105/57
f 57/117/59 49/208/90 55/118/60
f 60/119/9 56/110/9 53/120/9
f 52/122/62 59/209/62 53/120/62
f 60/123/63 58/210/63 49/124/63
f 61/126/48 70/211/87 62/127/49
f 62/129/51 71/139/88 64/130/52
f 65/132/54 68/212/54 66/133/54
f 68/135/55 72/213/55 69/136/55
f 70/138/9 65/132/9 71/139/9
f 61/141/56 63/214/89 64/130/57
f 69/142/59 61/215/90 67/143/60
f 72/144/9 68/135/9 65/145/9
f 64/147/62 71/216/62 65/145/62
f 72/148/63 70/217/63 61/149/63
f 73/151/64 82/218/91 74/152/65
f 74/154/67 83/164/92 76/155/68
f 77/157/70 80/219/70 78/158/70
f 80/160/71 84/220/71 81/161/71
f 82/163/9 77/157/9 83/164/9
f 73/166/72 75/221/93 76/155/73
f 81/167/75 73/222/94 79/168/76
f 84/169/9 80/160/9 77/170/9
f 76/172/78 83/223/78 77/170/78
f 84/173/79 82/224/79 73/174/79
