# Blender v2.82 (sub 7) OBJ File: ''
# www.blender.org
mtllib 9.mtl
o Rock_Type3_04_mesh_Cube.011
v 0.120035 0.116028 0.611632
v 0.243750 -0.126212 0.318485
v 0.231780 0.215617 0.693888
v 0.058611 0.290470 0.473343
v 0.048937 -0.168911 0.351153
v 0.281216 0.339260 0.436014
v 0.153109 0.101085 0.075046
v 0.170356 0.390058 0.555597
v 0.421711 -0.041252 0.240555
v 0.347922 0.143784 0.042378
v -0.022611 0.010508 0.158992
v 0.342640 0.164819 0.574304
v 0.580493 0.116028 0.327143
v 0.393615 -0.126212 0.069620
v 0.708692 0.215617 0.274062
v 0.430369 0.290470 0.308172
v 0.320795 -0.168911 0.253241
v 0.513577 0.339260 0.098356
v 0.138391 0.101085 0.021259
v 0.558568 0.390058 0.255091
v 0.418982 -0.041252 -0.122992
v 0.211211 0.143784 -0.162361
v 0.119332 0.010508 0.215068
v 0.663701 0.164819 0.117327
v -0.381086 0.116028 0.345017
v -0.074121 -0.126212 0.261267
v -0.376764 0.215617 0.483703
v -0.310258 0.290470 0.211299
v -0.220132 -0.168911 0.128225
v -0.143417 0.339260 0.363321
v 0.061360 0.101085 0.039632
v -0.305936 0.390058 0.349985
v 0.097079 -0.041252 0.353101
v 0.207370 0.143784 0.172673
v -0.113188 0.010508 -0.046726
v -0.214245 0.164819 0.497039
v -0.071115 0.116028 -0.531286
v -0.083414 -0.126212 -0.213341
v -0.204699 0.215617 -0.568812
v 0.035161 0.290470 -0.423572
v 0.087334 -0.168911 -0.312660
v -0.159947 0.339260 -0.310084
v 0.087308 0.101085 -0.017555
v -0.098422 0.390058 -0.461097
v -0.222421 -0.041252 -0.077621
v -0.083441 0.143784 0.081764
v 0.222095 0.010508 -0.158113
v -0.266223 0.164819 -0.417799
v 0.353144 0.233273 -0.282220
v 0.281163 -0.019595 -0.309383
v 0.292477 0.315200 -0.330703
v 0.282345 0.255188 -0.148792
v 0.399156 -0.019595 -0.246775
v 0.147520 0.255188 -0.220332
v 0.174232 -0.019595 -0.107857
v 0.221679 0.337115 -0.197275
v 0.143290 -0.019595 -0.334522
v 0.056239 -0.019595 -0.170465
v 0.314748 -0.019595 -0.087699
v 0.218318 0.233273 -0.353760
v -0.055610 0.366621 -0.124619
v -0.069594 -0.049966 0.001352
v -0.108242 0.501590 -0.008005
v 0.186244 0.402725 -0.066059
v -0.017809 -0.049966 -0.212524
v 0.127071 0.402725 0.178328
v 0.295695 -0.049966 0.089800
v 0.133612 0.537695 0.050555
v -0.053463 -0.049966 0.231672
v 0.243910 -0.049966 0.303674
v 0.270536 -0.049966 -0.142707
v -0.114784 0.366621 0.119767
v -0.293231 0.251116 -0.054375
v -0.261134 -0.039574 0.028036
v -0.288057 0.345296 0.034751
v -0.124751 0.276309 -0.096389
v -0.298288 -0.039574 -0.120954
v -0.082296 0.276309 0.073854
v -0.006667 -0.039574 -0.035421
v -0.119577 0.370490 -0.007264
v -0.176668 -0.039574 0.165227
v 0.030487 -0.039574 0.113568
v -0.097422 -0.039574 -0.171044
v -0.250777 0.251116 0.115870
v -0.559486 0.341481 -0.088119
v -0.545486 -0.021817 0.021523
v -0.580164 0.459186 0.021523
v -0.342474 0.372967 -0.088119
v -0.545486 -0.021817 -0.170384
v -0.342474 0.372967 0.131164
v -0.217718 -0.021817 0.021523
v -0.363152 0.490672 0.021523
v -0.484545 -0.021817 0.213429
v -0.217718 -0.021817 0.213429
v -0.286759 -0.021817 -0.170384
v -0.559486 0.341481 0.131164
vt 0.242800 0.233800
vt 0.226000 0.250600
vt 0.226000 0.233800
vt 0.242800 0.233800
vt 0.226000 0.250600
vt 0.226000 0.233800
vt 0.242800 0.233800
vt 0.226000 0.250600
vt 0.226000 0.233800
vt 0.226000 0.233800
vt 0.242800 0.250600
vt 0.226000 0.250600
vt 0.226000 0.233800
vt 0.242800 0.250600
vt 0.242800 0.250600
vt 0.226000 0.250600
vt 0.242800 0.233800
vt 0.226000 0.250600
vt 0.226000 0.233800
vt 0.242800 0.250600
vt 0.226000 0.233800
vt 0.226000 0.250600
vt 0.226000 0.233800
vt 0.242800 0.250600
vt 0.226000 0.250600
vt 0.801400 0.222100
vt 0.784600 0.238900
vt 0.784600 0.222100
vt 0.801400 0.222100
vt 0.784600 0.238900
vt 0.784600 0.222100
vt 0.801400 0.222100
vt 0.784600 0.238900
vt 0.784600 0.222100
vt 0.784600 0.222100
vt 0.801400 0.238900
vt 0.784600 0.238900
vt 0.784600 0.222100
vt 0.801400 0.238900
vt 0.801400 0.238900
vt 0.784600 0.238900
vt 0.801400 0.222100
vt 0.784600 0.238900
vt 0.784600 0.222100
vt 0.801400 0.238900
vt 0.784600 0.222100
vt 0.784600 0.238900
vt 0.784600 0.222100
vt 0.801400 0.238900
vt 0.784600 0.238900
vt 0.219300 0.733800
vt 0.202600 0.750600
vt 0.202600 0.733800
vt 0.219300 0.733800
vt 0.202600 0.750600
vt 0.202600 0.733800
vt 0.219300 0.733800
vt 0.202600 0.750600
vt 0.202600 0.733800
vt 0.202600 0.733800
vt 0.219300 0.750600
vt 0.202600 0.750600
vt 0.202600 0.733800
vt 0.219300 0.750600
vt 0.219300 0.750600
vt 0.202600 0.750600
vt 0.219300 0.733800
vt 0.202600 0.750600
vt 0.202600 0.733800
vt 0.219300 0.750600
vt 0.202600 0.733800
vt 0.202600 0.750600
vt 0.202600 0.733800
vt 0.219300 0.750600
vt 0.202600 0.750600
vt 0.219300 0.733800
vt 0.202600 0.750600
vt 0.202600 0.733800
vt 0.219300 0.733800
vt 0.202600 0.750600
vt 0.202600 0.733800
vt 0.219300 0.733800
vt 0.202600 0.750600
vt 0.202600 0.733800
vt 0.202600 0.733800
vt 0.219300 0.750600
vt 0.202600 0.750600
vt 0.202600 0.733800
vt 0.219300 0.750600
vt 0.219300 0.750600
vt 0.202600 0.750600
vt 0.219300 0.733800
vt 0.202600 0.750600
vt 0.202600 0.733800
vt 0.219300 0.750600
vt 0.202600 0.733800
vt 0.202600 0.750600
vt 0.202600 0.733800
vt 0.219300 0.750600
vt 0.202600 0.750600
vt 0.242800 0.233800
vt 0.226000 0.250600
vt 0.226000 0.233800
vt 0.242800 0.233800
vt 0.226000 0.250600
vt 0.226000 0.233800
vt 0.242800 0.233800
vt 0.226000 0.250600
vt 0.226000 0.233800
vt 0.226000 0.233800
vt 0.242800 0.250600
vt 0.226000 0.250600
vt 0.226000 0.233800
vt 0.242800 0.250600
vt 0.242800 0.250600
vt 0.226000 0.250600
vt 0.242800 0.233800
vt 0.226000 0.250600
vt 0.226000 0.233800
vt 0.242800 0.250600
vt 0.226000 0.233800
vt 0.226000 0.250600
vt 0.226000 0.233800
vt 0.242800 0.250600
vt 0.226000 0.250600
vt 0.219300 0.733800
vt 0.202600 0.750600
vt 0.202600 0.733800
vt 0.219300 0.733800
vt 0.202600 0.750600
vt 0.202600 0.733800
vt 0.219300 0.733800
vt 0.202600 0.750600
vt 0.202600 0.733800
vt 0.202600 0.733800
vt 0.219300 0.750600
vt 0.202600 0.750600
vt 0.202600 0.733800
vt 0.219300 0.750600
vt 0.219300 0.750600
vt 0.202600 0.750600
vt 0.219300 0.733800
vt 0.202600 0.750600
vt 0.202600 0.733800
vt 0.219300 0.750600
vt 0.202600 0.733800
vt 0.202600 0.750600
vt 0.202600 0.733800
vt 0.219300 0.750600
vt 0.202600 0.750600
vt 0.242800 0.233800
vt 0.226000 0.250600
vt 0.226000 0.233800
vt 0.242800 0.233800
vt 0.226000 0.250600
vt 0.226000 0.233800
vt 0.242800 0.233800
vt 0.226000 0.250600
vt 0.226000 0.233800
vt 0.226000 0.233800
vt 0.242800 0.250600
vt 0.226000 0.250600
vt 0.226000 0.233800
vt 0.242800 0.250600
vt 0.242800 0.250600
vt 0.226000 0.250600
vt 0.242800 0.233800
vt 0.226000 0.250600
vt 0.226000 0.233800
vt 0.242800 0.250600
vt 0.226000 0.233800
vt 0.226000 0.250600
vt 0.226000 0.233800
vt 0.242800 0.250600
vt 0.226000 0.250600
vt 0.801400 0.222100
vt 0.784600 0.238900
vt 0.784600 0.222100
vt 0.801400 0.222100
vt 0.784600 0.238900
vt 0.784600 0.222100
vt 0.801400 0.222100
vt 0.784600 0.238900
vt 0.784600 0.222100
vt 0.784600 0.222100
vt 0.801400 0.238900
vt 0.784600 0.238900
vt 0.784600 0.222100
vt 0.801400 0.238900
vt 0.801400 0.238900
vt 0.784600 0.238900
vt 0.801400 0.222100
vt 0.784600 0.238900
vt 0.784600 0.222100
vt 0.801400 0.238900
vt 0.784600 0.222100
vt 0.784600 0.238900
vt 0.784600 0.222100
vt 0.801400 0.238900
vt 0.784600 0.238900
vt 0.242800 0.250600
vt 0.242800 0.250600
vt 0.242800 0.233800
vt 0.242800 0.233800
vt 0.242800 0.250600
vt 0.242800 0.233800
vt 0.242800 0.233800
vt 0.801400 0.238900
vt 0.801400 0.238900
vt 0.801400 0.222100
vt 0.801400 0.222100
vt 0.801400 0.238900
vt 0.801400 0.222100
vt 0.801400 0.222100
vt 0.219300 0.750600
vt 0.219300 0.750600
vt 0.219300 0.733800
vt 0.219300 0.733800
vt 0.219300 0.750600
vt 0.219300 0.733800
vt 0.219300 0.733800
vt 0.219300 0.750600
vt 0.219300 0.750600
vt 0.219300 0.733800
vt 0.219300 0.733800
vt 0.219300 0.750600
vt 0.219300 0.733800
vt 0.219300 0.733800
vt 0.242800 0.250600
vt 0.242800 0.250600
vt 0.242800 0.233800
vt 0.242800 0.233800
vt 0.242800 0.250600
vt 0.242800 0.233800
vt 0.242800 0.233800
vt 0.219300 0.750600
vt 0.219300 0.750600
vt 0.219300 0.733800
vt 0.219300 0.733800
vt 0.219300 0.750600
vt 0.219300 0.733800
vt 0.219300 0.733800
vt 0.242800 0.250600
vt 0.242800 0.250600
vt 0.242800 0.233800
vt 0.242800 0.233800
vt 0.242800 0.250600
vt 0.242800 0.233800
vt 0.242800 0.233800
vt 0.801400 0.238900
vt 0.801400 0.238900
vt 0.801400 0.222100
vt 0.801400 0.222100
vt 0.801400 0.238900
vt 0.801400 0.222100
vt 0.801400 0.222100
vn 0.1784 -0.7202 0.6704
vn 0.2442 -0.6944 0.6769
vn 0.1571 -0.7277 0.6676
vn -0.9455 -0.0650 0.3191
vn -0.9489 -0.0623 0.3093
vn -0.9409 -0.0684 0.3316
vn -0.1747 0.8492 -0.4983
vn -0.2456 0.8469 -0.4716
vn -0.1557 0.8490 -0.5049
vn 0.9383 0.3458 0.0013
vn 0.9367 0.3502 -0.0084
vn 0.9350 0.3542 -0.0174
vn 0.0426 -0.7223 -0.6903
vn -0.7132 0.2638 0.6495
vn 0.7072 0.5751 0.4113
vn -0.4088 0.7828 -0.4692
vn -0.5373 0.7051 -0.4627
vn -0.5704 0.6810 -0.4592
vn 0.4063 -0.6772 0.6134
vn 0.5127 -0.6585 0.5510
vn 0.5431 -0.6509 0.5305
vn 0.6660 -0.7202 0.1942
vn 0.7056 -0.6944 0.1411
vn 0.6526 -0.7277 0.2109
vn -0.2160 -0.0650 0.9742
vn -0.2262 -0.0623 0.9721
vn -0.2029 -0.0684 0.9768
vn -0.5168 0.8492 -0.1082
vn -0.5307 0.8469 -0.0338
vn -0.5127 0.8490 -0.1280
vn 0.4865 0.3458 -0.8023
vn 0.4773 0.3502 -0.8059
vn 0.4688 0.3542 -0.8092
vn -0.5687 -0.7223 -0.3935
vn 0.1869 0.2638 0.9463
vn 0.7178 0.5751 -0.3924
vn -0.6130 0.7828 0.1072
vn -0.6740 0.7051 0.2205
vn -0.6880 0.6810 0.2506
vn 0.7351 -0.6772 -0.0304
vn 0.7367 -0.6585 -0.1537
vn 0.7350 -0.6509 -0.1903
vn -0.4171 -0.7202 0.5544
vn -0.3815 -0.6944 0.6101
vn -0.4281 -0.7277 0.5359
vn -0.8349 -0.0650 -0.5465
vn -0.8293 -0.0623 -0.5553
vn -0.8420 -0.0684 -0.5352
vn 0.2840 0.8492 -0.4452
vn 0.2192 0.8469 -0.4845
vn 0.3010 0.8490 -0.4343
vn 0.5785 0.3458 0.7388
vn 0.5851 0.3502 0.7315
vn 0.5912 0.3542 0.7246
vn 0.5692 -0.7223 -0.3928
vn -0.9513 0.2638 -0.1598
vn 0.1133 0.5751 0.8102
vn 0.1165 0.7828 -0.6113
vn 0.0321 0.7051 -0.7084
vn 0.0088 0.6810 -0.7322
vn -0.2315 -0.6772 0.6984
vn -0.1167 -0.6585 0.7435
vn -0.0819 -0.6509 0.7548
vn -0.4035 -0.7202 -0.5643
vn -0.4674 -0.6944 -0.5471
vn -0.3826 -0.7277 -0.5692
vn 0.7720 -0.0650 -0.6323
vn 0.7787 -0.0623 -0.6243
vn 0.7633 -0.0684 -0.6424
vn 0.3394 0.8492 0.4046
vn 0.3963 0.8469 0.3546
vn 0.3238 0.8490 0.4175
vn -0.8784 0.3458 0.3299
vn -0.8734 0.3502 0.3384
vn -0.8687 0.3542 0.3463
vn 0.2038 -0.7223 0.6609
vn 0.4381 0.2638 -0.8594
vn -0.8068 0.5751 -0.1353
vn 0.5481 0.7828 0.2947
vn 0.6661 0.7051 0.2433
vn 0.6957 0.6810 0.2283
vn -0.5966 -0.6772 -0.4305
vn -0.6741 -0.6585 -0.3346
vn -0.6953 -0.6509 -0.3047
vn 0.5441 -0.0650 -0.8365
vn 0.4864 -0.0447 -0.8726
vn 0.5620 -0.0715 -0.8240
vn 0.8720 0.2136 0.4405
vn 0.8685 0.2089 0.4495
vn 0.8763 0.2196 0.4289
vn -0.5292 0.2769 0.8021
vn -0.4638 0.2966 0.8348
vn -0.5461 0.2713 0.7925
vn -0.8541 0.2107 -0.4754
vn -0.8597 0.2073 -0.4669
vn -0.8648 0.2040 -0.4589
vn 0.0000 -1.0000 -0.0000
vn 0.6963 0.6692 0.2595
vn -0.6053 0.6692 -0.4311
vn -0.3120 0.2589 0.9141
vn -0.1769 0.2128 0.9610
vn -0.1392 0.1993 0.9700
vn 0.3298 -0.0831 -0.9404
vn 0.2135 -0.1172 -0.9699
vn 0.1779 -0.1270 -0.9758
vn -0.9452 -0.0650 -0.3200
vn -0.9659 -0.0447 -0.2551
vn -0.9376 -0.0715 -0.3404
vn 0.2108 0.2136 -0.9539
vn 0.2204 0.2089 -0.9528
vn 0.1985 0.2196 -0.9552
vn 0.9081 0.2769 0.3141
vn 0.9237 0.2966 0.2426
vn 0.9031 0.2713 0.3328
vn -0.2491 0.2107 0.9453
vn -0.2394 0.2072 0.9485
vn -0.2304 0.2040 0.9515
vn 0.0790 0.6692 -0.7389
vn -0.2677 0.6692 0.6932
vn 0.9629 0.2589 0.0758
vn 0.9748 0.2127 -0.0666
vn 0.9743 0.1993 -0.1054
vn -0.9928 -0.0831 -0.0867
vn -0.9926 -0.1172 0.0334
vn -0.9895 -0.1270 0.0693
vn -0.9858 -0.0650 0.1545
vn -0.9741 -0.0447 0.2216
vn -0.9885 -0.0715 0.1329
vn -0.2553 0.2136 -0.9430
vn -0.2463 0.2089 -0.9464
vn -0.2668 0.2196 -0.9384
vn 0.9503 0.2769 -0.1426
vn 0.9309 0.2966 -0.2132
vn 0.9545 0.2713 -0.1237
vn 0.2174 0.2107 0.9531
vn 0.2275 0.2072 0.9515
vn 0.2369 0.2040 0.9499
vn -0.2725 0.6692 -0.6913
vn 0.0841 0.6692 0.7383
vn 0.8884 0.2589 -0.3791
vn 0.8329 0.2128 -0.5109
vn 0.8144 0.1993 -0.5450
vn -0.9199 -0.0831 0.3834
vn -0.8640 -0.1172 0.4896
vn -0.8446 -0.1270 0.5200
vn -0.9939 -0.0650 -0.0886
vn -0.9988 -0.0447 -0.0207
vn -0.9913 -0.0715 -0.1102
vn -0.0196 0.2136 -0.9767
vn -0.0100 0.2089 -0.9779
vn -0.0319 0.2196 -0.9751
vn 0.9565 0.2769 0.0915
vn 0.9548 0.2966 0.0184
vn 0.9561 0.2713 0.1110
vn -0.0196 0.2107 0.9773
vn -0.0095 0.2073 0.9782
vn 0.0000 0.2040 0.9790
vn -0.0971 0.6692 -0.7367
vn -0.0971 0.6692 0.7367
vn 0.9537 0.2589 -0.1529
vn 0.9318 0.2127 -0.2942
vn 0.9221 0.1993 -0.3317
vn -0.9853 -0.0831 0.1494
vn -0.9568 -0.1172 0.2660
vn -0.9454 -0.1270 0.3002
vn 0.2640 -0.6858 0.6782
vn -0.9524 -0.0595 0.2991
vn -0.2632 0.8456 -0.4645
vn 0.9401 0.3408 0.0123
vn -0.3696 0.8021 -0.4691
vn 0.3696 -0.6811 0.6320
vn 0.7170 -0.6858 0.1248
vn -0.2367 -0.0595 0.9698
vn -0.5337 0.8456 -0.0150
vn 0.4968 0.3408 -0.7981
vn -0.5926 0.8021 0.0736
vn 0.7321 -0.6811 0.0106
vn -0.3703 -0.6858 0.6265
vn -0.8234 -0.0595 -0.5643
vn 0.2028 0.8456 -0.4939
vn 0.5709 0.3408 0.7470
vn 0.1407 0.8021 -0.5804
vn -0.2688 -0.6811 0.6810
vn -0.4864 -0.6858 -0.5413
vn 0.7856 -0.0595 -0.6159
vn 0.4102 0.8456 0.3417
vn -0.8839 0.3408 0.3202
vn 0.5113 0.8021 0.3085
vn -0.5689 -0.6811 -0.4609
vn 0.4684 -0.0385 -0.8827
vn 0.8648 0.2040 0.4589
vn -0.4469 0.3013 0.8423
vn -0.8477 0.2146 -0.4851
vn -0.3501 0.2713 0.8966
vn 0.3673 -0.0715 -0.9274
vn -0.9712 -0.0385 -0.2352
vn 0.2304 0.2040 -0.9515
vn 0.9267 0.3013 0.2244
vn -0.2600 0.2146 0.9415
vn 0.9553 0.2713 0.1172
vn -0.9894 -0.0715 -0.1262
vn -0.9696 -0.0385 0.2418
vn -0.2369 0.2040 -0.9499
vn 0.9252 0.3013 -0.2307
vn 0.2060 0.2146 0.9547
vn 0.0840 0.6692 0.7383
vn 0.9008 0.2713 -0.3390
vn -0.9352 -0.0715 0.3468
vn -0.9993 -0.0385 0.0000
vn 0.0000 0.2040 -0.9790
vn 0.9535 0.3013 0.0000
vn -0.0311 0.2146 0.9762
vn 0.9561 0.2713 -0.1110
vn -0.9913 -0.0715 0.1102
usemtl color1
s 1
f 1/1/1 2/2/2 3/3/3
f 4/4/4 5/5/5 1/6/6
f 6/7/7 7/8/8 8/9/9
f 6/10/10 9/11/11 10/12/12
f 2/13/13 11/14/13 7/8/13
f 8/9/14 1/15/14 3/16/14
f 8/17/15 12/18/15 6/10/15
f 9/19/13 7/20/13 10/12/13
f 4/21/16 7/20/17 11/22/18
f 12/23/19 2/24/20 9/25/21
f 13/26/22 14/27/23 15/28/24
f 16/29/25 17/30/26 13/31/27
f 18/32/28 19/33/29 20/34/30
f 18/35/31 21/36/32 22/37/33
f 14/38/34 23/39/34 19/33/34
f 20/34/35 13/40/35 15/41/35
f 20/42/36 24/43/36 18/35/36
f 21/44/34 19/45/34 22/37/34
f 16/46/37 19/45/38 23/47/39
f 24/48/40 14/49/41 21/50/42
f 25/51/43 26/52/44 27/53/45
f 28/54/46 29/55/47 25/56/48
f 30/57/49 31/58/50 32/59/51
f 30/60/52 33/61/53 34/62/54
f 26/63/55 35/64/55 31/58/55
f 32/59/56 25/65/56 27/66/56
f 32/67/57 36/68/57 30/60/57
f 33/69/55 31/70/55 34/62/55
f 28/71/58 31/70/59 35/72/60
f 36/73/61 26/74/62 33/75/63
f 37/76/64 38/77/65 39/78/66
f 40/79/67 41/80/68 37/81/69
f 42/82/70 43/83/71 44/84/72
f 42/85/73 45/86/74 46/87/75
f 38/88/76 47/89/76 43/83/76
f 44/84/77 37/90/77 39/91/77
f 44/92/78 48/93/78 42/85/78
f 45/94/76 43/95/76 46/87/76
f 40/96/79 43/95/80 47/97/81
f 48/98/82 38/99/83 45/100/84
f 49/101/85 50/102/86 51/103/87
f 52/104/88 53/105/89 49/106/90
f 54/107/91 55/108/92 56/109/93
f 54/110/94 57/111/95 58/112/96
f 50/113/97 59/114/97 55/108/97
f 56/109/98 49/115/98 51/116/98
f 56/117/99 60/118/99 54/110/99
f 57/119/97 55/120/97 58/112/97
f 52/121/100 55/120/101 59/122/102
f 60/123/103 50/124/104 57/125/105
f 61/126/106 62/127/107 63/128/108
f 64/129/109 65/130/110 61/131/111
f 66/132/112 67/133/113 68/134/114
f 66/135/115 69/136/116 70/137/117
f 62/138/97 71/139/97 67/133/97
f 68/134/118 61/140/118 63/141/118
f 68/142/119 72/143/119 66/135/119
f 69/144/97 67/145/97 70/137/97
f 64/146/120 67/145/121 71/147/122
f 72/148/123 62/149/124 69/150/125
f 73/151/126 74/152/127 75/153/128
f 76/154/129 77/155/130 73/156/131
f 78/157/132 79/158/133 80/159/134
f 78/160/135 81/161/136 82/162/137
f 74/163/97 83/164/97 79/158/97
f 80/159/138 73/165/138 75/166/138
f 80/167/139 84/168/139 78/160/139
f 81/169/97 79/170/97 82/162/97
f 76/171/140 79/170/141 83/172/142
f 84/173/143 74/174/144 81/175/145
f 85/176/146 86/177/147 87/178/148
f 88/179/149 89/180/150 85/181/151
f 90/182/152 91/183/153 92/184/154
f 90/185/155 93/186/156 94/187/157
f 86/188/97 95/189/97 91/183/97
f 92/184/158 85/190/158 87/191/158
f 92/192/159 96/193/159 90/185/159
f 93/194/97 91/195/97 94/187/97
f 88/196/160 91/195/161 95/197/162
f 96/198/163 86/199/164 93/200/165
f 1/1/1 5/201/166 2/2/2
f 4/4/4 11/14/167 5/5/5
f 6/7/7 10/202/168 7/8/8
f 6/10/10 12/203/169 9/11/11
f 2/13/13 5/204/13 11/14/13
f 8/9/14 4/4/14 1/15/14
f 8/17/15 3/205/15 12/18/15
f 9/19/13 2/206/13 7/20/13
f 4/21/16 8/17/170 7/20/17
f 12/23/19 3/207/171 2/24/20
f 13/26/22 17/208/172 14/27/23
f 16/29/25 23/39/173 17/30/26
f 18/32/28 22/209/174 19/33/29
f 18/35/31 24/210/175 21/36/32
f 14/38/34 17/211/34 23/39/34
f 20/34/35 16/29/35 13/40/35
f 20/42/36 15/212/36 24/43/36
f 21/44/34 14/213/34 19/45/34
f 16/46/37 20/42/176 19/45/38
f 24/48/40 15/214/177 14/49/41
f 25/51/43 29/215/178 26/52/44
f 28/54/46 35/64/179 29/55/47
f 30/57/49 34/216/180 31/58/50
f 30/60/52 36/217/181 33/61/53
f 26/63/55 29/218/55 35/64/55
f 32/59/56 28/54/56 25/65/56
f 32/67/57 27/219/57 36/68/57
f 33/69/55 26/220/55 31/70/55
f 28/71/58 32/67/182 31/70/59
f 36/73/61 27/221/183 26/74/62
f 37/76/64 41/222/184 38/77/65
f 40/79/67 47/89/185 41/80/68
f 42/82/70 46/223/186 43/83/71
f 42/85/73 48/224/187 45/86/74
f 38/88/76 41/225/76 47/89/76
f 44/84/77 40/79/77 37/90/77
f 44/92/78 39/226/78 48/93/78
f 45/94/76 38/227/76 43/95/76
f 40/96/79 44/92/188 43/95/80
f 48/98/82 39/228/189 38/99/83
f 49/101/85 53/229/190 50/102/86
f 52/104/88 59/114/191 53/105/89
f 54/107/91 58/230/192 55/108/92
f 54/110/94 60/231/193 57/111/95
f 50/113/97 53/232/97 59/114/97
f 56/109/98 52/104/98 49/115/98
f 56/117/99 51/233/99 60/118/99
f 57/119/97 50/234/97 55/120/97
f 52/121/100 56/117/194 55/120/101
f 60/123/103 51/235/195 50/124/104
f 61/126/106 65/236/196 62/127/107
f 64/129/109 71/139/197 65/130/110
f 66/132/112 70/237/198 67/133/113
f 66/135/115 72/238/199 69/136/116
f 62/138/97 65/239/97 71/139/97
f 68/134/118 64/129/118 61/140/118
f 68/142/119 63/240/119 72/143/119
f 69/144/97 62/241/97 67/145/97
f 64/146/120 68/142/200 67/145/121
f 72/148/123 63/242/201 62/149/124
f 73/151/126 77/243/202 74/152/127
f 76/154/129 83/164/203 77/155/130
f 78/157/132 82/244/204 79/158/133
f 78/160/135 84/245/205 81/161/136
f 74/163/97 77/246/97 83/164/97
f 80/159/138 76/154/138 73/165/138
f 80/167/139 75/247/206 84/168/139
f 81/169/97 74/248/97 79/170/97
f 76/171/140 80/167/207 79/170/141
f 84/173/143 75/249/208 74/174/144
f 85/176/146 89/250/209 86/177/147
f 88/179/149 95/189/210 89/180/150
f 90/182/152 94/251/211 91/183/153
f 90/185/155 96/252/212 93/186/156
f 86/188/97 89/253/97 95/189/97
f 92/184/158 88/179/158 85/190/158
f 92/192/159 87/254/159 96/193/159
f 93/194/97 86/255/97 91/195/97
f 88/196/160 92/192/213 91/195/161
f 96/198/163 87/256/214 86/199/164
