# Blender v2.82 (sub 7) OBJ File: ''
# www.blender.org
mtllib tree2.mtl
o TREE_2_Cylinder.002
v -1.441327 0.135336 0.220203
v -1.095781 0.527128 -0.503631
v -1.235108 0.126858 -0.693674
v -0.494810 0.495601 -1.108354
v -0.466753 0.086082 -1.325728
v 0.279979 0.452018 -1.001197
v 0.445672 0.034492 -1.119360
v 0.698245 0.426134 -0.231736
v 0.891198 0.006532 -0.182259
v 0.591111 0.429540 0.544274
v 0.684979 0.015010 0.731619
v 0.043979 0.458544 1.004029
v -0.029539 0.053262 1.218706
v -1.202914 0.530535 0.272380
v -0.587649 0.749218 0.696290
v -0.953603 0.825260 0.224600
v -0.730810 0.502127 0.896873
v -0.941962 0.104852 1.012338
v 0.007164 0.693139 0.768737
v -0.499697 1.084559 0.617276
v -0.876326 0.876721 -0.370023
v -0.401088 0.873456 -0.739257
v 0.193725 0.817378 -0.666808
v 0.559679 0.741336 -0.195118
v 0.482402 0.689874 0.399505
v 0.001179 1.051298 0.679946
v 0.426217 2.285257 0.353112
v 0.063562 2.305012 0.635637
v 0.462851 1.032125 -0.132595
v 0.399879 1.029578 0.369338
v -0.347671 1.090706 -0.594502
v 0.153205 1.057445 -0.531832
v -0.746369 1.112424 -0.283895
v -0.809342 1.109879 0.218039
v -0.673679 2.358296 0.215491
v -2.120687 1.984905 -1.084596
v -0.616403 2.360613 -0.241063
v 0.483496 2.287572 -0.103443
v -0.253747 2.340857 -0.523590
v -0.392031 2.335267 0.578633
v 0.201845 2.310603 -0.466585
v -2.340291 1.976028 0.665817
v 0.486263 1.771738 2.276638
v 1.016434 1.793169 -1.949233
v 2.096268 1.704872 -0.556964
v -0.730288 1.909162 -2.167786
v -1.260457 1.887732 2.058086
v 1.876664 1.695995 1.193449
v 0.153899 3.716862 1.295359
v -0.825477 3.782812 1.003574
v 1.345126 3.663146 -0.173814
v 1.052993 3.667295 0.807670
v -0.120205 3.772797 -1.365937
v 0.859175 3.706847 -1.074151
v -1.311433 3.826512 0.103236
v -1.019298 3.822363 -0.878247
v -1.497043 3.694556 -1.260062
v -0.191281 3.622569 -1.968339
v -1.215554 3.637116 1.472919
v 1.936831 3.463325 -0.237009
v 1.512564 3.469349 1.188407
v 1.231075 3.526791 -1.544575
v -1.921310 3.700582 0.165353
v 0.206802 3.541336 1.896681
v -0.717131 6.118689 0.679250
v 0.493216 6.032722 1.200243
v 1.014089 6.013180 -0.013046
v -0.196258 6.099144 -0.534041
v -0.219834 6.079753 1.191027
v 1.004323 6.005147 0.701500
v 0.516792 6.052114 -0.524825
v -0.707365 6.126720 -0.035296
v -0.372245 5.846789 -0.940010
v 0.673903 5.777789 -0.926487
v -1.122114 5.887247 -0.208279
v -1.136441 5.875462 0.840064
v 0.639315 5.749339 1.604438
v 1.403510 5.720665 -0.175635
v -0.406834 5.818338 1.590917
v 1.389182 5.708880 0.872708
v 0.102971 7.945224 0.409399
v 0.781840 7.903850 0.137924
v 0.116043 7.955977 -0.547258
v 0.511474 7.929896 -0.542147
v -0.172812 7.966815 0.125587
v -0.167397 7.971270 -0.270674
v 0.498400 7.919143 0.414509
v 0.787255 7.908305 -0.258335
v 0.537844 9.044297 -0.134956
vt 0.888580 0.753984
vt 0.872278 0.770047
vt 0.865603 0.760148
vt 0.856728 0.779031
vt 0.849245 0.771020
vt 0.880176 0.746239
vt 0.900837 0.736661
vt 0.903876 0.748267
vt 0.913309 0.756312
vt 0.934703 0.748456
vt 0.935680 0.760286
vt 0.954653 0.747705
vt 0.959414 0.758723
vt 0.955515 0.763395
vt 0.942612 0.774597
vt 0.937778 0.763633
vt 0.913309 0.792897
vt 0.929468 0.788838
vt 0.921511 0.798322
vt 0.924041 0.782039
vt 0.915992 0.773304
vt 0.907990 0.755802
vt 0.891738 0.765530
vt 0.383558 0.968483
vt 0.378683 0.973793
vt 0.370950 0.973793
vt 0.943578 0.782730
vt 0.934031 0.796618
vt 0.891894 0.775358
vt 0.877254 0.779987
vt 0.885516 0.722027
vt 0.900662 0.724478
vt 0.956284 0.775396
vt 0.924940 0.735073
vt 0.935817 0.739623
vt 0.867788 0.787115
vt 0.951129 0.740429
vt 0.937476 0.731698
vt 0.950365 0.731376
vt 0.887800 0.715617
vt 0.900581 0.717331
vt 0.880518 0.786493
vt 0.927028 0.803772
vt 0.955942 0.792062
vt 0.946008 0.791767
vt 0.928299 0.728820
vt 0.872461 0.792047
vt 0.937222 0.700569
vt 0.879199 0.710926
vt 0.892250 0.685353
vt 0.948945 0.700276
vt 0.903876 0.686912
vt 0.881010 0.734294
vt 0.916491 0.744747
vt 0.906982 0.767792
vt 0.365482 0.968235
vt 0.365482 0.960374
vt 0.383558 0.960622
vt 0.370527 0.953778
vt 0.378260 0.953777
vt 0.955575 0.783575
vt 0.959414 0.728042
vt 0.893078 0.783539
vt 0.956284 0.819842
vt 0.899161 0.813429
vt 0.902784 0.784915
vt 0.907990 0.814681
vt 0.957176 0.697243
vt 0.413517 0.975465
vt 0.421945 0.963326
vt 0.417017 0.975465
vt 0.945390 0.824254
vt 0.887737 0.816116
vt 0.411043 0.977980
vt 0.408528 0.963326
vt 0.413517 0.984054
vt 0.399040 0.986610
vt 0.411043 0.981538
vt 0.417017 0.984054
vt 0.431432 0.986610
vt 0.421945 0.996255
vt 0.419491 0.977980
vt 0.431432 0.972971
vt 0.399040 0.972971
vt 0.408528 0.996255
vt 0.419491 0.981538
vt 0.426137 0.908378
vt 0.442604 0.896668
vt 0.444038 0.905039
vt 0.366627 0.952770
vt 0.382870 0.940524
vt 0.383975 0.948940
vt 0.446036 0.934919
vt 0.461946 0.923563
vt 0.463193 0.931960
vt 0.443798 0.909385
vt 0.426653 0.918353
vt 0.426106 0.909882
vt 0.443798 0.924188
vt 0.424764 0.925362
vt 0.424658 0.893652
vt 0.444038 0.889489
vt 0.365482 0.938013
vt 0.383975 0.933429
vt 0.444788 0.920170
vt 0.463193 0.916430
vt 0.390519 0.915538
vt 0.395118 0.905004
vt 0.395118 0.917483
vt 0.370113 0.906945
vt 0.374162 0.896180
vt 0.376089 0.900869
vt 0.370113 0.915538
vt 0.374162 0.926308
vt 0.365482 0.917483
vt 0.384542 0.921614
vt 0.386438 0.926308
vt 0.384542 0.900869
vt 0.390519 0.906945
vt 0.386438 0.896180
vt 0.365482 0.905004
vt 0.376089 0.921614
vt 0.423774 0.910533
vt 0.419841 0.931522
vt 0.413453 0.909385
vt 0.446006 0.881611
vt 0.425882 0.877442
vt 0.446115 0.870973
vt 0.423667 0.885321
vt 0.414823 0.907511
vt 0.413420 0.884763
vt 0.401628 0.883756
vt 0.405991 0.860727
vt 0.411978 0.883756
vt 0.424462 0.871652
vt 0.441811 0.859435
vt 0.409020 0.908378
vt 0.401628 0.887650
vt 0.411721 0.859435
vt 0.423471 0.879811
vt 0.414008 0.932204
vt 0.401628 0.912123
vt 0.404933 0.941354
vt 0.401628 0.948735
vt 0.401628 0.939937
vt 0.415004 0.951591
vt 0.407747 0.954957
vt 0.409105 0.951591
vt 0.419175 0.947351
vt 0.416402 0.954957
vt 0.415004 0.937114
vt 0.422522 0.939937
vt 0.419175 0.941354
vt 0.409105 0.937114
vt 0.407747 0.933716
vt 0.404933 0.947351
vt 0.422522 0.948735
vt 0.416402 0.933716
vt 0.462032 0.859435
vt 0.458160 0.880511
vt 0.453460 0.860274
vt 0.384966 0.952207
vt 0.396486 0.936961
vt 0.392408 0.956599
vt 0.452790 0.962894
vt 0.453571 0.944087
vt 0.456595 0.945310
vt 0.430485 0.938146
vt 0.438163 0.955887
vt 0.435036 0.956810
vt 0.447105 0.863609
vt 0.455758 0.881772
vt 0.399068 0.937565
vt 0.399239 0.958199
vt 0.459260 0.945421
vt 0.459840 0.963189
vt 0.424764 0.942334
vt 0.432874 0.958393
vt 0.459840 0.935926
vt 0.438756 0.966869
vt 0.461400 0.880194
vt 0.462032 0.890685
vt 0.393673 0.935300
vt 0.399239 0.927315
vt 0.928874 0.697951
vt 0.884427 0.681086
vt 0.439837 0.934696
vt 0.428045 0.882772
vt 0.368114 0.927315
vt 0.447787 0.909385
vt 0.423774 0.932709
vt 0.425039 0.881611
vt 0.418718 0.908378
vt 0.401974 0.859977
vt 0.444788 0.959660
vt 0.438756 0.935703
vn -0.8902 0.4070 -0.2047
vn -0.5842 0.3489 -0.7327
vn 0.2255 0.3471 -0.9103
vn 0.8516 0.3451 -0.3946
vn 0.9299 0.3041 0.2070
vn 0.5464 0.3125 0.7770
vn -0.5900 0.5887 0.5526
vn -0.1858 0.3640 0.9127
vn -0.7691 0.3979 0.5002
vn -0.0557 -0.9984 -0.0033
vn -0.0936 0.2515 0.9633
vn -0.8347 0.5473 -0.0611
vn 0.1513 0.6866 -0.7111
vn 0.5100 0.6477 0.5660
vn 0.7561 0.3932 -0.5232
vn -0.0677 0.6522 0.7550
vn -0.5147 0.6610 -0.5460
vn 0.8915 0.4364 0.1212
vn 0.8903 0.4390 0.1210
vn 0.8954 0.4284 0.1217
vn 0.9620 0.2445 0.1219
vn 0.1401 0.5031 -0.8528
vn -0.8628 0.5008 -0.0688
vn -0.7039 0.3707 0.6059
vn 0.6089 0.2005 0.7675
vn 0.7460 0.3678 -0.5552
vn -0.5051 0.5621 -0.6549
vn -0.5055 0.5611 -0.6555
vn -0.5039 0.5649 -0.6534
vn 0.7902 0.0012 -0.6128
vn -0.6090 0.0905 -0.7880
vn 0.9921 -0.0192 0.1244
vn 0.1271 0.0467 -0.9908
vn -0.8432 0.5243 -0.1187
vn -0.5994 0.5039 -0.6219
vn 0.1468 0.4716 -0.8695
vn 0.7972 0.4349 -0.4187
vn 0.8962 0.4265 0.1219
vn 0.5914 0.4395 0.6761
vn -0.5595 0.6931 0.4545
vn -0.0937 0.4792 0.8727
vn -0.6735 0.5127 0.5325
vn -0.1050 0.2376 0.9657
vn -0.7676 0.6317 -0.1087
vn 0.1383 0.6743 -0.7254
vn 0.5062 0.5709 0.6465
vn 0.7503 0.5339 -0.3899
vn -0.0196 0.7065 0.7075
vn -0.5035 0.5657 -0.6531
vn 0.9112 0.3830 0.1516
vn 0.6145 -0.0027 0.7889
vn 0.9475 0.2837 0.1477
vn 0.1515 0.5220 -0.8394
vn -0.8877 0.4474 -0.1091
vn -0.7350 0.3321 0.5911
vn 0.6002 0.2142 0.7706
vn 0.7498 0.4159 -0.5146
vn -0.5040 0.5277 -0.6838
vn -0.1214 0.0411 0.9918
vn -0.9866 0.1070 -0.1232
vn -0.7846 0.0865 0.6140
vn 0.2296 -0.9730 0.0239
vn 0.1696 -0.9665 -0.1928
vn -0.2407 -0.9396 -0.2433
vn -0.2930 -0.9413 0.1675
vn 0.1185 -0.9683 0.2199
vn -0.0253 -0.9526 -0.3031
vn -0.0253 -0.9526 -0.3030
vn -0.3515 -0.9349 -0.0488
vn -0.0984 -0.9552 0.2793
vn -0.2134 0.5120 0.8321
vn 0.8725 0.4150 0.2579
vn 0.2851 0.4179 -0.8626
vn -0.8189 0.5185 -0.2459
vn -0.7322 0.5352 0.4212
vn 0.4422 0.4631 0.7681
vn 0.8161 0.3955 -0.4213
vn -0.4008 0.4697 -0.7866
vn 0.0730 -0.9697 0.2332
vn 0.0193 -0.9593 -0.2817
vn -0.3275 -0.9402 -0.0935
vn -0.1404 -0.9567 0.2551
vn 0.2082 -0.9758 0.0661
vn 0.1856 -0.9715 -0.1473
vn -0.1928 -0.9464 -0.2593
vn -0.3062 -0.9444 0.1194
vn -0.8289 0.3145 0.4627
vn 0.4764 0.1855 0.8594
vn 0.8344 0.3400 -0.4338
vn -0.4043 0.4578 -0.7918
vn -0.2653 0.2166 0.9395
vn 0.9308 0.2396 0.2760
vn 0.2845 0.4271 -0.8583
vn -0.8717 0.4146 -0.2612
vn -0.0622 -0.8353 0.5462
vn 0.5009 -0.8655 -0.0029
vn 0.3418 -0.8518 -0.3970
vn -0.4380 -0.8028 -0.4045
vn -0.4508 -0.8094 0.3765
vn 0.3335 -0.8587 0.3892
vn -0.0472 -0.8258 -0.5619
vn -0.6051 -0.7960 -0.0172
vn 0.0205 0.4818 0.8761
vn 0.9623 0.2717 0.0162
vn 0.0244 0.1775 -0.9838
vn -0.9092 0.4163 -0.0077
vn -0.6051 0.4925 0.6255
vn 0.6520 0.3967 0.6462
vn 0.7127 0.1751 -0.6792
vn -0.6621 0.2825 -0.6941
vn 0.7069 0.2279 -0.6696
vn -0.6009 0.4761 -0.6421
vn 0.0173 0.4383 0.8987
vn 0.9770 0.2128 0.0157
vn 0.0347 0.3423 -0.9390
vn -0.8354 0.5497 -0.0052
vn -0.5858 0.5338 0.6098
vn 0.6735 0.3052 0.6733
vn -0.0830 0.4375 0.8954
vn 0.9346 0.3352 0.1190
vn 0.1392 0.3526 -0.9254
vn -0.8825 0.4577 -0.1084
vn -0.6835 0.4684 0.5598
vn 0.5806 0.3832 0.7184
vn 0.7579 0.3218 -0.5674
vn -0.5466 0.4097 -0.7303
vn -0.6596 0.3459 0.6673
vn 0.6803 0.2674 0.6824
vn 0.6624 0.4339 -0.6107
vn -0.5874 0.5080 -0.6300
vn 0.0053 0.2687 0.9632
vn 0.9407 0.3389 0.0167
vn 0.0442 0.5007 -0.8645
vn -0.8945 0.4470 -0.0072
usemtl Material.002
s 1
f 1/1/1 2/2/1 3/3/1
f 3/3/2 4/4/2 5/5/2
f 5/6/3 6/7/3 7/8/3
f 7/9/4 8/10/4 9/11/4
f 9/11/5 10/12/5 11/13/5
f 11/14/6 12/15/6 13/16/6
f 14/17/7 15/18/7 16/19/7
f 13/16/8 17/20/8 18/21/8
f 18/22/9 14/23/9 1/1/9
f 11/24/10 13/25/10 18/26/10
f 19/27/11 20/28/11 15/18/11
f 2/2/12 16/29/12 21/30/12
f 6/7/13 22/31/13 23/32/13
f 10/33/14 19/27/14 12/15/14
f 8/10/15 23/34/15 24/35/15
f 12/15/16 15/18/16 17/20/16
f 2/2/17 22/36/17 4/4/17
f 8/10/18 25/37/19 10/12/20
f 25/37/21 29/38/21 30/39/21
f 23/32/22 31/40/22 32/41/22
f 16/29/23 33/42/23 21/30/23
f 15/18/24 34/43/24 16/19/24
f 19/27/25 30/44/25 26/45/25
f 24/35/26 32/46/26 29/38/26
f 21/30/27 31/47/28 22/36/29
f 32/46/30 38/48/30 29/38/30
f 33/49/31 39/50/31 31/40/31
f 29/38/32 27/51/32 30/39/32
f 31/40/33 41/52/33 32/41/33
f 1/1/34 14/23/34 2/2/34
f 3/3/35 2/2/35 4/4/35
f 5/6/36 4/53/36 6/7/36
f 7/9/37 6/54/37 8/10/37
f 9/11/38 8/10/18 10/12/20
f 11/14/39 10/33/39 12/15/39
f 14/17/40 17/20/40 15/18/40
f 13/16/41 12/15/41 17/20/41
f 18/22/42 17/55/42 14/23/42
f 18/26/10 1/56/10 11/24/10
f 1/56/10 3/57/10 9/58/10
f 11/24/10 1/56/10 9/58/10
f 3/57/10 5/59/10 7/60/10
f 7/60/10 9/58/10 3/57/10
f 19/27/43 26/45/43 20/28/43
f 2/2/44 14/23/44 16/29/44
f 6/7/45 4/53/45 22/31/45
f 10/33/46 25/61/46 19/27/46
f 8/10/47 6/54/47 23/34/47
f 12/15/48 19/27/48 15/18/48
f 2/2/49 21/30/27 22/36/29
f 8/10/50 24/35/50 25/37/50
f 26/62/51 30/39/51 27/51/51
f 25/37/52 24/35/52 29/38/52
f 23/32/53 22/31/53 31/40/53
f 16/29/54 34/63/54 33/42/54
f 15/18/55 20/28/55 34/43/55
f 19/27/56 25/61/56 30/44/56
f 24/35/57 23/34/57 32/46/57
f 21/30/58 33/42/58 31/47/58
f 20/28/59 26/45/59 28/64/59
f 33/42/60 34/63/60 35/65/60
f 34/63/61 20/66/61 40/67/61
usemtl Material.003
f 26/62/51 27/51/51 28/68/51
f 35/69/62 36/70/62 37/71/62
f 20/28/59 28/64/59 40/72/59
f 33/42/60 35/65/60 37/73/60
f 34/63/61 40/67/61 35/65/61
f 40/74/63 42/75/63 35/69/63
f 27/76/64 43/77/64 28/78/64
f 38/79/65 44/80/65 45/81/65
f 39/82/66 36/70/66 46/83/66
f 28/78/67 47/84/68 40/74/67
f 27/76/69 45/81/69 48/85/69
f 41/86/70 46/83/70 44/80/70
f 47/87/71 49/88/71 50/89/71
f 48/90/72 51/91/72 52/92/72
f 44/93/73 53/94/73 54/95/73
f 36/96/74 55/97/74 56/98/74
f 42/99/75 50/100/75 55/97/75
f 43/101/76 52/102/76 49/88/76
f 45/103/77 54/104/77 51/91/77
f 46/105/78 56/106/78 53/94/78
f 53/107/79 57/108/79 58/109/79
f 49/110/80 59/111/80 50/112/80
f 52/113/81 60/114/81 61/115/81
f 54/116/82 58/109/82 62/117/82
f 55/118/83 57/108/83 56/119/83
f 50/112/84 63/120/84 55/118/84
f 52/113/85 64/121/85 49/110/85
f 51/122/86 62/117/86 60/114/86
f 59/123/87 65/124/87 63/125/87
f 61/126/88 66/127/88 64/128/88
f 62/129/89 67/130/89 60/131/89
f 57/132/90 68/133/90 58/134/90
f 64/128/91 69/135/91 59/136/91
f 60/131/92 70/137/92 61/138/92
f 58/134/93 71/139/93 62/140/93
f 63/125/94 72/141/94 57/142/94
f 71/143/95 73/144/95 74/145/95
f 65/146/96 75/147/96 72/148/96
f 69/149/97 76/150/97 65/146/97
f 70/151/98 77/152/98 66/153/98
f 67/154/99 74/145/99 78/155/99
f 68/156/100 75/147/100 73/144/100
f 66/153/101 79/157/101 69/149/101
f 70/151/102 78/155/102 80/158/102
f 77/159/103 81/160/103 79/161/103
f 78/162/104 82/163/104 80/164/104
f 74/165/105 83/166/105 84/167/105
f 75/168/106 85/169/106 86/170/106
f 76/171/107 81/160/107 85/172/107
f 80/164/108 87/173/108 77/174/108
f 74/165/109 88/175/109 78/176/109
f 73/177/110 86/170/110 83/178/110
f 88/175/111 84/167/111 89/179/111
f 83/178/112 86/170/112 89/180/112
f 81/160/113 87/181/113 89/182/113
f 82/163/114 88/183/114 89/184/114
f 84/167/115 83/166/115 89/179/115
f 86/170/116 85/169/116 89/180/116
f 85/172/117 81/160/117 89/182/117
f 87/173/118 82/163/118 89/184/118
f 35/69/62 42/75/62 36/70/62
f 32/46/30 41/185/30 38/48/30
f 33/49/31 37/186/31 39/50/31
f 29/38/32 38/48/32 27/51/32
f 31/40/33 39/50/33 41/52/33
f 40/74/63 47/84/63 42/75/63
f 27/76/64 48/85/64 43/77/64
f 38/79/65 41/86/65 44/80/65
f 39/82/66 37/71/66 36/70/66
f 28/78/67 43/77/68 47/84/68
f 27/76/69 38/79/69 45/81/69
f 41/86/70 39/82/70 46/83/70
f 47/87/119 43/101/119 49/88/119
f 48/90/120 45/103/120 51/91/120
f 44/93/121 46/105/121 53/94/121
f 36/96/122 42/99/122 55/97/122
f 42/99/123 47/187/123 50/100/123
f 43/101/124 48/188/124 52/102/124
f 45/103/125 44/189/125 54/104/125
f 46/105/126 36/190/126 56/106/126
f 53/107/79 56/119/79 57/108/79
f 49/110/80 64/121/80 59/111/80
f 52/113/81 51/122/81 60/114/81
f 54/116/82 53/107/82 58/109/82
f 55/118/83 63/120/83 57/108/83
f 50/112/84 59/111/84 63/120/84
f 52/113/85 61/115/85 64/121/85
f 51/122/86 54/116/86 62/117/86
f 59/123/127 69/191/127 65/124/127
f 61/126/128 70/192/128 66/127/128
f 62/129/129 71/193/129 67/130/129
f 57/132/130 72/194/130 68/133/130
f 64/128/131 66/127/131 69/135/131
f 60/131/132 67/130/132 70/137/132
f 58/134/133 68/133/133 71/139/133
f 63/125/134 65/124/134 72/141/134
f 71/143/95 68/156/95 73/144/95
f 65/146/96 76/150/96 75/147/96
f 69/149/97 79/157/97 76/150/97
f 70/151/98 80/158/98 77/152/98
f 67/154/99 71/143/99 74/145/99
f 68/156/100 72/148/100 75/147/100
f 66/153/101 77/152/101 79/157/101
f 70/151/102 67/154/102 78/155/102
f 77/159/103 87/181/103 81/160/103
f 78/162/104 88/183/104 82/163/104
f 74/165/105 73/195/105 83/166/105
f 75/168/106 76/196/106 85/169/106
f 76/171/107 79/161/107 81/160/107
f 80/164/108 82/163/108 87/173/108
f 74/165/109 84/167/109 88/175/109
f 73/177/110 75/168/110 86/170/110
