# Blender v2.82 (sub 7) OBJ File: ''
# www.blender.org
mtllib 7.mtl
o Rock_Type2_03_mesh_Cube.008
v 0.005024 0.227893 0.678426
v 0.125041 0.172615 0.638861
v 0.054834 0.312663 0.501449
v 0.399268 0.121205 -0.459848
v 0.495850 0.030287 -0.303373
v 0.390608 -0.085777 -0.265618
v 0.455635 0.034250 0.313516
v 0.363872 -0.070636 0.300458
v 0.361060 -0.102727 -0.060049
v -0.560025 0.123994 -0.505817
v -0.697520 0.202718 -0.066209
v -0.194680 0.335510 -0.316012
v -0.760542 0.001074 0.274249
v -0.760641 0.000073 0.272476
v -0.759505 -0.000629 0.274013
v -0.079738 -0.018733 -0.663923
v -0.080729 -0.029532 -0.654171
v -0.086400 -0.024551 -0.659012
v 0.318816 0.326162 0.213069
v -0.036137 0.335510 0.049402
v -0.553816 -0.102727 -0.165020
v -0.657844 -0.059744 0.305462
v -0.751334 0.002102 0.061737
v -0.754574 0.041061 0.298087
v 0.065038 0.043752 0.645347
v 0.110142 0.075505 0.634941
v -0.160569 -0.037060 0.617112
v -0.093194 0.026273 0.689833
v -0.711947 0.195513 -0.023027
v 0.322108 0.317923 -0.356083
v 0.298925 -0.064728 0.359311
v -0.064353 0.009619 -0.680462
v -0.304060 0.189584 -0.639451
v -0.087793 0.329661 -0.479102
v 0.452799 0.319938 0.086192
v -0.567206 -0.089240 -0.332818
v -0.620251 -0.058210 -0.354560
v -0.586508 -0.006436 -0.448896
v -0.065839 -0.061905 -0.612277
v -0.368064 0.210415 0.611460
v -0.134699 0.114401 0.709377
v -0.035940 0.279601 0.642977
v -0.372533 0.206673 0.612509
v -0.715498 0.189136 -0.013278
v 0.558513 0.144761 0.239886
v 0.574770 0.160011 0.200634
vt 0.198200 0.763000
vt 0.195000 0.770800
vt 0.213800 0.763000
vt 0.201200 0.760900
vt 0.195200 0.768400
vt 0.197400 0.777700
vt 0.201200 0.760900
vt 0.195200 0.768400
vt 0.197400 0.777700
vt 0.216500 0.774200
vt 0.212500 0.761900
vt 0.199500 0.761900
vt 0.195000 0.759800
vt 0.217100 0.759800
vt 0.217100 0.781900
vt 0.195000 0.759800
vt 0.217100 0.759800
vt 0.217100 0.781900
vt 0.195000 0.759800
vt 0.217100 0.759800
vt 0.217100 0.781900
vt 0.210800 0.760900
vt 0.201200 0.760900
vt 0.206000 0.781900
vt 0.212500 0.761900
vt 0.199500 0.761900
vt 0.195500 0.774200
vt 0.206000 0.759800
vt 0.196400 0.765300
vt 0.196400 0.776400
vt 0.217100 0.759800
vt 0.195000 0.781900
vt 0.195000 0.759800
vt 0.195200 0.768400
vt 0.197400 0.777700
vt 0.210800 0.760900
vt 0.206000 0.759800
vt 0.196400 0.765300
vt 0.215600 0.776400
vt 0.217100 0.759800
vt 0.195000 0.781900
vt 0.195000 0.759800
vt 0.216500 0.774200
vt 0.199500 0.761900
vt 0.195500 0.774200
vt 0.206000 0.759800
vt 0.196400 0.765300
vt 0.196400 0.776400
vt 0.212500 0.761900
vt 0.199500 0.761900
vt 0.195500 0.774200
vt 0.216500 0.774200
vt 0.199500 0.761900
vt 0.195500 0.774200
vt 0.206000 0.759800
vt 0.196400 0.765300
vt 0.196400 0.776400
vt 0.216500 0.774200
vt 0.212500 0.761900
vt 0.199500 0.761900
vt 0.206000 0.759800
vt 0.196400 0.765300
vt 0.206000 0.781900
vt 0.199500 0.761900
vt 0.206000 0.781900
vt 0.212500 0.761900
vt 0.198200 0.763000
vt 0.195000 0.770800
vt 0.213800 0.778600
vt 0.201200 0.760900
vt 0.195200 0.768400
vt 0.197400 0.777700
vt 0.212500 0.761900
vt 0.199500 0.761900
vt 0.206000 0.781900
vt 0.198200 0.778600
vt 0.206000 0.781900
vt 0.213800 0.778600
vt 0.217100 0.770800
vt 0.206000 0.759800
vt 0.206000 0.781900
vt 0.214700 0.777700
vt 0.210800 0.760900
vt 0.216800 0.768400
vt 0.206000 0.781900
vt 0.214700 0.777700
vt 0.216800 0.768400
vt 0.210800 0.760900
vt 0.197400 0.777700
vt 0.214700 0.777700
vt 0.195200 0.768400
vt 0.216800 0.768400
vt 0.206000 0.781900
vt 0.216500 0.774200
vt 0.206000 0.781900
vt 0.215600 0.776400
vt 0.215600 0.765300
vt 0.217100 0.781900
vt 0.214700 0.777700
vt 0.216800 0.768400
vt 0.201200 0.760900
vt 0.196400 0.776400
vt 0.206000 0.781900
vt 0.215600 0.765300
vt 0.217100 0.781900
vt 0.206000 0.781900
vt 0.212500 0.761900
vt 0.206000 0.781900
vt 0.215600 0.765300
vt 0.215600 0.776400
vt 0.206000 0.781900
vt 0.216500 0.774200
vt 0.212500 0.761900
vt 0.206000 0.781900
vt 0.215600 0.765300
vt 0.215600 0.776400
vt 0.195500 0.774200
vt 0.206000 0.781900
vt 0.196400 0.776400
vt 0.215600 0.776400
vt 0.215600 0.765300
vt 0.195500 0.774200
vt 0.216500 0.774200
vt 0.198200 0.778600
vt 0.217100 0.770800
vt 0.213800 0.763000
vt 0.206000 0.759800
vt 0.206000 0.781900
vt 0.216800 0.768400
vt 0.214700 0.777700
vt 0.210800 0.760900
vt 0.216500 0.774200
vn 0.4927 0.7227 0.4848
vn 0.4538 -0.6198 -0.6402
vn 0.7483 -0.6613 0.0530
vn -0.3708 0.8871 -0.2748
vn -0.7819 -0.5231 0.3390
vn 0.0415 -0.6717 -0.7396
vn 0.0033 0.9988 0.0498
vn -0.4954 -0.8681 -0.0302
vn -0.9842 0.1718 -0.0419
vn -0.9842 0.1719 -0.0420
vn -0.9842 0.1718 -0.0418
vn 0.2781 -0.0813 0.9571
vn 0.2340 -0.8301 0.5061
vn -0.2114 0.9731 0.0917
vn 0.0329 0.9994 -0.0143
vn 0.6667 -0.1319 0.7336
vn 0.5340 -0.5474 0.6443
vn -0.0102 -0.9960 0.0887
vn 0.2580 0.5280 -0.8091
vn 0.8480 0.4659 -0.2527
vn -0.2534 -0.8070 -0.5335
vn 0.0093 -0.9967 -0.0808
vn -0.3783 -0.3047 -0.8741
vn -0.1778 0.4567 0.8717
vn -0.4742 -0.3975 0.7856
vn -0.9497 0.0586 -0.3075
vn -0.9497 0.0587 -0.3075
vn -0.5726 0.7659 0.2924
vn 0.4539 -0.6198 -0.6402
vn -0.4954 -0.8681 -0.0303
vn -0.4955 -0.8681 -0.0303
vn -0.2532 -0.8070 -0.5336
vn -0.3782 -0.3047 -0.8741
vn -0.4736 -0.3977 0.7858
usemtl color2
s 1
f 1/1/1 2/2/1 3/3/1
f 4/4/2 5/5/2 6/6/2
f 7/7/3 8/8/3 9/9/3
f 10/10/4 11/11/4 12/12/4
f 13/13/5 14/14/5 15/15/5
f 16/16/6 17/17/6 18/18/6
f 3/19/7 19/20/7 20/21/7
f 21/22/8 22/23/8 23/24/8
f 14/25/9 13/26/10 24/27/11
f 25/28/12 26/29/12 2/30/12
f 27/31/13 25/32/13 28/33/13
f 11/34/14 29/35/14 20/36/14
f 12/37/15 20/38/15 30/39/15
f 7/40/16 2/41/16 26/42/16
f 31/43/17 7/44/17 26/45/17
f 9/46/18 8/47/18 31/48/18
f 32/49/19 33/50/19 34/51/19
f 5/52/20 30/53/20 35/54/20
f 36/55/21 37/56/21 38/57/21
f 21/58/22 36/59/22 39/60/22
f 18/61/23 38/62/23 33/63/23
f 40/64/24 41/65/24 42/66/24
f 22/67/25 27/68/25 43/69/25
f 44/70/26 29/71/27 11/72/26
f 44/73/28 24/74/28 40/75/28
f 45/76/1 46/77/1 35/78/1
f 35/78/1 19/79/1 45/76/1
f 19/79/1 3/3/1 2/2/1
f 45/76/1 19/79/1 2/2/1
f 3/3/1 42/80/1 1/1/1
f 6/6/2 39/81/2 4/4/2
f 39/81/2 17/82/29 32/83/2
f 4/4/2 39/81/2 32/83/2
f 17/82/29 16/84/29 32/83/2
f 9/9/3 6/85/3 5/86/3
f 5/86/3 46/87/3 9/9/3
f 46/87/3 45/88/3 7/7/3
f 9/9/3 46/87/3 7/7/3
f 34/51/4 33/63/4 12/12/4
f 33/63/4 10/10/4 12/12/4
f 14/89/30 23/24/8 22/23/8
f 23/24/8 37/90/8 21/22/8
f 14/89/30 22/23/8 15/91/31
f 37/90/8 36/92/8 21/22/8
f 24/27/11 44/93/11 23/94/11
f 23/94/11 14/25/9 24/27/11
f 2/30/12 1/95/12 25/28/12
f 1/95/12 41/96/12 28/97/12
f 25/28/12 1/95/12 28/97/12
f 27/31/13 31/98/13 25/32/13
f 29/35/14 40/75/14 20/36/14
f 40/75/14 42/99/14 3/100/14
f 20/36/14 40/75/14 3/100/14
f 20/36/14 12/101/14 11/34/14
f 19/102/15 35/103/15 20/38/15
f 35/103/15 30/39/15 20/38/15
f 30/39/15 34/104/15 12/37/15
f 7/40/16 45/105/16 2/41/16
f 26/45/17 25/106/17 31/43/17
f 31/43/17 8/107/17 7/44/17
f 31/48/18 27/108/18 21/109/18
f 27/108/18 22/110/18 21/109/18
f 21/109/18 9/46/18 31/48/18
f 34/51/19 30/111/19 4/112/19
f 4/112/19 32/49/19 34/51/19
f 35/54/20 46/77/20 5/52/20
f 5/52/20 4/113/20 30/53/20
f 38/57/21 18/114/21 39/115/21
f 18/114/21 17/116/32 39/115/21
f 39/115/21 36/55/21 38/57/21
f 6/117/22 9/118/22 39/60/22
f 9/118/22 21/58/22 39/60/22
f 10/119/23 33/63/23 38/62/23
f 33/63/23 32/120/23 18/61/23
f 32/120/23 16/121/33 18/61/23
f 43/122/24 41/65/24 40/64/24
f 41/65/24 1/123/24 42/66/24
f 28/124/25 41/65/25 27/68/25
f 41/65/25 43/69/25 27/68/25
f 43/69/25 24/125/25 22/67/25
f 24/125/25 13/126/34 15/127/25
f 22/67/25 24/125/25 15/127/25
f 11/72/26 10/128/26 37/129/26
f 10/128/26 38/130/26 37/129/26
f 37/129/26 23/131/26 11/72/26
f 11/72/26 23/131/26 44/70/26
f 43/122/28 40/75/28 24/74/28
f 40/75/28 29/132/28 44/73/28
