# Blender v2.82 (sub 7) OBJ File: ''
# www.blender.org
mtllib 14.mtl
o Rock_Type4_03_mesh_Circle.005
v 0.015222 -0.035009 -0.114184
v -0.417985 -0.035009 -0.431002
v 0.247854 -0.035009 -0.814563
v -0.824081 -0.035009 -0.123192
v -0.652366 -0.035010 0.497716
v -0.226973 -0.035010 0.491857
v 0.220409 -0.035010 0.449560
v 0.592930 -0.035010 0.381400
v 0.500291 -0.035009 -0.149628
v 0.575320 -0.035009 -0.674207
v 0.320863 -0.035010 0.925398
v -0.089509 -0.035010 0.925398
v -0.078783 -0.035009 -1.072177
v -0.226973 0.146401 0.491857
v -0.572159 0.382544 0.430858
v -0.652366 0.146401 0.497716
v 0.247854 0.146402 -0.814563
v 0.505291 0.382545 -0.597653
v 0.575320 0.146402 -0.674207
v 0.500291 0.146402 -0.149628
v 0.520746 0.382544 0.328777
v 0.592930 0.146401 0.381400
v 0.220409 0.146401 0.449560
v -0.198823 0.382544 0.425717
v -0.722861 0.382545 -0.114067
v -0.417985 0.146402 -0.431002
v -0.824081 0.146402 -0.123192
v 0.320863 0.146401 0.925398
v 0.629177 0.191922 0.830272
v 0.310827 0.191922 0.888521
v 0.693384 0.146401 0.857237
v -0.078783 0.146402 -1.072177
v -0.410415 0.227465 -0.827462
v -0.103851 0.227465 -1.004061
v -0.482592 -0.035009 -0.839560
v -0.482592 0.146402 -0.839560
v -0.089509 0.146401 0.925398
v 0.693384 -0.035010 0.857237
v 0.543330 0.191922 0.423631
v 0.224981 0.191922 0.481879
v -0.039869 0.191922 0.888521
v -0.157343 0.191922 0.518025
v 0.013734 0.382545 -0.106161
v 0.217898 0.382545 -0.720833
v -0.366460 0.382545 -0.384209
v 0.193811 0.382544 0.388596
v 0.439443 0.382545 -0.137268
v -0.361367 0.227465 -0.517293
v 0.144125 0.227465 -0.808485
vt 0.240500 0.264000
vt 0.267300 0.264000
vt 0.267300 0.290700
vt 0.267300 0.264000
vt 0.267300 0.290700
vt 0.267300 0.264000
vt 0.267300 0.290700
vt 0.267300 0.264000
vt 0.267300 0.290700
vt 0.267300 0.264000
vt 0.267300 0.290700
vt 0.267300 0.264000
vt 0.267300 0.290700
vt 0.267300 0.264000
vt 0.267300 0.290700
vt 0.267300 0.264000
vt 0.267300 0.290700
vt 0.267300 0.264000
vt 0.267300 0.290700
vt 0.205400 0.713200
vt 0.232100 0.740000
vt 0.205400 0.740000
vt 0.205400 0.713200
vt 0.232100 0.740000
vt 0.205400 0.740000
vt 0.670200 0.232700
vt 0.697000 0.259500
vt 0.670200 0.259500
vt 0.240500 0.264000
vt 0.267300 0.290700
vt 0.240500 0.290700
vt 0.240500 0.264000
vt 0.267300 0.290700
vt 0.240500 0.290700
vt 0.240500 0.264000
vt 0.267300 0.290700
vt 0.240500 0.290700
vt 0.240500 0.264000
vt 0.267300 0.290700
vt 0.240500 0.290700
vt 0.267300 0.264000
vt 0.240500 0.290700
vt 0.240500 0.264000
vt 0.267300 0.264000
vt 0.240500 0.290700
vt 0.240500 0.264000
vt 0.267300 0.264000
vt 0.240500 0.290700
vt 0.240500 0.264000
vt 0.267300 0.264000
vt 0.240500 0.290700
vt 0.240500 0.264000
vt 0.217100 0.736600
vt 0.243900 0.763400
vt 0.217100 0.763400
vt 0.243900 0.736600
vt 0.217100 0.763400
vt 0.217100 0.736600
vt 0.670200 0.232700
vt 0.697000 0.259500
vt 0.670200 0.259500
vt 0.240500 0.264000
vt 0.697000 0.232700
vt 0.670200 0.259500
vt 0.670200 0.232700
vt 0.697000 0.232700
vt 0.670200 0.259500
vt 0.670200 0.232700
vt 0.240500 0.264000
vt 0.697000 0.232700
vt 0.670200 0.259500
vt 0.670200 0.232700
vt 0.240500 0.264000
vt 0.243900 0.736600
vt 0.217100 0.763400
vt 0.217100 0.736600
vt 0.243900 0.736600
vt 0.217100 0.763400
vt 0.217100 0.736600
vt 0.240500 0.264000
vt 0.240500 0.264000
vt 0.243900 0.736600
vt 0.217100 0.763400
vt 0.217100 0.736600
vt 0.240500 0.264000
vt 0.243900 0.736600
vt 0.217100 0.763400
vt 0.217100 0.736600
vt 0.217100 0.736600
vt 0.243900 0.763400
vt 0.217100 0.736600
vt 0.243900 0.763400
vt 0.243900 0.736600
vt 0.217100 0.763400
vt 0.217100 0.736600
vt 0.243900 0.736600
vt 0.217100 0.763400
vt 0.217100 0.736600
vt 0.217100 0.736600
vt 0.243900 0.763400
vt 0.217100 0.763400
vt 0.243900 0.736600
vt 0.217100 0.763400
vt 0.217100 0.736600
vt 0.240500 0.264000
vt 0.267300 0.264000
vt 0.267300 0.290700
vt 0.267300 0.264000
vt 0.267300 0.290700
vt 0.267300 0.264000
vt 0.267300 0.290700
vt 0.267300 0.264000
vt 0.267300 0.290700
vt 0.267300 0.264000
vt 0.267300 0.290700
vt 0.670200 0.232700
vt 0.697000 0.259500
vt 0.670200 0.259500
vt 0.697000 0.232700
vt 0.670200 0.259500
vt 0.670200 0.232700
vt 0.670200 0.232700
vt 0.697000 0.259500
vt 0.670200 0.259500
vt 0.670200 0.232700
vt 0.697000 0.259500
vt 0.240500 0.264000
vt 0.240500 0.290700
vt 0.232100 0.713200
vt 0.232100 0.713200
vt 0.243900 0.736600
vt 0.243900 0.763400
vt 0.697000 0.232700
vt 0.267300 0.290700
vt 0.697000 0.259500
vt 0.697000 0.259500
vt 0.267300 0.290700
vt 0.697000 0.259500
vt 0.267300 0.290700
vt 0.243900 0.763400
vt 0.243900 0.763400
vt 0.267300 0.290700
vt 0.267300 0.290700
vt 0.243900 0.763400
vt 0.267300 0.290700
vt 0.243900 0.763400
vt 0.243900 0.736600
vt 0.243900 0.736600
vt 0.243900 0.763400
vt 0.243900 0.736600
vt 0.697000 0.232700
vt 0.697000 0.232700
vt 0.697000 0.232700
vn 0.0000 -1.0000 -0.0000
vn 0.0133 0.2682 0.9633
vn 0.3639 0.3831 -0.8490
vn 0.9528 0.2542 -0.1662
vn 0.0909 0.2585 0.9617
vn -0.5802 0.2783 -0.7655
vn -0.8940 0.3737 0.2472
vn 0.9609 0.2404 0.1374
vn 0.1736 0.2645 0.9486
vn 0.1380 0.6416 0.7545
vn 0.6089 0.7827 -0.1286
vn -0.4330 0.4977 -0.7516
vn 0.9899 0.0000 0.1416
vn -0.4992 0.0000 -0.8665
vn 0.6193 0.0000 -0.7852
vn 0.3940 0.0000 -0.9191
vn -0.9877 0.0000 0.1562
vn -0.6041 0.0000 -0.7969
vn 0.0000 0.0000 1.0000
vn 0.1800 0.0000 0.9837
vn -0.9638 0.0000 0.2665
vn 0.9851 -0.0000 -0.1719
vn 0.9784 0.0000 -0.2066
vn 0.0138 -0.0000 0.9999
vn -0.9532 -0.0000 0.3022
vn 0.0000 1.0000 0.0000
vn -0.5856 0.7890 0.1857
vn -0.1463 0.5824 -0.7996
vn -0.0765 0.5823 -0.8094
vn 0.0000 0.6295 0.7770
vn 0.4715 0.6482 -0.5979
vn 0.4330 0.4977 0.7516
vn -0.7503 0.6504 0.1186
vn -0.4806 0.2702 -0.8343
usemtl color3
s 1
f 1/1/1 2/2/1 3/3/1
f 1/1/1 4/4/1 2/5/1
f 1/1/1 5/6/1 4/7/1
f 1/1/1 6/8/1 5/9/1
f 1/1/1 7/10/1 6/11/1
f 1/1/1 8/12/1 7/13/1
f 1/1/1 9/14/1 8/15/1
f 1/1/1 10/16/1 9/17/1
f 1/1/1 3/18/1 10/19/1
f 8/20/1 11/21/1 7/22/1
f 7/23/1 12/24/1 6/25/1
f 2/26/1 13/27/1 3/28/1
f 14/29/2 15/30/2 16/31/2
f 17/32/3 18/33/3 19/34/3
f 20/35/4 21/36/4 22/37/4
f 23/38/5 24/39/5 14/40/5
f 25/41/6 26/42/6 27/43/6
f 15/44/7 27/45/7 16/46/7
f 18/47/8 20/48/8 19/49/8
f 21/50/9 23/51/9 22/52/9
f 28/53/10 29/54/10 30/55/10
f 22/56/11 29/57/11 31/58/11
f 32/59/12 33/60/12 34/61/12
f 10/16/13 20/48/13 9/62/13
f 35/63/14 32/64/14 13/65/14
f 13/66/15 17/67/15 3/68/15
f 3/18/16 19/34/16 10/69/16
f 2/70/17 36/71/17 35/72/17
f 4/4/18 26/42/18 2/73/18
f 11/74/19 37/75/19 12/76/19
f 38/77/20 28/78/20 11/79/20
f 5/6/21 27/45/21 4/80/21
f 9/14/22 22/37/22 8/81/22
f 8/82/23 31/83/23 38/84/23
f 6/8/24 16/31/24 5/85/24
f 12/86/25 14/87/25 6/88/25
f 39/89/26 30/90/26 29/57/26
f 40/91/26 41/92/26 30/55/26
f 37/93/27 42/94/27 14/95/27
f 23/96/28 39/97/28 22/98/28
f 23/99/29 42/100/29 40/101/29
f 28/102/30 41/103/30 37/104/30
f 43/105/26 44/106/26 45/107/26
f 43/105/26 45/108/26 25/109/26
f 43/105/26 25/41/26 15/30/26
f 43/105/26 15/44/26 24/39/26
f 43/105/26 24/110/26 46/111/26
f 43/105/26 46/112/26 21/36/26
f 43/105/26 21/50/26 47/113/26
f 43/105/26 47/114/26 18/33/26
f 43/105/26 18/47/26 44/115/26
f 48/116/26 34/117/26 33/118/26
f 32/119/31 49/120/31 17/121/31
f 26/122/32 49/123/32 48/124/32
f 36/125/33 48/126/33 33/118/33
f 26/127/34 44/115/34 17/128/34
f 8/20/1 38/129/1 11/21/1
f 7/23/1 11/130/1 12/24/1
f 2/26/1 35/63/1 13/27/1
f 14/29/2 24/110/2 15/30/2
f 17/32/3 44/106/3 18/33/3
f 20/35/4 47/114/4 21/36/4
f 23/38/5 46/112/5 24/39/5
f 25/41/6 45/107/6 26/42/6
f 15/44/7 25/109/7 27/45/7
f 18/47/8 47/113/8 20/48/8
f 21/50/9 46/111/9 23/51/9
f 28/53/10 31/131/10 29/54/10
f 22/56/11 39/132/11 29/57/11
f 32/59/12 36/133/12 33/60/12
f 10/16/13 19/134/13 20/48/13
f 35/63/14 36/135/14 32/64/14
f 13/66/15 32/136/15 17/67/15
f 3/18/16 17/137/16 19/34/16
f 2/70/17 26/138/17 36/71/17
f 4/4/18 27/139/18 26/42/18
f 11/74/19 28/140/19 37/75/19
f 38/77/20 31/141/20 28/78/20
f 5/6/21 16/142/21 27/45/21
f 9/14/22 20/143/22 22/37/22
f 8/82/23 22/144/23 31/83/23
f 6/8/24 14/145/24 16/31/24
f 12/86/25 37/146/25 14/87/25
f 39/89/26 40/147/26 30/90/26
f 40/91/26 42/148/26 41/92/26
f 37/93/27 41/92/27 42/94/27
f 23/96/28 40/149/28 39/97/28
f 23/99/29 14/150/29 42/100/29
f 28/102/30 30/90/30 41/103/30
f 48/116/26 49/151/26 34/117/26
f 32/119/31 34/117/31 49/120/31
f 26/122/32 17/152/32 49/123/32
f 36/125/33 26/153/33 48/126/33
f 26/127/34 45/108/34 44/115/34
