# Blender v2.82 (sub 7) OBJ File: ''
# www.blender.org
mtllib crate.mtl
o Wood_container1
v -0.415845 -0.415845 0.480977
v 0.415845 -0.415845 0.480977
v 0.415845 0.415845 0.480977
v -0.415845 -0.415845 -0.480977
v -0.415845 0.415845 -0.480977
v 0.415845 0.415845 -0.480977
v -0.415845 -0.480977 0.415845
v -0.415845 -0.480977 -0.415845
v 0.415845 -0.480977 -0.415845
v 0.480977 -0.415845 0.415845
v 0.480977 -0.415845 -0.415845
v 0.480977 0.415845 -0.415845
v 0.415845 0.480977 0.415845
v 0.415845 0.480977 -0.415845
v -0.415845 0.480977 -0.415845
v -0.480977 0.415845 0.415845
v -0.480977 0.415845 -0.415845
v -0.480977 -0.415845 0.415845
v -0.501018 -0.501018 0.501018
v 0.501018 -0.501018 0.501018
v 0.415845 -0.415845 0.501018
v 0.501018 -0.501018 0.501018
v 0.501018 0.501018 0.501018
v 0.415845 0.415845 0.501018
v 0.501018 0.501018 0.501018
v -0.501018 0.501018 0.501018
v -0.415845 0.415845 0.501018
v -0.501018 0.501018 0.501018
v -0.501018 -0.501018 0.501018
v -0.415845 -0.415845 0.501018
v -0.501018 -0.501018 -0.501018
v -0.501018 0.501018 -0.501018
v -0.415845 -0.415845 -0.501018
v -0.501018 0.501018 -0.501018
v 0.501018 0.501018 -0.501018
v 0.415845 0.415845 -0.501018
v 0.501018 0.501018 -0.501018
v 0.501018 -0.501018 -0.501018
v 0.415845 0.415845 -0.501018
v 0.501018 -0.501018 -0.501018
v -0.501018 -0.501018 -0.501018
v -0.415845 -0.415845 -0.501018
v -0.501018 -0.501018 0.501018
v -0.501018 -0.501018 -0.501018
v -0.415845 -0.501018 0.415845
v -0.501018 -0.501018 -0.501018
v 0.501018 -0.501018 -0.501018
v 0.415845 -0.501018 -0.415845
v 0.501018 -0.501018 -0.501018
v 0.501018 -0.501018 0.501018
v 0.415845 -0.501018 -0.415845
v 0.501018 -0.501018 0.501018
v -0.501018 -0.501018 0.501018
v -0.415845 -0.501018 0.415845
v 0.501018 -0.501018 0.501018
v 0.501018 -0.501018 -0.501018
v 0.501018 -0.415845 -0.415845
v 0.501018 -0.501018 -0.501018
v 0.501018 0.501018 -0.501018
v 0.501018 0.415845 -0.415845
v 0.501018 0.501018 -0.501018
v 0.501018 0.501018 0.501018
v 0.501018 0.415845 0.415845
v 0.501018 0.501018 0.501018
v 0.501018 -0.501018 0.501018
v 0.501018 -0.415845 0.415845
v 0.501018 0.501018 0.501018
v 0.501018 0.501018 -0.501018
v 0.415845 0.501018 0.415845
v 0.501018 0.501018 -0.501018
v -0.501018 0.501018 -0.501018
v -0.415845 0.501018 -0.415845
v -0.501018 0.501018 -0.501018
v -0.501018 0.501018 0.501018
v -0.415845 0.501018 -0.415845
v -0.501018 0.501018 0.501018
v 0.501018 0.501018 0.501018
v 0.415845 0.501018 0.415845
v -0.501018 0.501018 0.501018
v -0.501018 0.501018 -0.501018
v -0.501018 0.415845 0.415845
v -0.501018 0.501018 -0.501018
v -0.501018 -0.501018 -0.501018
v -0.501018 0.415845 -0.415845
v -0.501018 -0.501018 -0.501018
v -0.501018 -0.501018 0.501018
v -0.501018 -0.415845 -0.415845
v -0.501018 -0.501018 0.501018
v -0.501018 0.501018 0.501018
v -0.501018 -0.415845 0.415845
v 0.415845 -0.415845 0.480977
v -0.415845 -0.415845 0.480977
v -0.415845 -0.415845 0.501018
v 0.415845 -0.415845 0.501018
v 0.415845 0.415845 0.501018
v 0.415845 -0.415845 0.480977
v 0.415845 0.415845 0.501018
v -0.415845 0.415845 0.501018
v -0.415845 0.415845 0.480977
v -0.415845 -0.415845 0.480977
v -0.415845 0.415845 0.480977
v -0.415845 0.415845 0.501018
v -0.415845 -0.415845 -0.501018
v -0.415845 0.415845 -0.501018
v -0.415845 0.415845 -0.480977
v -0.415845 0.415845 -0.501018
v 0.415845 0.415845 -0.501018
v 0.415845 0.415845 -0.480977
v 0.415845 0.415845 -0.501018
v 0.415845 -0.415845 -0.501018
v 0.415845 0.415845 -0.480977
v 0.415845 -0.415845 -0.501018
v -0.415845 -0.415845 -0.501018
v -0.415845 -0.415845 -0.480977
v -0.415845 -0.501018 0.415845
v -0.415845 -0.501018 -0.415845
v -0.415845 -0.480977 -0.415845
v -0.415845 -0.501018 -0.415845
v 0.415845 -0.501018 -0.415845
v 0.415845 -0.480977 -0.415845
v 0.415845 -0.501018 -0.415845
v 0.415845 -0.501018 0.415845
v 0.415845 -0.480977 -0.415845
v 0.415845 -0.501018 0.415845
v -0.415845 -0.501018 0.415845
v -0.415845 -0.480977 0.415845
v 0.501018 -0.415845 0.415845
v 0.501018 -0.415845 -0.415845
v 0.480977 -0.415845 -0.415845
v 0.501018 -0.415845 -0.415845
v 0.501018 0.415845 -0.415845
v 0.480977 0.415845 -0.415845
v 0.501018 0.415845 -0.415845
v 0.501018 0.415845 0.415845
v 0.480977 0.415845 0.415845
v 0.501018 0.415845 0.415845
v 0.501018 -0.415845 0.415845
v 0.480977 -0.415845 0.415845
v 0.415845 0.501018 0.415845
v 0.415845 0.501018 -0.415845
v 0.415845 0.480977 0.415845
v 0.415845 0.501018 -0.415845
v -0.415845 0.501018 -0.415845
v -0.415845 0.480977 -0.415845
v -0.415845 0.501018 -0.415845
v -0.415845 0.501018 0.415845
v -0.415845 0.480977 0.415845
v -0.415845 0.501018 0.415845
v 0.415845 0.501018 0.415845
v 0.415845 0.480977 0.415845
v -0.501018 0.415845 0.415845
v -0.501018 0.415845 -0.415845
v -0.480977 0.415845 -0.415845
v -0.501018 0.415845 -0.415845
v -0.501018 -0.415845 -0.415845
v -0.480977 -0.415845 -0.415845
v -0.501018 -0.415845 -0.415845
v -0.501018 -0.415845 0.415845
v -0.480977 -0.415845 0.415845
v -0.501018 -0.415845 0.415845
v -0.501018 0.415845 0.415845
v -0.480977 0.415845 0.415845
v -0.415845 0.415845 0.480977
v 0.415845 -0.415845 -0.480977
v 0.415845 -0.480977 0.415845
v 0.480977 0.415845 0.415845
v -0.415845 0.480977 0.415845
v -0.480977 -0.415845 -0.415845
v -0.415845 -0.415845 0.501018
v 0.415845 -0.415845 0.501018
v 0.415845 0.415845 0.501018
v -0.415845 0.415845 0.501018
v -0.415845 0.415845 -0.501018
v -0.415845 0.415845 -0.501018
v 0.415845 -0.415845 -0.501018
v 0.415845 -0.415845 -0.501018
v -0.415845 -0.501018 -0.415845
v -0.415845 -0.501018 -0.415845
v 0.415845 -0.501018 0.415845
v 0.415845 -0.501018 0.415845
v 0.501018 -0.415845 0.415845
v 0.501018 -0.415845 -0.415845
v 0.501018 0.415845 -0.415845
v 0.501018 0.415845 0.415845
v 0.415845 0.501018 -0.415845
v 0.415845 0.501018 -0.415845
v -0.415845 0.501018 0.415845
v -0.415845 0.501018 0.415845
v -0.501018 0.415845 -0.415845
v -0.501018 -0.415845 -0.415845
v -0.501018 -0.415845 0.415845
v -0.501018 0.415845 0.415845
v 0.415845 -0.415845 0.501018
v 0.415845 0.415845 0.480977
v 0.415845 0.415845 0.480977
v -0.415845 -0.415845 0.501018
v -0.415845 -0.415845 -0.480977
v -0.415845 0.415845 -0.480977
v 0.415845 -0.415845 -0.480977
v 0.415845 -0.415845 -0.480977
v -0.415845 -0.480977 0.415845
v -0.415845 -0.480977 -0.415845
v 0.415845 -0.480977 0.415845
v 0.415845 -0.480977 0.415845
v 0.480977 -0.415845 0.415845
v 0.480977 -0.415845 -0.415845
v 0.480977 0.415845 -0.415845
v 0.480977 0.415845 0.415845
v 0.415845 0.480977 -0.415845
v 0.415845 0.480977 -0.415845
v -0.415845 0.480977 -0.415845
v -0.415845 0.480977 0.415845
v -0.480977 0.415845 0.415845
v -0.480977 0.415845 -0.415845
v -0.480977 -0.415845 -0.415845
v -0.480977 -0.415845 0.415845
vt 0.056200 0.549000
vt 0.454300 0.549000
vt 0.454300 0.947100
vt 0.454300 0.549000
vt 0.454300 0.947100
vt 0.056200 0.947100
vt 0.947600 0.452400
vt 0.947600 0.058200
vt 0.553400 0.058200
vt 0.553400 0.550900
vt 0.947700 0.550900
vt 0.947700 0.945200
vt 0.058100 0.452400
vt 0.058100 0.058200
vt 0.452300 0.058200
vt 0.553400 0.945200
vt 0.947700 0.945200
vt 0.553400 0.550900
vt 0.013000 0.505800
vt 0.497500 0.505800
vt 0.456300 0.547000
vt 0.497500 0.505800
vt 0.497500 0.990300
vt 0.456300 0.949100
vt 0.497500 0.990300
vt 0.013000 0.990300
vt 0.054200 0.949100
vt 0.013000 0.990300
vt 0.013000 0.505800
vt 0.054200 0.547000
vt 0.497500 0.505800
vt 0.497500 0.990300
vt 0.456300 0.547000
vt 0.497500 0.990300
vt 0.013000 0.990300
vt 0.054200 0.949100
vt 0.013000 0.990300
vt 0.013000 0.505800
vt 0.054200 0.949100
vt 0.013000 0.505800
vt 0.497500 0.505800
vt 0.456300 0.547000
vt 0.992800 0.497600
vt 0.992800 0.013100
vt 0.951600 0.456400
vt 0.992800 0.013100
vt 0.508300 0.013100
vt 0.549400 0.054200
vt 0.508300 0.013100
vt 0.508300 0.497600
vt 0.549400 0.054200
vt 0.508300 0.497600
vt 0.992800 0.497600
vt 0.951600 0.456400
vt 0.508300 0.505800
vt 0.992800 0.505800
vt 0.951600 0.547000
vt 0.992800 0.505800
vt 0.992800 0.990300
vt 0.951600 0.949100
vt 0.992800 0.990300
vt 0.508300 0.990300
vt 0.549500 0.949100
vt 0.508300 0.990300
vt 0.508300 0.505800
vt 0.549500 0.547000
vt 0.012900 0.497600
vt 0.012900 0.013100
vt 0.054100 0.456400
vt 0.012900 0.013100
vt 0.497400 0.013100
vt 0.456300 0.054200
vt 0.497400 0.013100
vt 0.497400 0.497600
vt 0.456300 0.054200
vt 0.497400 0.497600
vt 0.012900 0.497600
vt 0.054100 0.456400
vt 0.508300 0.990300
vt 0.992800 0.990300
vt 0.549500 0.949100
vt 0.992800 0.990300
vt 0.992800 0.505800
vt 0.951600 0.949100
vt 0.992800 0.505800
vt 0.508300 0.505800
vt 0.951600 0.547000
vt 0.508300 0.505800
vt 0.508300 0.990300
vt 0.549500 0.547000
vt 0.489900 0.528500
vt 0.014400 0.528500
vt 0.014400 0.510300
vt 0.014400 0.510300
vt 0.489900 0.510300
vt 0.014400 0.528500
vt 0.014400 0.510300
vt 0.489900 0.510300
vt 0.489900 0.528500
vt 0.489900 0.528500
vt 0.014400 0.528500
vt 0.014400 0.510300
vt 0.489900 0.528600
vt 0.014400 0.528600
vt 0.014400 0.510400
vt 0.489900 0.528500
vt 0.014400 0.528500
vt 0.014400 0.510400
vt 0.489900 0.528600
vt 0.014400 0.528600
vt 0.489900 0.510400
vt 0.489900 0.528600
vt 0.014400 0.528600
vt 0.014400 0.510400
vt 0.489900 0.528600
vt 0.014400 0.528600
vt 0.014400 0.510400
vt 0.489900 0.528500
vt 0.014400 0.528500
vt 0.014400 0.510300
vt 0.014400 0.510400
vt 0.489900 0.510400
vt 0.014400 0.528600
vt 0.014400 0.510400
vt 0.489900 0.510400
vt 0.489900 0.528600
vt 0.489900 0.528500
vt 0.014400 0.528500
vt 0.014400 0.510300
vt 0.014400 0.510400
vt 0.489900 0.510400
vt 0.489900 0.528600
vt 0.014400 0.510400
vt 0.489900 0.510400
vt 0.489900 0.528600
vt 0.014400 0.510400
vt 0.489900 0.510400
vt 0.489900 0.528600
vt 0.489900 0.528500
vt 0.014400 0.528500
vt 0.489900 0.510300
vt 0.014400 0.510400
vt 0.489900 0.510400
vt 0.489900 0.528600
vt 0.014400 0.510400
vt 0.489900 0.510400
vt 0.489900 0.528600
vt 0.489900 0.528600
vt 0.014400 0.528600
vt 0.014400 0.510400
vt 0.489900 0.528600
vt 0.014400 0.528600
vt 0.014400 0.510400
vt 0.489900 0.528600
vt 0.014400 0.528600
vt 0.014400 0.510400
vt 0.014400 0.510400
vt 0.489900 0.510400
vt 0.489900 0.528600
vt 0.489900 0.528500
vt 0.014400 0.528500
vt 0.014400 0.510400
vt 0.056200 0.947100
vt 0.056200 0.549000
vt 0.553400 0.452400
vt 0.553400 0.945200
vt 0.452300 0.452400
vt 0.947700 0.550900
vt 0.054200 0.547000
vt 0.456300 0.547000
vt 0.456300 0.949100
vt 0.054200 0.949100
vt 0.456300 0.949100
vt 0.456300 0.949100
vt 0.054200 0.547000
vt 0.054200 0.547000
vt 0.951600 0.054200
vt 0.951600 0.054200
vt 0.549400 0.456400
vt 0.549400 0.456400
vt 0.549500 0.547000
vt 0.951600 0.547000
vt 0.951600 0.949100
vt 0.549500 0.949100
vt 0.054100 0.054200
vt 0.054100 0.054200
vt 0.456300 0.456400
vt 0.456300 0.456400
vt 0.951600 0.949100
vt 0.951600 0.547000
vt 0.549500 0.547000
vt 0.549500 0.949100
vt 0.489900 0.510300
vt 0.489900 0.528500
vt 0.014400 0.528500
vt 0.489900 0.510300
vt 0.489900 0.510400
vt 0.489900 0.510400
vt 0.014400 0.510400
vt 0.489900 0.510400
vt 0.489900 0.510400
vt 0.489900 0.510300
vt 0.489900 0.528600
vt 0.014400 0.528600
vt 0.489900 0.510300
vt 0.014400 0.528600
vt 0.014400 0.528600
vt 0.014400 0.528600
vt 0.014400 0.510300
vt 0.014400 0.528600
vt 0.014400 0.528600
vt 0.489900 0.510400
vt 0.489900 0.510400
vt 0.489900 0.510400
vt 0.014400 0.528600
vt 0.489900 0.510400
vn 0.0000 -0.0000 1.0000
vn 0.0000 0.0000 -1.0000
vn 0.0000 -1.0000 -0.0000
vn 1.0000 -0.0000 0.0000
vn 0.0000 1.0000 0.0000
vn -1.0000 0.0000 0.0000
usemtl material.002
s 1
f 1/1/1 2/2/1 3/3/1
f 4/4/2 5/5/2 6/6/2
f 7/7/3 8/8/3 9/9/3
f 10/10/4 11/11/4 12/12/4
f 13/13/5 14/14/5 15/15/5
f 16/16/6 17/17/6 18/18/6
f 19/19/1 20/20/1 21/21/1
f 22/22/1 23/23/1 24/24/1
f 25/25/1 26/26/1 27/27/1
f 28/28/1 29/29/1 30/30/1
f 31/31/2 32/32/2 33/33/2
f 34/34/2 35/35/2 36/36/2
f 37/37/2 38/38/2 39/39/2
f 40/40/2 41/41/2 42/42/2
f 43/43/3 44/44/3 45/45/3
f 46/46/3 47/47/3 48/48/3
f 49/49/3 50/50/3 51/51/3
f 52/52/3 53/53/3 54/54/3
f 55/55/4 56/56/4 57/57/4
f 58/58/4 59/59/4 60/60/4
f 61/61/4 62/62/4 63/63/4
f 64/64/4 65/65/4 66/66/4
f 67/67/5 68/68/5 69/69/5
f 70/70/5 71/71/5 72/72/5
f 73/73/5 74/74/5 75/75/5
f 76/76/5 77/77/5 78/78/5
f 79/79/6 80/80/6 81/81/6
f 82/82/6 83/83/6 84/84/6
f 85/85/6 86/86/6 87/87/6
f 88/88/6 89/89/6 90/90/6
f 91/91/5 92/92/5 93/93/5
f 94/94/6 95/95/6 96/96/6
f 97/97/3 98/98/3 99/99/3
f 100/100/4 101/101/4 102/102/4
f 103/103/4 104/104/4 105/105/4
f 106/106/3 107/107/3 108/108/3
f 109/109/6 110/110/6 111/111/6
f 112/112/5 113/113/5 114/114/5
f 115/115/4 116/116/4 117/117/4
f 118/118/1 119/119/1 120/120/1
f 121/121/6 122/122/6 123/123/6
f 124/124/2 125/125/2 126/126/2
f 127/127/5 128/128/5 129/129/5
f 130/130/1 131/131/1 132/132/1
f 133/133/3 134/134/3 135/135/3
f 136/136/2 137/137/2 138/138/2
f 139/139/6 140/140/6 141/141/6
f 142/142/1 143/143/1 144/144/1
f 145/145/4 146/146/4 147/147/4
f 148/148/2 149/149/2 150/150/2
f 151/151/3 152/152/3 153/153/3
f 154/154/1 155/155/1 156/156/1
f 157/157/5 158/158/5 159/159/5
f 160/160/2 161/161/2 162/162/2
f 163/163/1 1/1/1 3/3/1
f 164/164/2 4/4/2 6/6/2
f 165/165/3 7/7/3 9/9/3
f 166/166/4 10/10/4 12/12/4
f 167/167/5 13/13/5 15/15/5
f 17/17/6 168/168/6 18/18/6
f 169/169/1 19/19/1 21/21/1
f 170/170/1 22/22/1 24/24/1
f 171/171/1 25/25/1 27/27/1
f 172/172/1 28/28/1 30/30/1
f 32/32/2 173/173/2 33/33/2
f 174/174/2 34/34/2 36/36/2
f 38/38/2 175/175/2 39/39/2
f 176/176/2 40/40/2 42/42/2
f 44/44/3 177/177/3 45/45/3
f 178/178/3 46/46/3 48/48/3
f 50/50/3 179/179/3 51/51/3
f 180/180/3 52/52/3 54/54/3
f 181/181/4 55/55/4 57/57/4
f 182/182/4 58/58/4 60/60/4
f 183/183/4 61/61/4 63/63/4
f 184/184/4 64/64/4 66/66/4
f 68/68/5 185/185/5 69/69/5
f 186/186/5 70/70/5 72/72/5
f 74/74/5 187/187/5 75/75/5
f 188/188/5 76/76/5 78/78/5
f 80/80/6 189/189/6 81/81/6
f 83/83/6 190/190/6 84/84/6
f 86/86/6 191/191/6 87/87/6
f 89/89/6 192/192/6 90/90/6
f 193/193/5 91/91/5 93/93/5
f 95/95/6 194/194/6 96/96/6
f 195/195/3 97/97/3 99/99/3
f 196/196/4 100/100/4 102/102/4
f 197/197/4 103/103/4 105/105/4
f 198/198/3 106/106/3 108/108/3
f 110/110/6 199/199/6 111/111/6
f 200/200/5 112/112/5 114/114/5
f 201/201/4 115/115/4 117/117/4
f 202/202/1 118/118/1 120/120/1
f 122/122/6 203/203/6 123/123/6
f 204/204/2 124/124/2 126/126/2
f 205/205/5 127/127/5 129/129/5
f 206/206/1 130/130/1 132/132/1
f 207/207/3 133/133/3 135/135/3
f 208/208/2 136/136/2 138/138/2
f 140/140/6 209/209/6 141/141/6
f 210/210/1 142/142/1 144/144/1
f 211/211/4 145/145/4 147/147/4
f 212/212/2 148/148/2 150/150/2
f 213/213/3 151/151/3 153/153/3
f 214/214/1 154/154/1 156/156/1
f 215/215/5 157/157/5 159/159/5
f 216/216/2 160/160/2 162/162/2
