# Blender v2.82 (sub 7) OBJ File: ''
# www.blender.org
mtllib 12.mtl
v 0.121808 0.005094 0.115541
v 0.071217 0.005094 0.086333
v 0.071217 0.563242 0.086333
v 0.121808 0.563242 0.115541
v 0.121808 0.005094 0.173959
v 0.121808 0.563242 0.173959
v 0.071217 0.005094 0.203167
v 0.071217 0.563242 0.203167
v 0.020626 0.005094 0.173959
v 0.020626 0.563242 0.173959
v 0.020626 0.005094 0.115541
v 0.020626 0.563242 0.115541
v 0.071217 0.404884 -0.487502
v 0.618763 0.404884 -0.171376
v 0.618763 0.404884 0.460876
v 0.071217 0.404884 0.777002
v -0.476329 0.404884 0.460876
v -0.476329 0.404884 -0.171376
v 0.068293 1.390408 -0.091040
v 0.271872 1.406330 0.026855
v 0.271872 1.406330 0.262645
v 0.068293 1.390408 0.380541
v -0.135286 1.374486 0.262645
v -0.135286 1.374486 0.026855
v 0.086993 1.151309 -0.339370
v 0.504977 1.183999 -0.097309
v 0.504977 1.183999 0.386810
v 0.086993 1.151309 0.628871
v -0.330991 1.118619 0.386811
v -0.330991 1.118619 -0.097309
v -0.005892 2.338967 0.144750
vt 0.354500 0.850600
vt 0.391600 0.850600
vt 0.391600 0.887600
vt 0.354500 0.887600
vt 0.354500 0.850600
vt 0.391600 0.850600
vt 0.391600 0.887600
vt 0.354500 0.887600
vt 0.354500 0.850600
vt 0.391600 0.850600
vt 0.391600 0.887600
vt 0.354500 0.887600
vt 0.354500 0.850600
vt 0.391600 0.850600
vt 0.391600 0.887600
vt 0.354500 0.887600
vt 0.354500 0.850600
vt 0.391600 0.850600
vt 0.391600 0.887600
vt 0.354500 0.887600
vt 0.354500 0.850600
vt 0.391600 0.850600
vt 0.391600 0.887600
vt 0.354500 0.887600
vt 0.874100 0.348700
vt 0.911100 0.348700
vt 0.911100 0.385700
vt 0.874100 0.385700
vt 0.874100 0.348700
vt 0.911100 0.348700
vt 0.911100 0.385700
vt 0.874100 0.385700
vt 0.874100 0.348700
vt 0.911100 0.348700
vt 0.911100 0.385700
vt 0.874100 0.385700
vt 0.874100 0.348700
vt 0.911100 0.348700
vt 0.911100 0.385700
vt 0.874100 0.385700
vt 0.874100 0.348700
vt 0.911100 0.348700
vt 0.911100 0.385700
vt 0.874100 0.385700
vt 0.874100 0.348700
vt 0.911100 0.348700
vt 0.911100 0.385700
vt 0.874100 0.385700
vt 0.874100 0.348700
vt 0.911100 0.348700
vt 0.911100 0.385700
vt 0.874100 0.385700
vt 0.874100 0.348700
vt 0.911100 0.348700
vt 0.911100 0.385700
vt 0.874100 0.385700
vt 0.874100 0.348700
vt 0.911100 0.348700
vt 0.911100 0.385700
vt 0.874100 0.385700
vt 0.874100 0.348700
vt 0.911100 0.348700
vt 0.911100 0.385700
vt 0.874100 0.385700
vt 0.874100 0.348700
vt 0.911100 0.348700
vt 0.911100 0.385700
vt 0.874100 0.385700
vt 0.874100 0.348700
vt 0.911100 0.348700
vt 0.911100 0.385700
vt 0.874100 0.385700
vt 0.874100 0.348700
vt 0.911100 0.348700
vt 0.911100 0.385700
vt 0.874100 0.385700
vt 0.874100 0.348700
vt 0.911100 0.348700
vt 0.911100 0.385700
vt 0.874100 0.385700
vt 0.874100 0.348700
vt 0.911100 0.348700
vt 0.911100 0.385700
vt 0.874100 0.385700
vt 0.874100 0.348700
vt 0.911100 0.348700
vt 0.911100 0.385700
vt 0.874100 0.385700
vt 0.874100 0.348700
vt 0.911100 0.348700
vt 0.911100 0.385700
vt 0.874100 0.385700
vt 0.874100 0.348700
vt 0.911100 0.348700
vt 0.911100 0.385700
vt 0.874100 0.385700
vt 0.373000 0.887600
vt 0.389100 0.878400
vt 0.389100 0.859900
vt 0.373000 0.850600
vt 0.357000 0.859900
vt 0.357000 0.878400
vt 0.874100 0.348700
vt 0.911100 0.348700
vt 0.911100 0.385700
vt 0.874100 0.348700
vt 0.911100 0.348700
vt 0.874100 0.348700
vt 0.911100 0.348700
vt 0.874100 0.348700
vt 0.911100 0.348700
vt 0.874100 0.348700
vt 0.911100 0.348700
vt 0.874100 0.348700
vt 0.911100 0.348700
vn 0.5000 0.0000 -0.8660
vn 1.0000 0.0000 0.0000
vn 0.5000 -0.0000 0.8660
vn -0.5000 -0.0000 0.8660
vn -1.0000 0.0000 0.0000
vn -0.5000 0.0000 -0.8660
vn -0.1518 -0.9528 0.2629
vn -0.3036 -0.9528 -0.0000
vn -0.1518 -0.9528 -0.2629
vn 0.1518 -0.9528 -0.2629
vn 0.3036 -0.9528 -0.0000
vn 0.1518 -0.9528 0.2629
vn 0.4674 0.3280 -0.8209
vn 0.9449 0.3273 0.0000
vn 0.4674 0.3280 0.8209
vn -0.4775 0.3302 0.8142
vn -0.9433 0.3318 0.0000
vn -0.4775 0.3302 -0.8142
vn -0.3191 -0.6946 0.6448
vn -0.6902 -0.7236 0.0000
vn -0.3191 -0.6946 -0.6448
vn 0.4232 -0.6366 -0.6448
vn 0.7943 -0.6075 0.0000
vn 0.4232 -0.6366 0.6448
vn 0.0000 -1.0000 0.0000
vn 0.4443 0.3677 -0.8169
vn 0.9145 0.4045 0.0000
vn 0.4443 0.3677 0.8169
vn -0.4961 0.2942 0.8169
vn -0.9663 0.2574 0.0000
vn -0.4961 0.2942 -0.8169
usemtl _trees_normal
s 1
f 1/1/1 2/2/1 3/3/1 4/4/1
f 5/5/2 1/6/2 4/7/2 6/8/2
f 7/9/3 5/10/3 6/11/3 8/12/3
f 9/13/4 7/14/4 8/15/4 10/16/4
f 11/17/5 9/18/5 10/19/5 12/20/5
f 2/21/6 11/22/6 12/23/6 3/24/6
f 4/25/7 3/26/7 13/27/7 14/28/7
f 6/29/8 4/30/8 14/31/8 15/32/8
f 8/33/9 6/34/9 15/35/9 16/36/9
f 10/37/10 8/38/10 16/39/10 17/40/10
f 12/41/11 10/42/11 17/43/11 18/44/11
f 3/45/12 12/46/12 18/47/12 13/48/12
f 14/49/13 13/50/13 19/51/13 20/52/13
f 15/53/14 14/54/14 20/55/14 21/56/14
f 16/57/15 15/58/15 21/59/15 22/60/15
f 17/61/16 16/62/16 22/63/16 23/64/16
f 18/65/17 17/66/17 23/67/17 24/68/17
f 13/69/18 18/70/18 24/71/18 19/72/18
f 20/73/19 19/74/19 25/75/19 26/76/19
f 21/77/20 20/78/20 26/79/20 27/80/20
f 22/81/21 21/82/21 27/83/21 28/84/21
f 23/85/22 22/86/22 28/87/22 29/88/22
f 24/89/23 23/90/23 29/91/23 30/92/23
f 19/93/24 24/94/24 30/95/24 25/96/24
f 11/97/25 2/98/25 1/99/25 5/100/25 7/101/25 9/102/25
f 26/103/26 25/104/26 31/105/26
f 27/106/27 26/107/27 31/105/27
f 28/108/28 27/109/28 31/105/28
f 29/110/29 28/111/29 31/105/29
f 30/112/30 29/113/30 31/105/30
f 25/114/31 30/115/31 31/105/31
