# Blender v2.82 (sub 7) OBJ File: 'uploads_files_689346_BridgeSet_v6.blend'
# www.blender.org
mtllib uploads_files_689346_BridgeSet_v6.mtl
v 0.796160 -0.107200 -1.971546
v 0.796130 -0.042831 -1.992600
v 0.796479 -0.039149 -1.654988
v 0.796434 0.035476 -1.679397
v -0.803602 -0.143175 -1.959777
v -0.803603 -0.051402 -1.989795
v -0.803602 -0.049854 -1.651485
v -0.803602 0.068353 -1.690149
v 0.796160 -0.002004 -1.652790
v 0.796130 0.063301 -1.670733
v 0.796479 0.050786 -1.333333
v 0.796434 0.126495 -1.354134
v -0.803602 -0.038502 -1.642761
v -0.803603 0.054606 -1.668342
v -0.803602 0.039925 -1.330348
v -0.803602 0.159850 -1.363297
v 0.796982 0.107968 -1.329053
v 0.795790 0.174104 -1.343590
v 0.796561 0.144144 -1.007291
v 0.795170 0.220816 -1.024144
v -0.801882 0.042783 -1.321429
v -0.803539 0.137076 -1.342155
v -0.803077 0.104918 -1.005374
v -0.805212 0.226369 -1.032070
v 0.796160 0.167815 -1.001374
v 0.796130 0.234692 -1.012058
v 0.796479 0.185308 -0.678057
v 0.796434 0.262840 -0.690444
v -0.803602 0.130438 -0.995401
v -0.803603 0.225787 -1.010634
v -0.803602 0.174186 -0.676279
v -0.803602 0.296998 -0.695899
v 0.796652 0.233335 -0.665942
v 0.795435 0.300736 -0.672449
v 0.796916 0.230703 -0.342164
v 0.795495 0.308841 -0.349707
v -0.802198 0.167443 -0.662806
v -0.803890 0.263539 -0.672083
v -0.802719 0.191266 -0.341582
v -0.804899 0.315041 -0.353531
v -0.829254 0.253362 -0.015803
v -0.829224 0.321037 -0.013189
v -0.829572 0.232087 -0.338893
v -0.829528 0.310543 -0.335862
v 0.770508 0.215540 -0.017264
v 0.770508 0.312026 -0.013537
v 0.770509 0.220832 -0.339328
v 0.770508 0.345109 -0.334527
v -0.829254 0.250016 0.317628
v -0.829224 0.317691 0.320243
v -0.829572 0.228741 -0.005462
v -0.829528 0.307197 -0.002431
v 0.770508 0.212194 0.316167
v 0.770508 0.308680 0.319894
v 0.770509 0.217487 -0.005896
v 0.770508 0.341763 -0.001095
v -0.828588 0.198732 0.648605
v -0.829748 0.266075 0.655700
v -0.828808 0.198921 0.324816
v -0.830144 0.276992 0.333041
v 0.771591 0.189318 0.645142
v 0.769894 0.285329 0.655258
v 0.771222 0.215949 0.324138
v 0.769036 0.339615 0.337168
v -0.828414 0.144401 0.983330
v -0.829566 0.211172 0.994598
v -0.828990 0.164713 0.660179
v -0.830315 0.242121 0.673242
v 0.771759 0.135306 0.977535
v 0.770075 0.230503 0.993600
v 0.771039 0.181836 0.658807
v 0.768869 0.304452 0.679500
v -0.829254 0.081676 1.310851
v -0.829224 0.147693 1.325965
v -0.829572 0.120664 0.989417
v -0.829528 0.197199 1.006940
v 0.770508 0.044780 1.302404
v 0.770509 0.138903 1.323953
v 0.770509 0.109685 0.986904
v 0.770509 0.230917 1.014660
v -0.829254 -0.017002 1.633487
v -0.829224 0.048144 1.652000
v -0.829572 0.038579 1.314504
v -0.829528 0.114103 1.335966
v 0.770508 -0.053411 1.623141
v 0.770509 0.039470 1.649535
v 0.770509 0.027745 1.311425
v 0.770509 0.147377 1.345422
v -0.829254 -0.124980 1.951312
v -0.829224 -0.060798 1.972928
v -0.829572 -0.054164 1.635362
v -0.829528 0.020244 1.660422
v 0.770508 -0.160851 1.939232
v 0.770509 -0.069344 1.970050
v 0.770509 -0.064838 1.631767
v 0.770509 0.053026 1.671463
v 0.850676 1.040436 1.921541
v 0.686260 1.040436 1.921541
v 0.850676 0.842261 1.831735
v 0.686260 0.842261 1.831735
v 0.850676 1.040436 -1.941952
v 0.686259 1.040436 -1.941952
v 0.850676 0.842261 -1.852145
v 0.686259 0.842261 -1.852145
v 0.850676 1.055593 -1.133830
v 0.850676 1.163588 -0.387846
v 0.850676 1.163588 0.367436
v 0.850676 1.055593 1.113419
v 0.686260 1.055593 1.113419
v 0.686259 1.163588 0.367436
v 0.686259 1.163588 -0.387846
v 0.686259 1.055593 -1.133830
v 0.850676 1.264170 1.168203
v 0.850676 1.377431 0.385848
v 0.850676 1.377431 -0.406259
v 0.850676 1.264170 -1.188614
v 0.686259 1.264170 -1.188614
v 0.686259 1.377430 -0.406259
v 0.686259 1.377430 0.385848
v 0.686260 1.264170 1.168203
v 0.840815 -0.039419 1.725882
v 0.696120 -0.039419 1.725882
v 0.840815 -0.016382 1.558978
v 0.696120 -0.016382 1.558978
v 0.652553 1.272913 2.010972
v 0.884383 1.272913 2.010972
v 0.884383 1.309824 1.743556
v 0.652553 1.309824 1.743557
v 0.696121 -0.039419 -1.786827
v 0.840815 -0.039419 -1.786827
v 0.696121 -0.016382 -1.619923
v 0.840815 -0.016382 -1.619923
v 0.884383 1.272913 -2.071917
v 0.652552 1.272913 -2.071916
v 0.652553 1.309824 -1.804501
v 0.884383 1.309824 -1.804501
v 0.829254 0.124980 1.912181
v 0.707681 0.124980 1.912181
v 0.829254 -0.167074 1.822374
v 0.707681 -0.167074 1.822374
v 0.829254 0.124980 -1.951313
v 0.707681 0.124980 -1.951313
v 0.829254 -0.167074 -1.861506
v 0.707681 -0.167074 -1.861506
v 0.829254 0.046258 -1.143190
v 0.829254 0.154253 -0.397206
v 0.829254 0.154253 0.358076
v 0.829254 0.046258 1.104059
v 0.707681 0.046258 1.104059
v 0.707681 0.154253 0.358076
v 0.707681 0.154253 -0.397206
v 0.707681 0.046258 -1.143190
v 0.829254 0.348714 1.158843
v 0.829254 0.461975 0.376488
v 0.829254 0.461975 -0.415619
v 0.829254 0.348714 -1.197974
v 0.707681 0.348714 -1.197974
v 0.707681 0.461975 -0.415619
v 0.707681 0.461975 0.376488
v 0.707681 0.348714 1.158843
v 0.721058 0.400946 -0.052734
v 0.815877 0.400946 -0.052734
v 0.721058 0.395215 0.057555
v 0.815877 0.395215 0.057555
v 0.825862 1.535656 -0.068173
v 0.711073 1.535656 -0.068173
v 0.711073 1.528719 0.065343
v 0.825862 1.528719 0.065343
v 0.721058 0.174565 -1.060022
v 0.815877 0.174565 -1.060022
v 0.721058 0.174455 -0.949612
v 0.815877 0.174455 -0.949612
v 0.825862 1.198610 -1.122552
v 0.711073 1.198610 -1.122552
v 0.711073 1.198476 -0.988888
v 0.825862 1.198477 -0.988889
v 0.721058 0.269082 -0.567705
v 0.815877 0.269083 -0.567705
v 0.721058 0.266204 -0.457332
v 0.815877 0.266204 -0.457332
v 0.825862 1.294374 -0.604544
v 0.711073 1.294374 -0.604544
v 0.711073 1.290889 -0.470927
v 0.825862 1.290889 -0.470927
v 0.815877 0.280811 0.542719
v 0.721058 0.280811 0.542719
v 0.815877 0.277932 0.432346
v 0.721058 0.277932 0.432346
v 0.711074 1.306101 0.579559
v 0.825862 1.306101 0.579559
v 0.825862 1.302617 0.445941
v 0.711074 1.302617 0.445941
v 0.815877 0.186293 1.064840
v 0.721058 0.186293 1.064840
v 0.815877 0.186183 0.954430
v 0.721058 0.186183 0.954430
v 0.711074 1.210338 1.127369
v 0.825862 1.210338 1.127369
v 0.825862 1.210205 0.993706
v 0.711074 1.210205 0.993706
v -0.842095 0.400946 -0.052734
v -0.747276 0.400946 -0.052734
v -0.842095 0.395215 0.057555
v -0.747276 0.395215 0.057555
v -0.737292 1.535656 -0.068173
v -0.852080 1.535656 -0.068173
v -0.852080 1.528719 0.065343
v -0.737292 1.528719 0.065343
v -0.747144 0.186293 1.064840
v -0.841963 0.186293 1.064840
v -0.747144 0.186183 0.954430
v -0.841963 0.186183 0.954430
v -0.851948 1.210338 1.127369
v -0.737159 1.210338 1.127369
v -0.737159 1.210205 0.993706
v -0.851948 1.210205 0.993706
v -0.747144 0.280811 0.542719
v -0.841963 0.280811 0.542719
v -0.747144 0.277932 0.432346
v -0.841963 0.277932 0.432346
v -0.851948 1.306101 0.579559
v -0.737159 1.306101 0.579559
v -0.737159 1.302617 0.445941
v -0.851948 1.302617 0.445941
v -0.841963 0.269082 -0.567705
v -0.747144 0.269082 -0.567705
v -0.841963 0.266204 -0.457332
v -0.747144 0.266204 -0.457332
v -0.737160 1.294374 -0.604544
v -0.851948 1.294374 -0.604544
v -0.851948 1.290889 -0.470927
v -0.737160 1.290889 -0.470927
v -0.841963 0.174565 -1.060022
v -0.747143 0.174565 -1.060022
v -0.841963 0.174455 -0.949612
v -0.747143 0.174455 -0.949612
v -0.737159 1.198610 -1.122552
v -0.851947 1.198610 -1.122552
v -0.851947 1.198477 -0.988889
v -0.737159 1.198477 -0.988889
v -0.733763 0.124980 1.912181
v -0.855336 0.124980 1.912181
v -0.733763 -0.167074 1.822374
v -0.855336 -0.167074 1.822374
v -0.733763 0.124980 -1.951313
v -0.855336 0.124980 -1.951313
v -0.733763 -0.167074 -1.861506
v -0.855336 -0.167074 -1.861506
v -0.733763 0.046258 -1.143190
v -0.733763 0.154253 -0.397206
v -0.733763 0.154253 0.358076
v -0.733763 0.046258 1.104059
v -0.855336 0.046258 1.104059
v -0.855336 0.154253 0.358076
v -0.855336 0.154253 -0.397206
v -0.855336 0.046258 -1.143190
v -0.733763 0.348714 1.158843
v -0.733763 0.461975 0.376488
v -0.733763 0.461975 -0.415619
v -0.733763 0.348714 -1.197974
v -0.855336 0.348714 -1.197974
v -0.855336 0.461975 -0.415619
v -0.855336 0.461975 0.376488
v -0.855336 0.348714 1.158843
v -0.866897 -0.039419 -1.786827
v -0.722202 -0.039419 -1.786827
v -0.866897 -0.016382 -1.619923
v -0.722202 -0.016382 -1.619923
v -0.678634 1.272913 -2.071917
v -0.910465 1.272913 -2.071917
v -0.910465 1.309824 -1.804501
v -0.678634 1.309824 -1.804502
v -0.722202 -0.039419 1.725882
v -0.866897 -0.039419 1.725882
v -0.722202 -0.016382 1.558978
v -0.866897 -0.016382 1.558978
v -0.910465 1.272913 2.010972
v -0.678634 1.272913 2.010972
v -0.678634 1.309824 1.743556
v -0.910465 1.309824 1.743557
v -0.712341 1.040436 1.921541
v -0.876758 1.040436 1.921541
v -0.712341 0.842261 1.831734
v -0.876758 0.842261 1.831734
v -0.712341 1.040436 -1.941952
v -0.876758 1.040436 -1.941952
v -0.712341 0.842261 -1.852145
v -0.876758 0.842261 -1.852145
v -0.712341 1.055593 -1.133830
v -0.712341 1.163588 -0.387846
v -0.712341 1.163588 0.367436
v -0.712341 1.055593 1.113419
v -0.876758 1.055593 1.113419
v -0.876758 1.163588 0.367436
v -0.876758 1.163588 -0.387846
v -0.876758 1.055593 -1.133830
v -0.712341 1.264170 1.168203
v -0.712341 1.377431 0.385848
v -0.712341 1.377431 -0.406259
v -0.712341 1.264170 -1.188614
v -0.876758 1.264170 -1.188614
v -0.876758 1.377430 -0.406259
v -0.876758 1.377430 0.385848
v -0.876758 1.264170 1.168203
vn 0.0023 -0.9946 -0.1036
vn 0.0000 0.2649 0.9643
vn -0.0000 -0.3109 -0.9505
vn -1.0000 0.0000 0.0000
vn 1.0000 0.0002 -0.0010
vn 0.0080 0.9515 -0.3075
vn 0.0153 -0.9681 0.2500
vn 0.0153 -0.9790 0.2033
vn -0.0041 0.2146 0.9767
vn -0.0000 -0.2649 -0.9643
vn 0.0080 0.9652 -0.2615
vn 0.0327 -0.9878 0.1523
vn 0.0000 0.1578 0.9875
vn 0.0041 -0.2146 -0.9767
vn -0.9998 -0.0176 -0.0003
vn 0.9998 0.0179 -0.0007
vn -0.0092 0.9774 -0.2112
vn 0.0153 -0.9954 0.0949
vn -0.0020 0.0961 0.9954
vn -0.0000 -0.1578 -0.9875
vn 1.0000 0.0004 -0.0010
vn 0.0080 0.9880 -0.1543
vn 0.0329 -0.9989 0.0328
vn 0.0000 0.0386 -0.9993
vn 0.0020 -0.0961 -0.9954
vn 0.9998 0.0181 -0.0007
vn -0.0095 0.9957 -0.0926
vn 0.0000 -0.0386 0.9993
vn 1.0000 0.0000 0.0000
vn -1.0000 0.0005 0.0009
vn -0.0080 0.9994 0.0351
vn -0.0153 -0.9996 0.0248
vn -0.0015 0.1048 -0.9945
vn -0.0153 -0.9868 -0.1610
vn -0.0026 0.1664 -0.9861
vn 0.0015 -0.1048 0.9945
vn 0.9998 0.0176 0.0003
vn -0.9999 -0.0172 0.0007
vn -0.0256 0.9945 0.1013
vn 0.0023 -0.9991 -0.0416
vn -0.0153 -0.9772 -0.2118
vn 0.0000 0.2232 -0.9748
vn 0.0026 -0.1664 0.9861
vn -0.9999 -0.0173 0.0007
vn -0.0254 0.9863 0.1629
vn -0.0153 -0.9659 -0.2585
vn -0.0000 0.2734 -0.9619
vn -0.0000 -0.2232 0.9748
vn -1.0000 0.0003 0.0010
vn -0.0080 0.9755 0.2197
vn 0.0000 0.3192 -0.9477
vn -0.0000 -0.2734 0.9619
vn -1.0000 0.0002 0.0010
vn -0.0080 0.9628 0.2699
vn -0.0000 -0.3192 0.9477
vn -0.0080 0.9488 0.3158
vn 0.0000 0.3109 0.9505
vn 0.0000 -0.4128 0.9108
vn 0.0000 -0.9586 0.2847
vn 0.0000 -0.4128 -0.9108
vn 0.0000 0.9586 0.2847
vn 0.0000 0.9586 -0.2847
vn -0.0000 0.9897 -0.1433
vn -0.0000 1.0000 0.0000
vn -0.0000 0.9897 0.1433
vn 0.0000 -0.9586 -0.2847
vn 0.0000 -0.9897 -0.1433
vn 0.0000 -1.0000 -0.0000
vn 0.0000 -0.9897 0.1433
vn 0.0000 -0.9906 -0.1367
vn 0.0000 0.9906 0.1367
vn -0.0000 0.1378 -0.9905
vn 0.9995 -0.0322 -0.0044
vn -0.9995 -0.0322 -0.0044
vn 0.0000 -0.2123 0.9772
vn -0.0000 -0.9906 0.1367
vn -0.0000 0.9906 -0.1367
vn 0.0000 0.1378 0.9905
vn -0.9995 -0.0322 0.0044
vn 0.9995 -0.0322 0.0044
vn 0.0000 -0.2123 -0.9772
vn 0.0000 -0.2939 0.9558
vn 0.0000 -0.2939 -0.9558
vn 0.0000 -0.9987 -0.0519
vn 0.0000 0.9987 0.0519
vn 0.0000 -0.0069 1.0000
vn -1.0000 -0.0088 -0.0005
vn 1.0000 -0.0088 -0.0005
vn -0.0000 -0.0136 -0.9999
vn 0.0000 -0.9997 -0.0261
vn -0.0000 0.9997 0.0261
vn 0.0000 0.0133 0.9999
vn -1.0000 -0.0097 -0.0003
vn 1.0000 -0.0097 -0.0003
vn -0.0000 -0.0359 -0.9994
vn 0.0000 -0.9997 0.0261
vn 0.0000 0.9997 -0.0261
vn 0.0000 0.0133 -0.9999
vn 1.0000 -0.0097 0.0003
vn -1.0000 -0.0097 0.0003
vn 0.0000 -0.0359 0.9994
vn -0.0000 -1.0000 0.0010
vn 0.0000 1.0000 -0.0010
vn -0.0000 0.0383 -0.9993
vn 1.0000 -0.0098 0.0000
vn -1.0000 -0.0098 0.0000
vn 0.0000 -0.0609 0.9981
vn 0.0000 -1.0000 -0.0010
vn -0.0000 1.0000 0.0010
vn 0.0000 0.0383 0.9993
vn 0.0000 -0.0609 -0.9981
usemtl mostek_deski_3.000
s off
f 71//1 69//1 65//1 67//1
f 12//2 16//2 15//2 11//2
f 5//3 6//3 2//3 1//3
f 8//4 6//4 5//4 7//4
f 2//5 4//5 3//5 1//5
f 2//6 6//6 8//6 4//6
f 7//7 5//7 1//7 3//7
f 15//8 13//8 9//8 11//8
f 20//9 24//9 23//9 19//9
f 9//10 13//10 14//10 10//10
f 16//4 14//4 13//4 15//4
f 10//5 12//5 11//5 9//5
f 10//11 14//11 16//11 12//11
f 23//12 21//12 17//12 19//12
f 28//13 32//13 31//13 27//13
f 17//14 21//14 22//14 18//14
f 24//15 22//15 21//15 23//15
f 18//16 20//16 19//16 17//16
f 18//17 22//17 24//17 20//17
f 31//18 29//18 25//18 27//18
f 36//19 40//19 39//19 35//19
f 25//20 29//20 30//20 26//20
f 32//4 30//4 29//4 31//4
f 26//21 28//21 27//21 25//21
f 26//22 30//22 32//22 28//22
f 39//23 37//23 33//23 35//23
f 44//24 48//24 47//24 43//24
f 33//25 37//25 38//25 34//25
f 40//15 38//15 37//15 39//15
f 34//26 36//26 35//26 33//26
f 34//27 38//27 40//27 36//27
f 52//24 56//24 55//24 51//24
f 45//28 46//28 42//28 41//28
f 48//29 46//29 45//29 47//29
f 42//30 44//30 43//30 41//30
f 42//31 46//31 48//31 44//31
f 47//32 45//32 41//32 43//32
f 55//32 53//32 49//32 51//32
f 60//33 64//33 63//33 59//33
f 49//28 53//28 54//28 50//28
f 56//29 54//29 53//29 55//29
f 50//30 52//30 51//30 49//30
f 50//31 54//31 56//31 52//31
f 79//34 77//34 73//34 75//34
f 68//35 72//35 71//35 67//35
f 61//36 62//36 58//36 57//36
f 64//37 62//37 61//37 63//37
f 58//38 60//38 59//38 57//38
f 58//39 62//39 64//39 60//39
f 63//40 61//40 57//40 59//40
f 87//41 85//41 81//41 83//41
f 76//42 80//42 79//42 75//42
f 65//43 69//43 70//43 66//43
f 72//37 70//37 69//37 71//37
f 66//44 68//44 67//44 65//44
f 66//45 70//45 72//45 68//45
f 95//46 93//46 89//46 91//46
f 84//47 88//47 87//47 83//47
f 73//48 77//48 78//48 74//48
f 80//29 78//29 77//29 79//29
f 74//49 76//49 75//49 73//49
f 74//50 78//50 80//50 76//50
f 92//51 96//51 95//51 91//51
f 81//52 85//52 86//52 82//52
f 88//29 86//29 85//29 87//29
f 82//53 84//53 83//53 81//53
f 82//54 86//54 88//54 84//54
f 89//55 93//55 94//55 90//55
f 96//29 94//29 93//29 95//29
f 90//53 92//53 91//53 89//53
f 90//56 94//56 96//56 92//56
f 4//57 8//57 7//57 3//57
usemtl bridge_arm_02.000
f 97//58 98//58 100//58 99//58
f 105//59 112//59 104//59 103//59
f 103//60 104//60 102//60 101//60
f 113//61 120//61 98//61 97//61
f 105//29 103//29 101//29 116//29
f 109//4 100//4 98//4 120//4
f 104//4 112//4 117//4 102//4
f 112//4 111//4 118//4 117//4
f 111//4 110//4 119//4 118//4
f 110//4 109//4 120//4 119//4
f 99//29 108//29 113//29 97//29
f 108//29 107//29 114//29 113//29
f 107//29 106//29 115//29 114//29
f 106//29 105//29 116//29 115//29
f 101//62 102//62 117//62 116//62
f 116//63 117//63 118//63 115//63
f 115//64 118//64 119//64 114//64
f 114//65 119//65 120//65 113//65
f 99//66 100//66 109//66 108//66
f 108//67 109//67 110//67 107//67
f 107//68 110//68 111//68 106//68
f 106//69 111//69 112//69 105//69
f 281//58 282//58 284//58 283//58
f 289//59 296//59 288//59 287//59
f 287//60 288//60 286//60 285//60
f 297//61 304//61 282//61 281//61
f 289//29 287//29 285//29 300//29
f 293//4 284//4 282//4 304//4
f 288//4 296//4 301//4 286//4
f 296//4 295//4 302//4 301//4
f 295//4 294//4 303//4 302//4
f 294//4 293//4 304//4 303//4
f 283//29 292//29 297//29 281//29
f 292//29 291//29 298//29 297//29
f 291//29 290//29 299//29 298//29
f 290//29 289//29 300//29 299//29
f 285//62 286//62 301//62 300//62
f 300//63 301//63 302//63 299//63
f 299//64 302//64 303//64 298//64
f 298//65 303//65 304//65 297//65
f 283//66 284//66 293//66 292//66
f 292//67 293//67 294//67 291//67
f 291//68 294//68 295//68 290//68
f 290//69 295//69 296//69 289//69
usemtl mostek_nogi.000
f 121//70 122//70 124//70 123//70
f 126//71 127//71 128//71 125//71
f 124//72 128//72 127//72 123//72
f 123//73 127//73 126//73 121//73
f 122//74 125//74 128//74 124//74
f 121//75 126//75 125//75 122//75
f 129//76 130//76 132//76 131//76
f 134//77 135//77 136//77 133//77
f 132//78 136//78 135//78 131//78
f 131//79 135//79 134//79 129//79
f 130//80 133//80 136//80 132//80
f 129//81 134//81 133//81 130//81
f 265//76 266//76 268//76 267//76
f 270//77 271//77 272//77 269//77
f 268//78 272//78 271//78 267//78
f 267//79 271//79 270//79 265//79
f 266//80 269//80 272//80 268//80
f 265//81 270//81 269//81 266//81
f 273//70 274//70 276//70 275//70
f 278//71 279//71 280//71 277//71
f 276//72 280//72 279//72 275//72
f 275//73 279//73 278//73 273//73
f 274//74 277//74 280//74 276//74
f 273//75 278//75 277//75 274//75
usemtl sign.003
f 137//82 138//82 140//82 139//82
f 145//59 152//59 144//59 143//59
f 143//83 144//83 142//83 141//83
f 153//61 160//61 138//61 137//61
f 145//29 143//29 141//29 156//29
f 149//4 140//4 138//4 160//4
f 144//4 152//4 157//4 142//4
f 152//4 151//4 158//4 157//4
f 151//4 150//4 159//4 158//4
f 150//4 149//4 160//4 159//4
f 139//29 148//29 153//29 137//29
f 148//29 147//29 154//29 153//29
f 147//29 146//29 155//29 154//29
f 146//29 145//29 156//29 155//29
f 141//62 142//62 157//62 156//62
f 156//63 157//63 158//63 155//63
f 155//64 158//64 159//64 154//64
f 154//65 159//65 160//65 153//65
f 139//66 140//66 149//66 148//66
f 148//67 149//67 150//67 147//67
f 147//68 150//68 151//68 146//68
f 146//69 151//69 152//69 145//69
f 161//84 162//84 164//84 163//84
f 166//85 167//85 168//85 165//85
f 164//86 168//86 167//86 163//86
f 163//87 167//87 166//87 161//87
f 162//88 165//88 168//88 164//88
f 161//89 166//89 165//89 162//89
f 177//90 178//90 180//90 179//90
f 182//91 183//91 184//91 181//91
f 180//92 184//92 183//92 179//92
f 179//93 183//93 182//93 177//93
f 178//94 181//94 184//94 180//94
f 177//95 182//95 181//95 178//95
f 185//96 186//96 188//96 187//96
f 190//97 191//97 192//97 189//97
f 188//98 192//98 191//98 187//98
f 187//99 191//99 190//99 185//99
f 186//100 189//100 192//100 188//100
f 185//101 190//101 189//101 186//101
f 193//102 194//102 196//102 195//102
f 198//103 199//103 200//103 197//103
f 196//104 200//104 199//104 195//104
f 195//105 199//105 198//105 193//105
f 194//106 197//106 200//106 196//106
f 193//107 198//107 197//107 194//107
f 201//84 202//84 204//84 203//84
f 206//85 207//85 208//85 205//85
f 204//86 208//86 207//86 203//86
f 203//87 207//87 206//87 201//87
f 202//88 205//88 208//88 204//88
f 201//89 206//89 205//89 202//89
f 209//102 210//102 212//102 211//102
f 214//103 215//103 216//103 213//103
f 212//104 216//104 215//104 211//104
f 211//105 215//105 214//105 209//105
f 210//106 213//106 216//106 212//106
f 209//107 214//107 213//107 210//107
f 217//96 218//96 220//96 219//96
f 222//97 223//97 224//97 221//97
f 220//98 224//98 223//98 219//98
f 219//99 223//99 222//99 217//99
f 218//100 221//100 224//100 220//100
f 217//101 222//101 221//101 218//101
f 225//90 226//90 228//90 227//90
f 230//91 231//91 232//91 229//91
f 228//92 232//92 231//92 227//92
f 227//93 231//93 230//93 225//93
f 226//94 229//94 232//94 228//94
f 225//95 230//95 229//95 226//95
f 241//82 242//82 244//82 243//82
f 249//59 256//59 248//59 247//59
f 247//83 248//83 246//83 245//83
f 257//61 264//61 242//61 241//61
f 249//29 247//29 245//29 260//29
f 253//4 244//4 242//4 264//4
f 248//4 256//4 261//4 246//4
f 256//4 255//4 262//4 261//4
f 255//4 254//4 263//4 262//4
f 254//4 253//4 264//4 263//4
f 243//29 252//29 257//29 241//29
f 252//29 251//29 258//29 257//29
f 251//29 250//29 259//29 258//29
f 250//29 249//29 260//29 259//29
f 245//62 246//62 261//62 260//62
f 260//63 261//63 262//63 259//63
f 259//64 262//64 263//64 258//64
f 258//65 263//65 264//65 257//65
f 243//66 244//66 253//66 252//66
f 252//67 253//67 254//67 251//67
f 251//68 254//68 255//68 250//68
f 250//69 255//69 256//69 249//69
usemtl mostek_szczeble.000
f 169//108 170//108 172//108 171//108
f 174//109 175//109 176//109 173//109
f 172//110 176//110 175//110 171//110
f 171//106 175//106 174//106 169//106
f 170//105 173//105 176//105 172//105
f 169//111 174//111 173//111 170//111
f 233//108 234//108 236//108 235//108
f 238//109 239//109 240//109 237//109
f 236//110 240//110 239//110 235//110
f 235//106 239//106 238//106 233//106
f 234//105 237//105 240//105 236//105
f 233//111 238//111 237//111 234//111
