# Blender v2.82 (sub 7) OBJ File: ''
# www.blender.org
mtllib 17.mtl
o Rock_Type5_04_mesh_Cube.018
v 0.121819 0.315690 0.106687
v 0.058896 -0.048019 0.404839
v 0.229140 0.315690 0.477616
v 0.427595 0.167516 0.378505
v 0.563029 -0.048019 0.183541
v 0.549861 0.321620 -0.000808
v 0.563029 0.321620 0.183541
v 0.549861 -0.048019 -0.000809
v 0.220931 0.315690 -0.049309
v 0.121819 -0.048019 0.106687
v 0.427595 -0.048019 0.378504
v 0.220931 -0.048019 -0.049309
v -0.510495 0.170920 -0.433343
v -0.617554 -0.005212 0.043483
v -0.617554 0.170920 0.043483
v 0.115950 -0.005212 -0.433343
v -0.510495 -0.005212 -0.433343
v 0.368434 0.787070 0.193103
v 0.368434 -0.005212 -0.120120
v 0.368434 0.787070 -0.120120
v -0.617553 0.170920 0.356705
v 0.368434 -0.005212 0.193103
v 0.115950 0.525902 -0.433343
v -0.617553 -0.005212 0.356705
vt 0.172100 0.734600
vt 0.195100 0.757600
vt 0.195100 0.734600
vt 0.172100 0.757600
vt 0.195100 0.734600
vt 0.172100 0.734600
vt 0.172100 0.757600
vt 0.195100 0.734600
vt 0.172100 0.734600
vt 0.172100 0.757600
vt 0.195100 0.734600
vt 0.172100 0.734600
vt 0.172100 0.734600
vt 0.195100 0.757600
vt 0.195100 0.734600
vt 0.172100 0.757600
vt 0.172100 0.757600
vt 0.195100 0.734600
vt 0.172100 0.734600
vt 0.195100 0.757600
vt 0.195100 0.734600
vt 0.172100 0.734600
vt 0.172100 0.757600
vt 0.195100 0.734600
vt 0.172100 0.734600
vt 0.253700 0.242400
vt 0.230600 0.265400
vt 0.230600 0.242400
vt 0.230600 0.242400
vt 0.253700 0.265400
vt 0.230600 0.265400
vt 0.253700 0.242400
vt 0.230600 0.265400
vt 0.230600 0.242400
vt 0.253700 0.242400
vt 0.230600 0.265400
vt 0.230600 0.242400
vt 0.230600 0.242400
vt 0.253700 0.242400
vt 0.230600 0.265400
vt 0.253700 0.265400
vt 0.230600 0.265400
vt 0.253700 0.242400
vt 0.230600 0.242400
vt 0.230600 0.242400
vt 0.253700 0.265400
vt 0.230600 0.265400
vt 0.253700 0.242400
vt 0.230600 0.265400
vt 0.230600 0.242400
vt 0.172100 0.757600
vt 0.195100 0.757600
vt 0.195100 0.757600
vt 0.195100 0.757600
vt 0.195100 0.757600
vt 0.172100 0.757600
vt 0.195100 0.757600
vt 0.253700 0.265400
vt 0.253700 0.265400
vt 0.253700 0.265400
vt 0.253700 0.242400
vt 0.253700 0.265400
vt 0.253700 0.242400
vt 0.253700 0.265400
vn -0.9725 0.2230 0.0668
vn -0.9805 0.1943 0.0301
vn -0.8937 0.3666 0.2586
vn 0.1666 -0.1663 0.9719
vn 0.1631 -0.1600 0.9736
vn 0.2397 -0.2971 0.9242
vn 0.9975 0.0000 -0.0712
vn 0.1459 0.0000 -0.9893
vn 0.0000 -1.0000 -0.0000
vn 0.2457 0.9402 0.2361
vn 0.2114 0.9383 0.2737
vn -0.1099 0.8155 0.5682
vn -0.0135 0.9999 -0.0056
vn -0.0163 0.9999 -0.0016
vn -0.0182 0.9998 0.0013
vn 0.8213 -0.0000 0.5705
vn -0.8440 0.0000 -0.5363
vn -0.9757 -0.0000 -0.2191
vn -0.0000 0.0000 -1.0000
vn 1.0000 0.0000 0.0000
vn 0.1637 -0.0000 0.9865
vn -0.5321 0.8209 -0.2074
vn -0.5083 0.8479 -0.1506
vn -0.5428 0.8064 -0.2348
vn -0.5299 0.8480 0.0000
vn 0.7786 0.0000 -0.6276
vn -1.0000 0.0000 0.0000
vn -0.9784 0.0000 -0.2065
vn 0.0712 -0.0000 0.9975
vn 0.5397 0.8273 -0.1561
vn -0.0121 0.9999 -0.0077
vn -0.4900 0.8647 -0.1100
usemtl color1
s 1
f 1/1/1 2/2/2 3/3/3
f 2/4/4 4/5/5 3/6/6
f 5/7/7 6/8/7 7/9/7
f 8/10/8 9/11/8 6/12/8
f 10/13/9 11/14/9 2/15/9
f 1/16/10 4/5/11 7/9/12
f 9/17/13 7/18/14 6/12/15
f 12/19/9 5/20/9 10/21/9
f 4/22/16 5/20/16 7/18/16
f 12/23/17 1/24/17 9/25/17
f 13/26/18 14/27/18 15/28/18
f 13/29/19 16/30/19 17/31/19
f 18/32/20 19/33/20 20/34/20
f 21/35/21 22/36/21 18/37/21
f 14/38/9 16/30/9 19/33/9
f 23/39/22 15/40/23 20/34/24
f 18/37/25 15/41/25 21/42/25
f 14/43/9 22/36/9 24/44/9
f 23/45/26 19/46/26 16/47/26
f 15/48/27 24/49/27 21/50/27
f 1/1/1 10/51/28 2/2/2
f 2/4/4 11/14/29 4/5/5
f 5/7/7 8/52/7 6/8/7
f 8/10/8 12/53/8 9/11/8
f 10/13/9 5/7/9 11/14/9
f 1/16/10 3/54/30 4/5/11
f 9/17/13 1/55/31 7/18/14
f 12/19/9 8/10/9 5/20/9
f 4/22/16 11/56/16 5/20/16
f 12/23/17 10/57/17 1/24/17
f 13/26/18 17/58/18 14/27/18
f 13/29/19 23/39/19 16/30/19
f 18/32/20 22/59/20 19/33/20
f 21/35/21 24/60/21 22/36/21
f 14/38/9 17/61/9 16/30/9
f 23/39/22 13/62/32 15/40/23
f 18/37/25 20/63/25 15/41/25
f 14/43/9 19/46/9 22/36/9
f 23/45/26 20/63/26 19/46/26
f 15/48/27 14/64/27 24/49/27
