# Blender v2.82 (sub 7) OBJ File: ''
# www.blender.org
mtllib 16.mtl
o Rock_Type4_01_mesh_Circle.008
v -0.133580 0.045778 0.081347
v 0.041537 0.045778 -0.413135
v 0.579437 0.045778 -0.200140
v -0.598539 0.045778 -0.986688
v -0.979541 0.045778 -0.469925
v -0.899869 0.045778 0.101992
v -0.441111 0.045778 0.395143
v -0.129331 0.045778 0.890341
v 0.657942 0.045778 0.684890
v 0.466221 0.045778 0.284819
v 0.334714 0.045778 -0.644680
v -0.909628 0.045778 0.445392
v 0.094785 0.045777 1.148425
v -1.027964 0.045778 -0.994102
v 0.041537 0.199767 -0.413135
v 0.326941 0.361377 -0.525538
v 0.334714 0.199767 -0.644680
v -0.585894 0.320258 -0.885795
v -0.029526 0.320258 -0.387251
v -0.979541 0.199767 -0.469925
v -0.598539 0.199767 -0.986688
v -0.899869 0.199767 0.101992
v -0.917068 0.320258 -0.436614
v -0.449055 0.320258 0.315322
v -0.847818 0.320258 0.060509
v -0.133580 0.199767 0.081347
v -0.154642 0.275074 0.785887
v -0.129331 0.199767 0.890341
v 0.606349 0.199767 1.014924
v 0.112845 0.347323 1.097795
v 0.094785 0.199766 1.148425
v 0.657942 0.199767 0.684890
v 0.443778 0.347324 0.328361
v 0.614593 0.347324 0.684806
v 0.579437 0.199767 -0.200140
v 0.419627 0.361377 0.129575
v 0.466221 0.199767 0.284819
v 0.487106 0.361377 -0.462117
v 0.499423 0.361377 -0.212226
v -0.909628 0.199767 0.445392
v -0.832075 0.297315 0.214186
v 0.568624 0.347324 0.978852
v -1.027964 0.199767 -0.994102
v -0.680322 0.297315 -0.943948
v -1.203109 0.199767 -0.756548
v -1.203109 0.045778 -0.756548
v -0.660537 0.199767 0.604564
v -0.660537 0.045778 0.604564
v 0.606349 0.045778 1.014924
v 0.561964 0.199767 -0.554695
v 0.561964 0.045778 -0.554695
v -0.441111 0.199767 0.395143
v -0.090618 0.347324 0.147077
v -0.086833 0.347324 0.867854
v -0.003114 0.361377 -0.013833
v 0.120310 0.361377 -0.362345
v -0.181742 0.320258 0.042563
v -0.157870 0.275074 0.171272
v -0.391510 0.275074 0.409672
v -0.554052 0.297315 0.391845
v -0.837989 0.297315 0.422298
v -0.687031 0.297315 0.518761
v -0.973240 0.297315 -0.546654
v -1.010468 0.297315 -0.949648
v -1.145123 0.297315 -0.767013
vt 0.662500 0.225000
vt 0.728100 0.225000
vt 0.728100 0.290600
vt 0.264100 0.232900
vt 0.329600 0.232900
vt 0.329600 0.298400
vt 0.329600 0.232900
vt 0.329600 0.298400
vt 0.329600 0.232900
vt 0.329600 0.298400
vt 0.329600 0.232900
vt 0.329600 0.298400
vt 0.329600 0.232900
vt 0.329600 0.298400
vt 0.182100 0.721100
vt 0.247600 0.721100
vt 0.247600 0.786700
vt 0.247600 0.721100
vt 0.247600 0.786700
vt 0.728100 0.225000
vt 0.728100 0.290600
vt 0.728100 0.225000
vt 0.662500 0.290600
vt 0.662500 0.225000
vt 0.662500 0.225000
vt 0.728100 0.290600
vt 0.662500 0.290600
vt 0.182100 0.721100
vt 0.247600 0.786700
vt 0.182100 0.786700
vt 0.228900 0.725000
vt 0.294500 0.790600
vt 0.228900 0.790600
vt 0.778900 0.228900
vt 0.713300 0.294500
vt 0.713300 0.228900
vt 0.264100 0.232900
vt 0.329600 0.298400
vt 0.264100 0.298400
vt 0.329600 0.232900
vt 0.264100 0.298400
vt 0.264100 0.232900
vt 0.329600 0.232900
vt 0.264100 0.298400
vt 0.264100 0.232900
vt 0.264100 0.232900
vt 0.329600 0.298400
vt 0.264100 0.298400
vt 0.329600 0.232900
vt 0.264100 0.298400
vt 0.264100 0.232900
vt 0.243700 0.709400
vt 0.178200 0.775000
vt 0.178200 0.709400
vt 0.178200 0.709400
vt 0.243700 0.775000
vt 0.178200 0.775000
vt 0.778900 0.228900
vt 0.713300 0.294500
vt 0.713300 0.228900
vt 0.713300 0.228900
vt 0.778900 0.294500
vt 0.713300 0.294500
vt 0.778900 0.228900
vt 0.713300 0.294500
vt 0.713300 0.228900
vt 0.243700 0.709400
vt 0.178200 0.775000
vt 0.178200 0.709400
vt 0.243700 0.709400
vt 0.178200 0.775000
vt 0.178200 0.709400
vt 0.243700 0.709400
vt 0.178200 0.775000
vt 0.178200 0.709400
vt 0.264100 0.298400
vt 0.264100 0.232900
vt 0.778900 0.228900
vt 0.713300 0.294500
vt 0.713300 0.228900
vt 0.243700 0.709400
vt 0.178200 0.775000
vt 0.178200 0.709400
vt 0.778900 0.228900
vt 0.713300 0.294500
vt 0.713300 0.228900
vt 0.243700 0.709400
vt 0.178200 0.775000
vt 0.178200 0.709400
vt 0.778900 0.228900
vt 0.713300 0.294500
vt 0.713300 0.228900
vt 0.243700 0.709400
vt 0.178200 0.775000
vt 0.178200 0.709400
vt 0.264100 0.298400
vt 0.264100 0.232900
vt 0.778900 0.228900
vt 0.713300 0.294500
vt 0.713300 0.228900
vt 0.264100 0.298400
vt 0.264100 0.232900
vt 0.243700 0.709400
vt 0.178200 0.775000
vt 0.178200 0.709400
vt 0.778900 0.228900
vt 0.713300 0.294500
vt 0.713300 0.228900
vt 0.243700 0.709400
vt 0.178200 0.775000
vt 0.178200 0.709400
vt 0.778900 0.228900
vt 0.713300 0.294500
vt 0.713300 0.228900
vt 0.243700 0.709400
vt 0.178200 0.775000
vt 0.178200 0.709400
vt 0.778900 0.228900
vt 0.713300 0.294500
vt 0.713300 0.228900
vt 0.178200 0.709400
vt 0.243700 0.709400
vt 0.243700 0.775000
vt 0.243700 0.709400
vt 0.178200 0.709400
vt 0.243700 0.775000
vt 0.178200 0.709400
vt 0.243700 0.775000
vt 0.178200 0.775000
vt 0.178200 0.709400
vt 0.178200 0.775000
vt 0.243700 0.709400
vt 0.178200 0.775000
vt 0.178200 0.709400
vt 0.713300 0.228900
vt 0.778900 0.228900
vt 0.778900 0.294500
vt 0.778900 0.228900
vt 0.778900 0.294500
vt 0.713300 0.228900
vt 0.713300 0.228900
vt 0.778900 0.294500
vt 0.713300 0.294500
vt 0.713300 0.228900
vt 0.778900 0.294500
vt 0.713300 0.294500
vt 0.713300 0.228900
vt 0.778900 0.294500
vt 0.713300 0.294500
vt 0.264100 0.232900
vt 0.329600 0.232900
vt 0.329600 0.232900
vt 0.329600 0.298400
vt 0.329600 0.232900
vt 0.329600 0.298400
vt 0.329600 0.232900
vt 0.264100 0.232900
vt 0.329600 0.298400
vt 0.264100 0.298400
vt 0.264100 0.298400
vt 0.264100 0.232900
vt 0.264100 0.232900
vt 0.329600 0.232900
vt 0.329600 0.298400
vt 0.264100 0.298400
vt 0.329600 0.232900
vt 0.264100 0.298400
vt 0.713300 0.228900
vt 0.778900 0.294500
vt 0.713300 0.294500
vt 0.713300 0.228900
vt 0.778900 0.294500
vt 0.713300 0.294500
vt 0.713300 0.228900
vt 0.778900 0.294500
vt 0.713300 0.228900
vt 0.778900 0.294500
vt 0.713300 0.294500
vt 0.178200 0.709400
vt 0.243700 0.775000
vt 0.178200 0.775000
vt 0.178200 0.709400
vt 0.243700 0.775000
vt 0.178200 0.709400
vt 0.243700 0.775000
vt 0.178200 0.775000
vt 0.178200 0.709400
vt 0.243700 0.775000
vt 0.178200 0.775000
vt 0.728100 0.290600
vt 0.728100 0.225000
vt 0.247600 0.721100
vt 0.294500 0.725000
vt 0.329600 0.232900
vt 0.329600 0.298400
vt 0.243700 0.775000
vt 0.243700 0.709400
vt 0.778900 0.228900
vt 0.243700 0.775000
vt 0.329600 0.298400
vt 0.778900 0.294500
vt 0.243700 0.775000
vt 0.778900 0.294500
vt 0.243700 0.775000
vt 0.778900 0.294500
vt 0.243700 0.775000
vt 0.329600 0.298400
vt 0.778900 0.294500
vt 0.329600 0.298400
vt 0.243700 0.775000
vt 0.778900 0.294500
vt 0.243700 0.775000
vt 0.778900 0.294500
vt 0.243700 0.775000
vt 0.778900 0.294500
vt 0.243700 0.709400
vt 0.243700 0.709400
vt 0.243700 0.775000
vt 0.778900 0.228900
vt 0.778900 0.228900
vt 0.778900 0.228900
vt 0.329600 0.232900
vt 0.329600 0.298400
vt 0.329600 0.232900
vt 0.329600 0.298400
vt 0.778900 0.228900
vt 0.778900 0.228900
vt 0.778900 0.228900
vt 0.778900 0.228900
vt 0.243700 0.709400
vt 0.243700 0.709400
vt 0.243700 0.709400
vt 0.243700 0.709400
vn -0.0000 -1.0000 -0.0000
vn -0.5434 0.4811 -0.6880
vn 0.5839 0.4843 -0.6516
vn -0.6958 0.5026 -0.5130
vn -0.8945 0.4293 0.1246
vn -0.4772 0.4633 0.7468
vn 0.9500 0.3124 -0.0050
vn 0.2418 0.2883 0.9265
vn 0.8718 0.2559 -0.4178
vn 0.8713 0.4466 0.2034
vn 0.8966 0.4406 -0.0442
vn -0.8084 0.5882 -0.0230
vn 0.9488 0.2788 0.1483
vn 0.0157 0.4123 -0.9109
vn -0.7885 -0.0000 0.6150
vn -0.9904 -0.0000 0.1380
vn -0.9996 0.0000 -0.0284
vn 0.9018 -0.0000 -0.4322
vn 0.6904 -0.0000 0.7234
vn 0.2525 0.0000 0.9676
vn 0.9738 0.0000 0.2273
vn -0.7550 -0.0000 0.6557
vn 0.6673 0.0000 -0.7447
vn 0.3682 0.0000 -0.9298
vn -0.8462 -0.0000 0.5328
vn 0.9880 0.0000 0.1545
vn 0.9988 -0.0000 -0.0492
vn -0.8049 -0.0000 -0.5934
vn -0.6198 0.0000 -0.7848
vn 0.0173 0.0000 -0.9999
vn -0.5385 -0.0000 0.8426
vn 0.0000 1.0000 0.0000
vn 0.3052 0.3119 -0.8997
vn -0.7197 0.3025 0.6250
vn -0.7197 0.3025 0.6249
vn -0.9607 0.2775 0.0050
vn 0.3012 0.5752 -0.7606
vn -0.2488 0.6327 0.7333
vn -0.8209 0.4915 -0.2907
vn 0.8484 0.4358 0.3005
vn 0.6360 0.4549 0.6233
vn -0.7704 0.4138 0.4850
vn -0.6109 0.5179 -0.5987
vn -0.6109 0.5179 -0.5988
vn 0.4628 0.5113 -0.7242
vn 0.5329 0.6358 0.5583
vn -0.4628 0.5113 0.7242
vn -0.6953 0.4715 0.5424
vn 0.7435 0.3831 0.5481
vn -0.7435 0.3831 -0.5481
usemtl color1
s 1
f 1/1/1 2/2/1 3/3/1
f 1/4/1 4/5/1 2/6/1
f 1/4/1 5/7/1 4/8/1
f 1/4/1 6/9/1 5/10/1
f 1/4/1 7/11/1 6/12/1
f 1/4/1 8/13/1 7/14/1
f 1/15/1 9/16/1 8/17/1
f 1/15/1 10/18/1 9/19/1
f 1/1/1 3/20/1 10/21/1
f 11/22/1 3/23/1 2/24/1
f 7/25/1 12/26/1 6/27/1
f 9/28/1 13/29/1 8/30/1
f 5/31/1 14/32/1 4/33/1
f 15/34/2 16/35/2 17/36/2
f 15/37/3 18/38/3 19/39/3
f 20/40/4 18/41/4 21/42/4
f 22/43/5 23/44/5 20/45/5
f 22/46/6 24/47/6 25/48/6
f 26/49/7 27/50/7 28/51/7
f 29/52/8 30/53/8 31/54/8
f 32/55/9 33/56/9 34/57/9
f 35/58/10 36/59/10 37/60/10
f 35/61/11 38/62/11 39/63/11
f 40/64/12 41/65/12 22/66/12
f 32/67/13 42/68/13 29/69/13
f 43/70/14 44/71/14 21/72/14
f 5/73/15 45/74/15 46/75/15
f 6/9/16 20/76/16 5/77/16
f 12/78/17 22/79/17 6/80/17
f 10/81/18 32/82/18 9/83/18
f 7/84/19 47/85/19 48/86/19
f 49/87/20 31/88/20 13/89/20
f 3/90/21 37/91/21 10/92/21
f 13/93/22 28/94/22 8/95/22
f 4/5/23 15/96/23 2/97/23
f 11/98/24 50/99/24 51/100/24
f 8/13/25 52/101/25 7/102/25
f 9/103/26 29/104/26 49/105/26
f 51/106/27 35/107/27 3/108/27
f 46/109/28 43/110/28 14/111/28
f 2/112/29 17/113/29 11/114/29
f 14/115/30 21/116/30 4/117/30
f 48/118/31 40/119/31 12/120/31
f 53/121/32 54/122/32 34/123/32
f 53/121/32 34/124/32 33/56/32
f 34/125/32 30/126/32 42/68/32
f 37/127/33 53/128/33 33/129/33
f 28/130/34 30/126/35 54/131/34
f 28/132/36 53/133/36 26/134/36
f 55/135/32 39/136/32 56/137/32
f 55/135/32 36/138/32 39/139/32
f 39/136/32 16/35/32 56/140/32
f 50/141/37 16/142/37 38/143/37
f 26/144/38 36/145/38 55/146/38
f 15/147/39 55/148/39 56/149/39
f 57/150/32 19/151/32 18/38/32
f 57/150/32 18/152/32 23/153/32
f 57/150/32 23/154/32 25/155/32
f 57/150/32 25/156/32 24/47/32
f 26/157/40 19/158/40 57/159/40
f 26/49/41 24/160/41 52/161/41
f 58/162/32 59/163/32 27/164/32
f 52/161/42 27/164/42 59/165/42
f 52/166/43 58/167/44 26/157/44
f 60/168/32 61/169/32 62/170/32
f 52/171/45 41/172/45 60/173/45
f 47/174/46 60/175/46 62/170/46
f 40/176/47 62/177/47 61/178/47
f 63/179/32 64/180/32 65/181/32
f 45/182/48 63/183/48 65/181/48
f 20/184/49 44/185/49 63/186/49
f 43/187/50 65/188/50 64/189/50
f 11/22/1 51/190/1 3/23/1
f 7/25/1 48/191/1 12/26/1
f 9/28/1 49/192/1 13/29/1
f 5/31/1 46/193/1 14/32/1
f 15/34/2 56/137/2 16/35/2
f 15/37/3 21/194/3 18/38/3
f 20/40/4 23/153/4 18/41/4
f 22/43/5 25/155/5 23/44/5
f 22/46/6 52/166/6 24/47/6
f 26/49/7 58/195/7 27/50/7
f 29/52/8 42/196/8 30/53/8
f 32/55/9 37/197/9 33/56/9
f 35/58/10 39/139/10 36/59/10
f 35/61/11 50/198/11 38/62/11
f 40/64/12 61/169/12 41/65/12
f 32/67/13 34/123/13 42/68/13
f 43/70/14 64/180/14 44/71/14
f 5/73/15 20/199/15 45/74/15
f 6/9/16 22/200/16 20/76/16
f 12/78/17 40/201/17 22/79/17
f 10/81/18 37/202/18 32/82/18
f 7/84/19 52/203/19 47/85/19
f 49/87/20 29/204/20 31/88/20
f 3/90/21 35/205/21 37/91/21
f 13/93/22 31/206/22 28/94/22
f 4/5/23 21/207/23 15/96/23
f 11/98/24 17/208/24 50/99/24
f 8/13/25 28/209/25 52/101/25
f 9/103/26 32/210/26 29/104/26
f 51/106/27 50/211/27 35/107/27
f 46/109/28 45/212/28 43/110/28
f 2/112/29 15/213/29 17/113/29
f 14/115/30 43/214/30 21/116/30
f 48/118/31 47/215/31 40/119/31
f 34/125/32 54/122/32 30/126/32
f 37/127/33 26/216/33 53/128/33
f 28/130/34 31/217/35 30/126/35
f 28/132/36 54/218/36 53/133/36
f 39/136/32 38/62/32 16/35/32
f 50/141/37 17/219/37 16/142/37
f 26/144/38 37/220/38 36/145/38
f 15/147/39 26/221/39 55/148/39
f 26/157/40 15/222/40 19/158/40
f 26/49/41 57/223/41 24/160/41
f 52/161/42 28/224/42 27/164/42
f 52/166/43 59/225/43 58/167/44
f 60/168/32 41/226/32 61/169/32
f 52/171/45 22/227/45 41/172/45
f 47/174/46 52/228/46 60/175/46
f 40/176/47 47/229/47 62/177/47
f 63/179/32 44/230/32 64/180/32
f 45/182/48 20/231/48 63/183/48
f 20/184/49 21/232/49 44/185/49
f 43/187/50 45/233/50 65/188/50
