# Blender v2.82 (sub 7) OBJ File: ''
# www.blender.org
mtllib 16.mtl
v 0.237213 0.414909 0.126794
v 0.321400 0.411780 0.254357
v 0.120968 0.878178 0.383970
v -0.054979 0.790166 0.131046
v 0.332656 0.414829 -0.002399
v 0.071218 0.785887 -0.182900
v 0.503564 0.428833 -0.007506
v 0.362052 0.894280 -0.230664
v 0.580437 0.437094 0.122379
v 0.529162 1.003820 0.036440
v 0.492414 0.421951 0.253856
v 0.411962 0.985454 0.334171
v -0.023672 1.079343 0.209791
v -0.126125 0.986334 0.040561
v -0.036703 0.986825 -0.179584
v 0.158635 1.094969 -0.205604
v 0.264840 1.189642 -0.024708
v 0.175550 1.178626 0.180616
v -0.031716 1.147036 0.079675
v -0.081617 1.097396 -0.007883
v -0.035529 1.102449 -0.111972
v 0.062584 1.158806 -0.123622
v 0.114183 1.207016 -0.033454
v 0.067749 1.201258 0.069006
v 0.319401 0.287800 0.112932
v 0.372008 0.286012 0.190133
v 0.380171 0.289170 0.040012
v 0.485631 0.294091 0.041822
v 0.530828 0.295972 0.119159
v 0.477502 0.290393 0.194439
v -0.072305 0.190976 0.042119
v -0.017293 0.199858 0.074291
v 0.031476 -0.122986 0.048623
v -0.068707 -0.122986 -0.009219
v -0.017293 0.199858 0.138635
v 0.031476 -0.122986 0.164303
v -0.072305 0.190976 0.170807
v -0.068707 -0.122986 0.222144
v -0.127316 0.182094 0.138635
v -0.168889 -0.122986 0.164303
v -0.127316 0.182094 0.074291
v -0.168889 -0.122986 0.048623
v -0.055106 0.263239 0.074291
v -0.054465 0.262165 0.138635
v -0.316216 0.498726 0.138635
v -0.316216 0.498726 0.074291
v 0.098315 0.463293 0.084710
v 0.140609 0.436807 0.084710
v -0.261204 0.507608 0.170807
v -0.261204 0.507608 0.042119
v -0.207232 0.946575 0.147513
v -0.242348 0.952120 0.126988
v -0.242348 0.952120 0.085939
v -0.207232 0.946575 0.065414
v -0.206193 0.516490 0.074291
v -0.172118 0.941030 0.085939
v -0.206193 0.516490 0.138635
v -0.172118 0.941030 0.126988
v 0.140609 0.436807 0.128215
v 0.176574 0.779305 0.093207
v 0.176574 0.779305 0.119719
v 0.099032 0.462844 0.128215
v 0.146167 0.779512 0.093207
v 0.146682 0.779508 0.119719
v -0.312705 0.548088 0.212676
v -0.474831 0.557309 0.185465
v -0.413589 0.961799 -0.156212
v -0.148443 0.843201 -0.095348
v -0.232695 0.523717 0.351468
v 0.022237 0.840465 0.232228
v -0.307735 0.507016 0.473456
v -0.137035 0.937935 0.409932
v -0.460347 0.515211 0.457653
v -0.330137 1.050415 0.409003
v -0.544532 0.543458 0.312123
v -0.488456 1.058437 0.125091
v -0.197742 1.092589 -0.149530
v -0.029180 0.987570 -0.117917
v 0.059841 0.992088 0.067074
v -0.036735 1.107187 0.183008
v -0.172239 1.211387 0.175649
v -0.251298 1.194441 0.022328
v -0.106429 1.139682 -0.097554
v -0.031923 1.086197 -0.091289
v -0.004357 1.092486 -0.018746
v -0.053170 1.156561 0.040656
v -0.116945 1.209625 0.041629
v -0.143669 1.198903 -0.024627
v -0.349393 0.417258 0.287822
v -0.445130 0.418732 0.275436
v -0.306003 0.399657 0.367150
v -0.353887 0.387181 0.440277
v -0.445890 0.389830 0.432386
v -0.493322 0.404975 0.347487
v -0.266351 0.651196 -0.247673
v -0.248709 0.677158 -0.389387
v 0.048971 0.971430 -0.314467
v 0.009183 0.886775 -0.066555
v -0.388552 0.645430 -0.162146
v -0.288248 0.899092 0.089413
v -0.489702 0.652769 -0.223301
v -0.519258 0.963228 -0.010164
v -0.472683 0.695274 -0.363147
v -0.449974 1.081730 -0.227157
v -0.352252 0.714461 -0.442945
v -0.173838 1.094491 -0.380850
v 0.024026 1.126312 -0.121130
v -0.006624 1.044453 0.045558
v -0.209093 1.037286 0.153608
v -0.373431 1.107276 0.094041
v -0.327816 1.198502 -0.057237
v -0.134841 1.210370 -0.167359
v -0.058583 1.169131 -0.012087
v -0.074896 1.123479 0.069990
v -0.172760 1.115951 0.125098
v -0.254122 1.154824 0.097502
v -0.234173 1.202728 0.018913
v -0.138027 1.210347 -0.036660
v -0.344687 0.566011 -0.278478
v -0.337664 0.582487 -0.368440
v -0.411301 0.557416 -0.226472
v -0.469998 0.560221 -0.266242
v -0.464088 0.583144 -0.356417
v -0.397930 0.597073 -0.406322
vt 0.100400 0.352400
vt 0.145700 0.352400
vt 0.145700 0.397600
vt 0.100400 0.397600
vt 0.100400 0.352400
vt 0.145700 0.352400
vt 0.145700 0.397600
vt 0.100400 0.397600
vt 0.100400 0.352400
vt 0.145700 0.352400
vt 0.145700 0.397600
vt 0.100400 0.397600
vt 0.100400 0.352400
vt 0.145700 0.352400
vt 0.145700 0.397600
vt 0.100400 0.397600
vt 0.100400 0.352400
vt 0.145700 0.352400
vt 0.145700 0.397600
vt 0.100400 0.397600
vt 0.100400 0.352400
vt 0.145700 0.352400
vt 0.145700 0.397600
vt 0.100400 0.397600
vt 0.100400 0.352400
vt 0.145700 0.352400
vt 0.145700 0.397600
vt 0.100400 0.397600
vt 0.100400 0.352400
vt 0.145700 0.352400
vt 0.145700 0.397600
vt 0.100400 0.397600
vt 0.100400 0.352400
vt 0.145700 0.352400
vt 0.145700 0.397600
vt 0.100400 0.397600
vt 0.100400 0.352400
vt 0.145700 0.352400
vt 0.145700 0.397600
vt 0.100400 0.397600
vt 0.100400 0.352400
vt 0.145700 0.352400
vt 0.145700 0.397600
vt 0.100400 0.397600
vt 0.100400 0.352400
vt 0.145700 0.352400
vt 0.145700 0.397600
vt 0.100400 0.397600
vt 0.100400 0.352400
vt 0.145700 0.352400
vt 0.145700 0.397600
vt 0.100400 0.397600
vt 0.100400 0.352400
vt 0.145700 0.352400
vt 0.145700 0.397600
vt 0.100400 0.397600
vt 0.100400 0.352400
vt 0.145700 0.352400
vt 0.145700 0.397600
vt 0.100400 0.397600
vt 0.100400 0.352400
vt 0.145700 0.352400
vt 0.145700 0.397600
vt 0.100400 0.397600
vt 0.100400 0.352400
vt 0.145700 0.352400
vt 0.145700 0.397600
vt 0.100400 0.397600
vt 0.100400 0.352400
vt 0.145700 0.352400
vt 0.145700 0.397600
vt 0.100400 0.397600
vt 0.123000 0.397600
vt 0.142600 0.386300
vt 0.142600 0.363700
vt 0.123000 0.352400
vt 0.103500 0.363700
vt 0.103500 0.386300
vt 0.145700 0.397600
vt 0.100400 0.397600
vt 0.145700 0.397600
vt 0.100400 0.397600
vt 0.145700 0.397600
vt 0.100400 0.397600
vt 0.145700 0.397600
vt 0.100400 0.397600
vt 0.145700 0.397600
vt 0.100400 0.397600
vt 0.145700 0.397600
vt 0.100400 0.397600
vt 0.123000 0.397600
vt 0.142600 0.386300
vt 0.142600 0.363700
vt 0.123000 0.352400
vt 0.103500 0.363700
vt 0.103500 0.386300
vt 0.372900 0.860300
vt 0.373200 0.860200
vt 0.373900 0.860000
vt 0.372900 0.860400
vt 0.373300 0.859700
vt 0.374400 0.858500
vt 0.373100 0.859300
vt 0.373500 0.856300
vt 0.372700 0.859600
vt 0.372000 0.858200
vt 0.372600 0.860100
vt 0.372000 0.859700
vt 0.373200 0.860200
vt 0.373300 0.859700
vt 0.372700 0.859600
vt 0.372600 0.860100
vt 0.373200 0.860200
vt 0.373200 0.860200
vt 0.373100 0.859300
vt 0.372900 0.860300
vt 0.373100 0.859300
vt 0.372700 0.859600
vt 0.372600 0.860100
vt 0.372900 0.860300
vt 0.373200 0.860200
vt 0.373200 0.860200
vt 0.373300 0.859700
vt 0.373300 0.859700
vt 0.373300 0.859700
vt 0.373200 0.860200
vt 0.373300 0.859700
vt 0.373300 0.859700
vt 0.373200 0.860200
vt 0.373300 0.859700
vt 0.100400 0.352400
vt 0.145700 0.352400
vt 0.145700 0.397600
vt 0.100400 0.397600
vt 0.100400 0.352400
vt 0.145700 0.352400
vt 0.145700 0.397600
vt 0.100400 0.397600
vt 0.100400 0.352400
vt 0.145700 0.352400
vt 0.145700 0.397600
vt 0.100400 0.397600
vt 0.100400 0.352400
vt 0.145700 0.352400
vt 0.145700 0.397600
vt 0.100400 0.397600
vt 0.100400 0.352400
vt 0.145700 0.352400
vt 0.145700 0.397600
vt 0.100400 0.397600
vt 0.100400 0.352400
vt 0.145700 0.352400
vt 0.145700 0.397600
vt 0.100400 0.397600
vt 0.100400 0.352400
vt 0.145700 0.352400
vt 0.145700 0.397600
vt 0.100400 0.397600
vt 0.100400 0.352400
vt 0.145700 0.352400
vt 0.145700 0.397600
vt 0.100400 0.397600
vt 0.100400 0.352400
vt 0.145700 0.352400
vt 0.145700 0.397600
vt 0.100400 0.397600
vt 0.100400 0.352400
vt 0.145700 0.352400
vt 0.145700 0.397600
vt 0.100400 0.397600
vt 0.100400 0.352400
vt 0.145700 0.352400
vt 0.145700 0.397600
vt 0.100400 0.397600
vt 0.100400 0.352400
vt 0.145700 0.352400
vt 0.145700 0.397600
vt 0.100400 0.397600
vt 0.100400 0.352400
vt 0.145700 0.352400
vt 0.145700 0.397600
vt 0.100400 0.397600
vt 0.100400 0.352400
vt 0.145700 0.352400
vt 0.145700 0.397600
vt 0.100400 0.397600
vt 0.100400 0.352400
vt 0.145700 0.352400
vt 0.145700 0.397600
vt 0.100400 0.397600
vt 0.100400 0.352400
vt 0.145700 0.352400
vt 0.145700 0.397600
vt 0.100400 0.397600
vt 0.100400 0.352400
vt 0.145700 0.352400
vt 0.145700 0.397600
vt 0.100400 0.397600
vt 0.100400 0.352400
vt 0.145700 0.352400
vt 0.145700 0.397600
vt 0.100400 0.397600
vt 0.123000 0.397600
vt 0.142600 0.386300
vt 0.142600 0.363700
vt 0.123000 0.352400
vt 0.103500 0.363700
vt 0.103500 0.386300
vt 0.145700 0.397600
vt 0.100400 0.397600
vt 0.145700 0.397600
vt 0.100400 0.397600
vt 0.145700 0.397600
vt 0.100400 0.397600
vt 0.145700 0.397600
vt 0.100400 0.397600
vt 0.145700 0.397600
vt 0.100400 0.397600
vt 0.145700 0.397600
vt 0.100400 0.397600
vt 0.123000 0.397600
vt 0.142600 0.386300
vt 0.142600 0.363700
vt 0.123000 0.352400
vt 0.103500 0.363700
vt 0.103500 0.386300
vt 0.608200 0.108200
vt 0.653500 0.108200
vt 0.653500 0.153500
vt 0.608200 0.153500
vt 0.608200 0.108200
vt 0.653500 0.108200
vt 0.653500 0.153500
vt 0.608200 0.153500
vt 0.608200 0.108200
vt 0.653500 0.108200
vt 0.653500 0.153500
vt 0.608200 0.153500
vt 0.608200 0.108200
vt 0.653500 0.108200
vt 0.653500 0.153500
vt 0.608200 0.153500
vt 0.608200 0.108200
vt 0.653500 0.108200
vt 0.653500 0.153500
vt 0.608200 0.153500
vt 0.608200 0.108200
vt 0.653500 0.108200
vt 0.653500 0.153500
vt 0.608200 0.153500
vt 0.608200 0.108200
vt 0.653500 0.108200
vt 0.653500 0.153500
vt 0.608200 0.153500
vt 0.608200 0.108200
vt 0.653500 0.108200
vt 0.653500 0.153500
vt 0.608200 0.153500
vt 0.608200 0.108200
vt 0.653500 0.108200
vt 0.653500 0.153500
vt 0.608200 0.153500
vt 0.608200 0.108200
vt 0.653500 0.108200
vt 0.653500 0.153500
vt 0.608200 0.153500
vt 0.608200 0.108200
vt 0.653500 0.108200
vt 0.653500 0.153500
vt 0.608200 0.153500
vt 0.608200 0.108200
vt 0.653500 0.108200
vt 0.653500 0.153500
vt 0.608200 0.153500
vt 0.608200 0.108200
vt 0.653500 0.108200
vt 0.653500 0.153500
vt 0.608200 0.153500
vt 0.608200 0.108200
vt 0.653500 0.108200
vt 0.653500 0.153500
vt 0.608200 0.153500
vt 0.608200 0.108200
vt 0.653500 0.108200
vt 0.653500 0.153500
vt 0.608200 0.153500
vt 0.608200 0.108200
vt 0.653500 0.108200
vt 0.653500 0.153500
vt 0.608200 0.153500
vt 0.608200 0.108200
vt 0.653500 0.108200
vt 0.653500 0.153500
vt 0.608200 0.153500
vt 0.608200 0.108200
vt 0.653500 0.108200
vt 0.653500 0.153500
vt 0.608200 0.153500
vt 0.630900 0.153500
vt 0.650400 0.142200
vt 0.650400 0.119500
vt 0.630900 0.108200
vt 0.611300 0.119500
vt 0.611300 0.142200
vt 0.653500 0.153500
vt 0.608200 0.153500
vt 0.653500 0.153500
vt 0.608200 0.153500
vt 0.653500 0.153500
vt 0.608200 0.153500
vt 0.653500 0.153500
vt 0.608200 0.153500
vt 0.653500 0.153500
vt 0.608200 0.153500
vt 0.653500 0.153500
vt 0.608200 0.153500
vt 0.630900 0.153500
vt 0.650400 0.142200
vt 0.650400 0.119500
vt 0.630900 0.108200
vt 0.611300 0.119500
vt 0.611300 0.142200
vn -0.6696 -0.4818 0.5653
vn -0.7111 -0.6100 -0.3496
vn 0.0107 -0.4304 -0.9026
vn 0.8517 0.0021 -0.5241
vn 0.8938 0.1063 0.4357
vn 0.1467 -0.1590 0.9763
vn -0.8197 -0.0662 0.5690
vn -0.8304 -0.4474 -0.3321
vn -0.1349 -0.0346 -0.9903
vn 0.5372 0.5942 -0.5986
vn 0.5105 0.8204 0.2575
vn -0.1094 0.5707 0.8138
vn -0.8582 0.4397 0.2649
vn -0.9027 0.2135 -0.3736
vn -0.3679 0.4729 -0.8006
vn 0.1246 0.8460 -0.5185
vn 0.1062 0.9892 0.1007
vn -0.3527 0.8085 0.4711
vn -0.4975 0.8485 -0.1805
vn -0.7160 -0.5199 0.4659
vn -0.7135 -0.4287 -0.5542
vn 0.0114 -0.3311 -0.9435
vn 0.8323 -0.2834 -0.4764
vn 0.7996 -0.3077 0.5158
vn 0.0103 -0.4319 0.9019
vn 0.0411 -0.9989 -0.0204
vn 0.4903 0.1443 -0.8595
vn 0.9888 0.1494 0.0000
vn 0.4903 0.1443 0.8595
vn -0.5028 0.1370 0.8534
vn -0.9908 0.1350 0.0000
vn -0.5028 0.1370 -0.8534
vn 0.4531 0.2703 -0.8495
vn 0.4531 0.2703 0.8495
vn -0.8588 -0.5123 -0.0000
vn 0.0297 0.0265 -0.9992
vn -0.4531 -0.2703 0.8495
vn -0.4531 -0.2703 -0.8495
vn -0.5048 0.1059 0.8567
vn -0.5048 0.1059 -0.8567
vn 0.5051 -0.0166 -0.8629
vn 0.5051 -0.0166 0.8629
vn -0.9870 0.1608 0.0000
vn 0.9968 -0.0800 0.0000
vn 0.8588 0.5123 -0.0000
vn 0.9945 -0.1044 0.0000
vn 0.8322 -0.5545 0.0000
vn -0.7938 0.6079 0.0186
vn 0.0297 0.0265 0.9992
vn 0.0068 1.0000 0.0000
vn -0.9886 0.1492 0.0184
vn 0.0090 0.0246 -0.9997
vn 0.0090 0.0246 0.9997
vn -0.0484 -0.6713 -0.7396
vn 0.6221 -0.6876 -0.3744
vn 0.7263 -0.2577 0.6373
vn -0.0070 0.1175 0.9930
vn -0.8318 0.2579 0.4915
vn -0.9447 -0.0644 -0.3217
vn 0.1099 -0.1902 -0.9756
vn 0.7115 -0.6044 -0.3584
vn 0.8146 0.2744 0.5111
vn 0.3960 0.6263 0.6715
vn -0.4533 0.8616 0.2285
vn -0.5208 0.7179 -0.4620
vn 0.3273 0.2867 -0.9004
vn 0.8936 0.1780 -0.4120
vn 0.8142 0.5737 0.0889
vn 0.6004 0.7697 0.2170
vn -0.1011 0.9919 -0.0763
vn -0.1890 0.7867 -0.5877
vn 0.5843 0.7470 -0.3171
vn 0.1083 -0.5215 -0.8463
vn 0.7166 -0.4871 -0.4992
vn 0.7946 -0.4206 0.4377
vn -0.1037 -0.2179 0.9705
vn -0.8667 -0.1982 0.4577
vn -0.7422 -0.4439 -0.5020
vn -0.0059 -0.9823 -0.1874
vn 0.6988 -0.7086 -0.0982
vn 0.3191 -0.7535 0.5748
vn -0.4591 -0.5298 0.7131
vn -0.9766 0.0887 -0.1962
vn -0.4977 0.3371 -0.7992
vn 0.3276 -0.0395 -0.9440
vn 0.9872 -0.0253 0.1576
vn 0.3913 -0.5315 0.7513
vn -0.4219 -0.1923 0.8860
vn -0.7563 0.6413 0.1292
vn -0.2767 0.8687 -0.4108
vn 0.5233 0.7009 -0.4846
vn 0.7637 0.5045 0.4028
vn 0.4696 0.1177 0.8750
vn -0.1576 0.3756 0.9133
vn -0.3567 0.8408 0.4072
vn -0.0631 0.9980 0.0073
vn 0.4635 0.8861 0.0077
vn 0.2364 0.8161 0.5274
vn 0.7327 -0.6790 -0.0464
vn 0.4915 -0.6218 0.6098
vn -0.5001 -0.4360 0.7482
vn -0.9850 -0.1131 -0.1304
vn -0.5618 -0.0650 -0.8247
vn 0.3292 -0.4364 -0.8374
vn -0.0006 -0.9766 -0.2149
usemtl _trees_normal
s 1
f 1/1/1 2/2/1 3/3/1 4/4/1
f 5/5/2 1/6/2 4/7/2 6/8/2
f 7/9/3 5/10/3 6/11/3 8/12/3
f 9/13/4 7/14/4 8/15/4 10/16/4
f 11/17/5 9/18/5 10/19/5 12/20/5
f 2/21/6 11/22/6 12/23/6 3/24/6
f 4/25/7 3/26/7 13/27/7 14/28/7
f 6/29/8 4/30/8 14/31/8 15/32/8
f 8/33/9 6/34/9 15/35/9 16/36/9
f 10/37/10 8/38/10 16/39/10 17/40/10
f 12/41/11 10/42/11 17/43/11 18/44/11
f 3/45/12 12/46/12 18/47/12 13/48/12
f 14/49/13 13/50/13 19/51/13 20/52/13
f 15/53/14 14/54/14 20/55/14 21/56/14
f 16/57/15 15/58/15 21/59/15 22/60/15
f 17/61/16 16/62/16 22/63/16 23/64/16
f 18/65/17 17/66/17 23/67/17 24/68/17
f 13/69/18 18/70/18 24/71/18 19/72/18
f 24/73/19 23/74/19 22/75/19 21/76/19 20/77/19 19/78/19
f 2/21/20 1/6/20 25/79/20 26/80/20
f 1/1/21 5/10/21 27/81/21 25/82/21
f 5/5/22 7/14/22 28/83/22 27/84/22
f 7/9/23 9/18/23 29/85/23 28/86/23
f 9/13/24 11/22/24 30/87/24 29/88/24
f 11/17/25 2/2/25 26/89/25 30/90/25
f 30/91/26 26/92/26 25/93/26 27/94/26 28/95/26 29/96/26
f 31/97/27 32/98/27 33/99/27 34/100/27
f 32/98/28 35/101/28 36/102/28 33/99/28
f 35/101/29 37/103/29 38/104/29 36/102/29
f 37/103/30 39/105/30 40/106/30 38/104/30
f 39/105/31 41/107/31 42/108/31 40/106/31
f 41/107/32 31/97/32 34/100/32 42/108/32
f 32/98/33 31/97/33 43/109/33
f 37/103/34 35/101/34 44/110/34
f 41/107/35 39/105/35 45/111/35 46/112/35
f 32/98/36 43/109/36 47/113/36 48/114/36
f 39/105/37 37/103/37 49/115/37 45/111/37
f 31/97/38 41/107/38 46/112/38 50/116/38
f 45/111/39 49/115/39 51/117/39 52/118/39
f 50/116/40 46/112/40 53/119/40 54/120/40
f 55/121/41 50/116/41 54/120/41 56/122/41
f 49/115/42 57/123/42 58/124/42 51/117/42
f 46/112/43 45/111/43 52/118/43 53/119/43
f 57/123/44 55/121/44 56/122/44 58/124/44
f 44/110/45 43/109/45 55/121/45 57/123/45
f 31/97/33 50/116/33 55/121/33 43/109/33
f 49/115/34 37/103/34 44/110/34 57/123/34
f 59/125/46 48/114/46 60/126/46 61/127/46
f 35/101/47 32/98/47 48/114/47 59/125/47
f 43/109/48 44/110/48 62/128/48 47/113/48
f 44/110/49 35/101/49 59/125/49 62/128/49
f 61/127/50 60/126/50 63/129/50 64/130/50
f 47/113/51 62/128/51 64/130/51 63/129/51
f 48/114/52 47/113/52 63/129/52 60/126/52
f 62/128/53 59/125/53 61/127/53 64/130/53
f 65/131/54 66/132/54 67/133/54 68/134/54
f 69/135/55 65/136/55 68/137/55 70/138/55
f 71/139/56 69/140/56 70/141/56 72/142/56
f 73/143/57 71/144/57 72/145/57 74/146/57
f 75/147/58 73/148/58 74/149/58 76/150/58
f 66/151/59 75/152/59 76/153/59 67/154/59
f 68/155/60 67/156/60 77/157/60 78/158/60
f 70/159/61 68/160/61 78/161/61 79/162/61
f 72/163/62 70/164/62 79/165/62 80/166/62
f 74/167/63 72/168/63 80/169/63 81/170/63
f 76/171/64 74/172/64 81/173/64 82/174/64
f 67/175/65 76/176/65 82/177/65 77/178/65
f 78/179/66 77/180/66 83/181/66 84/182/66
f 79/183/67 78/184/67 84/185/67 85/186/67
f 80/187/68 79/188/68 85/189/68 86/190/68
f 81/191/69 80/192/69 86/193/69 87/194/69
f 82/195/70 81/196/70 87/197/70 88/198/70
f 77/199/71 82/200/71 88/201/71 83/202/71
f 88/203/72 87/204/72 86/205/72 85/206/72 84/207/72 83/208/72
f 66/151/73 65/136/73 89/209/73 90/210/73
f 65/131/74 69/140/74 91/211/74 89/212/74
f 69/135/75 71/144/75 92/213/75 91/214/75
f 71/139/76 73/148/76 93/215/76 92/216/76
f 73/143/77 75/152/77 94/217/77 93/218/77
f 75/147/78 66/132/78 90/219/78 94/220/78
f 94/221/79 90/222/79 89/223/79 91/224/79 92/225/79 93/226/79
f 95/227/80 96/228/80 97/229/80 98/230/80
f 99/231/81 95/232/81 98/233/81 100/234/81
f 101/235/82 99/236/82 100/237/82 102/238/82
f 103/239/83 101/240/83 102/241/83 104/242/83
f 105/243/84 103/244/84 104/245/84 106/246/84
f 96/247/85 105/248/85 106/249/85 97/250/85
f 98/251/86 97/252/86 107/253/86 108/254/86
f 100/255/87 98/256/87 108/257/87 109/258/87
f 102/259/88 100/260/88 109/261/88 110/262/88
f 104/263/89 102/264/89 110/265/89 111/266/89
f 106/267/90 104/268/90 111/269/90 112/270/90
f 97/271/91 106/272/91 112/273/91 107/274/91
f 108/275/92 107/276/92 113/277/92 114/278/92
f 109/279/93 108/280/93 114/281/93 115/282/93
f 110/283/94 109/284/94 115/285/94 116/286/94
f 111/287/95 110/288/95 116/289/95 117/290/95
f 112/291/96 111/292/96 117/293/96 118/294/96
f 107/295/97 112/296/97 118/297/97 113/298/97
f 118/299/98 117/300/98 116/301/98 115/302/98 114/303/98 113/304/98
f 96/247/99 95/232/99 119/305/99 120/306/99
f 95/227/100 99/236/100 121/307/100 119/308/100
f 99/231/101 101/240/101 122/309/101 121/310/101
f 101/235/102 103/244/102 123/311/102 122/312/102
f 103/239/103 105/248/103 124/313/103 123/314/103
f 105/243/104 96/228/104 120/315/104 124/316/104
f 124/317/105 120/318/105 119/319/105 121/320/105 122/321/105 123/322/105
