# Blender v2.82 (sub 7) OBJ File: ''
# www.blender.org
mtllib 4.mtl
v -0.083076 0.272948 0.428699
v -0.198935 0.272948 0.466089
v -0.336819 0.272948 0.386481
v -0.360614 0.272948 0.268462
v 0.232530 0.419158 0.373049
v 0.180714 0.382372 0.552911
v 0.023918 0.309734 0.580559
v -0.470223 0.588966 -0.032686
v -0.629681 0.546243 -0.176576
v -0.575226 0.461880 -0.326190
v -0.360614 0.419158 -0.333832
v 0.438528 0.535937 0.127551
v 0.466864 0.506556 0.239610
v 0.364523 0.448539 0.361576
v -0.330145 0.471645 -0.442318
v -0.192261 0.575289 -0.521926
v -0.083075 0.627777 -0.494071
v 0.036253 0.627777 -0.696270
v 0.193049 0.627777 -0.668622
v 0.232530 0.627777 -0.438421
v 0.348092 0.575289 -0.453218
v 0.450433 0.471645 -0.331252
v 0.438528 0.419158 -0.192923
v 0.660614 0.448539 -0.121215
v 0.221196 1.114668 -0.113664
v 0.221196 1.114668 0.048744
v 0.660614 0.506556 0.038000
v -0.043140 1.114668 0.201359
v -0.183791 1.114668 0.120154
v -0.528311 0.352457 0.245188
v -0.582766 0.509458 0.095575
v -0.043140 1.114668 -0.266279
v -0.183791 1.114668 -0.185074
v 0.116801 1.114668 -0.238077
v 0.116801 1.114668 0.173156
v -0.239337 1.114668 -0.032460
v -0.068054 1.717811 -0.036504
v -0.268698 1.075362 -0.043142
v -0.269558 1.075362 0.068911
v -0.091281 1.717811 -0.017742
v 0.050025 1.717811 -0.074869
v 0.227848 1.094069 -0.207992
v 0.173273 1.116104 -0.326343
v 0.061638 1.717811 -0.115965
v -0.116296 1.717811 -0.074025
v -0.331951 1.102104 -0.194992
v 0.081940 1.708639 -0.072273
v 0.288955 1.152631 -0.113100
v 0.230761 1.245463 0.146124
v 0.050025 1.717811 0.001862
v 0.069679 1.717811 0.052786
v 0.199957 1.202667 0.282347
v 0.290402 1.227845 0.047243
v 0.081940 1.708639 -0.002521
v -0.066044 1.075362 0.235787
v -0.168878 1.075362 0.207486
v -0.003297 1.717811 0.076496
v 0.052501 1.118159 0.326893
v -0.022951 1.717811 0.025573
v -0.046179 1.717811 0.044335
v -0.071194 1.717811 -0.136103
v -0.244219 1.154909 -0.329459
v -0.001442 2.017355 -0.034916
v -0.022951 1.717811 -0.098581
v -0.092107 1.181651 -0.313803
v -0.011338 1.717811 -0.139676
v 0.014315 1.159616 -0.378910
v -0.009833 0.674884 -0.078694
v -0.037508 0.654081 -0.062715
v 0.042180 0.665726 -0.016708
v 0.042180 0.654081 -0.048664
v -0.009833 0.639502 0.013322
v 0.021639 0.654081 0.007773
v -0.048438 0.671014 -0.032686
v 0.021639 0.674884 -0.073144
v -0.037508 0.639502 -0.002655
v -0.082951 0.382815 0.006443
v -0.042392 0.398630 0.075923
v -0.046251 1.517180 0.063669
v -0.090601 1.517180 -0.013149
v 0.038725 0.398630 0.075923
v 0.042451 1.517180 0.063669
v 0.079283 0.382815 0.006443
v 0.086802 1.517180 -0.013149
v 0.038725 0.367001 -0.063036
v 0.042451 1.517180 -0.089968
v -0.042392 0.367001 -0.063036
v -0.046251 1.517180 -0.089968
v -0.046251 0.045437 0.063669
v -0.090601 0.045437 -0.013149
v -0.046251 0.045437 -0.089968
v 0.042451 0.045437 -0.089968
v 0.086802 0.045437 -0.013149
v 0.042451 0.045437 0.063669
v -0.020292 1.147173 -0.111617
v -0.068079 1.118410 -0.038374
v 0.067079 1.164441 0.012842
v 0.066290 1.123473 -0.082984
v -0.013239 1.118410 0.037106
vt 0.619000 0.364500
vt 0.619000 0.364500
vt 0.619000 0.364500
vt 0.619000 0.364500
vt 0.619000 0.364500
vt 0.619000 0.364500
vt 0.619000 0.364500
vt 0.619000 0.364500
vt 0.619000 0.364500
vt 0.619000 0.364500
vt 0.619000 0.364500
vt 0.619000 0.364500
vt 0.619000 0.364500
vt 0.619000 0.364500
vt 0.619000 0.364500
vt 0.619000 0.364500
vt 0.619000 0.364500
vt 0.619000 0.364500
vt 0.619000 0.364500
vt 0.619000 0.364500
vt 0.619000 0.364500
vt 0.619000 0.364500
vt 0.619000 0.364500
vt 0.619000 0.364500
vt 0.619000 0.364500
vt 0.619000 0.364500
vt 0.619000 0.364500
vt 0.619000 0.364500
vt 0.619000 0.364500
vt 0.619000 0.364500
vt 0.619000 0.364500
vt 0.619000 0.364500
vt 0.619000 0.364500
vt 0.619000 0.364500
vt 0.619000 0.364500
vt 0.619000 0.364500
vt 0.619000 0.364500
vt 0.619000 0.364500
vt 0.619000 0.364500
vt 0.619000 0.364500
vt 0.619000 0.364500
vt 0.619000 0.364500
vt 0.619000 0.364500
vt 0.619000 0.364500
vt 0.619000 0.364500
vt 0.619000 0.364500
vt 0.619000 0.364500
vt 0.619000 0.364500
vt 0.619000 0.364500
vt 0.619000 0.364500
vt 0.619000 0.364500
vt 0.619000 0.364500
vt 0.619000 0.364500
vt 0.619000 0.364500
vt 0.619000 0.364500
vt 0.619000 0.364500
vt 0.619000 0.364500
vt 0.619000 0.364500
vt 0.619000 0.364500
vt 0.619000 0.364500
vt 0.619000 0.364500
vt 0.619000 0.364500
vt 0.619000 0.364500
vt 0.619000 0.364500
vt 0.619000 0.364500
vt 0.619000 0.364500
vt 0.619000 0.364500
vt 0.619000 0.364500
vt 0.619000 0.364500
vt 0.619000 0.364500
vt 0.619000 0.364500
vt 0.619000 0.364500
vt 0.619000 0.364500
vt 0.619000 0.364500
vt 0.619000 0.364500
vt 0.619000 0.364500
vt 0.345800 0.853600
vt 0.396400 0.853600
vt 0.396400 0.904200
vt 0.345800 0.904200
vt 0.345800 0.853600
vt 0.396400 0.853600
vt 0.396400 0.904200
vt 0.345800 0.904200
vt 0.345800 0.853600
vt 0.396400 0.853600
vt 0.396400 0.904200
vt 0.345800 0.904200
vt 0.345800 0.853600
vt 0.396400 0.853600
vt 0.396400 0.904200
vt 0.345800 0.904200
vt 0.345800 0.853600
vt 0.396400 0.853600
vt 0.396400 0.904200
vt 0.345800 0.904200
vt 0.345800 0.853600
vt 0.396400 0.853600
vt 0.396400 0.904200
vt 0.345800 0.904200
vt 0.371100 0.904200
vt 0.393000 0.891500
vt 0.393000 0.866300
vt 0.371100 0.853600
vt 0.349200 0.866300
vt 0.349200 0.891500
vt 0.345800 0.853600
vt 0.396400 0.853600
vt 0.396400 0.904200
vt 0.345800 0.904200
vt 0.345800 0.853600
vt 0.396400 0.853600
vt 0.396400 0.904200
vt 0.345800 0.904200
vt 0.345800 0.853600
vt 0.396400 0.853600
vt 0.396400 0.904200
vt 0.345800 0.904200
vt 0.345800 0.853600
vt 0.396400 0.853600
vt 0.396400 0.904200
vt 0.345800 0.904200
vt 0.345800 0.853600
vt 0.396400 0.853600
vt 0.396400 0.904200
vt 0.345800 0.904200
vt 0.345800 0.853600
vt 0.396400 0.853600
vt 0.396400 0.904200
vt 0.345800 0.904200
vt 0.619000 0.364500
vt 0.619000 0.364500
vt 0.619000 0.364500
vt 0.619000 0.364500
vt 0.619000 0.364500
vn 0.0000 -1.0000 -0.0000
vn 0.4095 -0.9098 -0.0681
vn -0.1602 -0.8836 0.4399
vn 0.1835 -0.9385 -0.2925
vn 0.4725 -0.8381 -0.2728
vn -0.4240 -0.8340 -0.3530
vn 0.8182 0.5658 -0.1021
vn 0.0138 -0.9395 0.3423
vn -0.4697 0.3428 0.8135
vn -0.2463 -0.7120 -0.6575
vn 0.0285 0.4217 -0.9063
vn 0.3906 0.2667 0.8811
vn -0.0493 0.1834 0.9818
vn -0.8230 0.2947 -0.4857
vn -0.5662 0.4430 -0.6951
vn -0.9528 0.2714 -0.1363
vn 0.1292 0.6682 -0.7327
vn 0.9430 0.2907 -0.1617
vn 0.7654 0.4620 -0.4479
vn 0.9438 0.2738 0.1851
vn 0.0606 0.3921 -0.9179
vn 0.2781 0.1941 -0.9407
vn 0.6363 0.4358 0.6365
vn 0.9322 0.3297 -0.1493
vn 0.0212 0.2794 0.9599
vn 0.0553 0.4458 0.8934
vn -0.8240 0.1839 0.5360
vn 0.9178 0.2430 0.3141
vn -0.9530 0.2341 0.1922
vn 0.2985 0.2356 0.9249
vn -0.7299 0.4607 0.5050
vn -0.8008 0.3519 -0.4845
vn -0.7182 0.5571 -0.4169
vn -0.6822 0.2993 0.6671
vn 0.0065 0.2076 -0.9782
vn -0.9473 0.2685 -0.1744
vn 0.9358 0.2808 -0.2133
vn -0.8265 0.2209 0.5178
vn 0.6065 0.3060 -0.7338
vn 0.9296 0.3435 0.1339
vn 0.7327 0.4098 0.5433
vn 0.9212 0.3681 -0.1261
vn 0.3081 -0.8716 0.3813
vn 0.1228 0.4097 0.9039
vn 0.4497 -0.8762 -0.1736
vn -0.7312 0.2306 0.6420
vn -0.7741 0.2907 0.5624
vn -0.0723 0.2869 0.9552
vn -0.8093 0.3852 -0.4435
vn -0.7545 0.3609 -0.5482
vn 0.2070 0.3005 -0.9310
vn 0.1924 -0.9496 -0.2474
vn 0.3523 0.3742 -0.8578
vn -0.2421 -0.9678 -0.0690
vn -0.2423 -0.9678 -0.0687
vn -0.2423 -0.9678 -0.0685
vn -0.5974 0.3277 -0.7319
vn 0.5956 -0.8031 -0.0139
vn -0.3968 -0.8624 0.3143
vn 0.2377 -0.7487 -0.6188
vn 0.1621 -0.8331 0.5288
vn -0.5549 -0.8031 -0.2168
vn 0.1285 -0.6604 -0.7398
vn -0.0205 -0.9930 0.1162
vn -0.1020 -0.8624 -0.4958
vn 0.3395 -0.7342 -0.5880
vn -0.8649 0.0020 0.5019
vn -0.8645 -0.0081 0.5026
vn -0.8650 0.0027 0.5018
vn 0.0000 0.0110 0.9999
vn 0.8645 -0.0084 0.5026
vn 0.8650 0.0020 0.5018
vn 0.8650 0.0028 0.5017
vn 0.8655 -0.0145 -0.5007
vn 0.0000 -0.0234 -0.9997
vn -0.8655 -0.0146 -0.5007
vn -0.8614 0.0507 -0.5054
vn 0.0000 0.0835 -0.9965
vn 0.8614 0.0504 -0.5054
vn 0.8644 -0.0091 0.5027
vn 0.0000 -0.0347 0.9994
vn -0.8644 -0.0088 0.5027
vn -0.9240 0.1384 0.3566
vn -0.9547 0.1259 -0.2698
vn 0.6093 0.1227 -0.7834
vn 0.9654 0.2608 0.0000
vn 0.1235 0.1520 -0.9806
vn 0.1767 0.1498 0.9728
vn 0.2915 0.3319 0.8972
vn 0.9267 0.1153 -0.3577
vn -0.7798 0.2664 0.5666
vn 0.6244 0.1113 0.7731
vn -0.6220 0.1424 -0.7700
vn -0.6086 0.1312 0.7825
vn 0.2941 0.3069 -0.9052
vn 0.9544 0.1280 0.2697
vn 0.2092 -0.9489 -0.2361
vn 0.1348 -0.9115 0.3886
vn 0.2108 -0.9655 -0.1532
vn -0.2383 -0.9678 -0.0804
vn 0.4823 -0.8738 -0.0611
usemtl _trees_normal
s 1
f 1/1/1 2/2/1 3/3/1 4/4/1
f 5/5/2 6/6/2 7/7/2 1/1/2
f 8/8/3 9/9/3 10/10/3 11/11/3
f 12/12/4 13/13/4 14/14/4 5/5/4
f 11/11/5 15/15/5 16/16/5 17/17/5
f 17/17/1 18/18/1 19/19/1 20/20/1
f 20/20/6 21/21/6 22/22/6 23/23/6
f 24/24/7 25/25/7 26/26/7 27/27/7
f 23/23/8 24/24/8 27/27/8 12/12/8
f 2/2/9 28/28/9 29/29/9 3/3/9
f 4/4/10 30/30/10 31/31/10 8/8/10
f 17/17/11 16/16/11 32/32/11
f 12/12/12 27/27/12 26/26/12
f 29/29/13 30/30/13 4/4/13
f 32/32/14 18/18/14 17/17/14
f 15/15/15 33/33/15 32/32/15 16/16/15
f 33/33/16 15/15/16 11/11/16
f 18/18/17 32/32/17 34/34/17 19/19/17
f 20/20/18 19/19/18 34/34/18
f 21/21/19 34/34/19 25/25/19 22/22/19
f 23/23/20 22/22/20 25/25/20
f 34/34/21 21/21/21 20/20/21
f 25/25/22 24/24/22 23/23/22
f 13/13/23 26/26/23 35/35/23 14/14/23
f 26/26/24 13/13/24 12/12/24
f 5/5/25 14/14/25 35/35/25
f 6/6/26 35/35/26 28/28/26 7/7/26
f 1/1/27 7/7/27 28/28/27
f 35/35/28 6/6/28 5/5/28
f 4/4/29 3/3/29 29/29/29
f 28/28/30 2/2/30 1/1/30
f 30/30/31 29/29/31 36/36/31 31/31/31
f 8/8/32 31/31/32 36/36/32
f 9/9/33 36/36/33 33/33/33 10/10/33
f 36/36/34 9/9/34 8/8/34
f 11/11/35 10/10/35 33/33/35
f 37/37/36 38/38/36 39/39/36 40/40/36
f 41/41/37 42/42/37 43/43/37 44/44/37
f 38/38/38 37/37/38 45/45/38 46/46/38
f 42/42/39 41/41/39 47/47/39 48/48/39
f 49/49/40 50/50/40 51/51/40 52/52/40
f 50/50/41 49/49/41 53/53/41 54/54/41
f 38/38/1 55/55/1 56/56/1 39/39/1
f 47/47/42 54/54/42 53/53/42 48/48/42
f 49/49/43 42/42/43 48/48/43 53/53/43
f 51/51/44 57/57/44 58/58/44 52/52/44
f 55/55/45 49/49/45 52/52/45 58/58/45
f 59/59/46 55/55/46 58/58/46 57/57/46
f 60/60/47 40/40/47 39/39/47 56/56/47
f 55/55/48 59/59/48 60/60/48 56/56/48
f 45/45/49 61/61/49 62/62/49 46/46/49
f 61/61/50 45/45/50 63/63/50
f 64/64/51 65/65/51 62/62/51 61/61/51
f 65/65/52 38/38/52 46/46/52 62/62/52
f 66/66/53 44/44/53 43/43/53 67/67/53
f 42/42/54 65/65/55 67/67/56 43/43/56
f 65/65/57 64/64/57 66/66/57 67/67/57
f 11/11/58 17/17/58 68/68/58 69/69/58
f 23/23/59 12/12/59 70/70/59 71/71/59
f 5/5/60 1/1/60 72/72/60 73/73/60
f 8/8/61 11/11/61 69/69/61 74/74/61
f 20/20/62 23/23/62 71/71/62 75/75/62
f 4/4/63 8/8/63 74/74/63 76/76/63
f 17/17/64 20/20/64 75/75/64 68/68/64
f 12/12/65 5/5/65 73/73/65 70/70/65
f 1/1/66 4/4/66 76/76/66 72/72/66
f 77/77/67 78/78/68 79/79/69 80/80/69
f 78/81/70 81/82/70 82/83/70 79/84/70
f 81/85/71 83/86/72 84/87/73 82/88/73
f 83/89/74 85/90/74 86/91/74 84/92/74
f 85/93/75 87/94/75 88/95/75 86/96/75
f 87/97/76 77/98/76 80/99/76 88/100/76
f 89/101/1 90/102/1 91/103/1 92/104/1 93/105/1 94/106/1
f 91/107/77 90/108/77 77/109/77 87/110/77
f 92/111/78 91/112/78 87/113/78 85/114/78
f 93/115/79 92/116/79 85/117/79 83/118/79
f 94/119/80 93/120/80 83/121/72 81/122/71
f 89/123/81 94/124/81 81/125/81 78/126/81
f 90/127/82 89/128/82 78/129/68 77/130/67
f 63/63/83 59/59/83 57/57/83
f 64/64/84 63/63/84 66/66/84
f 63/63/85 64/64/85 61/61/85
f 54/54/86 47/47/86 63/63/86
f 41/41/87 63/63/87 47/47/87
f 63/63/88 50/50/88 54/54/88
f 57/57/89 51/51/89 63/63/89
f 50/50/90 63/63/90 51/51/90
f 40/40/91 60/60/91 63/63/91
f 59/59/92 63/63/92 60/60/92
f 63/63/93 37/37/93 40/40/93
f 37/37/94 63/63/94 45/45/94
f 44/44/95 66/66/95 63/63/95
f 63/63/96 41/41/96 44/44/96
f 38/38/97 65/65/97 95/131/97 96/132/97
f 42/42/98 49/49/98 97/133/98 98/134/98
f 55/55/99 38/38/99 96/132/99 99/135/99
f 65/65/55 42/42/54 98/134/100 95/131/100
f 49/49/101 55/55/101 99/135/101 97/133/101
