# 3ds Max Wavefront OBJ Exporter v0.97b - (c)2007 guruware
# File Created: 14.11.2017 20:30:14

mtllib grass2.mtl

#
# object Grass
#

v  -0.0178 -0.0219 -0.0034
v  0.0072 -0.0245 0.0126
v  -0.0728 0.0704 0.0649
v  -0.1458 0.0423 0.1693
v  -0.1509 -0.0569 0.2714
v  -0.0405 0.0248 0.2357
v  0.0326 0.0507 0.1204
v  -0.0283 -0.0318 -0.0020
v  -0.0144 -0.0323 0.0244
v  -0.0934 0.0972 0.0202
v  -0.2144 0.1142 0.0765
v  -0.2839 0.0343 0.1477
v  -0.1866 0.1102 0.1376
v  -0.0833 0.1223 0.0924
v  0.0020 -0.0219 -0.0181
v  -0.0119 -0.0245 0.0082
v  -0.0707 0.0704 -0.0673
v  -0.1448 0.0736 -0.0855
v  -0.2435 0.0012 -0.0954
v  -0.1790 0.0596 -0.0173
v  -0.0934 0.0507 0.0198
v  -0.0026 -0.0018 -0.0145
v  -0.0017 0.0027 0.0150
v  -0.0406 0.1428 -0.0484
v  -0.1201 0.2395 -0.0597
v  -0.2147 0.2806 -0.0191
v  -0.1235 0.2382 -0.0034
v  -0.0442 0.1627 0.0169
v  -0.0042 -0.0105 -0.0262
v  -0.0268 -0.0069 -0.0069
v  -0.0345 0.1085 -0.1033
v  -0.1188 0.1410 -0.2086
v  -0.2143 0.0253 -0.2563
v  -0.1614 0.1366 -0.1719
v  -0.0912 0.1224 -0.0677
v  0.0274 -0.0219 0.0002
v  -0.0017 -0.0245 -0.0058
v  0.0773 0.0704 -0.0787
v  0.0945 0.0811 -0.1648
v  0.0769 0.0089 -0.2759
v  0.0142 0.0636 -0.2014
v  -0.0130 0.0507 -0.0982
v  0.0146 -0.0018 0.0015
v  -0.0140 0.0027 -0.0057
v  0.0576 0.1428 -0.0259
v  0.0901 0.2395 -0.0993
v  0.0768 0.2288 -0.2014
v  0.0369 0.2382 -0.1179
v  -0.0042 0.1627 -0.0472
v  0.0137 -0.0012 0.0250
v  0.0282 -0.0042 -0.0010
v  0.0536 0.1367 0.0455
v  0.1640 0.1970 0.1008
v  0.2820 0.1091 0.1444
v  0.1912 0.1913 0.0518
v  0.0935 0.1380 -0.0100
v  -0.0123 -0.0027 0.0255
v  0.0173 -0.0032 0.0224
v  -0.0159 0.0972 0.0942
v  -0.0084 0.1381 0.2275
v  0.0318 0.0634 0.3185
v  0.0586 0.1341 0.2243
v  0.0549 0.1223 0.1116
v  -0.0064 -0.0222 0.0167
v  0.0178 -0.0222 -0.0008
v  0.0402 0.0783 0.0728
v  0.1101 0.0689 0.1842
v  0.2035 -0.0128 0.2410
v  0.1850 0.0622 0.1304
v  0.1030 0.0727 0.0277
v  0.0098 -0.0222 0.0149
v  0.0098 -0.0222 -0.0149
v  0.1459 0.0263 0.0259
v  0.2821 0.0176 0.0282
v  0.4182 -0.0301 0.0000
v  0.2821 0.0176 -0.0282
v  0.1459 0.0263 -0.0259
v  0.0285 -0.0012 -0.0002
v  0.0125 -0.0042 -0.0253
v  0.0763 0.0764 -0.0257
v  0.1593 0.1370 -0.0978
v  0.2413 0.1009 -0.1799
v  0.1291 0.1532 -0.1426
v  0.0580 0.1001 -0.0871
v  0.0075 -0.0231 -0.0150
v  -0.0189 -0.0213 -0.0012
v  -0.0432 0.0247 -0.1421
v  -0.0837 0.0159 -0.2240
v  -0.1543 -0.0300 -0.2930
v  -0.1336 0.0193 -0.1980
v  -0.0890 0.0277 -0.1182
# 91 vertices

vn 0.2423 0.9632 -0.1164
vn 0.2257 0.9678 -0.1114
vn 0.4374 0.6879 -0.5792
vn 0.4393 0.6884 -0.5771
vn -0.1155 0.8906 0.4399
vn -0.1209 0.8957 0.4280
vn 0.2257 0.9678 -0.1114
vn 0.2423 0.9632 -0.1164
vn -0.2995 0.6915 0.6574
vn -0.1209 0.8957 0.4280
vn -0.1155 0.8906 0.4399
vn 0.5556 0.7546 -0.3492
vn 0.2969 0.9173 -0.2654
vn 0.7960 0.4735 -0.3770
vn 0.7857 0.4663 -0.4065
vn -0.2964 0.9487 0.1104
vn -0.3138 0.9273 0.2041
vn 0.2969 0.9173 -0.2654
vn 0.5556 0.7546 -0.3492
vn -0.5649 0.7657 0.3075
vn -0.3138 0.9273 0.2041
vn -0.2964 0.9487 0.1104
vn 0.2958 0.9100 0.2905
vn 0.3629 0.8853 0.2909
vn 0.6324 0.6825 0.3665
vn 0.6112 0.6884 0.3904
vn -0.2433 0.9664 0.0834
vn -0.2775 0.9590 0.0568
vn 0.3629 0.8853 0.2909
vn 0.2958 0.9100 0.2905
vn -0.5787 0.8058 -0.1257
vn -0.2775 0.9590 0.0568
vn -0.2433 0.9664 0.0834
vn 0.8981 0.4317 -0.0845
vn 0.8679 0.4926 -0.0644
vn 0.9683 0.2435 -0.0565
vn 0.9687 0.2389 -0.0669
vn 0.5969 0.8022 0.0128
vn 0.5660 0.8227 0.0537
vn 0.8679 0.4926 -0.0644
vn 0.8981 0.4317 -0.0845
vn 0.4144 0.9089 0.0467
vn 0.5660 0.8227 0.0537
vn 0.5969 0.8022 0.0128
vn 0.4511 0.7994 0.3969
vn 0.3820 0.8556 0.3492
vn 0.5792 0.5448 0.6064
vn 0.5945 0.5382 0.5974
vn -0.2118 0.9557 -0.2045
vn -0.2774 0.9377 -0.2094
vn 0.3820 0.8556 0.3492
vn 0.4511 0.7994 0.3969
vn -0.5292 0.6580 -0.5357
vn -0.2774 0.9377 -0.2094
vn -0.2118 0.9557 -0.2045
vn -0.2623 0.9070 0.3295
vn -0.2762 0.8920 0.3580
vn -0.2407 0.7089 0.6629
vn -0.2043 0.6972 0.6871
vn -0.1336 0.9775 -0.1631
vn -0.0895 0.9604 -0.2637
vn -0.2762 0.8920 0.3580
vn -0.2623 0.9070 0.3295
vn 0.0696 0.8312 -0.5516
vn -0.0895 0.9604 -0.2637
vn -0.1336 0.9775 -0.1631
vn -0.1629 0.4317 0.8872
vn -0.1742 0.4926 0.8526
vn -0.2090 0.2435 0.9471
vn -0.1992 0.2389 0.9504
vn -0.1111 0.9123 0.3942
vn -0.1377 0.9351 0.3267
vn -0.1742 0.4926 0.8526
vn -0.1629 0.4317 0.8872
vn 0.0115 0.9943 -0.1059
vn -0.1377 0.9351 0.3267
vn -0.1111 0.9123 0.3942
vn -0.6357 0.6365 -0.4367
vn -0.5813 0.7008 -0.4135
vn -0.8046 0.3120 -0.5053
vn -0.8152 0.3089 -0.4900
vn 0.0865 0.9947 -0.0552
vn 0.0812 0.9942 -0.0704
vn -0.5813 0.7008 -0.4135
vn -0.6357 0.6365 -0.4367
vn 0.5357 0.8196 0.2030
vn 0.0812 0.9942 -0.0704
vn 0.0865 0.9947 -0.0552
vn -0.1156 0.7555 -0.6448
vn -0.1270 0.8853 -0.4474
vn -0.0574 0.5682 -0.8209
vn -0.0784 0.5627 -0.8229
vn 0.0004 0.9810 0.1938
vn 0.0697 0.9680 0.2409
vn -0.1270 0.8853 -0.4474
vn -0.1156 0.7555 -0.6448
vn 0.0761 0.7868 0.6125
vn 0.0697 0.9680 0.2409
vn 0.0004 0.9810 0.1938
vn -0.1857 0.9122 -0.3654
vn -0.1443 0.9372 -0.3174
vn -0.4624 0.5883 -0.6634
vn -0.4749 0.5861 -0.6565
vn 0.2472 0.9420 0.2271
vn 0.2490 0.9408 0.2299
vn -0.1443 0.9372 -0.3174
vn -0.1857 0.9122 -0.3654
vn 0.4048 0.7870 0.4656
vn 0.2490 0.9408 0.2299
vn 0.2472 0.9420 0.2271
vn -0.1328 0.9911 0.0000
vn -0.1328 0.9911 0.0000
vn -0.3354 0.9421 0.0000
vn -0.3354 0.9421 0.0000
vn 0.1907 0.9816 0.0000
vn 0.1907 0.9816 0.0000
vn -0.1328 0.9911 0.0000
vn -0.1328 0.9911 0.0000
vn 0.3308 0.9437 -0.0000
vn 0.1907 0.9816 0.0000
vn 0.1907 0.9816 0.0000
vn -0.5777 0.6910 0.4345
vn -0.4151 0.7939 0.4444
vn -0.7166 0.5688 0.4035
vn -0.7207 0.5720 0.3918
vn 0.0554 0.9546 0.2927
vn 0.0738 0.9526 0.2950
vn -0.4151 0.7939 0.4444
vn -0.5777 0.6910 0.4345
vn 0.4320 0.9012 0.0346
vn 0.0738 0.9526 0.2950
vn 0.0554 0.9546 0.2927
vn 0.1059 0.9915 0.0761
vn 0.1060 0.9914 0.0763
vn 0.2044 0.9404 0.2717
vn 0.2044 0.9404 0.2717
vn -0.0712 0.9629 -0.2601
vn -0.0710 0.9631 -0.2598
vn 0.1060 0.9914 0.0763
vn 0.1059 0.9915 0.0761
vn -0.1628 0.8897 -0.4264
vn -0.0710 0.9631 -0.2598
vn -0.0712 0.9629 -0.2601
# 143 vertex normals

vt 0.0035 0.0722 0.0000
vt 0.0020 0.0335 0.0000
vt 0.1646 0.0042 0.0000
vt 0.1531 0.1603 0.0000
vt 0.3337 0.0020 0.0000
vt 0.3333 0.1651 0.0000
vt 0.4989 0.0847 0.0000
vt 0.5325 0.3673 0.0000
vt 0.5284 0.4058 0.0000
vt 0.3377 0.4020 0.0000
vt 0.3021 0.3090 0.0000
vt 0.1636 0.4127 0.0000
vt 0.1563 0.3263 0.0000
vt 0.0020 0.3733 0.0000
vt 0.4065 0.7808 0.0000
vt 0.4107 0.8193 0.0000
vt 0.2505 0.8597 0.0000
vt 0.2674 0.7414 0.0000
vt 0.1525 0.8452 0.0000
vt 0.1459 0.7448 0.0000
vt 0.0020 0.7928 0.0000
vt 0.5106 0.2237 0.0000
vt 0.5123 0.1850 0.0000
vt 0.7113 0.1771 0.0000
vt 0.7217 0.2650 0.0000
vt 0.8743 0.1854 0.0000
vt 0.8658 0.2579 0.0000
vt 0.9980 0.2589 0.0000
vt 0.5590 0.4708 0.0000
vt 0.5572 0.5095 0.0000
vt 0.3688 0.5167 0.0000
vt 0.3597 0.4287 0.0000
vt 0.1889 0.5080 0.0000
vt 0.1958 0.4355 0.0000
vt 0.0020 0.4247 0.0000
vt 0.9418 0.0272 0.0000
vt 0.9431 0.0658 0.0000
vt 0.7833 0.1245 0.0000
vt 0.7886 0.0020 0.0000
vt 0.6685 0.1206 0.0000
vt 0.6493 0.0055 0.0000
vt 0.5110 0.0484 0.0000
vt 0.9924 0.6641 0.0000
vt 0.9917 0.7028 0.0000
vt 0.7930 0.7161 0.0000
vt 0.7802 0.6285 0.0000
vt 0.6300 0.7124 0.0000
vt 0.6363 0.6397 0.0000
vt 0.5154 0.6423 0.0000
vt 0.5633 0.5628 0.0000
vt 0.5630 0.6015 0.0000
vt 0.3754 0.6165 0.0000
vt 0.3628 0.5287 0.0000
vt 0.1972 0.6152 0.0000
vt 0.1981 0.5421 0.0000
vt 0.0020 0.5761 0.0000
vt 0.0020 0.6670 0.0000
vt 0.0068 0.6285 0.0000
vt 0.1646 0.6322 0.0000
vt 0.1999 0.7254 0.0000
vt 0.3455 0.6310 0.0000
vt 0.3466 0.7178 0.0000
vt 0.4994 0.6812 0.0000
vt 0.0038 0.2247 0.0000
vt 0.0020 0.1861 0.0000
vt 0.1630 0.1849 0.0000
vt 0.1619 0.2854 0.0000
vt 0.3339 0.1771 0.0000
vt 0.3325 0.2970 0.0000
vt 0.4986 0.2418 0.0000
vt 0.9782 0.7586 0.0000
vt 0.9782 0.7973 0.0000
vt 0.7907 0.8115 0.0000
vt 0.7907 0.7444 0.0000
vt 0.6138 0.8145 0.0000
vt 0.6138 0.7414 0.0000
vt 0.4267 0.7780 0.0000
vt 0.5445 0.3544 0.0000
vt 0.5474 0.3158 0.0000
vt 0.6700 0.3092 0.0000
vt 0.7090 0.3888 0.0000
vt 0.8325 0.3215 0.0000
vt 0.8447 0.3936 0.0000
vt 0.9896 0.3090 0.0000
vt 0.4267 0.8773 0.0000
vt 0.4274 0.8386 0.0000
vt 0.6150 0.8277 0.0000
vt 0.6139 0.8947 0.0000
vt 0.7342 0.8265 0.0000
vt 0.7329 0.8996 0.0000
vt 0.8700 0.8652 0.0000
# 91 texture coords

g Grass
usemtl mat_grass
s 1
f 3/3/1 7/4/2 2/1/3 1/2/4 
f 4/5/5 6/6/6 7/4/7 3/3/8 
f 5/7/9 6/6/10 4/5/11 
f 10/10/12 14/11/13 9/8/14 8/9/15 
f 11/12/16 13/13/17 14/11/18 10/10/19 
f 12/14/20 13/13/21 11/12/22 
f 17/17/23 21/18/24 16/15/25 15/16/26 
f 18/19/27 20/20/28 21/18/29 17/17/30 
f 19/21/31 20/20/32 18/19/33 
f 24/24/34 28/25/35 23/22/36 22/23/37 
f 25/26/38 27/27/39 28/25/40 24/24/41 
f 26/28/42 27/27/43 25/26/44 
f 31/31/45 35/32/46 30/29/47 29/30/48 
f 32/33/49 34/34/50 35/32/51 31/31/52 
f 33/35/53 34/34/54 32/33/55 
f 38/38/56 42/39/57 37/36/58 36/37/59 
f 39/40/60 41/41/61 42/39/62 38/38/63 
f 40/42/64 41/41/65 39/40/66 
f 45/45/67 49/46/68 44/43/69 43/44/70 
f 46/47/71 48/48/72 49/46/73 45/45/74 
f 47/49/75 48/48/76 46/47/77 
f 52/52/78 56/53/79 51/50/80 50/51/81 
f 53/54/82 55/55/83 56/53/84 52/52/85 
f 54/56/86 55/55/87 53/54/88 
f 59/59/89 63/60/90 58/57/91 57/58/92 
f 60/61/93 62/62/94 63/60/95 59/59/96 
f 61/63/97 62/62/98 60/61/99 
f 66/66/100 70/67/101 65/64/102 64/65/103 
f 67/68/104 69/69/105 70/67/106 66/66/107 
f 68/70/108 69/69/109 67/68/110 
f 73/73/111 77/74/112 72/71/113 71/72/114 
f 74/75/115 76/76/116 77/74/117 73/73/118 
f 75/77/119 76/76/120 74/75/121 
f 80/80/122 84/81/123 79/78/124 78/79/125 
f 81/82/126 83/83/127 84/81/128 80/80/129 
f 82/84/130 83/83/131 81/82/132 
f 87/87/133 91/88/134 86/85/135 85/86/136 
f 88/89/137 90/90/138 91/88/139 87/87/140 
f 89/91/141 90/90/142 88/89/143 
# 26 polygons - 13 triangles

