# Blender v2.82 (sub 7) OBJ File: ''
# www.blender.org
mtllib 3.mtl
v -0.055530 0.031916 -0.062089
v -0.090915 0.031916 -0.082518
v -0.090915 0.473959 -0.082518
v -0.055530 0.473959 -0.062089
v -0.055530 0.031916 -0.021229
v -0.055530 0.473959 -0.021229
v -0.090915 0.031916 -0.000800
v -0.090915 0.473959 -0.000800
v -0.126300 0.031916 -0.021229
v -0.126300 0.473959 -0.021229
v -0.126300 0.031916 -0.062089
v -0.126300 0.473959 -0.062089
v -0.090915 0.348543 -0.360954
v 0.185603 0.348543 -0.201307
v 0.185603 0.348543 0.117989
v -0.090915 0.348543 0.277636
v -0.367433 0.348543 0.117989
v -0.367433 0.348543 -0.201307
v -0.123009 0.898444 -0.228401
v 0.038316 0.887097 -0.135030
v 0.038316 0.887097 0.051712
v -0.123009 0.898444 0.145083
v -0.284334 0.909791 0.051712
v -0.284334 0.909791 -0.135030
v -0.136336 0.708972 -0.377368
v 0.153681 0.688572 -0.209513
v 0.153681 0.688572 0.126195
v -0.136336 0.708971 0.294050
v -0.426352 0.729370 0.126195
v -0.426352 0.729370 -0.209513
v -0.111533 1.372984 -0.041659
vt 0.346300 0.860000
vt 0.380300 0.860000
vt 0.380300 0.893900
vt 0.346300 0.893900
vt 0.346300 0.860000
vt 0.380300 0.860000
vt 0.380300 0.893900
vt 0.346300 0.893900
vt 0.346300 0.860000
vt 0.380300 0.860000
vt 0.380300 0.893900
vt 0.346300 0.893900
vt 0.346300 0.860000
vt 0.380300 0.860000
vt 0.380300 0.893900
vt 0.346300 0.893900
vt 0.346300 0.860000
vt 0.380300 0.860000
vt 0.380300 0.893900
vt 0.346300 0.893900
vt 0.346300 0.860000
vt 0.380300 0.860000
vt 0.380300 0.893900
vt 0.346300 0.893900
vt 0.604100 0.348200
vt 0.638100 0.348200
vt 0.638100 0.382200
vt 0.604100 0.382200
vt 0.604100 0.348200
vt 0.638100 0.348200
vt 0.638100 0.382200
vt 0.604100 0.382200
vt 0.604100 0.348200
vt 0.638100 0.348200
vt 0.638100 0.382200
vt 0.604100 0.382200
vt 0.604100 0.348200
vt 0.638100 0.348200
vt 0.638100 0.382200
vt 0.604100 0.382200
vt 0.604100 0.348200
vt 0.638100 0.348200
vt 0.638100 0.382200
vt 0.604100 0.382200
vt 0.604100 0.348200
vt 0.638100 0.348200
vt 0.638100 0.382200
vt 0.604100 0.382200
vt 0.604100 0.348200
vt 0.638100 0.348200
vt 0.638100 0.382200
vt 0.604100 0.382200
vt 0.604100 0.348200
vt 0.638100 0.348200
vt 0.638100 0.382200
vt 0.604100 0.382200
vt 0.604100 0.348200
vt 0.638100 0.348200
vt 0.638100 0.382200
vt 0.604100 0.382200
vt 0.604100 0.348200
vt 0.638100 0.348200
vt 0.638100 0.382200
vt 0.604100 0.382200
vt 0.604100 0.348200
vt 0.638100 0.348200
vt 0.638100 0.382200
vt 0.604100 0.382200
vt 0.604100 0.348200
vt 0.638100 0.348200
vt 0.638100 0.382200
vt 0.604100 0.382200
vt 0.604100 0.348200
vt 0.638100 0.348200
vt 0.638100 0.382200
vt 0.604100 0.382200
vt 0.604100 0.348200
vt 0.638100 0.348200
vt 0.638100 0.382200
vt 0.604100 0.382200
vt 0.604100 0.348200
vt 0.638100 0.348200
vt 0.638100 0.382200
vt 0.604100 0.382200
vt 0.604100 0.348200
vt 0.638100 0.348200
vt 0.638100 0.382200
vt 0.604100 0.382200
vt 0.604100 0.348200
vt 0.638100 0.348200
vt 0.638100 0.382200
vt 0.604100 0.382200
vt 0.604100 0.348200
vt 0.638100 0.348200
vt 0.638100 0.382200
vt 0.604100 0.382200
vt 0.363300 0.893900
vt 0.378000 0.885400
vt 0.378000 0.868500
vt 0.363300 0.860000
vt 0.348600 0.868500
vt 0.348600 0.885400
vt 0.604100 0.348200
vt 0.638100 0.348200
vt 0.638100 0.382200
vt 0.604100 0.348200
vt 0.638100 0.348200
vt 0.604100 0.348200
vt 0.638100 0.348200
vt 0.604100 0.348200
vt 0.638100 0.348200
vt 0.604100 0.348200
vt 0.638100 0.348200
vt 0.604100 0.348200
vt 0.638100 0.348200
vn 0.5000 0.0000 -0.8660
vn 1.0000 0.0000 0.0000
vn 0.5000 -0.0000 0.8660
vn -0.5000 -0.0000 0.8660
vn -1.0000 -0.0000 0.0000
vn -0.5000 0.0000 -0.8660
vn -0.2307 -0.8872 0.3996
vn -0.4614 -0.8872 -0.0000
vn -0.2307 -0.8872 -0.3996
vn 0.2307 -0.8872 -0.3996
vn 0.4614 -0.8872 -0.0000
vn 0.2307 -0.8872 0.3996
vn 0.4910 0.2342 -0.8391
vn 0.9646 0.2638 0.0000
vn 0.4910 0.2342 0.8391
vn -0.4892 0.1753 0.8544
vn -0.9892 0.1465 0.0000
vn -0.4892 0.1753 -0.8544
vn -0.4520 -0.5315 0.7164
vn -0.8646 -0.5024 0.0000
vn -0.4520 -0.5315 -0.7164
vn 0.3732 -0.5895 -0.7164
vn 0.7858 -0.6185 -0.0000
vn 0.3732 -0.5895 0.7164
vn 0.0000 -1.0000 -0.0000
vn 0.4831 0.3806 -0.7885
vn 0.9324 0.3613 0.0000
vn 0.4831 0.3806 0.7885
vn -0.4324 0.4196 0.7981
vn -0.8983 0.4394 0.0000
vn -0.4324 0.4196 -0.7981
usemtl _trees_normal
s 1
f 1/1/1 2/2/1 3/3/1 4/4/1
f 5/5/2 1/6/2 4/7/2 6/8/2
f 7/9/3 5/10/3 6/11/3 8/12/3
f 9/13/4 7/14/4 8/15/4 10/16/4
f 11/17/5 9/18/5 10/19/5 12/20/5
f 2/21/6 11/22/6 12/23/6 3/24/6
f 4/25/7 3/26/7 13/27/7 14/28/7
f 6/29/8 4/30/8 14/31/8 15/32/8
f 8/33/9 6/34/9 15/35/9 16/36/9
f 10/37/10 8/38/10 16/39/10 17/40/10
f 12/41/11 10/42/11 17/43/11 18/44/11
f 3/45/12 12/46/12 18/47/12 13/48/12
f 14/49/13 13/50/13 19/51/13 20/52/13
f 15/53/14 14/54/14 20/55/14 21/56/14
f 16/57/15 15/58/15 21/59/15 22/60/15
f 17/61/16 16/62/16 22/63/16 23/64/16
f 18/65/17 17/66/17 23/67/17 24/68/17
f 13/69/18 18/70/18 24/71/18 19/72/18
f 20/73/19 19/74/19 25/75/19 26/76/19
f 21/77/20 20/78/20 26/79/20 27/80/20
f 22/81/21 21/82/21 27/83/21 28/84/21
f 23/85/22 22/86/22 28/87/22 29/88/22
f 24/89/23 23/90/23 29/91/23 30/92/23
f 19/93/24 24/94/24 30/95/24 25/96/24
f 11/97/25 2/98/25 1/99/25 5/100/25 7/101/25 9/102/25
f 26/103/26 25/104/26 31/105/26
f 27/106/27 26/107/27 31/105/27
f 28/108/28 27/109/28 31/105/28
f 29/110/29 28/111/29 31/105/29
f 30/112/30 29/113/30 31/105/30
f 25/114/31 30/115/31 31/105/31
