# Blender v2.82 (sub 7) OBJ File: ''
# www.blender.org
mtllib wooden_fence.mtl
o FENCE_Cube.001
v 0.086767 0.694491 0.421744
v 0.089065 0.003875 0.412441
v 0.127471 0.692243 0.414721
v 0.025011 0.007876 0.283579
v 0.063417 0.696244 0.285859
v 0.104121 0.693996 0.278835
v 0.048361 0.006123 0.419465
v 0.065715 0.005628 0.276555
v 0.121785 0.800459 0.347133
v 0.081081 0.802707 0.354157
v 0.042987 0.697778 0.166958
v 0.045284 0.007162 0.157655
v 0.083691 0.695530 0.159935
v -0.018769 0.011162 0.028793
v 0.019637 0.699530 0.031073
v 0.060341 0.697282 0.024049
v 0.021935 0.008914 0.021769
v 0.004580 0.009409 0.164678
v 0.078005 0.803745 0.092347
v 0.037301 0.805993 0.099371
v -0.000794 0.701064 -0.087828
v 0.001504 0.010448 -0.097131
v 0.039910 0.698816 -0.094851
v -0.062549 0.014448 -0.225994
v -0.024143 0.702817 -0.223714
v 0.016561 0.700569 -0.230737
v -0.039200 0.012696 -0.090107
v -0.021845 0.012201 -0.233017
v 0.034224 0.807032 -0.162439
v -0.006480 0.809280 -0.155415
v -0.044574 0.704350 -0.342614
v -0.042276 0.013734 -0.351917
v -0.003870 0.702103 -0.349637
v -0.106329 0.017735 -0.480780
v -0.067923 0.706103 -0.478500
v -0.027219 0.703855 -0.485523
v -0.082980 0.015982 -0.344894
v -0.065625 0.015487 -0.487803
v -0.009556 0.810318 -0.417225
v -0.050260 0.812566 -0.410202
v 0.085126 0.037738 0.454337
v -0.055289 0.224856 -0.581772
v 0.112262 0.036239 0.449654
v -0.070988 0.361843 -0.554171
v -0.082424 0.226354 -0.577090
v 0.123698 0.171728 0.472573
v 0.096562 0.173226 0.477256
v -0.043852 0.360345 -0.558853
v 0.107818 0.386494 0.474237
v -0.045123 0.393603 -0.576862
v 0.134955 0.384996 0.469555
v 0.115392 0.524175 0.474067
v -0.072259 0.395102 -0.572180
v 0.142528 0.522676 0.469385
v -0.064685 0.532782 -0.572351
v -0.037549 0.531284 -0.577033
vt 0.973545 0.692162
vt 0.970432 0.745267
vt 0.970432 0.692162
vt 0.918555 0.745518
vt 0.908180 0.691214
vt 0.918555 0.691214
vt 0.924780 0.798225
vt 0.927893 0.745518
vt 0.927893 0.798225
vt 0.960057 0.745518
vt 0.949681 0.691214
vt 0.960057 0.691214
vt 0.937231 0.745518
vt 0.934118 0.756375
vt 0.934118 0.745518
vt 0.924780 0.807751
vt 0.973545 0.682746
vt 0.970432 0.682746
vt 0.918555 0.754933
vt 0.915442 0.808039
vt 0.915442 0.754933
vt 0.908180 0.745518
vt 0.897804 0.691214
vt 0.908180 0.691214
vt 0.912330 0.798225
vt 0.915442 0.745518
vt 0.915442 0.798225
vt 0.949681 0.691214
vt 0.949681 0.745518
vt 0.939306 0.745518
vt 0.927893 0.756375
vt 0.931006 0.745518
vt 0.931006 0.756375
vt 0.912330 0.807751
vt 0.918555 0.745518
vt 0.915442 0.745518
vt 0.973545 0.754683
vt 0.970432 0.807788
vt 0.970432 0.754683
vt 0.928930 0.682746
vt 0.939306 0.737050
vt 0.928930 0.737050
vt 0.909217 0.798225
vt 0.912330 0.745518
vt 0.912330 0.798225
vt 0.970432 0.745518
vt 0.960057 0.691214
vt 0.970432 0.691214
vt 0.927893 0.767232
vt 0.931006 0.756375
vt 0.931006 0.767232
vt 0.909217 0.807751
vt 0.973545 0.745267
vt 0.970432 0.745267
vt 0.921668 0.754933
vt 0.918555 0.808039
vt 0.918555 0.754933
vt 0.897804 0.745518
vt 0.908180 0.799822
vt 0.897804 0.799822
vt 0.921668 0.798225
vt 0.924780 0.745518
vt 0.924780 0.798225
vt 0.928930 0.745518
vt 0.918555 0.691214
vt 0.928930 0.691214
vt 0.931006 0.756375
vt 0.934118 0.745518
vt 0.934118 0.756375
vt 0.921668 0.807751
vt 0.921668 0.745518
vt 0.918555 0.745518
vt 0.979771 0.765572
vt 0.981846 0.682746
vt 0.981846 0.765572
vt 0.887429 0.682746
vt 0.897804 0.766382
vt 0.887429 0.766382
vt 0.979771 0.682746
vt 0.977695 0.766077
vt 0.977695 0.682746
vt 0.877053 0.766382
vt 0.887429 0.682746
vt 0.887429 0.766382
vt 0.936193 0.756375
vt 0.934118 0.767203
vt 0.934118 0.756375
vt 0.939306 0.745518
vt 0.937231 0.755617
vt 0.937231 0.745518
vt 0.973545 0.766340
vt 0.975620 0.682746
vt 0.975620 0.766340
vt 0.866678 0.682746
vt 0.856302 0.766382
vt 0.856302 0.682746
vt 0.975620 0.766077
vt 0.977695 0.682746
vt 0.977695 0.766077
vt 0.877053 0.682746
vt 0.866678 0.766382
vt 0.866678 0.682746
vt 0.938269 0.756375
vt 0.936193 0.766904
vt 0.936193 0.756375
vt 0.934118 0.756375
vt 0.932043 0.767006
vt 0.932043 0.756375
vt 0.973545 0.745267
vt 0.908180 0.745518
vt 0.913367 0.682746
vt 0.924780 0.745518
vt 0.949681 0.745518
vt 0.954869 0.682746
vt 0.937231 0.756375
vt 0.927893 0.807751
vt 0.918555 0.808039
vt 0.897804 0.745518
vt 0.902992 0.682746
vt 0.912330 0.745518
vt 0.939306 0.691214
vt 0.944494 0.682746
vt 0.927893 0.745518
vt 0.915442 0.807751
vt 0.973545 0.807788
vt 0.939306 0.682746
vt 0.934118 0.745518
vt 0.909217 0.745518
vt 0.960057 0.745518
vt 0.965245 0.682746
vt 0.927893 0.756375
vt 0.912330 0.807751
vt 0.921668 0.808039
vt 0.908180 0.745518
vt 0.902992 0.808290
vt 0.921668 0.745518
vt 0.918555 0.745518
vt 0.923743 0.682746
vt 0.931006 0.745518
vt 0.924780 0.807751
vt 0.979771 0.682746
vt 0.897804 0.682746
vt 0.979771 0.766077
vt 0.877053 0.682746
vt 0.936193 0.767203
vt 0.939306 0.755617
vt 0.973545 0.682746
vt 0.866678 0.766382
vt 0.975620 0.682746
vt 0.877053 0.766382
vt 0.938269 0.766904
vt 0.934118 0.767006
vn 0.1693 -0.0127 0.9855
vn -0.9840 0.0543 0.1698
vn -0.1693 0.0127 -0.9855
vn 0.9840 -0.0543 -0.1698
vn -0.0557 -0.9984 -0.0033
vn -0.1125 0.5497 -0.8278
vn 0.1726 0.5283 0.8313
vn -0.0829 -0.9826 -0.1662
vn 0.0829 0.9826 0.1662
vn -0.1578 0.1776 -0.9714
vn 0.1578 -0.1776 0.9714
vn -0.0549 -0.9985 0.0012
vn 0.0549 0.9985 -0.0012
vn -0.1696 0.0081 -0.9855
vn 0.1696 -0.0081 0.9855
usemtl Material.026
s 1
f 1/1/1 2/2/1 3/3/1
f 4/4/2 1/5/2 5/6/2
f 6/7/3 4/8/3 5/9/3
f 2/10/4 6/11/4 3/12/4
f 7/13/5 8/14/5 2/15/5
f 5/9/6 9/16/6 6/7/6
f 10/17/7 3/3/7 9/18/7
f 11/19/1 12/20/1 13/21/1
f 14/22/2 11/23/2 15/24/2
f 16/25/3 14/26/3 15/27/3
f 13/28/4 12/29/4 17/30/4
f 18/31/5 17/32/5 12/33/5
f 15/27/6 19/34/6 16/25/6
f 20/35/7 13/21/7 19/36/7
f 21/37/1 22/38/1 23/39/1
f 24/40/2 21/41/2 25/42/2
f 26/43/3 24/44/3 25/45/3
f 22/46/4 26/47/4 23/48/4
f 27/49/5 28/50/5 22/51/5
f 25/45/6 29/52/6 26/43/6
f 30/53/7 23/39/7 29/54/7
f 31/55/1 32/56/1 33/57/1
f 34/58/2 31/59/2 35/60/2
f 36/61/3 34/62/3 35/63/3
f 32/64/4 36/65/4 33/66/4
f 37/67/5 38/68/5 32/69/5
f 35/63/6 39/70/6 36/61/6
f 40/71/7 33/57/7 39/72/7
f 41/73/8 42/74/8 43/75/8
f 41/76/2 44/77/2 45/78/2
f 46/79/9 44/80/9 47/81/9
f 43/82/4 48/83/4 46/84/4
f 45/85/10 48/86/10 42/87/10
f 47/88/11 43/89/11 46/90/11
f 49/91/12 50/92/12 51/93/12
f 52/94/2 53/95/2 49/96/2
f 54/97/13 55/98/13 52/99/13
f 51/100/4 56/101/4 54/102/4
f 53/103/14 56/104/14 50/105/14
f 52/106/15 51/107/15 54/108/15
f 1/1/1 7/109/1 2/2/1
f 7/110/2 1/5/2 4/4/2
f 1/5/2 10/111/2 5/6/2
f 6/7/3 8/112/3 4/8/3
f 8/113/4 6/11/4 2/10/4
f 6/11/4 9/114/4 3/12/4
f 7/13/5 4/115/5 8/14/5
f 5/9/6 10/116/6 9/16/6
f 10/17/7 1/1/7 3/3/7
f 11/19/1 18/117/1 12/20/1
f 18/118/2 11/23/2 14/22/2
f 11/23/2 20/119/2 15/24/2
f 16/25/3 17/120/3 14/26/3
f 17/30/4 16/121/4 13/28/4
f 16/121/4 19/122/4 13/28/4
f 18/31/5 14/123/5 17/32/5
f 15/27/6 20/124/6 19/34/6
f 20/35/7 11/19/7 13/21/7
f 21/37/1 27/125/1 22/38/1
f 27/126/2 21/41/2 24/40/2
f 21/41/2 30/127/2 25/42/2
f 26/43/3 28/128/3 24/44/3
f 28/129/4 26/47/4 22/46/4
f 26/47/4 29/130/4 23/48/4
f 27/49/5 24/131/5 28/50/5
f 25/45/6 30/132/6 29/52/6
f 30/53/7 21/37/7 23/39/7
f 31/55/1 37/133/1 32/56/1
f 37/134/2 31/59/2 34/58/2
f 31/59/2 40/135/2 35/60/2
f 36/61/3 38/136/3 34/62/3
f 38/137/4 36/65/4 32/64/4
f 36/65/4 39/138/4 33/66/4
f 37/67/5 34/139/5 38/68/5
f 35/63/6 40/140/6 39/70/6
f 40/71/7 31/55/7 33/57/7
f 41/73/8 45/141/8 42/74/8
f 41/76/2 47/142/2 44/77/2
f 46/79/9 48/143/9 44/80/9
f 43/82/4 42/144/4 48/83/4
f 45/85/10 44/145/10 48/86/10
f 47/88/11 41/146/11 43/89/11
f 49/91/12 53/147/12 50/92/12
f 52/94/2 55/148/2 53/95/2
f 54/97/13 56/149/13 55/98/13
f 51/100/4 50/150/4 56/101/4
f 53/103/14 55/151/14 56/104/14
f 52/106/15 49/152/15 51/107/15
