# Blender v2.82 (sub 7) OBJ File: ''
# www.blender.org
mtllib barrel3.mtl
o barrel3
v 0.285745 0.671328 -0.239769
v 0.246044 1.006992 -0.206456
v 0.321189 1.006992 0.000000
v 0.373013 0.671328 0.000000
v 0.064773 0.671328 -0.367346
v 0.055774 1.006992 -0.316309
v -0.186507 0.671328 -0.323039
v -0.160594 1.006992 -0.278157
v -0.350518 0.671328 -0.127578
v -0.301819 1.006992 -0.109853
v -0.350518 0.671328 0.127578
v -0.301819 1.006992 0.109853
v -0.186507 0.671328 0.323039
v -0.160594 1.006992 0.278157
v 0.064773 0.671328 0.367346
v 0.055774 1.006992 0.316309
v 0.285745 0.671328 0.239769
v 0.246044 1.006992 0.206456
v 0.213820 1.000211 -0.179416
v 0.279122 1.000211 0.000000
v 0.048469 1.000211 -0.274882
v -0.139561 1.000211 -0.241727
v -0.262289 1.000211 -0.095465
v -0.262289 1.000211 0.095466
v -0.139561 1.000211 0.241727
v 0.048469 1.000211 0.274882
v 0.213820 1.000211 0.179416
v 0.217879 0.969348 -0.182822
v 0.284421 0.969348 0.000000
v 0.049389 0.969348 -0.280100
v -0.142210 0.969348 -0.246315
v -0.267268 0.969348 -0.097277
v -0.267268 0.969348 0.097278
v -0.142210 0.969348 0.246316
v 0.049389 0.969348 0.280100
v 0.217879 0.969348 0.182822
v 0.000000 0.969348 0.000000
v 0.321189 0.000000 0.000000
v 0.246044 0.000000 -0.206456
v 0.285745 0.335664 -0.239769
v 0.373013 0.335664 0.000000
v 0.055774 0.000000 -0.316309
v 0.064773 0.335664 -0.367346
v -0.160594 0.000000 -0.278157
v -0.186507 0.335664 -0.323039
v -0.301819 0.000000 -0.109853
v -0.350518 0.335664 -0.127578
v -0.301819 -0.000000 0.109853
v -0.350518 0.335664 0.127578
v -0.160594 -0.000000 0.278157
v -0.186507 0.335664 0.323039
v 0.055774 -0.000000 0.316309
v 0.064773 0.335664 0.367346
v 0.246044 -0.000000 0.206456
v 0.285745 0.335664 0.239769
v 0.279122 0.006780 0.000000
v 0.213820 0.006781 -0.179416
v 0.048469 0.006781 -0.274882
v -0.139561 0.006781 -0.241727
v -0.262289 0.006780 -0.095466
v -0.262289 0.006780 0.095466
v -0.139561 0.006780 0.241727
v 0.048469 0.006780 0.274882
v 0.213820 0.006780 0.179416
v 0.284421 0.037644 0.000000
v 0.217879 0.037644 -0.182822
v 0.049389 0.037644 -0.280100
v -0.142210 0.037644 -0.246316
v -0.267268 0.037644 -0.097277
v -0.267268 0.037644 0.097277
v -0.142210 0.037644 0.246316
v 0.049389 0.037644 0.280100
v 0.217879 0.037644 0.182822
v 0.000000 0.037644 0.000000
vt 1.048100 0.358200
vt 1.040800 0.533500
vt 0.939600 0.530500
vt 0.939600 0.354800
vt 0.168100 0.354800
vt 0.168100 0.530500
vt 0.058600 0.530500
vt 0.058600 0.354800
vt 0.276900 0.354800
vt 0.276900 0.530500
vt 0.387400 0.354800
vt 0.387400 0.530500
vt 0.499300 0.354800
vt 0.499300 0.530500
vt 0.609800 0.354800
vt 0.609800 0.530500
vt 0.718600 0.354800
vt 0.718600 0.530500
vt 0.828100 0.354800
vt 0.828100 0.530500
vt 0.226700 0.850700
vt 0.126000 0.851200
vt 0.132700 0.833300
vt 0.220200 0.832900
vt 0.049300 0.787700
vt 0.066000 0.778100
vt 0.032300 0.689800
vt 0.051200 0.693000
vt 0.083000 0.603500
vt 0.095300 0.618000
vt 0.177700 0.569000
vt 0.177600 0.588000
vt 0.272100 0.602500
vt 0.259700 0.617200
vt 0.322000 0.688400
vt 0.303000 0.691800
vt 0.304000 0.786400
vt 0.287400 0.777000
vt 0.135800 0.825000
vt 0.217200 0.824600
vt 0.073700 0.773600
vt 0.060000 0.694500
vt 0.101000 0.624700
vt 0.177600 0.596800
vt 0.253900 0.623900
vt 0.294300 0.693400
vt 0.279700 0.772600
vt 0.177000 0.714400
vt -0.049200 0.000400
vt 0.058600 0.003300
vt 0.058600 0.179100
vt -0.057700 0.175600
vt -0.049100 0.354800
vt -0.049100 0.179100
vt 0.168100 0.003300
vt 0.168100 0.179100
vt 0.276900 0.003300
vt 0.276900 0.179100
vt 0.387400 0.003300
vt 0.387400 0.179100
vt 0.499300 0.003300
vt 0.499300 0.179100
vt 0.609800 0.003300
vt 0.609800 0.179100
vt 0.718600 0.003300
vt 0.718600 0.179100
vt 0.828100 0.003300
vt 0.828100 0.179100
vt 0.939600 0.003300
vt 0.939600 0.179100
vt 0.455700 0.569300
vt 0.460600 0.587700
vt 0.547800 0.594900
vt 0.556000 0.577600
vt 0.609400 0.655700
vt 0.626900 0.647600
vt 0.616700 0.741700
vt 0.635300 0.746500
vt 0.566300 0.812600
vt 0.577300 0.828100
vt 0.481600 0.835300
vt 0.479900 0.854200
vt 0.402500 0.799100
vt 0.388800 0.812600
vt 0.365800 0.721000
vt 0.346600 0.722700
vt 0.388800 0.637500
vt 0.373000 0.626600
vt 0.463200 0.596600
vt 0.543400 0.603200
vt 0.600100 0.659200
vt 0.606800 0.738300
vt 0.560400 0.803600
vt 0.482500 0.824500
vt 0.409700 0.791200
vt 0.375900 0.719300
vt 0.397000 0.642400
vt 0.493300 0.709500
vn 0.7639 0.0753 -0.6410
vn 0.5161 0.7390 -0.4331
vn 0.6737 0.7390 0.0000
vn 0.9972 0.0753 0.0000
vn 0.1732 0.0753 -0.9820
vn 0.1170 0.7390 -0.6635
vn -0.4986 0.0753 -0.8636
vn -0.3369 0.7390 -0.5835
vn -0.9370 0.0753 -0.3411
vn -0.6331 0.7390 -0.2304
vn -0.9370 0.0753 0.3410
vn -0.6331 0.7390 0.2304
vn -0.4986 0.0753 0.8636
vn -0.3369 0.7390 0.5835
vn 0.1732 0.0753 0.9820
vn 0.1170 0.7390 0.6635
vn 0.7639 0.0753 0.6410
vn 0.5161 0.7390 0.4331
vn -0.5702 0.6677 0.4785
vn -0.7444 0.6677 -0.0000
vn -0.1293 0.6677 0.7331
vn 0.3722 0.6677 0.6447
vn 0.6995 0.6677 0.2546
vn 0.6995 0.6677 -0.2546
vn 0.3722 0.6677 -0.6447
vn -0.1293 0.6677 -0.7331
vn -0.5702 0.6677 -0.4785
vn -0.6279 0.5728 0.5269
vn -0.8197 0.5728 0.0000
vn -0.1423 0.5728 0.8072
vn 0.4098 0.5728 0.7099
vn 0.7703 0.5728 0.2803
vn 0.7703 0.5728 -0.2803
vn 0.4098 0.5728 -0.7099
vn -0.1423 0.5728 -0.8072
vn -0.6279 0.5728 -0.5269
vn -0.0000 1.0000 0.0000
vn 0.6737 -0.7390 -0.0000
vn 0.5161 -0.7390 -0.4331
vn 0.7639 -0.0753 -0.6410
vn 0.9972 -0.0753 0.0000
vn 0.1170 -0.7390 -0.6635
vn 0.1732 -0.0753 -0.9820
vn -0.3369 -0.7390 -0.5835
vn -0.4986 -0.0753 -0.8636
vn -0.6331 -0.7390 -0.2304
vn -0.9370 -0.0753 -0.3411
vn -0.6331 -0.7390 0.2304
vn -0.9370 -0.0753 0.3410
vn -0.3369 -0.7390 0.5835
vn -0.4986 -0.0753 0.8636
vn 0.1170 -0.7390 0.6635
vn 0.1732 -0.0753 0.9820
vn 0.5161 -0.7390 0.4331
vn 0.7639 -0.0753 0.6410
vn -0.7444 -0.6677 -0.0000
vn -0.5702 -0.6677 0.4785
vn -0.1293 -0.6677 0.7331
vn 0.3722 -0.6677 0.6447
vn 0.6995 -0.6677 0.2546
vn 0.6995 -0.6677 -0.2546
vn 0.3722 -0.6677 -0.6447
vn -0.1293 -0.6677 -0.7331
vn -0.5702 -0.6677 -0.4785
vn -0.8197 -0.5728 -0.0000
vn -0.6279 -0.5728 0.5269
vn -0.1423 -0.5728 0.8072
vn 0.4098 -0.5728 0.7099
vn 0.7703 -0.5728 0.2803
vn 0.7703 -0.5728 -0.2803
vn 0.4098 -0.5728 -0.7099
vn -0.1423 -0.5728 -0.8072
vn -0.6279 -0.5728 -0.5269
vn -0.0000 -1.0000 -0.0000
usemtl wire_225198087.002
s 1
f 1/1/1 2/2/2 3/3/3 4/4/4
f 5/5/5 6/6/6 2/7/2 1/8/1
f 7/9/7 8/10/8 6/6/6 5/5/5
f 9/11/9 10/12/10 8/10/8 7/9/7
f 11/13/11 12/14/12 10/12/10 9/11/9
f 13/15/13 14/16/14 12/14/12 11/13/11
f 15/17/15 16/18/16 14/16/14 13/15/13
f 17/19/17 18/20/18 16/18/16 15/17/15
f 4/4/4 3/3/3 18/20/18 17/19/17
f 3/21/3 2/22/2 19/23/19 20/24/20
f 2/22/2 6/25/6 21/26/21 19/23/19
f 6/25/6 8/27/8 22/28/22 21/26/21
f 8/27/8 10/29/10 23/30/23 22/28/22
f 10/29/10 12/31/12 24/32/24 23/30/23
f 12/31/12 14/33/14 25/34/25 24/32/24
f 14/33/14 16/35/16 26/36/26 25/34/25
f 16/35/16 18/37/18 27/38/27 26/36/26
f 18/37/18 3/21/3 20/24/20 27/38/27
f 20/24/20 19/23/19 28/39/28 29/40/29
f 19/23/19 21/26/21 30/41/30 28/39/28
f 21/26/21 22/28/22 31/42/31 30/41/30
f 22/28/22 23/30/23 32/43/32 31/42/31
f 23/30/23 24/32/24 33/44/33 32/43/32
f 24/32/24 25/34/25 34/45/34 33/44/33
f 25/34/25 26/36/26 35/46/35 34/45/34
f 26/36/26 27/38/27 36/47/36 35/46/35
f 27/38/27 20/24/20 29/40/29 36/47/36
f 29/40/29 28/39/28 37/48/37
f 28/39/28 30/41/30 37/48/37
f 30/41/30 31/42/31 37/48/37
f 31/42/31 32/43/32 37/48/37
f 32/43/32 33/44/33 37/48/37
f 33/44/33 34/45/34 37/48/37
f 34/45/34 35/46/35 37/48/37
f 35/46/35 36/47/36 37/48/37
f 36/47/36 29/40/29 37/48/37
f 38/49/38 39/50/39 40/51/40 41/52/41
f 4/53/4 41/54/41 40/51/40 1/8/1
f 39/50/39 42/55/42 43/56/43 40/51/40
f 1/8/1 40/51/40 43/56/43 5/5/5
f 42/55/42 44/57/44 45/58/45 43/56/43
f 5/5/5 43/56/43 45/58/45 7/9/7
f 44/57/44 46/59/46 47/60/47 45/58/45
f 7/9/7 45/58/45 47/60/47 9/11/9
f 46/59/46 48/61/48 49/62/49 47/60/47
f 9/11/9 47/60/47 49/62/49 11/13/11
f 48/61/48 50/63/50 51/64/51 49/62/49
f 11/13/11 49/62/49 51/64/51 13/15/13
f 50/63/50 52/65/52 53/66/53 51/64/51
f 13/15/13 51/64/51 53/66/53 15/17/15
f 52/65/52 54/67/54 55/68/55 53/66/53
f 15/17/15 53/66/53 55/68/55 17/19/17
f 54/67/54 38/69/38 41/70/41 55/68/55
f 17/19/17 55/68/55 41/70/41 4/4/4
f 38/71/38 56/72/56 57/73/57 39/74/39
f 39/74/39 57/73/57 58/75/58 42/76/42
f 42/76/42 58/75/58 59/77/59 44/78/44
f 44/78/44 59/77/59 60/79/60 46/80/46
f 46/80/46 60/79/60 61/81/61 48/82/48
f 48/82/48 61/81/61 62/83/62 50/84/50
f 50/84/50 62/83/62 63/85/63 52/86/52
f 52/86/52 63/85/63 64/87/64 54/88/54
f 54/88/54 64/87/64 56/72/56 38/71/38
f 56/72/56 65/89/65 66/90/66 57/73/57
f 57/73/57 66/90/66 67/91/67 58/75/58
f 58/75/58 67/91/67 68/92/68 59/77/59
f 59/77/59 68/92/68 69/93/69 60/79/60
f 60/79/60 69/93/69 70/94/70 61/81/61
f 61/81/61 70/94/70 71/95/71 62/83/62
f 62/83/62 71/95/71 72/96/72 63/85/63
f 63/85/63 72/96/72 73/97/73 64/87/64
f 64/87/64 73/97/73 65/89/65 56/72/56
f 65/89/65 74/98/74 66/90/66
f 66/90/66 74/98/74 67/91/67
f 67/91/67 74/98/74 68/92/68
f 68/92/68 74/98/74 69/93/69
f 69/93/69 74/98/74 70/94/70
f 70/94/70 74/98/74 71/95/71
f 71/95/71 74/98/74 72/96/72
f 72/96/72 74/98/74 73/97/73
f 73/97/73 74/98/74 65/89/65
