# Blender v2.82 (sub 7) OBJ File: ''
# www.blender.org
mtllib barrel1.mtl
o barrel1
v 0.315890 1.053938 -0.114974
v 0.315890 1.053938 0.114975
v 0.366859 0.702625 0.133526
v 0.366859 0.702625 -0.133526
v 0.168081 1.053938 -0.291125
v 0.195202 0.702626 -0.338099
v -0.058374 1.053938 -0.331055
v -0.067793 0.702626 -0.384472
v -0.257515 1.053938 -0.216081
v -0.299066 0.702626 -0.250947
v -0.336163 1.053938 0.000000
v -0.390403 0.702625 0.000000
v -0.257516 1.053938 0.216081
v -0.299066 0.702625 0.250946
v -0.058374 1.053938 0.331055
v -0.067793 0.702625 0.384472
v 0.168081 1.053938 0.291126
v 0.195202 0.702625 0.338099
v 0.146067 1.046841 -0.252996
v 0.274517 1.046841 -0.099916
v -0.050729 1.046841 -0.287697
v -0.223788 1.046841 -0.187781
v -0.292135 1.046841 0.000000
v -0.223788 1.046841 0.187781
v -0.050729 1.046841 0.287697
v 0.146067 1.046841 0.252996
v 0.274517 1.046841 0.099916
v 0.148840 1.014539 -0.257799
v 0.279728 1.014539 -0.101812
v -0.051692 1.014539 -0.293158
v -0.228037 1.014539 -0.191345
v -0.297680 1.014539 0.000000
v -0.228037 1.014539 0.191346
v -0.051692 1.014539 0.293158
v 0.148840 1.014539 0.257799
v 0.279728 1.014539 0.101813
v 0.000000 1.014539 0.000000
v 0.366859 0.351313 0.133526
v 0.315890 -0.000000 0.114975
v 0.315890 0.000000 -0.114974
v 0.366859 0.351313 -0.133526
v 0.168081 0.000000 -0.291125
v 0.195202 0.351313 -0.338099
v -0.058374 0.000000 -0.331055
v -0.067793 0.351313 -0.384472
v -0.257515 0.000000 -0.216081
v -0.299066 0.351313 -0.250947
v -0.336163 0.000000 0.000000
v -0.390403 0.351313 0.000000
v -0.257516 -0.000000 0.216081
v -0.299066 0.351313 0.250946
v -0.058374 -0.000000 0.331055
v -0.067793 0.351313 0.384472
v 0.168081 -0.000000 0.291126
v 0.195202 0.351313 0.338099
v 0.274517 0.007097 -0.099916
v 0.146067 0.007097 -0.252996
v -0.050729 0.007097 -0.287697
v -0.223788 0.007097 -0.187781
v -0.292135 0.007097 0.000000
v -0.223788 0.007097 0.187781
v -0.050729 0.007097 0.287697
v 0.146067 0.007097 0.252996
v 0.274517 0.007097 0.099916
v 0.279728 0.039399 -0.101813
v 0.148840 0.039399 -0.257799
v -0.051692 0.039399 -0.293158
v -0.228037 0.039399 -0.191346
v -0.297680 0.039399 0.000000
v -0.228037 0.039399 0.191346
v -0.051692 0.039399 0.293158
v 0.148840 0.039399 0.257799
v 0.279728 0.039399 0.101813
v 0.000000 0.039399 0.000000
vt 0.995500 0.530500
vt 0.883700 0.530500
vt 0.883700 0.354800
vt 0.995500 0.354800
vt 0.113600 0.530500
vt 0.003100 0.530500
vt 0.003100 0.354800
vt 0.113600 0.354800
vt 0.222400 0.530500
vt 0.222400 0.354800
vt 0.331900 0.530500
vt 0.331900 0.354800
vt 0.443400 0.530500
vt 0.443400 0.354800
vt 0.554800 0.530500
vt 0.554800 0.354800
vt 0.664300 0.530500
vt 0.664300 0.354800
vt 0.773100 0.530500
vt 0.773100 0.354800
vt 0.176300 0.859700
vt 0.081900 0.826200
vt 0.094400 0.811500
vt 0.176400 0.840700
vt 0.032000 0.740300
vt 0.051000 0.736900
vt 0.050000 0.642300
vt 0.066600 0.651700
vt 0.127400 0.578000
vt 0.133900 0.595900
vt 0.228000 0.577500
vt 0.221300 0.595400
vt 0.304800 0.641000
vt 0.288000 0.650600
vt 0.321800 0.738900
vt 0.302800 0.735700
vt 0.271000 0.825300
vt 0.258700 0.810700
vt 0.100100 0.804800
vt 0.176400 0.831900
vt 0.059800 0.735300
vt 0.074300 0.656100
vt 0.136900 0.604100
vt 0.218200 0.603700
vt 0.280300 0.655100
vt 0.294100 0.734200
vt 0.253000 0.804000
vt 0.177000 0.714400
vt 0.883700 0.179100
vt 0.883700 0.003300
vt 0.995500 0.003300
vt 0.995500 0.179100
vt 0.003100 0.179100
vt 0.003100 0.003300
vt 0.113600 0.003300
vt 0.113600 0.179100
vt 0.222400 0.003300
vt 0.222400 0.179100
vt 0.331900 0.003300
vt 0.331900 0.179100
vt 0.443400 0.003300
vt 0.443400 0.179100
vt 0.554800 0.003300
vt 0.554800 0.179100
vt 0.664300 0.003300
vt 0.664300 0.179100
vt 0.773100 0.003300
vt 0.773100 0.179100
vt 0.506700 0.564700
vt 0.504900 0.583700
vt 0.584100 0.619900
vt 0.597800 0.606400
vt 0.620800 0.698000
vt 0.640000 0.696300
vt 0.597800 0.781500
vt 0.613500 0.792300
vt 0.525900 0.831300
vt 0.530800 0.849600
vt 0.438800 0.824100
vt 0.430600 0.841400
vt 0.377100 0.763300
vt 0.359600 0.771400
vt 0.369800 0.677300
vt 0.351200 0.672400
vt 0.420300 0.606300
vt 0.409300 0.590800
vt 0.503900 0.592900
vt 0.576800 0.626200
vt 0.610500 0.698100
vt 0.589400 0.775000
vt 0.523200 0.820800
vt 0.443100 0.814200
vt 0.386300 0.758200
vt 0.379600 0.679100
vt 0.426100 0.613800
vt 0.493300 0.709500
vn 0.6331 0.7390 -0.2304
vn 0.6331 0.7390 0.2304
vn 0.9370 0.0753 0.3411
vn 0.9370 0.0753 -0.3411
vn 0.3369 0.7390 -0.5835
vn 0.4986 0.0753 -0.8636
vn -0.1170 0.7390 -0.6635
vn -0.1732 0.0753 -0.9820
vn -0.5161 0.7390 -0.4331
vn -0.7639 0.0753 -0.6410
vn -0.6737 0.7390 -0.0000
vn -0.9972 0.0753 0.0000
vn -0.5161 0.7390 0.4331
vn -0.7639 0.0753 0.6410
vn -0.1170 0.7390 0.6635
vn -0.1732 0.0753 0.9820
vn 0.3369 0.7390 0.5835
vn 0.4986 0.0753 0.8636
vn -0.3722 0.6677 0.6447
vn -0.6995 0.6677 0.2546
vn 0.1293 0.6677 0.7331
vn 0.5702 0.6677 0.4785
vn 0.7444 0.6677 0.0000
vn 0.5702 0.6677 -0.4785
vn 0.1293 0.6677 -0.7331
vn -0.3722 0.6677 -0.6447
vn -0.6995 0.6677 -0.2546
vn -0.4098 0.5728 0.7099
vn -0.7703 0.5728 0.2803
vn 0.1423 0.5728 0.8072
vn 0.6279 0.5728 0.5269
vn 0.8197 0.5728 0.0000
vn 0.6279 0.5728 -0.5269
vn 0.1423 0.5728 -0.8072
vn -0.4098 0.5728 -0.7099
vn -0.7703 0.5728 -0.2803
vn 0.0000 1.0000 0.0000
vn 0.9370 -0.0753 0.3411
vn 0.6331 -0.7390 0.2304
vn 0.6331 -0.7390 -0.2304
vn 0.9370 -0.0753 -0.3411
vn 0.3369 -0.7390 -0.5835
vn 0.4986 -0.0753 -0.8636
vn -0.1170 -0.7390 -0.6635
vn -0.1732 -0.0753 -0.9820
vn -0.5161 -0.7390 -0.4331
vn -0.7639 -0.0753 -0.6410
vn -0.6737 -0.7390 -0.0000
vn -0.9972 -0.0753 -0.0000
vn -0.5161 -0.7390 0.4331
vn -0.7639 -0.0753 0.6410
vn -0.1170 -0.7390 0.6635
vn -0.1732 -0.0753 0.9820
vn 0.3369 -0.7390 0.5835
vn 0.4986 -0.0753 0.8636
vn -0.6995 -0.6677 0.2546
vn -0.3722 -0.6677 0.6447
vn 0.1293 -0.6677 0.7331
vn 0.5702 -0.6677 0.4785
vn 0.7444 -0.6677 0.0000
vn 0.5702 -0.6677 -0.4785
vn 0.1293 -0.6677 -0.7331
vn -0.3722 -0.6677 -0.6447
vn -0.6995 -0.6677 -0.2546
vn -0.7703 -0.5728 0.2803
vn -0.4098 -0.5728 0.7099
vn 0.1423 -0.5728 0.8072
vn 0.6279 -0.5728 0.5269
vn 0.8197 -0.5728 -0.0000
vn 0.6279 -0.5728 -0.5269
vn 0.1423 -0.5728 -0.8072
vn -0.4098 -0.5728 -0.7099
vn -0.7703 -0.5728 -0.2803
vn 0.0000 -1.0000 -0.0000
usemtl wire_225198087
s 1
f 1/1/1 2/2/2 3/3/3 4/4/4
f 5/5/5 1/6/1 4/7/4 6/8/6
f 7/9/7 5/5/5 6/8/6 8/10/8
f 9/11/9 7/9/7 8/10/8 10/12/10
f 11/13/11 9/11/9 10/12/10 12/14/12
f 13/15/13 11/13/11 12/14/12 14/16/14
f 15/17/15 13/15/13 14/16/14 16/18/16
f 17/19/17 15/17/15 16/18/16 18/20/18
f 2/2/2 17/19/17 18/20/18 3/3/3
f 1/21/1 5/22/5 19/23/19 20/24/20
f 5/22/5 7/25/7 21/26/21 19/23/19
f 7/25/7 9/27/9 22/28/22 21/26/21
f 9/27/9 11/29/11 23/30/23 22/28/22
f 11/29/11 13/31/13 24/32/24 23/30/23
f 13/31/13 15/33/15 25/34/25 24/32/24
f 15/33/15 17/35/17 26/36/26 25/34/25
f 17/35/17 2/37/2 27/38/27 26/36/26
f 2/37/2 1/21/1 20/24/20 27/38/27
f 20/24/20 19/23/19 28/39/28 29/40/29
f 19/23/19 21/26/21 30/41/30 28/39/28
f 21/26/21 22/28/22 31/42/31 30/41/30
f 22/28/22 23/30/23 32/43/32 31/42/31
f 23/30/23 24/32/24 33/44/33 32/43/32
f 24/32/24 25/34/25 34/45/34 33/44/33
f 25/34/25 26/36/26 35/46/35 34/45/34
f 26/36/26 27/38/27 36/47/36 35/46/35
f 27/38/27 20/24/20 29/40/29 36/47/36
f 29/40/29 28/39/28 37/48/37
f 28/39/28 30/41/30 37/48/37
f 30/41/30 31/42/31 37/48/37
f 31/42/31 32/43/32 37/48/37
f 32/43/32 33/44/33 37/48/37
f 33/44/33 34/45/34 37/48/37
f 34/45/34 35/46/35 37/48/37
f 35/46/35 36/47/36 37/48/37
f 36/47/36 29/40/29 37/48/37
f 38/49/38 39/50/39 40/51/40 41/52/41
f 3/3/3 38/49/38 41/52/41 4/4/4
f 41/53/41 40/54/40 42/55/42 43/56/43
f 43/56/43 6/8/6 4/7/4 41/53/41
f 43/56/43 42/55/42 44/57/44 45/58/45
f 45/58/45 8/10/8 6/8/6 43/56/43
f 45/58/45 44/57/44 46/59/46 47/60/47
f 47/60/47 10/12/10 8/10/8 45/58/45
f 47/60/47 46/59/46 48/61/48 49/62/49
f 49/62/49 12/14/12 10/12/10 47/60/47
f 49/62/49 48/61/48 50/63/50 51/64/51
f 51/64/51 14/16/14 12/14/12 49/62/49
f 51/64/51 50/63/50 52/65/52 53/66/53
f 53/66/53 16/18/16 14/16/14 51/64/51
f 53/66/53 52/65/52 54/67/54 55/68/55
f 55/68/55 18/20/18 16/18/16 53/66/53
f 55/68/55 54/67/54 39/50/39 38/49/38
f 38/49/38 3/3/3 18/20/18 55/68/55
f 40/69/40 56/70/56 57/71/57 42/72/42
f 42/72/42 57/71/57 58/73/58 44/74/44
f 44/74/44 58/73/58 59/75/59 46/76/46
f 46/76/46 59/75/59 60/77/60 48/78/48
f 48/78/48 60/77/60 61/79/61 50/80/50
f 50/80/50 61/79/61 62/81/62 52/82/52
f 52/82/52 62/81/62 63/83/63 54/84/54
f 54/84/54 63/83/63 64/85/64 39/86/39
f 39/86/39 64/85/64 56/70/56 40/69/40
f 56/70/56 65/87/65 66/88/66 57/71/57
f 57/71/57 66/88/66 67/89/67 58/73/58
f 58/73/58 67/89/67 68/90/68 59/75/59
f 59/75/59 68/90/68 69/91/69 60/77/60
f 60/77/60 69/91/69 70/92/70 61/79/61
f 61/79/61 70/92/70 71/93/71 62/81/62
f 62/81/62 71/93/71 72/94/72 63/83/63
f 63/83/63 72/94/72 73/95/73 64/85/64
f 64/85/64 73/95/73 65/87/65 56/70/56
f 65/87/65 74/96/74 66/88/66
f 66/88/66 74/96/74 67/89/67
f 67/89/67 74/96/74 68/90/68
f 68/90/68 74/96/74 69/91/69
f 69/91/69 74/96/74 70/92/70
f 70/92/70 74/96/74 71/93/71
f 71/93/71 74/96/74 72/94/72
f 72/94/72 74/96/74 73/95/73
f 73/95/73 74/96/74 65/87/65
