# Blender v2.82 (sub 7) OBJ File: ''
# www.blender.org
mtllib fence.mtl
o fence_Cube
v -0.050183 0.563976 0.053684
v -0.047624 0.823824 -0.039112
v -0.038384 0.563976 -0.034884
v 0.050183 0.563976 -0.023084
v 0.039112 0.842445 -0.009776
v 0.038384 0.563976 0.065483
v -0.039112 0.842445 0.053944
v -0.035769 0.007040 -0.035673
v 0.035769 0.007040 0.035865
v -0.035769 0.007040 0.048114
v 0.039112 0.858406 0.067410
v -0.032107 0.279035 0.037480
v 0.053506 0.278244 0.042203
v 0.035769 0.007040 -0.046380
v 0.053506 0.292376 -0.042235
v -0.032107 0.292376 -0.042235
v 0.044642 0.849691 -1.285274
v 0.042670 0.563977 -1.196446
v 0.054469 0.563977 -1.285014
v -0.036246 0.855848 -1.221554
v -0.045898 0.563977 -1.208245
v -0.035191 0.850426 -1.298740
v -0.034099 0.563977 -1.296813
v 0.040054 0.007040 -1.214619
v -0.031483 0.007040 -1.286156
v 0.040054 0.007040 -1.298406
v 0.036392 0.279035 -1.283980
v -0.049220 0.278245 -1.288702
v -0.031483 0.007040 -1.203911
v -0.049220 0.292377 -1.204264
v 0.036392 0.292377 -1.204264
v 0.097638 0.610424 -0.323699
v 0.045387 0.735057 -1.441454
v 0.062607 0.619456 -1.462410
v 0.088391 0.738853 -1.440766
v 0.105611 0.623251 -1.461722
v 0.134344 0.609370 -0.349141
v 0.105954 0.735618 0.192504
v 0.088025 0.618691 0.211838
v 0.062974 0.739617 0.192504
v 0.045045 0.622690 0.211838
v 0.086593 0.713132 -0.319676
v 0.123298 0.722633 -0.355242
v 0.035838 0.518055 -0.584468
v 0.062343 0.470645 -1.453724
v 0.047613 0.408499 -0.573087
v 0.088655 0.591261 -1.445969
v 0.105363 0.474346 -1.453650
v 0.074970 0.526645 -0.551815
v 0.088548 0.378068 0.184760
v 0.086746 0.406283 -0.554039
v 0.062450 0.496480 0.217977
v 0.045531 0.381581 0.186026
v 0.105467 0.492967 0.216711
v 0.062897 0.233381 -0.872527
v 0.045635 0.343396 -1.451776
v 0.062343 0.226287 -1.451936
v 0.088655 0.347095 -1.451940
v 0.105363 0.229986 -1.452101
v 0.087231 0.330506 -0.276112
v 0.088548 0.214706 0.189894
v 0.097331 0.219041 -0.278656
v 0.062450 0.334569 0.215455
v 0.045531 0.218276 0.190933
v 0.063767 0.211206 -0.292452
v 0.105467 0.330999 0.214416
v 0.088101 0.323612 -0.863862
v 0.053667 0.313738 -0.278769
v 0.101561 0.237715 -0.865289
v 0.049437 0.315920 -0.865192
v 0.052451 0.854127 -1.192218
v 0.045635 0.587560 -1.446043
vt 0.625581 0.098238
vt 0.929106 0.401762
vt 0.625581 0.401762
vt 0.929106 0.098238
vt 0.625581 0.401762
vt 0.625581 0.098238
vt 0.929106 0.098238
vt 0.625581 0.401762
vt 0.625581 0.098238
vt 0.625581 0.098238
vt 0.929106 0.401762
vt 0.625581 0.401762
vt 0.625581 0.098238
vt 0.929106 0.401762
vt 0.625581 0.401762
vt 0.083041 0.171733
vt 0.162929 0.234610
vt 0.083041 0.251155
vt 0.625581 0.098238
vt 0.929106 0.401762
vt 0.929106 0.098238
vt 0.625581 0.401762
vt 0.625581 0.098238
vt 0.625581 0.098238
vt 0.929106 0.401762
vt 0.625581 0.401762
vt 0.625581 0.098238
vt 0.929106 0.401762
vt 0.625581 0.401762
vt 0.929106 0.098238
vt 0.625581 0.401762
vt 0.625581 0.098238
vt 0.929106 0.401762
vt 0.625581 0.401762
vt 0.929106 0.098238
vt 0.625581 0.401762
vt 0.625581 0.098238
vt 0.929106 0.098238
vt 0.625581 0.401762
vt 0.625581 0.098238
vt 0.929106 0.098238
vt 0.625581 0.401762
vt 0.625581 0.098238
vt 0.625581 0.098238
vt 0.929106 0.401762
vt 0.625581 0.401762
vt 0.625581 0.098238
vt 0.929106 0.401762
vt 0.625581 0.401762
vt 0.625581 0.098238
vt 0.929106 0.401762
vt 0.625581 0.401762
vt 0.625581 0.098238
vt 0.929106 0.401762
vt 0.625581 0.401762
vt 0.261276 0.216940
vt 0.180638 0.151351
vt 0.261276 0.138965
vt 0.625581 0.098238
vt 0.929106 0.401762
vt 0.929106 0.098238
vt 0.625581 0.401762
vt 0.625581 0.098238
vt 0.625581 0.098238
vt 0.929106 0.401762
vt 0.625581 0.401762
vt 0.625581 0.098238
vt 0.929106 0.401762
vt 0.625581 0.401762
vt 0.929106 0.098238
vt 0.625581 0.401762
vt 0.625581 0.098238
vt 0.929106 0.401762
vt 0.625581 0.401762
vt 0.929106 0.098238
vt 0.625581 0.401762
vt 0.625581 0.098238
vt 0.929106 0.098238
vt 0.625581 0.401762
vt 0.625581 0.098238
vt 0.625581 0.098238
vt 0.929106 0.401762
vt 0.625581 0.401762
vt 0.126479 0.253721
vt 0.083041 0.370931
vt 0.083041 0.251282
vt 0.625581 0.098238
vt 0.929106 0.401762
vt 0.625581 0.401762
vt 0.258424 0.247779
vt 0.215002 0.366012
vt 0.215002 0.245232
vt 0.929106 0.401762
vt 0.625581 0.401762
vt 0.929106 0.098238
vt 0.625581 0.401762
vt 0.625581 0.098238
vt 0.929106 0.098238
vt 0.625581 0.401762
vt 0.625581 0.098238
vt 0.625581 0.098238
vt 0.929106 0.401762
vt 0.625581 0.401762
vt 0.929106 0.098238
vt 0.625581 0.401762
vt 0.625581 0.098238
vt 0.929106 0.098238
vt 0.625581 0.098238
vt 0.929106 0.098238
vt 0.625581 0.401762
vt 0.625581 0.098238
vt 0.170047 0.253713
vt 0.126606 0.370540
vt 0.126606 0.251282
vt 0.929106 0.098238
vt 0.625581 0.401762
vt 0.625581 0.098238
vt 0.304848 0.141338
vt 0.261403 0.260339
vt 0.261403 0.138965
vt 0.929106 0.098238
vt 0.625581 0.401762
vt 0.625581 0.098238
vt 0.929106 0.401762
vt 0.625581 0.401762
vt 0.625581 0.098238
vt 0.929106 0.401762
vt 0.625581 0.401762
vt 0.929106 0.098238
vt 0.625581 0.401762
vt 0.625581 0.098238
vt 0.625581 0.098238
vt 0.929106 0.401762
vt 0.625581 0.401762
vt 0.625581 0.098238
vt 0.625581 0.098238
vt 0.929106 0.401762
vt 0.625581 0.401762
vt 0.304845 0.265273
vt 0.261403 0.382039
vt 0.261403 0.262839
vt 0.929106 0.098238
vt 0.625581 0.401762
vt 0.625581 0.098238
vt 0.214875 0.247642
vt 0.171434 0.366199
vt 0.171435 0.245232
vt 0.929106 0.098238
vt 0.625581 0.401762
vt 0.625581 0.098238
vt 0.625581 0.098238
vt 0.929106 0.401762
vt 0.625581 0.401762
vt 0.625581 0.098238
vt 0.929106 0.401762
vt 0.625581 0.401762
vt 0.929106 0.098238
vt 0.625581 0.401762
vt 0.929106 0.098238
vt 0.625581 0.401762
vt 0.625581 0.098238
vt 0.625581 0.098238
vt 0.625581 0.098238
vt 0.929106 0.401762
vt 0.625581 0.401762
vt 0.929106 0.098238
vt 0.625581 0.401762
vt 0.625581 0.098238
vt 0.625581 0.098238
vt 0.929106 0.401762
vt 0.625581 0.401762
vt 0.929106 0.098238
vt 0.929106 0.401762
vt 0.929106 0.401762
vt 0.929106 0.098238
vt 0.929106 0.098238
vt 0.171307 0.138965
vt 0.929106 0.098238
vt 0.929106 0.401762
vt 0.929106 0.098238
vt 0.929106 0.098238
vt 0.929106 0.401762
vt 0.929106 0.098238
vt 0.929106 0.401762
vt 0.929106 0.401762
vt 0.929106 0.401762
vt 0.929106 0.098238
vt 0.929106 0.098238
vt 0.929106 0.098238
vt 0.929106 0.098238
vt 0.171434 0.245105
vt 0.929106 0.098238
vt 0.929106 0.401762
vt 0.929106 0.098238
vt 0.929106 0.098238
vt 0.929106 0.401762
vt 0.929106 0.098238
vt 0.929106 0.401762
vt 0.929106 0.401762
vt 0.126479 0.373370
vt 0.929106 0.098238
vt 0.258424 0.368559
vt 0.929106 0.098238
vt 0.929106 0.401762
vt 0.929106 0.401762
vt 0.929106 0.098238
vt 0.929106 0.401762
vt 0.929106 0.401762
vt 0.170048 0.372971
vt 0.929106 0.401762
vt 0.304848 0.262712
vt 0.929106 0.401762
vt 0.929106 0.098238
vt 0.929106 0.401762
vt 0.929106 0.098238
vt 0.929106 0.098238
vt 0.929106 0.098238
vt 0.304845 0.384473
vt 0.929106 0.401762
vt 0.214875 0.368609
vt 0.929106 0.401762
vt 0.929106 0.098238
vt 0.929106 0.401762
vt 0.929106 0.401762
vt 0.929106 0.098238
vt 0.929106 0.098238
vt 0.929106 0.401762
vt 0.929106 0.098238
vn -0.9906 -0.0374 -0.1320
vn 0.1320 -0.0114 -0.9912
vn 0.9907 0.0331 0.1320
vn -0.1321 0.0043 0.9912
vn 0.0000 -1.0000 -0.0000
vn -0.1628 0.9662 -0.1998
vn 0.1687 0.0362 0.9850
vn -0.0557 -0.0840 0.9949
vn 0.9980 -0.0627 -0.0081
vn 0.9979 -0.0645 -0.0024
vn 0.9979 -0.0653 0.0000
vn 0.9986 0.0521 0.0087
vn -0.1480 -0.0208 -0.9888
vn 0.0000 0.0703 -0.9975
vn -0.9999 0.0134 0.0006
vn -0.9999 0.0131 0.0017
vn -0.9999 0.0135 0.0000
vn -0.9980 -0.0627 -0.0105
vn 0.9907 0.0342 0.1320
vn -0.1319 0.0495 0.9900
vn -0.9912 -0.0047 -0.1321
vn 0.1321 0.0036 -0.9912
vn 0.0209 0.9973 -0.0698
vn -0.1686 0.0499 -0.9844
vn 0.0553 -0.0313 -0.9980
vn -0.9980 -0.0628 0.0081
vn -0.9979 -0.0645 0.0024
vn -0.9979 -0.0653 0.0000
vn -0.9986 0.0526 -0.0088
vn 0.1479 -0.0340 0.9884
vn 0.0000 0.0146 0.9999
vn 0.0000 0.0147 0.9999
vn -0.0000 0.0013 1.0000
vn 0.9999 0.0134 -0.0005
vn 0.9999 0.0131 -0.0016
vn 0.9999 0.0135 0.0000
vn 0.9979 -0.0633 0.0106
vn -0.9879 -0.1524 0.0292
vn 0.0000 0.1784 -0.9840
vn 0.9870 -0.1375 0.0838
vn 0.0150 0.1609 0.9869
vn -0.0926 -0.9956 0.0137
vn -0.2790 0.9598 -0.0316
vn -0.0882 0.9959 0.0177
vn -0.0335 -0.9994 -0.0069
vn 0.9882 0.1515 -0.0236
vn -0.9858 0.1346 -0.0999
vn -0.9937 -0.1093 -0.0243
vn -0.0039 0.0650 -0.9979
vn 0.9952 0.0973 0.0013
vn 0.0064 -0.2688 0.9632
vn -0.0393 -0.9986 -0.0355
vn 0.0825 0.9958 0.0404
vn -0.2657 0.9618 0.0654
vn 0.0856 -0.9940 -0.0687
vn 0.9949 0.0968 0.0279
vn -0.9942 -0.1075 -0.0065
vn -0.9900 -0.1412 0.0027
vn -0.0039 0.0008 -1.0000
vn 0.9958 0.0898 0.0195
vn 0.0064 -0.2072 0.9783
vn 0.2185 -0.9756 0.0225
vn 0.0826 0.9966 -0.0041
vn -0.4462 0.8949 -0.0112
vn 0.1184 -0.9922 -0.0381
vn 0.9879 0.1546 0.0120
vn -0.9950 -0.0932 -0.0362
vn 0.9885 0.1512 0.0050
vn 0.9895 0.1446 0.0061
vn 0.9879 0.1547 0.0044
vn 0.0857 -0.9962 0.0121
vn -0.1963 0.9798 0.0389
vn -0.9870 -0.1605 -0.0047
vn -0.9870 -0.1607 -0.0029
vn -0.9958 0.0395 0.0832
vn 0.3087 0.0576 -0.9494
vn 1.0000 -0.0025 0.0005
vn -0.1684 -0.0060 0.9857
vn -0.1475 0.9723 -0.1811
vn -0.0552 -0.0197 0.9983
vn -0.1318 -0.0646 0.9892
vn 0.9980 -0.0619 -0.0104
vn 0.9912 0.0028 0.1321
vn 0.0000 0.0145 -0.9999
vn 0.1320 0.0299 -0.9908
vn -0.9999 0.0129 0.0022
vn -0.9911 -0.0193 -0.1320
vn 0.9961 -0.0324 -0.0820
vn -0.3141 -0.0033 0.9494
vn -0.9994 0.0323 -0.0159
vn 0.1663 -0.0060 -0.9861
vn 0.0361 0.9981 -0.0506
vn 0.0551 -0.0058 -0.9985
vn 0.1320 -0.0120 -0.9912
vn -0.9980 -0.0620 0.0104
vn -0.9912 0.0102 -0.1320
vn 0.0000 0.0012 1.0000
vn -0.1320 -0.0255 0.9909
vn 0.9999 0.0129 -0.0022
vn 0.9909 -0.0267 0.1320
vn -0.9935 -0.1082 0.0344
vn 0.9947 0.0986 0.0292
vn -0.0183 -0.9997 0.0151
vn 0.0926 0.9946 -0.0472
vn -0.2256 0.9738 0.0273
vn 0.0881 -0.9960 -0.0147
vn 0.9950 0.0954 -0.0306
vn -0.9936 -0.1053 -0.0404
vn -0.9899 -0.1400 -0.0225
vn 0.9901 -0.1332 -0.0451
vn -0.0824 -0.9959 -0.0378
vn -0.2413 0.9698 0.0341
vn -0.0856 0.9932 0.0791
vn -0.0195 -0.9969 -0.0758
vn 0.9899 0.1398 0.0253
vn -0.9901 0.1356 0.0365
vn -0.9870 -0.1608 -0.0011
vn 0.9900 -0.1363 -0.0367
vn -0.0830 -0.9965 -0.0108
vn -0.4448 0.8951 -0.0298
vn -0.1953 0.9807 0.0051
vn 0.2386 -0.9707 -0.0292
vn 0.9959 0.0902 0.0004
vn -0.9899 0.1416 0.0116
vn 0.9900 0.1412 0.0066
vn 0.1088 -0.9940 0.0138
vn -0.0854 0.9952 0.0472
vn -0.9951 -0.0989 0.0068
usemtl Material.002
s 1
f 1/1/1 2/2/1 3/3/1
f 2/4/2 4/5/2 3/6/2
f 5/7/3 6/8/3 4/9/3
f 6/10/4 7/11/4 1/12/4
f 8/13/5 9/14/5 10/15/5
f 5/16/6 7/17/6 11/18/6
f 9/19/7 12/20/7 10/15/7
f 6/21/8 12/22/8 13/23/8
f 14/24/9 13/25/10 9/26/11
f 15/27/12 6/28/12 13/29/12
f 16/30/13 14/31/13 8/13/13
f 16/32/14 4/33/14 15/34/14
f 12/35/15 8/36/16 10/37/17
f 1/38/18 16/39/18 12/40/18
f 17/41/19 18/42/19 19/43/19
f 18/44/20 20/45/20 21/46/20
f 21/47/21 22/48/21 23/49/21
f 23/50/22 17/51/22 19/52/22
f 24/53/5 25/54/5 26/55/5
f 20/56/23 17/57/23 22/58/23
f 25/59/24 27/60/24 26/55/24
f 23/61/25 27/62/25 28/63/25
f 29/64/26 28/65/27 25/66/28
f 30/67/29 23/68/29 28/69/29
f 31/70/30 29/71/30 24/53/30
f 31/72/31 21/73/32 30/74/33
f 27/75/34 24/76/35 26/77/36
f 19/78/37 31/79/37 27/80/37
f 32/81/38 33/82/38 34/83/38
f 34/84/39 35/85/39 36/86/39
f 37/87/40 38/88/40 39/89/40
f 39/90/41 40/91/41 41/92/41
f 32/81/42 39/93/42 41/94/42
f 42/95/43 38/96/43 43/97/43
f 33/98/44 43/99/44 35/100/44
f 34/101/45 37/102/45 32/103/45
f 35/104/46 37/105/46 36/106/46
f 40/107/47 32/103/47 41/108/47
f 44/109/48 45/110/48 46/111/48
f 45/112/49 47/113/49 48/114/49
f 49/115/50 50/116/50 51/117/50
f 50/118/51 52/119/51 53/120/51
f 51/121/52 53/122/52 46/111/52
f 49/123/53 52/124/53 54/125/53
f 47/126/54 44/127/54 49/128/54
f 48/129/55 46/130/55 45/131/55
f 48/132/56 49/133/56 51/134/56
f 53/135/57 44/127/57 46/130/57
f 55/136/58 56/137/58 57/138/58
f 57/139/59 58/140/59 59/141/59
f 60/142/60 61/143/60 62/144/60
f 61/145/61 63/146/61 64/147/61
f 62/148/62 64/149/62 65/150/62
f 60/151/63 63/152/63 66/153/63
f 67/154/64 68/155/64 60/156/64
f 69/157/65 65/158/65 55/136/65
f 67/159/66 62/160/66 69/161/66
f 64/162/67 68/155/67 65/158/67
f 59/163/68 67/164/69 69/165/70
f 59/166/71 55/167/71 57/168/71
f 58/169/72 70/170/72 67/171/72
f 65/150/73 70/170/74 55/167/74
f 1/1/75 7/172/75 2/2/75
f 2/4/76 5/173/76 4/5/76
f 5/7/77 11/174/77 6/8/77
f 6/10/78 11/175/78 7/11/78
f 8/13/5 14/176/5 9/14/5
f 5/16/79 2/177/79 7/17/79
f 9/19/80 13/178/80 12/20/80
f 6/21/81 1/179/81 12/22/81
f 14/24/9 15/180/82 13/25/10
f 15/27/83 4/181/83 6/28/83
f 16/30/84 15/182/84 14/31/84
f 16/32/85 3/183/85 4/33/85
f 12/35/15 16/184/86 8/36/16
f 1/38/87 3/185/87 16/39/87
f 17/41/88 71/186/88 18/42/88
f 18/44/89 71/187/89 20/45/89
f 21/47/90 20/188/90 22/48/90
f 23/50/91 22/189/91 17/51/91
f 24/53/5 29/190/5 25/54/5
f 20/56/92 71/191/92 17/57/92
f 25/59/93 28/192/93 27/60/93
f 23/61/94 19/193/94 27/62/94
f 29/64/26 30/194/95 28/65/27
f 30/67/96 21/195/96 23/68/96
f 31/70/31 30/196/33 29/71/97
f 31/72/98 18/197/98 21/73/98
f 27/75/34 31/198/99 24/76/35
f 19/78/100 18/199/100 31/79/100
f 32/81/101 42/95/101 33/82/101
f 34/84/39 33/200/39 35/85/39
f 37/87/102 43/201/102 38/88/102
f 39/90/41 38/202/41 40/91/41
f 32/81/103 37/203/103 39/93/103
f 42/95/104 40/204/104 38/96/104
f 33/98/105 42/205/105 43/99/105
f 34/101/106 36/206/106 37/102/106
f 35/104/107 43/207/107 37/105/107
f 40/107/108 42/205/108 32/103/108
f 44/109/109 72/208/109 45/110/109
f 45/112/49 72/209/49 47/113/49
f 49/115/110 54/210/110 50/116/110
f 50/118/51 54/211/51 52/119/51
f 51/121/111 50/212/111 53/122/111
f 49/123/112 44/109/112 52/124/112
f 47/126/113 72/213/113 44/127/113
f 48/129/114 51/214/114 46/130/114
f 48/132/115 47/215/115 49/133/115
f 53/135/116 52/216/116 44/127/116
f 55/136/74 70/217/74 56/137/117
f 57/139/59 56/218/59 58/140/59
f 60/142/118 66/219/118 61/143/118
f 61/145/61 66/220/61 63/146/61
f 62/148/119 61/221/119 64/149/119
f 60/151/120 68/222/120 63/152/120
f 67/154/121 70/217/121 68/155/121
f 69/157/122 62/223/122 65/158/122
f 67/159/123 60/224/123 62/160/123
f 64/162/124 63/225/124 68/155/124
f 59/163/68 58/226/125 67/164/69
f 59/166/126 69/227/126 55/167/126
f 58/169/127 56/228/127 70/170/127
f 65/150/128 68/222/128 70/170/128
