# Blender v2.82 (sub 7) OBJ File: ''
# www.blender.org
mtllib 10.mtl
v -0.111121 1.199952 -0.123520
v -0.111121 1.199952 0.011717
v -0.911536 1.006629 0.473836
v -0.911536 1.006629 -0.585639
v 0.005997 1.006629 -1.115375
v -0.344986 1.988492 -0.258541
v 0.005997 1.988492 -0.461181
v -0.027967 0.632971 -0.191138
v -0.143801 0.650265 -0.123520
v 0.005997 1.199952 -0.191138
v -0.143801 0.650265 0.011717
v -0.027967 0.632971 0.079335
v 0.005997 1.199952 0.079336
v 0.087868 0.615678 0.011717
v 0.123116 1.199952 0.011717
v 0.087868 0.615678 -0.123520
v 0.123116 1.199952 -0.123520
v -0.111121 0.052405 -0.123520
v 0.005997 0.052405 -0.191138
v 0.123116 0.052405 -0.123520
v 0.123116 0.052405 0.011717
v 0.005997 0.052405 0.079335
v -0.111121 0.052405 0.011717
v 0.005997 1.006629 1.003573
v 0.923531 1.006629 0.473836
v 0.923531 1.006629 -0.585639
v -0.835787 1.620864 -0.529518
v -0.016710 1.551352 -1.003133
v -0.344986 1.988492 0.146738
v 0.005997 1.988492 0.349379
v 0.356981 1.988492 0.146738
v 0.356981 1.988492 -0.258541
v -0.119058 2.777537 -0.140391
v 0.027060 2.765136 -0.224882
v -0.835787 1.620864 0.417715
v -0.016710 1.551352 0.891331
v 0.802368 1.481840 0.417714
v 0.802368 1.481840 -0.529517
v -0.727977 2.238261 -0.457295
v -0.040574 2.078597 -0.858689
v -0.119058 2.777537 0.028590
v 0.027060 2.765136 0.113080
v 0.173179 2.752735 0.028590
v 0.173179 2.752735 -0.140391
v -0.052175 3.291484 -0.127173
v 0.071269 3.290309 -0.198444
v -0.727977 2.238261 0.345493
v -0.040574 2.078597 0.746887
v 0.646828 1.918934 0.345493
v 0.646828 1.918934 -0.457295
v -0.509777 2.875076 -0.373724
v 0.038622 2.801583 -0.691549
v -0.052175 3.291484 0.015371
v 0.071269 3.290309 0.086642
v 0.194713 3.289133 0.015371
v 0.194713 3.289133 -0.127173
v -0.048510 3.761141 -0.121471
v 0.065060 3.760580 -0.187041
v -0.509777 2.875076 0.261922
v 0.038622 2.801583 0.579746
v 0.587023 2.728089 0.261922
v 0.587023 2.728089 -0.373724
v -0.336202 3.517094 -0.287273
v 0.064545 3.515115 -0.518645
v -0.048510 3.761141 0.009669
v 0.065060 3.760580 0.075239
v 0.178630 3.760019 0.009669
v 0.178630 3.760019 -0.121471
v -0.336202 3.517094 0.175471
v 0.064545 3.515115 0.406843
v 0.465292 3.513136 0.175471
v 0.465292 3.513136 -0.287273
v 0.066483 4.438529 -0.055901
vt 0.097800 0.345800
vt 0.148300 0.345800
vt 0.148300 0.396400
vt 0.097800 0.396400
vt 0.097800 0.345800
vt 0.148300 0.345800
vt 0.148300 0.396400
vt 0.097800 0.396400
vt 0.345800 0.853600
vt 0.396400 0.853600
vt 0.396400 0.904200
vt 0.345800 0.904200
vt 0.345800 0.853600
vt 0.396400 0.853600
vt 0.396400 0.904200
vt 0.345800 0.904200
vt 0.345800 0.853600
vt 0.396400 0.853600
vt 0.396400 0.904200
vt 0.345800 0.904200
vt 0.345800 0.853600
vt 0.396400 0.853600
vt 0.396400 0.904200
vt 0.345800 0.904200
vt 0.345800 0.853600
vt 0.396400 0.853600
vt 0.396400 0.904200
vt 0.345800 0.904200
vt 0.345800 0.853600
vt 0.396400 0.853600
vt 0.396400 0.904200
vt 0.345800 0.904200
vt 0.097800 0.345800
vt 0.148300 0.345800
vt 0.148300 0.396400
vt 0.097800 0.396400
vt 0.371100 0.904200
vt 0.393000 0.891500
vt 0.393000 0.866300
vt 0.371100 0.853600
vt 0.349200 0.866300
vt 0.349200 0.891500
vt 0.097800 0.345800
vt 0.148300 0.345800
vt 0.148300 0.396400
vt 0.097800 0.396400
vt 0.097800 0.345800
vt 0.148300 0.345800
vt 0.148300 0.396400
vt 0.097800 0.396400
vt 0.097800 0.345800
vt 0.148300 0.345800
vt 0.148300 0.396400
vt 0.097800 0.396400
vt 0.097800 0.345800
vt 0.148300 0.345800
vt 0.148300 0.396400
vt 0.097800 0.396400
vt 0.097800 0.345800
vt 0.148300 0.345800
vt 0.148300 0.396400
vt 0.097800 0.396400
vt 0.097800 0.345800
vt 0.148300 0.345800
vt 0.148300 0.396400
vt 0.097800 0.396400
vt 0.097800 0.345800
vt 0.148300 0.345800
vt 0.148300 0.396400
vt 0.097800 0.396400
vt 0.097800 0.345800
vt 0.148300 0.345800
vt 0.148300 0.396400
vt 0.097800 0.396400
vt 0.097800 0.345800
vt 0.148300 0.345800
vt 0.148300 0.396400
vt 0.097800 0.396400
vt 0.097800 0.345800
vt 0.148300 0.345800
vt 0.148300 0.396400
vt 0.097800 0.396400
vt 0.097800 0.345800
vt 0.148300 0.345800
vt 0.148300 0.396400
vt 0.097800 0.396400
vt 0.097800 0.345800
vt 0.148300 0.345800
vt 0.148300 0.396400
vt 0.097800 0.396400
vt 0.097800 0.345800
vt 0.148300 0.345800
vt 0.148300 0.396400
vt 0.097800 0.396400
vt 0.097800 0.345800
vt 0.148300 0.345800
vt 0.148300 0.396400
vt 0.097800 0.396400
vt 0.097800 0.345800
vt 0.148300 0.345800
vt 0.148300 0.396400
vt 0.097800 0.396400
vt 0.097800 0.345800
vt 0.148300 0.345800
vt 0.148300 0.396400
vt 0.097800 0.396400
vt 0.097800 0.345800
vt 0.148300 0.345800
vt 0.148300 0.396400
vt 0.097800 0.396400
vt 0.097800 0.345800
vt 0.148300 0.345800
vt 0.148300 0.396400
vt 0.097800 0.396400
vt 0.097800 0.345800
vt 0.148300 0.345800
vt 0.148300 0.396400
vt 0.097800 0.396400
vt 0.097800 0.345800
vt 0.148300 0.345800
vt 0.148300 0.396400
vt 0.097800 0.396400
vt 0.097800 0.345800
vt 0.148300 0.345800
vt 0.148300 0.396400
vt 0.097800 0.396400
vt 0.097800 0.345800
vt 0.148300 0.345800
vt 0.148300 0.396400
vt 0.097800 0.396400
vt 0.097800 0.345800
vt 0.148300 0.345800
vt 0.148300 0.396400
vt 0.097800 0.396400
vt 0.097800 0.345800
vt 0.148300 0.345800
vt 0.148300 0.396400
vt 0.097800 0.396400
vt 0.097800 0.345800
vt 0.148300 0.345800
vt 0.148300 0.396400
vt 0.097800 0.396400
vt 0.097800 0.345800
vt 0.148300 0.345800
vt 0.148300 0.396400
vt 0.097800 0.396400
vt 0.097800 0.345800
vt 0.148300 0.345800
vt 0.148300 0.396400
vt 0.097800 0.396400
vt 0.097800 0.345800
vt 0.148300 0.345800
vt 0.148300 0.396400
vt 0.097800 0.396400
vt 0.097800 0.345800
vt 0.148300 0.345800
vt 0.148300 0.396400
vt 0.097800 0.396400
vt 0.097800 0.345800
vt 0.148300 0.345800
vt 0.148300 0.396400
vt 0.097800 0.396400
vt 0.097800 0.345800
vt 0.148300 0.345800
vt 0.148300 0.396400
vt 0.097800 0.396400
vt 0.097800 0.345800
vt 0.148300 0.345800
vt 0.148300 0.396400
vt 0.097800 0.396400
vt 0.097800 0.345800
vt 0.148300 0.345800
vt 0.148300 0.396400
vt 0.097800 0.396400
vt 0.097800 0.345800
vt 0.148300 0.345800
vt 0.148300 0.396400
vt 0.097800 0.396400
vt 0.097800 0.345800
vt 0.148300 0.345800
vt 0.148300 0.396400
vt 0.097800 0.396400
vt 0.097800 0.345800
vt 0.148300 0.345800
vt 0.148300 0.396400
vt 0.097800 0.396400
vt 0.097800 0.345800
vt 0.148300 0.345800
vt 0.148300 0.396400
vt 0.097800 0.396400
vt 0.097800 0.345800
vt 0.148300 0.345800
vt 0.148300 0.396400
vt 0.097800 0.396400
vt 0.097800 0.345800
vt 0.148300 0.345800
vt 0.148300 0.396400
vt 0.097800 0.396400
vt 0.097800 0.345800
vt 0.148300 0.345800
vt 0.148300 0.396400
vt 0.097800 0.396400
vt 0.097800 0.345800
vt 0.148300 0.345800
vt 0.148300 0.396400
vt 0.097800 0.396400
vt 0.097800 0.345800
vt 0.148300 0.345800
vt 0.148300 0.396400
vt 0.097800 0.396400
vt 0.097800 0.345800
vt 0.148300 0.345800
vt 0.148300 0.396400
vt 0.097800 0.396400
vt 0.097800 0.345800
vt 0.148300 0.345800
vt 0.148300 0.396400
vt 0.097800 0.396400
vt 0.097800 0.345800
vt 0.148300 0.345800
vt 0.148300 0.396400
vt 0.097800 0.396400
vt 0.097800 0.345800
vt 0.148300 0.345800
vt 0.148300 0.396400
vt 0.097800 0.396400
vt 0.097800 0.345800
vt 0.148300 0.345800
vt 0.148300 0.396400
vt 0.097800 0.396400
vt 0.097800 0.345800
vt 0.148300 0.345800
vt 0.148300 0.396400
vt 0.097800 0.396400
vt 0.097800 0.345800
vt 0.148300 0.345800
vt 0.148300 0.396400
vt 0.097800 0.396400
vt 0.097800 0.345800
vt 0.148300 0.345800
vt 0.148300 0.396400
vt 0.097800 0.396400
vt 0.097800 0.345800
vt 0.148300 0.345800
vt 0.148300 0.396400
vt 0.097800 0.396400
vt 0.097800 0.345800
vt 0.148300 0.345800
vt 0.148300 0.396400
vt 0.097800 0.345800
vt 0.148300 0.345800
vt 0.097800 0.345800
vt 0.148300 0.345800
vt 0.097800 0.345800
vt 0.148300 0.345800
vt 0.097800 0.345800
vt 0.148300 0.345800
vt 0.097800 0.345800
vt 0.148300 0.345800
vt 0.345800 0.853600
vt 0.396400 0.853600
vt 0.396400 0.904200
vt 0.345800 0.904200
vt 0.345800 0.853600
vt 0.396400 0.853600
vt 0.396400 0.904200
vt 0.345800 0.904200
vt 0.345800 0.853600
vt 0.396400 0.853600
vt 0.396400 0.904200
vt 0.345800 0.904200
vt 0.345800 0.853600
vt 0.396400 0.853600
vt 0.396400 0.904200
vt 0.345800 0.904200
vt 0.345800 0.853600
vt 0.396400 0.853600
vt 0.396400 0.904200
vt 0.345800 0.904200
vt 0.345800 0.853600
vt 0.396400 0.853600
vt 0.396400 0.904200
vt 0.345800 0.904200
vn 0.2348 -0.9720 -0.0000
vn -0.4331 0.4998 -0.7501
vn -0.5002 0.0299 -0.8654
vn -0.9982 0.0593 0.0000
vn -0.5002 0.0299 0.8654
vn 0.5002 -0.0301 0.8654
vn 0.9982 -0.0602 0.0000
vn 0.5002 -0.0301 -0.8654
vn 0.1174 -0.9720 0.2033
vn 0.0000 -1.0000 -0.0000
vn 0.1174 -0.9720 -0.2033
vn -0.1174 -0.9720 -0.2033
vn -0.2348 -0.9720 -0.0000
vn -0.1174 -0.9720 0.2033
vn 0.2874 -0.7652 0.5760
vn -0.8662 0.4998 0.0000
vn -0.4331 0.4998 0.7501
vn 0.4331 0.4998 0.7501
vn 0.8662 0.4998 0.0000
vn 0.4331 0.4998 -0.7501
vn -0.3995 0.5050 -0.7651
vn 0.5995 -0.8004 0.0000
vn 0.2874 -0.7652 -0.5760
vn -0.3903 -0.6950 -0.6039
vn -0.7511 -0.6602 0.0000
vn -0.3903 -0.6950 0.6039
vn 0.2610 -0.6774 0.6877
vn -0.8500 0.5267 0.0000
vn -0.3995 0.5050 0.7651
vn 0.4727 0.4635 0.7495
vn 0.8962 0.4437 0.0000
vn 0.4727 0.4635 -0.7495
vn -0.3700 0.4772 -0.7971
vn 0.6630 -0.7486 0.0000
vn 0.2610 -0.6774 -0.6877
vn -0.5023 -0.5509 -0.6665
vn -0.8695 -0.4939 0.0000
vn -0.5023 -0.5509 0.6665
vn 0.3005 -0.6958 0.6523
vn -0.8416 0.5400 0.0000
vn -0.3700 0.4772 0.7971
vn 0.5219 0.3646 0.7712
vn 0.9496 0.3133 0.0000
vn 0.5219 0.3646 -0.7712
vn -0.4137 0.4369 -0.7987
vn 0.6730 -0.7396 0.0000
vn 0.3005 -0.6958 -0.6523
vn -0.4460 -0.6126 -0.6525
vn -0.8195 -0.5730 0.0000
vn -0.4460 -0.6126 0.6525
vn 0.3213 -0.7614 0.5631
vn -0.8870 0.4618 0.0000
vn -0.4137 0.4369 0.7987
vn 0.4938 0.3901 0.7772
vn 0.9298 0.3680 0.0000
vn 0.4938 0.3901 -0.7772
vn 0.6469 -0.7626 0.0000
vn 0.3213 -0.7614 -0.5631
vn -0.3284 -0.7589 -0.5623
vn -0.6526 -0.7577 0.0000
vn -0.3284 -0.7589 0.5623
vn -0.4569 0.3993 -0.7949
vn -0.9163 0.4004 0.0000
vn -0.4569 0.3993 0.7949
vn 0.4604 0.3969 0.7940
vn 0.9183 0.3958 0.0000
vn 0.4604 0.3969 -0.7940
vn 0.5035 0.0305 -0.8634
vn 0.9980 0.0625 0.0000
vn 0.5035 0.0305 0.8634
vn -0.5034 -0.0285 0.8636
vn -0.9985 -0.0546 0.0000
vn -0.5034 -0.0285 -0.8636
usemtl _trees_normal
s 1
f 1/1/1 2/2/1 3/3/1 4/4/1
f 5/5/2 4/6/2 6/7/2 7/8/2
f 8/9/3 9/10/3 1/11/3 10/12/3
f 9/13/4 11/14/4 2/15/4 1/16/4
f 11/17/5 12/18/5 13/19/5 2/20/5
f 12/21/6 14/22/6 15/23/6 13/24/6
f 14/25/7 16/26/7 17/27/7 15/28/7
f 16/29/8 8/30/8 10/31/8 17/32/8
f 10/33/9 1/34/9 4/35/9 5/36/9
f 18/37/10 19/38/10 20/39/10 21/40/10 22/41/10 23/42/10
f 2/43/11 13/44/11 24/45/11 3/46/11
f 13/47/12 15/48/12 25/49/12 24/50/12
f 15/51/13 17/52/13 26/53/13 25/54/13
f 17/55/14 10/56/14 5/57/14 26/58/14
f 7/59/15 6/60/15 27/61/15 28/62/15
f 4/63/16 3/64/16 29/65/16 6/66/16
f 3/67/17 24/68/17 30/69/17 29/70/17
f 24/71/18 25/72/18 31/73/18 30/74/18
f 25/75/19 26/76/19 32/77/19 31/78/19
f 26/79/20 5/80/20 7/81/20 32/82/20
f 28/83/21 27/84/21 33/85/21 34/86/21
f 6/87/22 29/88/22 35/89/22 27/90/22
f 29/91/23 30/92/23 36/93/23 35/94/23
f 30/95/24 31/96/24 37/97/24 36/98/24
f 31/99/25 32/100/25 38/101/25 37/102/25
f 32/103/26 7/104/26 28/105/26 38/106/26
f 34/107/27 33/108/27 39/109/27 40/110/27
f 27/111/28 35/112/28 41/113/28 33/114/28
f 35/115/29 36/116/29 42/117/29 41/118/29
f 36/119/30 37/120/30 43/121/30 42/122/30
f 37/123/31 38/124/31 44/125/31 43/126/31
f 38/127/32 28/128/32 34/129/32 44/130/32
f 40/131/33 39/132/33 45/133/33 46/134/33
f 33/135/34 41/136/34 47/137/34 39/138/34
f 41/139/35 42/140/35 48/141/35 47/142/35
f 42/143/36 43/144/36 49/145/36 48/146/36
f 43/147/37 44/148/37 50/149/37 49/150/37
f 44/151/38 34/152/38 40/153/38 50/154/38
f 46/155/39 45/156/39 51/157/39 52/158/39
f 39/159/40 47/160/40 53/161/40 45/162/40
f 47/163/41 48/164/41 54/165/41 53/166/41
f 48/167/42 49/168/42 55/169/42 54/170/42
f 49/171/43 50/172/43 56/173/43 55/174/43
f 50/175/44 40/176/44 46/177/44 56/178/44
f 52/179/45 51/180/45 57/181/45 58/182/45
f 45/183/46 53/184/46 59/185/46 51/186/46
f 53/187/47 54/188/47 60/189/47 59/190/47
f 54/191/48 55/192/48 61/193/48 60/194/48
f 55/195/49 56/196/49 62/197/49 61/198/49
f 56/199/50 46/200/50 52/201/50 62/202/50
f 58/203/51 57/204/51 63/205/51 64/206/51
f 51/207/52 59/208/52 65/209/52 57/210/52
f 59/211/53 60/212/53 66/213/53 65/214/53
f 60/215/54 61/216/54 67/217/54 66/218/54
f 61/219/55 62/220/55 68/221/55 67/222/55
f 62/223/56 52/224/56 58/225/56 68/226/56
f 57/227/57 65/228/57 69/229/57 63/230/57
f 65/231/58 66/232/58 70/233/58 69/234/58
f 66/235/59 67/236/59 71/237/59 70/238/59
f 67/239/60 68/240/60 72/241/60 71/242/60
f 68/243/61 58/244/61 64/245/61 72/246/61
f 64/247/62 63/248/62 73/249/62
f 63/250/63 69/251/63 73/249/63
f 69/252/64 70/253/64 73/249/64
f 70/254/65 71/255/65 73/249/65
f 71/256/66 72/257/66 73/249/66
f 72/258/67 64/259/67 73/249/67
f 20/260/68 19/261/68 8/262/68 16/263/68
f 21/264/69 20/265/69 16/266/69 14/267/69
f 22/268/70 21/269/70 14/270/70 12/271/70
f 23/272/71 22/273/71 12/274/71 11/275/71
f 18/276/72 23/277/72 11/278/72 9/279/72
f 19/280/73 18/281/73 9/282/73 8/283/73
