# Blender v2.82 (sub 7) OBJ File: ''
# www.blender.org
mtllib 8.mtl
o Rock_Type2_04_mesh_Cube.009
v -0.351508 -0.064223 0.033392
v -0.425797 0.108376 0.100588
v -0.443861 0.247075 -0.064239
v -0.190064 0.407690 0.186280
v -0.300482 0.331800 0.177023
v -0.030504 0.082334 0.326095
v 0.236834 -0.041726 -0.172352
v 0.163795 -0.027804 -0.362432
v 0.332372 0.123024 -0.258193
v -0.313987 -0.045851 -0.198227
v -0.269517 0.374553 -0.176576
v 0.094639 0.215916 -0.435437
v 0.222072 0.407026 -0.138267
v 0.366262 0.108376 -0.155025
v 0.305173 0.073718 0.136197
v 0.365775 0.063542 -0.074162
v 0.233929 0.276994 -0.343018
v 0.019232 -0.078321 0.268504
v -0.228678 -0.077897 0.227432
v -0.366252 0.123379 0.218947
v -0.012222 -0.080014 0.285835
v -0.084734 0.491676 0.002781
v 0.092266 0.300415 0.297528
v -0.319831 0.076713 0.245675
v -0.441962 0.249236 -0.078268
v 0.056107 -0.023066 -0.439024
v 0.164275 0.471864 -0.034825
v 0.161857 0.309659 0.260198
vt 0.212600 0.223100
vt 0.222500 0.253400
vt 0.254400 0.253400
vt 0.238400 0.258600
vt 0.261900 0.245000
vt 0.214900 0.217900
vt 0.222500 0.253400
vt 0.254400 0.253400
vt 0.264200 0.223100
vt 0.212600 0.223100
vt 0.254400 0.253400
vt 0.264200 0.223100
vt 0.211300 0.258600
vt 0.265500 0.204400
vt 0.265500 0.258600
vt 0.265500 0.258600
vt 0.211300 0.204400
vt 0.265500 0.204400
vt 0.222500 0.253400
vt 0.254400 0.253400
vt 0.264200 0.223100
vt 0.238400 0.258600
vt 0.261900 0.245000
vt 0.261900 0.217900
vt 0.238400 0.258600
vt 0.261900 0.245000
vt 0.261900 0.217900
vt 0.257600 0.212300
vt 0.238400 0.258600
vt 0.265500 0.231500
vt 0.211300 0.258600
vt 0.265500 0.204400
vt 0.265500 0.258600
vt 0.265500 0.258600
vt 0.211300 0.204400
vt 0.265500 0.204400
vt 0.261900 0.217900
vt 0.214900 0.245000
vt 0.261900 0.245000
vt 0.222500 0.253400
vt 0.254400 0.253400
vt 0.264200 0.223100
vt 0.212600 0.223100
vt 0.254400 0.253400
vt 0.264200 0.223100
vt 0.238400 0.258600
vt 0.261900 0.245000
vt 0.238400 0.204400
vt 0.264200 0.223100
vt 0.238400 0.204400
vt 0.261900 0.217900
vt 0.238400 0.204400
vt 0.214900 0.245000
vt 0.238400 0.204400
vt 0.212600 0.223100
vt 0.238400 0.204400
vt 0.222500 0.253400
vt 0.211300 0.204400
vt 0.211300 0.258600
vt 0.212600 0.223100
vt 0.214900 0.217900
vt 0.214900 0.245000
vt 0.238400 0.204400
vt 0.214900 0.245000
vt 0.214900 0.217900
vt 0.219200 0.212300
vt 0.211300 0.231500
vt 0.219200 0.250700
vt 0.257600 0.250700
vt 0.211300 0.204400
vt 0.211300 0.258600
vt 0.238400 0.204400
vt 0.214900 0.217900
vt 0.238400 0.258600
vt 0.212600 0.223100
vt 0.238400 0.204400
vt 0.222500 0.253400
vt 0.261900 0.217900
vt 0.214900 0.217900
vt 0.214900 0.245000
vn -0.9272 -0.3304 -0.1764
vn -0.2628 0.2693 0.9265
vn 0.7343 -0.5956 -0.3258
vn -0.5469 0.1007 -0.8311
vn 0.8724 0.4338 -0.2250
vn 0.5286 -0.8268 0.1923
vn 0.5754 -0.0805 -0.8139
vn -0.0139 0.8437 -0.5366
vn 0.8807 0.4121 0.2338
vn 0.0111 -0.9969 -0.0773
vn -0.8546 0.3473 0.3859
vn -0.2539 -0.2596 0.9317
vn 0.4830 -0.1591 0.8610
vn 0.1411 0.8670 0.4779
vn 0.1412 0.8670 0.4778
vn -0.7499 -0.4940 0.4399
vn -0.5685 0.8212 0.0495
usemtl color3
s 1
f 1/1/1 2/2/1 3/3/1
f 4/4/2 5/5/2 6/6/2
f 7/7/3 8/8/3 9/9/3
f 10/10/4 11/11/4 12/12/4
f 9/13/5 13/14/5 14/15/5
f 15/16/6 7/17/6 16/18/6
f 17/19/7 9/20/7 8/21/7
f 13/22/8 17/23/8 12/24/8
f 16/25/9 14/26/9 13/27/9
f 1/28/10 18/29/10 19/30/10
f 5/31/11 2/32/11 20/33/11
f 6/34/12 19/35/12 21/36/12
f 15/37/13 6/38/13 18/39/13
f 22/40/14 4/41/14 23/42/15
f 24/43/16 2/44/16 1/45/16
f 5/46/17 4/47/17 11/48/17
f 25/49/1 10/50/1 3/3/1
f 10/50/1 1/1/1 3/3/1
f 20/51/2 24/52/2 5/5/2
f 24/52/2 6/6/2 5/5/2
f 6/6/2 23/53/2 4/4/2
f 9/9/3 14/54/3 7/7/3
f 14/54/3 16/55/3 7/7/3
f 12/12/4 26/56/4 10/10/4
f 10/10/4 25/57/4 11/11/4
f 9/13/5 17/58/5 13/14/5
f 15/16/6 18/59/6 7/17/6
f 8/21/7 26/56/7 12/60/7
f 12/60/7 17/19/7 8/21/7
f 12/24/8 11/48/8 13/22/8
f 11/48/8 22/61/8 13/22/8
f 22/61/8 27/62/8 13/22/8
f 13/27/9 27/63/9 15/64/9
f 27/63/9 28/65/9 15/64/9
f 15/64/9 16/25/9 13/27/9
f 1/28/10 10/50/10 18/29/10
f 10/50/10 26/66/10 8/67/10
f 7/68/10 10/50/10 8/67/10
f 7/68/10 18/29/10 10/50/10
f 18/29/10 21/69/10 19/30/10
f 5/31/11 3/70/11 2/32/11
f 6/34/12 24/71/12 19/35/12
f 15/37/13 28/72/13 6/38/13
f 28/72/13 23/73/13 6/38/13
f 6/38/13 21/74/13 18/39/13
f 23/42/15 28/72/15 22/40/14
f 28/72/15 27/75/14 22/40/14
f 1/45/16 19/76/16 24/43/16
f 24/43/16 20/77/16 2/44/16
f 22/78/17 11/48/17 4/47/17
f 11/48/17 25/79/17 3/80/17
f 5/46/17 11/48/17 3/80/17
