# Blender v2.82 (sub 7) OBJ File: ''
# www.blender.org
mtllib 9.mtl
v -0.194895 0.580869 -0.018479
v -0.310729 0.598164 0.049139
v -0.278049 1.147851 0.049139
v -0.160931 1.147851 -0.018479
v -0.310729 0.598164 0.184376
v -0.278049 1.147851 0.184376
v -0.194895 0.580869 0.251994
v -0.160931 1.147851 0.251994
v -0.079059 0.563577 0.184376
v -0.043812 1.147851 0.184376
v -0.079059 0.563577 0.049139
v -0.043812 1.147851 0.049139
v -0.278049 0.000304 0.049139
v -0.160931 0.000304 -0.018479
v -0.043812 0.000304 0.049139
v -0.043812 0.000304 0.184376
v -0.160931 0.000304 0.251994
v -0.278049 0.000304 0.184376
v -0.811275 3.204192 -0.258717
v -0.811275 3.204192 0.492233
v -1.076694 3.118688 0.646496
v -1.076694 3.118688 -0.412979
v -0.160931 3.175663 -0.942716
v -0.511914 4.157526 -0.085881
v -0.160931 4.157526 -0.288522
v -0.160931 3.204193 -0.634192
v -0.160931 3.204192 0.867708
v -0.160931 3.175662 1.176232
v 0.489413 3.204192 0.492233
v 0.754833 3.232636 0.646496
v 0.489413 3.204192 -0.258717
v 0.754833 3.232636 -0.412979
v -1.002715 3.789897 -0.356858
v -0.183638 3.720386 -0.830474
v -0.511914 4.157526 0.319398
v -0.160931 4.157526 0.522038
v 0.190054 4.157526 0.319398
v 0.190054 4.157526 -0.085881
v -0.285986 4.946571 0.032269
v -0.139868 4.934170 -0.052222
v -1.002715 3.789897 0.590374
v -0.183638 3.720386 1.063990
v 0.635441 3.650872 0.590374
v 0.635441 3.650872 -0.356857
v -0.894905 4.407294 -0.284636
v -0.207501 4.247630 -0.686029
v -0.285986 4.946571 0.201249
v -0.139868 4.934170 0.285739
v 0.006252 4.921769 0.201249
v 0.006252 4.921769 0.032269
v -0.219103 5.460518 0.045487
v -0.095659 5.459343 -0.025784
v -0.894905 4.407294 0.518152
v -0.207501 4.247630 0.919546
v 0.479901 4.087967 0.518152
v 0.479901 4.087967 -0.284636
v -0.676704 5.044110 -0.201065
v -0.128306 4.970617 -0.518889
v -0.219103 5.460518 0.188030
v -0.095659 5.459343 0.259301
v 0.027786 5.458167 0.188030
v 0.027786 5.458167 0.045487
v -0.215437 5.930174 0.051189
v -0.101867 5.929614 -0.014381
v -0.676704 5.044110 0.434582
v -0.128306 4.970617 0.752405
v 0.420096 4.897123 0.434582
v 0.420096 4.897123 -0.201065
v -0.503130 5.686127 -0.114613
v -0.102382 5.684149 -0.345985
v -0.215437 5.930174 0.182328
v -0.101867 5.929614 0.247898
v 0.011702 5.929053 0.182328
v 0.011702 5.929053 0.051189
v -0.503130 5.686127 0.348130
v -0.102382 5.684149 0.579502
v 0.298364 5.682170 0.348130
v 0.298364 5.682170 -0.114613
v -0.100445 6.607563 0.116759
v -1.245462 2.685726 -0.510099
v -1.245462 2.685726 0.743615
v -0.160931 2.634285 1.370473
v 0.923601 2.582845 0.743615
v 0.923601 2.582845 -0.510099
v -0.160931 2.634285 -1.136956
v -0.160931 2.634285 -0.719012
v -0.884731 2.634285 -0.301127
v -0.884731 2.634285 0.534643
v -0.160931 2.634285 0.952528
v 0.562869 2.634285 0.534643
v 0.562869 2.634285 -0.301127
v -1.246850 1.953209 -0.510676
v -1.246850 1.953209 0.744192
v -0.160931 1.995716 1.371628
v 0.924989 2.038223 0.744192
v 0.924989 2.038223 -0.510676
v -0.160931 1.995717 -1.138112
v -0.882287 1.991682 0.576511
v -0.086545 1.961384 1.036264
v 0.709196 1.931086 0.576511
v 0.709196 1.931086 -0.342995
v -0.882287 1.991682 -0.342995
v -0.086545 1.961385 -0.802748
v -0.160931 1.188234 1.387143
v 0.939073 1.168051 0.751950
v 0.939073 1.168052 -0.518434
v -0.160931 1.188235 -1.153627
v -1.260934 1.208418 -0.518434
v -1.260934 1.208417 0.751951
vt 0.345800 0.853600
vt 0.396400 0.853600
vt 0.396400 0.904200
vt 0.345800 0.904200
vt 0.345800 0.853600
vt 0.396400 0.853600
vt 0.396400 0.904200
vt 0.345800 0.904200
vt 0.345800 0.853600
vt 0.396400 0.853600
vt 0.396400 0.904200
vt 0.345800 0.904200
vt 0.345800 0.853600
vt 0.396400 0.853600
vt 0.396400 0.904200
vt 0.345800 0.904200
vt 0.345800 0.853600
vt 0.396400 0.853600
vt 0.396400 0.904200
vt 0.345800 0.904200
vt 0.345800 0.853600
vt 0.396400 0.853600
vt 0.396400 0.904200
vt 0.345800 0.904200
vt 0.371100 0.904200
vt 0.393000 0.891500
vt 0.393000 0.866300
vt 0.371100 0.853600
vt 0.349200 0.866300
vt 0.349200 0.891500
vt 0.345800 0.853600
vt 0.396400 0.853600
vt 0.396400 0.904200
vt 0.345800 0.904200
vt 0.345800 0.853600
vt 0.396400 0.853600
vt 0.396400 0.904200
vt 0.345800 0.904200
vt 0.345800 0.853600
vt 0.396400 0.853600
vt 0.396400 0.904200
vt 0.345800 0.904200
vt 0.345800 0.853600
vt 0.396400 0.853600
vt 0.396400 0.904200
vt 0.345800 0.904200
vt 0.345800 0.853600
vt 0.396400 0.853600
vt 0.396400 0.904200
vt 0.345800 0.904200
vt 0.345800 0.853600
vt 0.396400 0.853600
vt 0.396400 0.904200
vt 0.345800 0.904200
vt 0.097800 0.345800
vt 0.148300 0.345800
vt 0.148300 0.396400
vt 0.097800 0.396400
vt 0.097800 0.345800
vt 0.148300 0.345800
vt 0.148300 0.396400
vt 0.097800 0.396400
vt 0.097800 0.345800
vt 0.148300 0.345800
vt 0.148300 0.396400
vt 0.097800 0.396400
vt 0.097800 0.345800
vt 0.148300 0.345800
vt 0.148300 0.396400
vt 0.097800 0.396400
vt 0.097800 0.345800
vt 0.148300 0.345800
vt 0.148300 0.396400
vt 0.097800 0.396400
vt 0.097800 0.345800
vt 0.148300 0.345800
vt 0.148300 0.396400
vt 0.097800 0.396400
vt 0.097800 0.345800
vt 0.148300 0.345800
vt 0.148300 0.396400
vt 0.097800 0.396400
vt 0.097800 0.345800
vt 0.148300 0.345800
vt 0.148300 0.396400
vt 0.097800 0.396400
vt 0.097800 0.345800
vt 0.148300 0.345800
vt 0.148300 0.396400
vt 0.097800 0.396400
vt 0.097800 0.345800
vt 0.148300 0.345800
vt 0.148300 0.396400
vt 0.097800 0.396400
vt 0.097800 0.345800
vt 0.148300 0.345800
vt 0.148300 0.396400
vt 0.097800 0.396400
vt 0.097800 0.345800
vt 0.148300 0.345800
vt 0.148300 0.396400
vt 0.097800 0.396400
vt 0.097800 0.345800
vt 0.148300 0.345800
vt 0.148300 0.396400
vt 0.097800 0.396400
vt 0.097800 0.345800
vt 0.148300 0.345800
vt 0.148300 0.396400
vt 0.097800 0.396400
vt 0.097800 0.345800
vt 0.148300 0.345800
vt 0.148300 0.396400
vt 0.097800 0.396400
vt 0.097800 0.345800
vt 0.148300 0.345800
vt 0.148300 0.396400
vt 0.097800 0.396400
vt 0.097800 0.345800
vt 0.148300 0.345800
vt 0.148300 0.396400
vt 0.097800 0.396400
vt 0.097800 0.345800
vt 0.148300 0.345800
vt 0.148300 0.396400
vt 0.097800 0.396400
vt 0.097800 0.345800
vt 0.148300 0.345800
vt 0.148300 0.396400
vt 0.097800 0.396400
vt 0.097800 0.345800
vt 0.148300 0.345800
vt 0.148300 0.396400
vt 0.097800 0.396400
vt 0.097800 0.345800
vt 0.148300 0.345800
vt 0.148300 0.396400
vt 0.097800 0.396400
vt 0.097800 0.345800
vt 0.148300 0.345800
vt 0.148300 0.396400
vt 0.097800 0.396400
vt 0.097800 0.345800
vt 0.148300 0.345800
vt 0.148300 0.396400
vt 0.097800 0.396400
vt 0.097800 0.345800
vt 0.148300 0.345800
vt 0.148300 0.396400
vt 0.097800 0.396400
vt 0.097800 0.345800
vt 0.148300 0.345800
vt 0.148300 0.396400
vt 0.097800 0.396400
vt 0.097800 0.345800
vt 0.148300 0.345800
vt 0.148300 0.396400
vt 0.097800 0.396400
vt 0.097800 0.345800
vt 0.148300 0.345800
vt 0.148300 0.396400
vt 0.097800 0.396400
vt 0.097800 0.345800
vt 0.148300 0.345800
vt 0.148300 0.396400
vt 0.097800 0.396400
vt 0.097800 0.345800
vt 0.148300 0.345800
vt 0.148300 0.396400
vt 0.097800 0.396400
vt 0.097800 0.345800
vt 0.148300 0.345800
vt 0.148300 0.396400
vt 0.097800 0.396400
vt 0.097800 0.345800
vt 0.148300 0.345800
vt 0.148300 0.396400
vt 0.097800 0.396400
vt 0.097800 0.345800
vt 0.148300 0.345800
vt 0.148300 0.396400
vt 0.097800 0.396400
vt 0.097800 0.345800
vt 0.148300 0.345800
vt 0.148300 0.396400
vt 0.097800 0.396400
vt 0.097800 0.345800
vt 0.148300 0.345800
vt 0.148300 0.396400
vt 0.097800 0.396400
vt 0.097800 0.345800
vt 0.148300 0.345800
vt 0.148300 0.396400
vt 0.097800 0.396400
vt 0.097800 0.345800
vt 0.148300 0.345800
vt 0.148300 0.396400
vt 0.097800 0.396400
vt 0.097800 0.345800
vt 0.148300 0.345800
vt 0.148300 0.396400
vt 0.097800 0.396400
vt 0.097800 0.345800
vt 0.148300 0.345800
vt 0.148300 0.396400
vt 0.097800 0.396400
vt 0.097800 0.345800
vt 0.148300 0.345800
vt 0.148300 0.396400
vt 0.097800 0.396400
vt 0.097800 0.345800
vt 0.148300 0.345800
vt 0.148300 0.396400
vt 0.097800 0.396400
vt 0.097800 0.345800
vt 0.148300 0.345800
vt 0.148300 0.396400
vt 0.097800 0.396400
vt 0.097800 0.345800
vt 0.148300 0.345800
vt 0.148300 0.396400
vt 0.097800 0.396400
vt 0.097800 0.345800
vt 0.148300 0.345800
vt 0.148300 0.396400
vt 0.097800 0.396400
vt 0.097800 0.345800
vt 0.148300 0.345800
vt 0.148300 0.396400
vt 0.097800 0.396400
vt 0.097800 0.345800
vt 0.148300 0.345800
vt 0.148300 0.396400
vt 0.097800 0.396400
vt 0.097800 0.345800
vt 0.148300 0.345800
vt 0.148300 0.396400
vt 0.097800 0.396400
vt 0.097800 0.345800
vt 0.148300 0.345800
vt 0.148300 0.396400
vt 0.097800 0.396400
vt 0.097800 0.345800
vt 0.148300 0.345800
vt 0.148300 0.396400
vt 0.097800 0.396400
vt 0.097800 0.345800
vt 0.148300 0.345800
vt 0.148300 0.396400
vt 0.097800 0.396400
vt 0.097800 0.345800
vt 0.148300 0.345800
vt 0.148300 0.396400
vt 0.097800 0.396400
vt 0.097800 0.345800
vt 0.148300 0.345800
vt 0.148300 0.396400
vt 0.097800 0.396400
vt 0.097800 0.345800
vt 0.148300 0.345800
vt 0.148300 0.396400
vt 0.097800 0.396400
vt 0.097800 0.345800
vt 0.148300 0.345800
vt 0.148300 0.396400
vt 0.097800 0.396400
vt 0.097800 0.345800
vt 0.148300 0.345800
vt 0.148300 0.396400
vt 0.097800 0.396400
vt 0.097800 0.345800
vt 0.148300 0.345800
vt 0.148300 0.396400
vt 0.097800 0.345800
vt 0.148300 0.345800
vt 0.097800 0.345800
vt 0.148300 0.345800
vt 0.097800 0.345800
vt 0.148300 0.345800
vt 0.097800 0.345800
vt 0.148300 0.345800
vt 0.097800 0.345800
vt 0.148300 0.345800
vt 0.097800 0.345800
vt 0.148300 0.345800
vt 0.097800 0.345800
vt 0.148300 0.345800
vt 0.097800 0.345800
vt 0.148300 0.345800
vt 0.097800 0.345800
vt 0.148300 0.345800
vt 0.097800 0.345800
vt 0.148300 0.345800
vt 0.097800 0.345800
vt 0.148300 0.345800
vt 0.097800 0.345800
vt 0.148300 0.345800
vt 0.097800 0.345800
vt 0.148300 0.345800
vt 0.097800 0.345800
vt 0.148300 0.345800
vt 0.097800 0.345800
vt 0.148300 0.345800
vt 0.097800 0.345800
vt 0.148300 0.345800
vt 0.097800 0.345800
vt 0.148300 0.345800
vt 0.097800 0.345800
vt 0.148300 0.345800
vt 0.097800 0.345800
vt 0.148300 0.345800
vt 0.097800 0.345800
vt 0.148300 0.345800
vt 0.097800 0.345800
vt 0.148300 0.345800
vt 0.097800 0.345800
vt 0.148300 0.345800
vt 0.097800 0.345800
vt 0.148300 0.345800
vt 0.097800 0.345800
vt 0.148300 0.345800
vt 0.097800 0.345800
vt 0.148300 0.345800
vt 0.097800 0.345800
vt 0.148300 0.345800
vt 0.097800 0.345800
vt 0.148300 0.345800
vt 0.097800 0.345800
vt 0.148300 0.345800
vt 0.097800 0.345800
vt 0.148300 0.345800
vt 0.097800 0.345800
vt 0.148300 0.345800
vt 0.097800 0.345800
vt 0.148300 0.345800
vt 0.097800 0.345800
vt 0.148300 0.345800
vt 0.097800 0.345800
vt 0.148300 0.345800
vt 0.097800 0.345800
vt 0.148300 0.345800
vt 0.097800 0.345800
vt 0.148300 0.345800
vt 0.097800 0.345800
vt 0.148300 0.345800
vt 0.097800 0.345800
vt 0.148300 0.345800
vt 0.097800 0.345800
vt 0.148300 0.345800
vt 0.097800 0.345800
vt 0.148300 0.345800
vt 0.097800 0.345800
vt 0.148300 0.345800
vt 0.097800 0.345800
vt 0.148300 0.345800
vn -0.5002 0.0299 -0.8654
vn -0.9982 0.0593 0.0000
vn -0.5002 0.0299 0.8654
vn 0.5002 -0.0301 0.8654
vn 0.9982 -0.0602 0.0000
vn 0.5002 -0.0301 -0.8654
vn 0.0000 -1.0000 -0.0000
vn 0.5035 0.0305 -0.8634
vn 0.9980 0.0625 0.0000
vn 0.5035 0.0305 0.8634
vn -0.5034 -0.0285 0.8636
vn -0.9985 -0.0546 0.0000
vn -0.5034 -0.0285 -0.8636
vn 0.3066 -0.9518 0.0000
vn -0.4531 0.4887 -0.7456
vn 0.1313 -0.9774 0.1656
vn 0.1313 -0.9774 -0.1656
vn 0.0272 -0.9995 -0.0158
vn 0.1066 -0.9943 0.0000
vn 0.0272 -0.9995 0.0158
vn 0.2874 -0.7652 0.5760
vn -0.8786 0.4776 0.0000
vn -0.4531 0.4887 0.7456
vn 0.4131 0.5105 0.7542
vn 0.8535 0.5212 0.0000
vn 0.4131 0.5105 -0.7542
vn -0.3995 0.5050 -0.7651
vn 0.5995 -0.8004 0.0000
vn 0.2874 -0.7652 -0.5760
vn -0.3903 -0.6950 -0.6039
vn -0.7511 -0.6602 0.0000
vn -0.3903 -0.6950 0.6039
vn 0.2610 -0.6774 0.6877
vn -0.8500 0.5267 0.0000
vn -0.3995 0.5050 0.7651
vn 0.4727 0.4635 0.7495
vn 0.8962 0.4437 0.0000
vn 0.4727 0.4635 -0.7495
vn -0.3700 0.4772 -0.7971
vn 0.6630 -0.7486 0.0000
vn 0.2610 -0.6774 -0.6877
vn -0.5023 -0.5509 -0.6665
vn -0.8695 -0.4939 0.0000
vn -0.5023 -0.5509 0.6665
vn 0.3005 -0.6958 0.6523
vn -0.8416 0.5400 0.0000
vn -0.3700 0.4772 0.7971
vn 0.5219 0.3646 0.7712
vn 0.9496 0.3133 0.0000
vn 0.5219 0.3646 -0.7712
vn -0.4137 0.4369 -0.7987
vn 0.6730 -0.7396 0.0000
vn 0.3005 -0.6958 -0.6523
vn -0.4460 -0.6126 -0.6525
vn -0.8195 -0.5730 0.0000
vn -0.4460 -0.6126 0.6525
vn 0.3213 -0.7614 0.5631
vn -0.8870 0.4618 0.0000
vn -0.4137 0.4369 0.7987
vn 0.4938 0.3901 0.7772
vn 0.9298 0.3680 0.0000
vn 0.4938 0.3901 -0.7772
vn 0.6469 -0.7626 0.0000
vn 0.3213 -0.7614 -0.5631
vn -0.3284 -0.7589 -0.5623
vn -0.6526 -0.7577 0.0000
vn -0.3284 -0.7589 0.5623
vn -0.4569 0.3993 -0.7948
vn -0.9163 0.4004 0.0000
vn -0.4569 0.3993 0.7949
vn 0.4604 0.3969 0.7940
vn 0.9183 0.3958 0.0000
vn 0.4604 0.3969 -0.7940
vn -0.7667 0.6420 0.0000
vn 0.4170 0.5898 0.6915
vn 0.4170 0.5898 -0.6915
vn -0.3768 0.6244 -0.6842
vn -0.3768 0.6244 0.6842
vn 0.8197 0.5728 0.0000
vn -0.0568 -0.9972 -0.0492
vn -0.0568 -0.9972 0.0492
vn -0.1412 -0.9900 0.0000
vn -0.8830 0.4695 0.0000
vn 0.4223 0.5066 0.7517
vn 0.4223 0.5066 -0.7517
vn -0.4468 0.4817 -0.7539
vn -0.4468 0.4817 0.7539
vn 0.8546 0.5192 0.0000
vn 0.0075 -1.0000 -0.0017
vn 0.4447 -0.8957 0.0000
vn 0.1049 -0.9945 0.0000
vn 0.1399 -0.9627 0.2314
vn 0.1399 -0.9627 -0.2314
vn 0.0075 -1.0000 0.0017
vn 0.4791 0.3275 0.8144
vn 0.4791 0.3275 -0.8144
vn -0.4502 0.4009 -0.7979
vn -0.4502 0.4009 0.7979
vn 0.9575 0.2885 0.0000
vn -0.9003 0.4352 0.0000
vn 0.0205 -0.9998 -0.0000
vn -0.0615 -0.9981 -0.0000
vn 0.0030 -0.9994 0.0338
vn 0.0030 -0.9994 -0.0338
vn -0.0381 -0.9986 -0.0372
vn -0.0381 -0.9986 0.0372
usemtl _trees_normal
s 1
f 1/1/1 2/2/1 3/3/1 4/4/1
f 2/5/2 5/6/2 6/7/2 3/8/2
f 5/9/3 7/10/3 8/11/3 6/12/3
f 7/13/4 9/14/4 10/15/4 8/16/4
f 9/17/5 11/18/5 12/19/5 10/20/5
f 11/21/6 1/22/6 4/23/6 12/24/6
f 13/25/7 14/26/7 15/27/7 16/28/7 17/29/7 18/30/7
f 15/31/8 14/32/8 1/33/8 11/34/8
f 16/35/9 15/36/9 11/37/9 9/38/9
f 17/39/10 16/40/10 9/41/10 7/42/10
f 18/43/11 17/44/11 7/45/11 5/46/11
f 13/47/12 18/48/12 5/49/12 2/50/12
f 14/51/13 13/52/13 2/53/13 1/54/13
f 19/55/14 20/56/14 21/57/14 22/58/14
f 23/59/15 22/60/15 24/61/15 25/62/15
f 26/63/16 19/64/16 22/65/16 23/66/16
f 20/67/17 27/68/17 28/69/17 21/70/17
f 27/71/18 29/72/18 30/73/18 28/74/18
f 29/75/19 31/76/19 32/77/19 30/78/19
f 31/79/20 26/80/20 23/81/20 32/82/20
f 25/83/21 24/84/21 33/85/21 34/86/21
f 22/87/22 21/88/22 35/89/22 24/90/22
f 21/91/23 28/92/23 36/93/23 35/94/23
f 28/95/24 30/96/24 37/97/24 36/98/24
f 30/99/25 32/100/25 38/101/25 37/102/25
f 32/103/26 23/104/26 25/105/26 38/106/26
f 34/107/27 33/108/27 39/109/27 40/110/27
f 24/111/28 35/112/28 41/113/28 33/114/28
f 35/115/29 36/116/29 42/117/29 41/118/29
f 36/119/30 37/120/30 43/121/30 42/122/30
f 37/123/31 38/124/31 44/125/31 43/126/31
f 38/127/32 25/128/32 34/129/32 44/130/32
f 40/131/33 39/132/33 45/133/33 46/134/33
f 33/135/34 41/136/34 47/137/34 39/138/34
f 41/139/35 42/140/35 48/141/35 47/142/35
f 42/143/36 43/144/36 49/145/36 48/146/36
f 43/147/37 44/148/37 50/149/37 49/150/37
f 44/151/38 34/152/38 40/153/38 50/154/38
f 46/155/39 45/156/39 51/157/39 52/158/39
f 39/159/40 47/160/40 53/161/40 45/162/40
f 47/163/41 48/164/41 54/165/41 53/166/41
f 48/167/42 49/168/42 55/169/42 54/170/42
f 49/171/43 50/172/43 56/173/43 55/174/43
f 50/175/44 40/176/44 46/177/44 56/178/44
f 52/179/45 51/180/45 57/181/45 58/182/45
f 45/183/46 53/184/46 59/185/46 51/186/46
f 53/187/47 54/188/47 60/189/47 59/190/47
f 54/191/48 55/192/48 61/193/48 60/194/48
f 55/195/49 56/196/49 62/197/49 61/198/49
f 56/199/50 46/200/50 52/201/50 62/202/50
f 58/203/51 57/204/51 63/205/51 64/206/51
f 51/207/52 59/208/52 65/209/52 57/210/52
f 59/211/53 60/212/53 66/213/53 65/214/53
f 60/215/54 61/216/54 67/217/54 66/218/54
f 61/219/55 62/220/55 68/221/55 67/222/55
f 62/223/56 52/224/56 58/225/56 68/226/56
f 64/227/57 63/228/57 69/229/57 70/230/57
f 57/231/58 65/232/58 71/233/58 63/234/58
f 65/235/59 66/236/59 72/237/59 71/238/59
f 66/239/60 67/240/60 73/241/60 72/242/60
f 67/243/61 68/244/61 74/245/61 73/246/61
f 68/247/62 58/248/62 64/249/62 74/250/62
f 63/251/63 71/252/63 75/253/63 69/254/63
f 71/255/64 72/256/64 76/257/64 75/258/64
f 72/259/65 73/260/65 77/261/65 76/262/65
f 73/263/66 74/264/66 78/265/66 77/266/66
f 74/267/67 64/268/67 70/269/67 78/270/67
f 70/271/68 69/272/68 79/273/68
f 69/274/69 75/275/69 79/273/69
f 75/276/70 76/277/70 79/273/70
f 76/278/71 77/279/71 79/273/71
f 77/280/72 78/281/72 79/273/72
f 78/282/73 70/283/73 79/273/73
f 20/56/74 19/55/74 80/284/74 81/285/74
f 29/72/75 27/71/75 82/286/75 83/287/75
f 26/80/76 31/79/76 84/288/76 85/289/76
f 19/64/77 26/63/77 85/290/77 80/291/77
f 27/68/78 20/67/78 81/292/78 82/293/78
f 31/76/79 29/75/79 83/294/79 84/295/79
f 80/291/80 85/290/80 86/296/80 87/297/80
f 82/293/81 81/292/81 88/298/81 89/299/81
f 84/295/82 83/294/82 90/300/82 91/301/82
f 81/285/82 80/284/82 87/302/82 88/303/82
f 83/287/80 82/286/80 89/304/80 90/305/80
f 85/289/81 84/288/81 91/306/81 86/307/81
f 88/303/83 87/302/83 92/308/83 93/309/83
f 90/305/84 89/304/84 94/310/84 95/311/84
f 86/307/85 91/306/85 96/312/85 97/313/85
f 87/297/86 86/296/86 97/314/86 92/315/86
f 89/299/87 88/298/87 93/316/87 94/317/87
f 91/301/88 90/300/88 95/318/88 96/319/88
f 94/317/89 93/316/89 98/320/89 99/321/89
f 96/319/90 95/318/90 100/322/90 101/323/90
f 93/309/91 92/308/91 102/324/91 98/325/91
f 95/311/92 94/310/92 99/326/92 100/327/92
f 97/313/93 96/312/93 101/328/93 103/329/93
f 92/315/94 97/314/94 103/330/94 102/331/94
f 100/327/95 99/326/95 104/332/95 105/333/95
f 103/329/96 101/328/96 106/334/96 107/335/96
f 102/331/97 103/330/97 107/336/97 108/337/97
f 99/321/98 98/320/98 109/338/98 104/339/98
f 101/323/99 100/322/99 105/340/99 106/341/99
f 98/325/100 102/324/100 108/342/100 109/343/100
f 106/341/101 105/340/101 10/344/101 12/345/101
f 109/343/102 108/342/102 3/346/102 6/347/102
f 105/333/103 104/332/103 8/348/103 10/349/103
f 107/335/104 106/334/104 12/350/104 4/351/104
f 108/337/105 107/336/105 4/352/105 3/353/105
f 104/339/106 109/338/106 6/354/106 8/355/106
